<svg xmlns="http://www.w3.org/2000/svg" width="212" height="211" viewBox="0 0 212 211" fill="none"><g clip-path="url(#clip0_1126_439)"><path d="M105.831 207.454C162.077 207.454 207.674 161.857 207.674 105.611C207.674 49.365 162.077 3.76855 105.831 3.76855C49.5851 3.76855 3.98865 49.365 3.98865 105.611C3.98865 161.857 49.5851 207.454 105.831 207.454Z" stroke="#3F5226" stroke-width="6.80258" stroke-miterlimit="10"></path><path d="M118.696 61.9023C118.696 61.9023 118.676 61.9904 118.656 62.0744C118.676 61.9904 118.696 61.9063 118.696 61.9023Z" fill="#3F5226"></path><path d="M118.656 62.0742C118.636 62.1583 118.616 62.2423 118.616 62.2463C118.616 62.2463 118.636 62.1583 118.656 62.0742Z" fill="#3F5226"></path><path d="M154.35 143.397C153.533 143.225 152.613 143.321 151.781 143.309C149.024 143.293 152.041 143.349 149.284 143.257C149.772 142.861 150.368 142.629 150.892 142.269C152.929 140.948 154.466 138.804 155.426 136.599C156.318 134.426 156.723 131.933 156.306 129.608C155.85 126.955 154.574 124.578 152.637 122.709C154.07 122.685 155.498 122.697 156.931 122.701C157.379 122.713 157.767 122.573 157.995 122.173C158.255 121.725 158.047 121.069 157.887 120.613C157.011 118.296 155.81 116.015 154.082 114.218C152.125 112.157 149.476 110.665 146.655 110.221C145.742 110.053 144.834 110.045 143.914 110.045C143.75 109.324 143.718 108.452 143.346 107.808C142.861 107.043 142.105 106.919 141.349 106.547C140.228 105.987 139.136 105.287 138.216 104.435C136.983 103.154 136.059 101.513 135.331 99.9008C133.894 96.9477 132.766 93.8305 131.445 90.8133C131.221 90.3372 130.849 89.953 130.521 89.5449C130.669 89.7769 130.845 90.013 130.933 90.2771C130.509 91.2375 130.269 92.2419 130.313 93.2943C130.469 94.7188 130.949 96.1233 131.433 97.4639C132.353 99.7967 133.494 102.078 134.626 104.302C134.762 104.991 134.698 105.731 134.798 106.431C135.122 109.152 135.198 111.889 135.15 114.626C134.418 115.159 133.83 115.907 133.25 116.595C131.645 118.764 130.097 120.885 128.104 122.725C126.983 123.778 125.727 124.694 124.478 125.591C122.974 126.655 121.229 127.395 119.44 127.819C118.468 128.011 117.428 128.031 116.439 128.007C113.142 127.999 109.849 127.991 106.552 128.035C105.735 128.043 104.923 128.039 104.107 128.031C102.478 128.011 100.849 127.971 99.2208 127.967C98.4045 127.967 97.5922 127.967 96.7759 127.987C97.024 127.611 97.2681 127.239 97.5002 126.859C97.7283 126.479 97.9443 126.087 98.1364 125.679C98.5526 124.798 98.6926 123.802 98.9527 122.837C99.5369 123.734 100.285 124.486 101.114 125.154C101.854 125.715 102.606 126.183 103.578 126.127C104.051 126.047 104.515 126.015 104.979 125.999C105.443 125.983 105.911 125.987 106.392 125.975C110.569 125.967 114.747 125.991 118.924 125.975C119.901 125.915 120.873 125.959 121.849 125.939C122.166 125.939 122.414 125.799 122.686 125.667C123.65 125.166 124.57 124.602 125.407 123.902C128.104 121.669 130.073 118.772 131.449 115.571C132.581 112.726 133.19 109.761 132.718 106.699C132.245 103.186 130.469 99.8448 129.612 96.3514C129.372 95.147 129.068 94.0426 129.068 92.8341C129.028 91.4576 129.068 90.1611 129.692 88.8966C129.884 88.5285 129.968 88.1323 130.017 87.7242L130.029 87.5841C131.149 88.0323 132.265 88.5045 133.418 88.8526C134.19 89.0687 135.11 89.2167 135.811 88.7245C136.259 88.4284 136.463 87.9643 136.463 87.4361C136.443 85.0111 136.495 82.5862 136.447 80.1653C136.503 79.0929 135.182 78.2046 134.194 78.4967C132.457 78.8368 130.785 79.7211 129.304 80.6695C127.812 81.5618 126.663 82.8223 125.179 83.7146C124.895 83.0904 124.222 82.6903 123.534 82.7623C123.098 82.8183 122.67 83.0464 122.266 83.2105C121.525 83.5506 120.809 83.8187 120.157 84.3069C120.077 83.8947 120.041 83.5186 119.737 83.1945C119.424 82.8023 119 82.6823 118.536 82.5502C116.347 81.99 114.114 81.5618 111.95 80.9016C111.457 77.9164 110.993 74.9313 110.513 71.9462C111.437 71.1419 112.362 70.3256 113.33 69.5693C113.194 68.9771 112.906 68.4609 112.59 67.9487C112.246 67.4005 111.978 66.8162 111.67 66.248C112.414 65.5197 113.098 64.7795 114.01 64.2473C114.895 64.6434 115.755 65.0316 116.751 64.8915C117.236 64.8555 117.688 64.6274 117.904 64.1752C118.084 63.7751 118.02 63.2469 118.096 62.8187C118.316 62.4786 118.408 62.2025 118.684 61.9064C118.828 61.3662 119.148 60.902 119.072 60.3898C119.068 60.3898 119.288 60.2097 119.509 60.0337C119.781 59.8136 119.861 59.4294 119.701 59.1173C119.232 58.221 118.532 57.8889 118.352 56.9045C119.16 56.8925 119.969 56.8965 120.777 56.9005C121.261 56.9085 121.821 56.7324 122.033 56.2562C122.354 55.632 121.901 54.8077 121.225 54.6836C120.613 54.5836 120.021 54.5996 119.408 54.6156C119.152 53.9794 118.98 53.3831 118.648 52.7989C117.924 51.5224 116.835 50.39 115.503 49.7458C114.134 49.0855 112.566 48.7894 111.057 49.0135C108.965 49.3056 107.028 50.5581 105.987 52.4108C104.535 54.7837 104.575 58.0409 106.251 60.2898C105.091 60.982 103.919 61.6463 102.746 62.3105C99.9971 64.0112 97.4602 66.0359 95.2993 68.4489C92.5103 71.478 90.5255 74.9873 88.9049 78.7448C88.7369 79.1809 88.5528 79.6051 88.3327 80.0172C83.955 80.0252 79.5694 80.0092 75.1877 80.0172C74.2754 80.0573 73.271 79.9092 72.4067 80.1493C71.7024 80.2974 71.4103 81.2737 71.7824 81.8499C72.0385 82.3141 72.4947 82.4382 72.9949 82.4462C75.4198 82.5102 77.8607 82.4342 80.2856 82.4742C86.62 82.4822 92.9625 82.4542 99.2929 82.4662C99.0167 82.9784 98.6886 83.7066 98.1404 83.9707C97.8123 84.0388 97.4602 84.0268 97.124 84.0308C93.9708 84.0228 90.8136 84.0388 87.6564 84.0228C87.3043 84.771 87.2803 85.6914 87.1442 86.5037C87.0362 87.8842 86.9522 89.3048 87.0682 90.6813C87.2563 92.3299 87.7405 94.0386 88.6568 95.4351C89.069 96.0713 89.5852 96.5875 90.1214 97.1157C89.4571 97.1477 88.7929 97.1717 88.1286 97.1037C85.9718 97.0637 83.791 97.0397 81.6462 96.7916C80.2616 96.6836 78.8851 96.5275 77.5006 96.3834C76.2201 96.2994 74.9116 96.0193 73.6311 96.0713C72.8908 96.0513 72.3346 96.7076 72.1386 97.3678C71.8344 98.3242 71.9305 99.4286 72.0585 100.413C72.1786 101.401 72.6708 102.182 73.227 102.982C69.0334 102.922 64.8478 102.926 60.6542 102.89C60.2781 102.866 59.9259 103.018 59.6498 103.266C59.2337 103.81 59.3377 104.783 60.002 105.091C60.4181 105.343 60.9583 105.239 61.4345 105.259C64.8878 105.279 68.3371 105.307 71.7904 105.319C71.2742 106.207 70.4899 106.971 69.8257 107.724C69.3975 108.244 68.9013 108.696 68.4732 109.216C67.5168 109.328 66.5685 109.192 65.6081 109.296C64.5877 109.344 63.7354 109.108 62.755 109.6C62.1628 109.913 62.0067 110.917 62.5469 111.349C62.803 111.597 63.0711 111.769 63.4393 111.749C65.456 111.729 67.4688 111.821 69.4816 111.737C69.7777 111.629 70.0138 111.445 70.2338 111.221C70.646 110.801 71.0782 110.409 71.4423 109.957C71.9425 109.324 72.5427 108.792 73.0629 108.18C73.9232 107.272 74.7756 106.375 75.7959 105.639C76.9004 105.651 78.0008 105.779 79.1052 105.755C79.7654 105.695 80.3937 105.831 81.0539 105.831C82.2904 105.843 83.5229 105.771 84.7633 105.823C90.4895 105.843 96.2197 105.803 101.946 105.863C101.554 106.359 100.985 106.607 100.521 107.051C99.2688 108.076 98.2204 109.372 97.4682 110.801C97.096 111.593 96.8479 112.45 96.5918 113.282C96.3877 113.034 96.1757 112.79 95.9556 112.554C95.5154 112.085 95.0472 111.649 94.5511 111.241C94.0549 110.837 93.5307 110.465 92.9865 110.125C92.4423 109.785 91.874 109.48 91.2938 109.212C91.0017 109.076 90.7056 108.952 90.4055 108.832C88.3647 108.056 86.1759 107.636 83.991 107.592C82.4585 107.456 80.8699 107.684 79.3573 107.936C78.8411 108.024 78.3329 108.136 77.8367 108.276C77.3365 108.416 76.8483 108.576 76.3682 108.76C75.4038 109.128 74.4714 109.584 73.5631 110.097C72.5707 110.649 71.6144 111.269 70.69 111.937C70.3819 112.161 70.0818 112.39 69.7817 112.622C69.2695 113.022 68.6973 113.034 68.073 113.038C67.1607 113.014 66.2563 113.09 65.34 113.03C62.3949 113.102 59.4337 113.03 56.4846 113.042C54.0637 113.058 51.6348 113.042 49.2139 113.066C48.2575 113.086 47.7653 114.406 48.4816 115.051C48.9218 115.551 49.542 115.447 50.1502 115.503C54.4278 115.503 58.8495 115.507 63.1231 115.503C64.2676 115.563 65.36 115.451 66.4924 115.615C66.2563 116.051 66.0002 116.471 65.7361 116.891C64.6077 116.935 63.4793 116.891 62.3509 116.931C60.5542 116.979 58.7535 116.863 56.9488 116.963C56.4406 117.023 55.9964 117.499 55.9724 118.012C55.9124 118.604 56.3446 119.28 56.9568 119.356C57.6131 119.428 58.2893 119.372 58.9496 119.364C58.7575 119.74 58.5374 120.1 58.3253 120.465C54.1597 120.537 49.9902 120.485 45.8206 120.513C45.1643 120.533 44.4921 120.453 43.8398 120.521C43.1276 120.633 42.6674 121.353 42.8515 122.045C43.0755 122.497 43.5637 122.978 44.1119 122.926C48.7497 122.966 53.3875 122.926 58.0252 122.954C59.1656 122.962 60.2981 122.926 61.4385 123.006C60.4741 124.606 59.5058 126.207 58.5654 127.827C58.2053 128.472 57.549 129.22 57.7571 130C57.9492 130.492 58.4094 130.805 58.9456 130.784C61.8347 130.841 64.7277 130.804 67.6168 130.792C67.6649 131.373 67.6849 131.953 67.7249 132.537C67.7929 133.089 67.929 133.634 68.009 134.186C67.2567 134.214 66.5044 134.23 65.7521 134.226C61.5786 134.21 57.405 134.238 53.2314 134.234C52.5591 134.202 51.9629 134.798 52.0229 135.474C52.0309 136.111 52.6232 136.627 53.2434 136.639C56.5366 136.667 59.8299 136.659 63.1271 136.651C65.0599 136.651 66.9926 136.675 68.9253 136.635C69.8657 138.479 70.9461 140.16 72.5667 141.481C73.383 142.233 74.3434 142.681 75.2757 143.257C72.2546 143.361 76.9204 143.281 73.8992 143.309C70.4499 143.309 72.7588 143.337 69.3095 143.325C68.8493 143.297 68.4332 143.549 68.1651 143.909C67.7649 144.642 68.097 145.622 68.8653 145.95C69.2535 146.046 69.6856 145.998 70.0818 146.01C82.0263 146.03 80.5337 146.002 92.4823 146.022C99.709 146.014 106.884 146.006 114.11 146.022C129.04 146.002 138.224 146.018 153.153 146.006C153.513 145.994 153.942 146.026 154.274 145.866C154.754 145.67 155.054 145.11 155.114 144.618C155.082 144.126 154.762 143.633 154.334 143.393L154.35 143.397ZM79.5694 103.078C78.9051 103.514 78.0208 102.826 78.0328 102.106C78.0968 101.705 78.4009 101.353 78.7771 101.217C79.0092 101.121 79.2332 101.161 79.4613 101.241C80.1456 101.577 80.2816 102.694 79.5654 103.078H79.5694ZM87.1923 102.666C86.8961 103.374 85.9158 103.366 85.4956 102.778C85.0434 102.238 85.3356 101.521 85.9158 101.233C86.7361 100.825 87.5564 101.918 87.1923 102.666ZM99.5209 102.422C99.4009 103.226 98.2645 103.498 97.7723 102.854C97.3201 102.31 97.4962 101.545 98.1284 101.245C98.8767 100.941 99.657 101.653 99.5209 102.418V102.422ZM129.816 83.5226C131.113 82.5022 132.461 81.7579 134.034 81.2457C134.058 82.082 134.034 82.9183 134.058 83.7547C134.078 84.619 134.078 85.4833 134.038 86.3476C132.75 86.0275 131.477 85.6594 130.221 85.2352C129.632 85.0311 129.024 84.9391 128.452 84.687C128.916 84.3069 129.344 83.8867 129.82 83.5226H129.816ZM105.195 82.7103C105.243 82.7303 105.291 82.7583 105.339 82.7823C105.567 83.7707 105.835 84.8111 106.255 85.7394C106.544 86.3757 107.108 86.7598 107.792 86.8718C110.213 87.38 112.658 87.8002 115.091 88.2604C116.127 88.3844 117.18 88.7285 118.224 88.7245C119.06 88.6645 119.489 88.1403 119.961 87.5241C120.725 87.8122 121.513 87.9362 122.322 88.0363C122.498 88.5645 122.694 89.1687 123.178 89.5008C123.706 89.873 124.514 89.7089 125.023 89.3768C125.995 88.6285 126.799 87.7682 127.596 86.8438C127.203 87.8322 126.767 88.7646 126.583 89.821C126.291 91.5256 126.315 93.2943 126.595 95.0029C127.063 98.1321 128.276 100.717 129.22 103.69C129.88 105.467 130.265 107.32 130.261 109.216C130.089 112.209 129.04 115.055 127.42 117.563C126.891 118.42 126.315 119.208 125.619 119.936C125.147 120.557 124.546 121.021 123.994 121.561C123.27 122.205 122.462 122.701 121.613 123.166C121.425 122.441 121.021 122.101 120.341 121.845C117.62 121.025 114.903 120.12 112.274 119.036C112.574 117.64 112.87 116.251 113.266 114.874C114.371 115.003 115.491 115.351 116.599 115.307C116.767 115.071 116.96 114.87 117.028 114.582C118.284 108.904 119.773 103.282 121.105 97.6239C121.309 96.7556 121.429 95.9033 121.217 95.0189C121.009 94.0826 120.349 93.4343 119.537 92.9862C116.559 91.3215 113.034 90.5732 109.797 89.6009C107.668 88.9966 105.323 88.4404 103.687 86.8478C104.095 85.4433 104.675 84.0788 105.195 82.7103ZM99.5369 113.458C99.8571 112.105 100.573 110.901 101.518 109.893C102.762 108.536 104.311 107.672 105.971 106.927C106.924 106.475 106.864 105.171 106.011 104.659C105.615 104.35 105.219 104.426 104.751 104.435C104.475 104.094 104.151 103.818 103.819 103.538C103.763 103.294 103.983 103.246 104.123 103.098C104.623 102.726 105.007 102.17 105.311 101.629C105.839 100.545 105.683 99.3806 105.223 98.3042C107.516 98.6883 109.821 98.8964 112.134 99.1445C111.954 99.7647 111.698 100.353 111.445 100.949C110.885 102.262 110.381 103.598 109.825 104.915C108.933 107.376 107.844 109.765 106.964 112.225C106.908 112.506 106.672 112.934 106.928 113.158C107.436 113.594 108.02 113.63 108.664 113.654C108.412 114.366 108.176 115.091 107.876 115.783C107.716 116.227 107.24 116.307 106.92 116.683C106.516 117.179 106.292 117.852 106.063 118.448C105.699 119.436 105.763 120.381 105.763 121.413C105.791 122.173 105.759 122.93 105.755 123.69C104.975 123.734 104.291 123.866 103.578 123.462C101.898 122.545 100.593 120.877 99.8691 119.124C99.2168 117.335 99.0528 115.307 99.5289 113.454L99.5369 113.458ZM139.288 108.464C139.8 108.776 140.444 108.944 140.897 109.336C141.177 109.636 141.245 110.157 141.345 110.545C141.093 110.573 140.829 110.597 140.581 110.653C139.316 111.073 138.208 111.601 137.051 112.261C136.775 110.725 136.775 109.112 136.751 107.556C136.743 107.244 136.707 106.939 136.691 106.627C137.547 107.244 138.376 107.928 139.284 108.464H139.288ZM133.854 121.061C134.37 119.928 134.998 118.824 135.771 117.848C136.551 116.899 137.307 115.907 138.156 115.019C139.68 113.702 141.625 112.862 143.634 112.698C144.554 112.558 145.418 112.722 146.331 112.838C149.284 113.422 151.905 115.375 153.493 117.912C153.902 118.588 154.342 119.288 154.618 120.028C153.525 119.888 152.441 119.744 151.349 119.6C149.956 119.532 148.492 119.424 147.111 119.628C146.279 119.844 145.398 120.116 144.686 120.617C143.33 121.489 142.181 122.661 140.845 123.582C139.068 124.95 137.215 126.099 134.966 126.483C133.67 126.779 132.441 126.659 131.121 126.711C132.013 124.818 132.95 122.95 133.85 121.061H133.854ZM61.2784 120.441C61.4745 120.128 61.6626 119.816 61.8787 119.52C62.4029 119.512 62.9231 119.536 63.4473 119.528C63.2592 119.832 63.0711 120.132 62.8871 120.437C62.3509 120.513 61.8186 120.469 61.2784 120.441ZM67.0046 128.003C65.1799 128.059 63.3552 127.907 61.5385 128.011C61.7586 127.619 62.0107 127.247 62.2628 126.875C63.1191 125.559 63.8794 124.182 64.7598 122.882C65.0719 122.413 65.34 121.889 65.7241 121.493C66.0362 121.169 66.3123 120.813 66.5724 120.453C67.1607 119.532 67.8049 118.656 68.5012 117.82C70.4339 115.371 72.9028 113.45 75.6519 111.993C78.3849 110.653 81.4221 109.973 84.4632 110.209C86.38 110.337 88.2287 110.709 89.9453 111.605C90.7096 112.001 91.5819 112.434 92.1501 113.09C92.2862 113.102 92.4263 113.118 92.5623 113.13C92.8784 113.394 93.1945 113.654 93.4987 113.93C94.8832 115.179 95.8555 116.883 96.3117 118.68C96.7119 120.565 96.6278 122.657 95.8435 124.438C94.9912 126.299 93.2105 127.839 91.1058 127.939C89.3091 128.055 87.4964 127.995 85.6997 128.007C79.4413 128.027 73.243 127.987 67.0046 128.007V128.003ZM132.822 143.317C123.346 143.337 113.87 143.317 104.395 143.329C99.9651 143.325 95.5354 143.349 91.1097 143.309C89.4571 143.353 87.7965 143.309 86.1439 143.269C86.512 142.953 86.9362 142.781 87.3363 142.521C88.6648 141.713 89.9413 140.652 90.8176 139.356C92.1301 137.707 93.0425 135.658 93.3866 133.578C95.0632 133.53 96.6799 133.462 98.3245 133.105C99.4009 132.885 100.609 132.613 101.53 131.989C101.974 131.693 102.186 131.209 102.562 130.865C103.162 130.772 103.791 130.849 104.395 130.837C108.772 130.837 113.15 130.857 117.528 130.825C120.453 130.837 123.31 129.664 125.699 128.035C126.499 127.455 127.279 126.855 128.092 126.295C127.836 126.963 127.367 127.643 127.432 128.376C127.488 128.892 127.88 129.34 128.416 129.344C129.436 129.388 130.457 129.328 131.477 129.376C130.777 132.977 131.969 136.935 134.25 139.772C135.403 141.34 137.043 142.401 138.76 143.257C136.779 143.337 134.806 143.349 132.822 143.321V143.317ZM148.315 134.294C147.667 135.27 146.691 136.01 145.562 136.331C144.142 136.779 142.557 136.547 141.265 135.838C139.504 134.89 138.488 132.725 138.784 130.764C139.024 129.36 139.848 128.019 141.021 127.195C141.521 128.68 141.929 130.208 142.497 131.669C142.749 132.305 143.049 132.925 143.622 133.333C144.01 133.586 144.554 133.614 145.002 133.57C145.622 133.482 145.999 133.109 146.467 132.749C146.567 131.993 146.759 131.281 146.823 130.528C146.931 129.448 146.907 128.384 147.107 127.315C147.791 128.143 148.387 129.008 148.768 130.02C149.196 131.445 149.08 132.997 148.315 134.286V134.294Z" fill="#3F5226"></path><path d="M63.0711 76.6843C63.5553 77.0285 64.2635 76.8244 64.8398 76.8444C71.5383 76.8564 78.2368 76.8484 84.9314 76.8444C85.2235 76.8364 85.5076 76.8204 85.7797 76.6963C86.3079 76.4402 86.624 75.74 86.3479 75.1958C86.0958 74.6996 85.6476 74.4195 85.0834 74.4515C78.3369 74.4395 71.5863 74.4515 64.8398 74.4435C64.3156 74.4515 63.7593 74.3715 63.2712 74.5635C62.711 74.7276 62.3228 75.3438 62.4549 75.916C62.5269 76.2562 62.779 76.5003 63.0671 76.6763L63.0711 76.6843Z" fill="#3F5226"></path><path d="M59.7458 82.6107C60.318 82.6107 60.8502 82.3746 61.1263 81.8504C61.3344 81.3302 60.9582 80.7459 60.514 80.4858C60.1699 80.2658 59.7097 80.3458 59.3096 80.3338C58.9094 80.5899 58.4693 80.7339 58.4173 81.2781C58.2892 82.0264 59.0295 82.6747 59.7458 82.6107Z" fill="#3F5226"></path><path d="M134.058 83.755C134.038 82.9187 134.058 82.0824 134.034 81.2461C132.461 81.7583 131.109 82.5026 129.816 83.523C131.209 83.551 132.697 83.4309 134.058 83.755Z" fill="white"></path><path d="M134.038 86.3441C134.078 85.4798 134.078 84.6155 134.058 83.7511C132.698 83.427 131.209 83.5431 129.817 83.5191C129.34 83.8872 128.912 84.3074 128.448 84.6835C129.02 84.9356 129.628 85.0276 130.217 85.2317C131.473 85.6559 132.746 86.024 134.034 86.3441H134.038Z" fill="#93B74C"></path><path d="M129.076 92.8343C129.076 94.0427 129.38 95.1471 129.62 96.3516C130.477 99.8449 132.253 103.186 132.725 106.7C133.198 109.761 132.589 112.726 131.457 115.571C130.084 118.772 128.112 121.669 125.415 123.902C124.582 124.602 123.658 125.167 122.694 125.667C122.422 125.803 122.173 125.943 121.857 125.939C120.881 125.959 119.909 125.915 118.932 125.975C120.105 126.039 121.277 125.923 122.45 126.015C122.089 126.347 121.729 126.567 121.229 126.623C119.753 126.795 118.24 126.775 116.751 126.759C115.151 126.755 113.558 126.759 111.962 126.727C109.437 126.675 107.104 126.891 104.587 126.463C104.235 126.391 103.919 126.259 103.586 126.135C102.618 126.191 101.862 125.723 101.121 125.163C100.293 124.494 99.5409 123.738 98.9606 122.846C98.6965 123.81 98.5605 124.806 98.1443 125.687C97.9523 126.095 97.7362 126.487 97.5081 126.867C97.28 127.247 97.0359 127.623 96.7838 127.996C97.6001 127.976 98.4124 127.972 99.2287 127.976C100.857 127.984 102.486 128.024 104.115 128.04C104.927 128.048 105.743 128.052 106.56 128.044C109.857 128 113.15 128.008 116.447 128.016C117.436 128.04 118.476 128.016 119.448 127.828C121.237 127.403 122.982 126.663 124.486 125.599C125.735 124.702 126.987 123.786 128.112 122.734C130.104 120.893 131.653 118.772 133.258 116.603C133.838 115.911 134.422 115.167 135.158 114.635C135.21 111.893 135.13 109.16 134.806 106.439C134.706 105.735 134.77 104.995 134.634 104.311C133.498 102.082 132.361 99.8009 131.441 97.472C130.961 96.1275 130.477 94.723 130.321 93.3024C130.281 92.25 130.517 91.2417 130.941 90.2853C130.853 90.0212 130.677 89.7851 130.529 89.553C130.365 89.3209 130.164 89.0808 130.072 88.8087C129.996 88.4646 130.012 88.0845 130.032 87.7363C129.984 88.1445 129.896 88.5406 129.708 88.9088C129.084 90.1693 129.04 91.4657 129.084 92.8463L129.076 92.8343Z" fill="#93B74C"></path><path d="M104.115 128.036C102.486 128.016 100.857 127.976 99.2288 127.972C100.857 127.98 102.486 128.02 104.115 128.036Z" fill="#93B74C"></path><path d="M57.577 90.3377C58.0892 90.3817 58.6134 90.3497 59.1256 90.3537C66.3363 90.3737 73.5431 90.3537 80.7538 90.3617C81.278 90.3497 81.9262 90.4337 82.3984 90.1816C82.9146 89.9295 83.2267 89.1973 82.8986 88.6851C82.6305 88.2649 82.2024 87.9728 81.6862 88.0128C74.1073 88.0128 66.5524 88.0208 58.9776 88.0008C58.4333 88.0088 57.8131 87.9048 57.2889 88.0688C56.8287 88.2449 56.4326 88.7651 56.4926 89.2733C56.5486 89.8175 57.0528 90.2617 57.577 90.3377Z" fill="#3F5226"></path><path d="M51.8629 96.1718C52.8313 96.1598 53.8037 96.1718 54.772 96.1398C55.1962 96.1278 55.5243 95.7996 55.7364 95.4595C56.0965 94.8233 55.6083 93.9149 54.8881 93.8309C54.4519 93.7909 54.0037 93.8469 53.5636 93.8429C52.8633 93.8909 52.087 93.7348 51.4068 93.9069C50.7185 94.119 50.3744 94.9913 50.8065 95.5836C51.0786 95.8877 51.4268 96.1958 51.8629 96.1678V96.1718Z" fill="#3F5226"></path><path d="M57.8011 93.9381C57.0208 94.1782 56.8367 95.1306 57.3129 95.7308C57.649 96.215 58.4173 96.235 58.9215 96.0549C59.2616 95.8388 59.6538 95.4387 59.6738 95.0145C59.6338 94.5743 59.3137 94.1422 58.9175 93.9501C58.5574 93.8701 58.1652 93.8901 57.8011 93.9421V93.9381Z" fill="#3F5226"></path><path d="M79.4653 101.241C79.2372 101.161 79.0131 101.117 78.781 101.217C78.4049 101.357 78.1008 101.705 78.0367 102.105C78.0247 102.826 78.9051 103.514 79.5733 103.078C80.2896 102.69 80.1535 101.577 79.4693 101.241H79.4653Z" fill="#93B74C"></path><path d="M85.9157 101.234C85.3315 101.522 85.0394 102.238 85.4956 102.779C85.9157 103.367 86.9001 103.375 87.1922 102.667C87.5604 101.918 86.736 100.826 85.9157 101.234Z" fill="#93B74C"></path><path d="M98.1283 101.25C97.4961 101.55 97.32 102.314 97.7722 102.859C98.2644 103.503 99.4008 103.231 99.5208 102.426C99.6569 101.662 98.8766 100.946 98.1283 101.254V101.25Z" fill="#93B74C"></path><path d="M54.4919 102.878C53.9797 102.862 53.4595 102.93 53.1273 103.362C52.6992 103.883 52.8432 104.687 53.4355 105.015C53.9356 105.335 54.3998 105.211 54.956 105.203C55.6403 105.159 56.3806 105.275 57.0528 105.123C57.445 104.891 57.8651 104.471 57.8291 103.979C57.7331 103.338 57.1449 102.894 56.5126 102.874C55.8404 102.846 55.1681 102.902 54.4919 102.874V102.878Z" fill="#3F5226"></path><path d="M68.089 113.038C68.7133 113.038 69.2855 113.026 69.7977 112.621C70.0978 112.389 70.3979 112.161 70.706 111.937C71.6264 111.269 72.5867 110.649 73.5791 110.096C73.8672 109.504 74.3194 109.088 74.7996 108.656C75.4918 108.06 76.2121 107.487 76.9404 106.931C77.6206 106.407 78.3689 106.163 79.1172 105.751C78.0128 105.771 76.9124 105.647 75.8079 105.635C74.7876 106.371 73.9352 107.263 73.0749 108.176C72.5547 108.788 71.9505 109.32 71.4543 109.952C71.0862 110.401 70.658 110.797 70.2458 111.217C70.0258 111.441 69.7897 111.625 69.4936 111.733C69.3255 111.801 69.1574 111.869 68.9894 111.937C68.8893 112.249 68.8653 112.789 68.5452 112.954C67.5008 113.09 66.4124 112.954 65.36 113.034C66.2763 113.094 67.1807 113.018 68.093 113.042L68.089 113.038Z" fill="#93B74C"></path><path d="M74.7996 108.657C74.3194 109.089 73.8672 109.505 73.5791 110.097C74.4874 109.581 75.4198 109.129 76.3842 108.761C76.8643 108.577 77.3565 108.413 77.8527 108.276C78.3529 108.136 78.8571 108.024 79.3733 107.936C80.8859 107.684 82.4745 107.456 84.0071 107.592C86.1919 107.636 88.3767 108.056 90.4215 108.833C90.7216 108.949 91.0177 109.077 91.3098 109.213C91.894 109.481 92.4583 109.789 93.0025 110.125C93.5467 110.465 94.0709 110.833 94.5671 111.242C95.0632 111.646 95.5354 112.082 95.9716 112.554C96.1917 112.79 96.4038 113.03 96.6078 113.282C96.8639 112.45 97.108 111.594 97.4842 110.801C98.2404 109.369 99.2848 108.076 100.537 107.052C101.001 106.612 101.57 106.36 101.962 105.864C96.2357 105.804 90.5055 105.844 84.7793 105.824C83.5429 105.772 82.3064 105.844 81.0699 105.832C80.4097 105.832 79.7814 105.696 79.1212 105.756C78.3729 106.172 77.6246 106.412 76.9444 106.936C76.2161 107.492 75.4958 108.064 74.8036 108.661L74.7996 108.657Z" fill="#93B74C"></path><path d="M92.9984 110.124C92.4542 109.784 91.886 109.48 91.3058 109.212C91.89 109.48 92.4542 109.788 92.9984 110.124Z" fill="#93B74C"></path><path d="M95.9675 112.55C95.5274 112.082 95.0592 111.645 94.563 111.237C95.0592 111.641 95.5314 112.078 95.9675 112.55Z" fill="#93B74C"></path><path d="M137.227 107.587C137.939 108.336 138.792 108.904 139.56 109.58C139.92 109.892 140.312 110.148 140.692 110.44L140.58 110.652C140.829 110.592 141.093 110.572 141.345 110.544C141.245 110.156 141.177 109.636 140.897 109.336C140.444 108.944 139.8 108.772 139.288 108.464C138.38 107.927 137.551 107.243 136.695 106.627C136.707 106.935 136.747 107.243 136.755 107.555C136.911 107.567 137.071 107.575 137.227 107.587Z" fill="white"></path><path d="M139.564 109.58C138.792 108.9 137.943 108.336 137.231 107.588C137.075 107.576 136.915 107.568 136.759 107.556C136.779 109.116 136.779 110.729 137.059 112.261C138.216 111.601 139.324 111.073 140.588 110.653L140.701 110.441C140.324 110.149 139.928 109.893 139.568 109.58H139.564Z" fill="#93B74C"></path><path d="M64.9198 124.662C65.8002 123.417 66.6565 122.133 67.6449 120.973C68.109 120.308 68.7013 119.764 69.1854 119.116C69.5216 118.676 69.9417 118.336 70.3179 117.931C70.9901 117.207 71.6704 116.499 72.4467 115.883C73.435 115.01 74.5155 114.166 75.6919 113.562C76.3842 113.198 77.0004 112.785 77.7447 112.521C78.9651 112.081 80.2696 111.681 81.5621 111.557C83.883 111.369 86.2359 111.741 88.3487 112.733C89.229 113.178 90.0293 113.686 90.7976 114.302C92.2222 115.338 93.4146 116.611 94.1229 118.244C94.8632 119.952 94.8792 121.813 94.5711 123.622C95.0833 122.073 95.1353 120.388 94.7711 118.8C94.5551 117.427 94.0429 116.143 93.4026 114.914C93.0465 114.246 92.5903 113.706 92.1541 113.082C91.5859 112.421 90.7136 111.989 89.9493 111.597C88.2327 110.705 86.384 110.329 84.4672 110.2C81.4221 109.964 78.3849 110.645 75.6559 111.985C72.9109 113.442 70.4379 115.362 68.5052 117.811C67.8049 118.648 67.1647 119.524 66.5765 120.444C66.2603 121.293 65.6401 121.945 65.308 122.785C65.0639 123.413 64.7878 123.962 64.9198 124.658V124.662Z" fill="white"></path><path d="M91.1097 127.94C93.2185 127.84 94.9952 126.299 95.8475 124.439C96.6358 122.658 96.7158 120.565 96.3157 118.68C95.8595 116.884 94.8831 115.175 93.5026 113.931C93.1985 113.654 92.8824 113.394 92.5662 113.13C92.4302 113.118 92.2901 113.102 92.1541 113.09C92.5902 113.714 93.0464 114.255 93.4026 114.923C94.0428 116.151 94.555 117.436 94.7711 118.808C95.1312 120.397 95.0832 122.082 94.571 123.63C94.8791 121.822 94.8631 119.957 94.1228 118.252C93.4146 116.62 92.2181 115.351 90.7976 114.311C90.0293 113.694 89.229 113.186 88.3486 112.742C86.2358 111.75 83.8829 111.378 81.5621 111.566C80.2656 111.686 78.9651 112.09 77.7446 112.53C77.0043 112.794 76.3841 113.206 75.6918 113.57C74.5154 114.175 73.439 115.019 72.4466 115.891C71.6663 116.503 70.9901 117.216 70.3178 117.94C69.9417 118.344 69.5215 118.684 69.1854 119.124C68.7012 119.773 68.109 120.317 67.6448 120.981C66.6564 122.142 65.8001 123.426 64.9198 124.671C64.7877 123.974 65.0638 123.43 65.3079 122.798C65.64 121.958 66.2603 121.301 66.5764 120.457C66.3123 120.817 66.0402 121.173 65.7281 121.497C65.3439 121.894 65.0758 122.418 64.7637 122.886C63.8834 124.186 63.1231 125.563 62.2668 126.879C62.0147 127.252 61.7586 127.624 61.5425 128.016C63.3632 127.912 65.1839 128.064 67.0086 128.008C73.2469 127.988 79.4453 128.032 85.7036 128.008C87.5043 128 89.313 128.056 91.1097 127.94ZM94.4389 123.782C94.559 123.978 94.455 124.623 94.1989 124.623C94.0508 124.378 94.2989 123.986 94.4389 123.782ZM83.3547 124.202C81.6301 124.338 79.8814 124.258 78.1528 124.25C77.4325 124.25 77.0724 123.342 77.4845 122.786C77.7606 122.278 78.2568 122.382 78.749 122.354C80.1415 122.366 81.5341 122.342 82.9266 122.366C83.4548 122.378 83.7189 122.842 83.8469 123.29C83.8749 123.65 83.5548 123.93 83.3588 124.202H83.3547ZM82.9266 121.101C81.6021 121.225 80.2336 121.145 78.9051 121.145C78.5729 121.133 78.2088 121.149 77.8887 121.057C77.6006 120.849 77.3485 120.529 77.2764 120.177C77.2964 119.849 77.4925 119.533 77.7326 119.317C77.9487 119.233 78.2088 119.241 78.4369 119.225C79.5733 119.205 80.7017 119.217 81.8382 119.237C82.2943 119.249 82.7625 119.213 83.2147 119.285C83.4948 119.349 83.7029 119.673 83.8109 119.921C84.063 120.445 83.4428 121.093 82.9266 121.105V121.101Z" fill="#93B74C"></path><path d="M134.974 120.396C135.355 120.224 135.551 119.912 135.783 119.584C136.715 118.272 137.827 117.111 139.02 116.035C140.853 114.414 143.498 113.586 145.911 114.07C148.087 114.538 149.888 115.947 151.317 117.607C151.665 118.024 151.885 118.588 152.293 118.94L152.473 118.856C152.637 118.464 152.757 118.068 153.001 117.715C153.169 117.779 153.333 117.843 153.501 117.907C151.913 115.375 149.288 113.418 146.339 112.834C145.426 112.718 144.562 112.553 143.642 112.694C141.629 112.858 139.684 113.698 138.164 115.014C137.315 115.903 136.559 116.895 135.779 117.843L136.263 117.623C135.955 118.64 135.202 119.384 134.978 120.392L134.974 120.396Z" fill="white"></path><path d="M140.857 123.578C142.193 122.657 143.338 121.485 144.698 120.613C145.41 120.116 146.291 119.84 147.123 119.624C148.504 119.42 149.968 119.528 151.361 119.596C152.449 119.74 153.537 119.88 154.63 120.024C154.35 119.284 153.91 118.588 153.505 117.907C153.337 117.843 153.173 117.779 153.005 117.715C152.761 118.068 152.641 118.464 152.477 118.856L152.297 118.94C151.889 118.588 151.665 118.024 151.321 117.607C149.896 115.951 148.095 114.538 145.915 114.07C143.502 113.586 140.857 114.414 139.024 116.035C137.831 117.111 136.719 118.268 135.787 119.584C135.559 119.912 135.359 120.224 134.978 120.396C135.202 119.384 135.955 118.644 136.263 117.627L135.779 117.847C135.006 118.824 134.378 119.928 133.862 121.061C132.962 122.949 132.025 124.818 131.133 126.711C132.453 126.659 133.682 126.779 134.978 126.483C137.231 126.099 139.08 124.95 140.857 123.582V123.578Z" fill="#93B74C"></path><path d="M83.2146 119.28C82.7625 119.212 82.2943 119.244 81.8381 119.232C80.7057 119.216 79.5732 119.2 78.4368 119.22C78.2047 119.232 77.9486 119.228 77.7325 119.312C77.4884 119.528 77.2964 119.845 77.2764 120.173C77.3444 120.525 77.6005 120.845 77.8886 121.053C78.2127 121.145 78.5729 121.129 78.905 121.141C80.2335 121.141 81.606 121.221 82.9265 121.097C83.4427 121.089 84.0589 120.437 83.8108 119.913C83.7028 119.664 83.4947 119.344 83.2146 119.276V119.28Z" fill="#3F5226"></path><path d="M62.8871 120.432C63.0711 120.128 63.2592 119.828 63.4473 119.524C62.9271 119.536 62.4029 119.508 61.8787 119.516C61.6626 119.816 61.4705 120.124 61.2784 120.436C61.8186 120.464 62.3468 120.508 62.8871 120.432Z" fill="white"></path><path d="M82.9265 122.362C81.534 122.338 80.1415 122.362 78.7489 122.35C78.2607 122.378 77.7606 122.274 77.4844 122.782C77.0723 123.338 77.4324 124.246 78.1527 124.246C79.8814 124.254 81.63 124.334 83.3547 124.198C83.5507 123.926 83.8709 123.646 83.8429 123.286C83.7148 122.834 83.4507 122.37 82.9225 122.362H82.9265Z" fill="#3F5226"></path><path d="M94.4391 123.782C94.2991 123.986 94.051 124.378 94.199 124.623C94.4551 124.623 94.5591 123.978 94.4391 123.782Z" fill="#93B74C"></path><path d="M111.966 126.723C113.562 126.759 115.155 126.751 116.755 126.755C118.244 126.771 119.757 126.791 121.233 126.618C121.729 126.562 122.089 126.346 122.454 126.01C121.281 125.918 120.109 126.034 118.936 125.97C114.759 125.99 110.581 125.962 106.404 125.97C105.919 125.982 105.455 125.978 104.991 125.994C104.527 126.01 104.063 126.042 103.59 126.122C103.923 126.25 104.239 126.378 104.591 126.45C107.108 126.883 109.441 126.662 111.966 126.715V126.723Z" fill="white"></path><path d="M146.471 132.753C145.999 133.113 145.622 133.486 145.006 133.574C144.558 133.614 144.014 133.59 143.626 133.338C143.053 132.929 142.749 132.305 142.501 131.673C141.929 130.216 141.521 128.688 141.025 127.199C139.852 128.02 139.028 129.36 138.788 130.769C138.496 132.729 139.512 134.894 141.269 135.842C142.565 136.551 144.146 136.779 145.566 136.335C146.695 136.015 147.671 135.27 148.319 134.298C149.084 133.009 149.2 131.457 148.772 130.032C148.115 131.009 147.527 132.177 146.471 132.757V132.753Z" fill="#93B74C"></path><path d="M148.768 130.024C148.392 129.012 147.791 128.148 147.107 127.319C146.907 128.388 146.931 129.456 146.823 130.533C146.763 131.285 146.571 131.997 146.467 132.753C147.519 132.169 148.111 131.001 148.768 130.028V130.024Z" fill="#93B74C"></path><path d="M53.1034 130.681C53.9237 130.669 54.752 130.721 55.5643 130.657C56.2206 130.593 56.8728 129.732 56.5487 129.1C56.3526 128.7 56.0765 128.368 55.6043 128.312C54.8321 128.212 54.0357 128.288 53.2555 128.26C52.5232 128.288 51.7589 128.132 51.1346 128.592C50.6505 129.04 50.6665 130.009 51.2347 130.389C51.6869 130.841 52.5112 130.629 53.0994 130.677L53.1034 130.681Z" fill="#3F5226"></path><path d="M26.4332 114.374C26.2651 115.715 26.097 117.051 25.929 118.424C22.8838 119.516 19.9307 118.364 18.3821 115.423C16.9776 112.754 17.8179 109.624 20.4189 107.828C22.9718 106.063 26.3491 106.343 28.2899 108.884C29.6344 110.645 31.4511 109.897 33.0397 110.385C32.8676 110.265 32.7075 110.121 32.5195 110.025C28.5059 107.924 29.4543 103.182 31.8592 101.021C33.956 99.1364 37.4013 98.8803 39.9063 100.485C42.3312 102.038 43.3996 104.991 42.4912 107.94C40.8266 106.123 38.9259 105.539 36.4209 106.851C38.8139 107.171 40.4905 108.236 41.6069 110.089C42.7353 111.953 42.9634 113.974 42.5153 116.079C41.7029 119.88 37.9375 122.745 33.996 122.581C29.9785 122.417 27.3255 119.44 26.4252 114.37L26.4332 114.374Z" fill="#93B74C"></path><path d="M25.1087 97.9486C26.6933 97.9686 27.9298 99.1611 27.8818 100.638C27.8378 102.13 26.5573 103.379 25.0847 103.371C23.6122 103.363 22.2276 101.974 22.2356 100.506C22.2396 99.009 23.4561 97.9246 25.1087 97.9486Z" fill="#93B74C"></path><path d="M46.7529 105.135C45.6925 105.163 44.8362 104.299 44.8202 103.174C44.8042 102.106 45.6685 101.17 46.7169 101.122C47.6933 101.078 48.6976 102.03 48.7577 103.05C48.8177 104.127 47.8813 105.103 46.7529 105.135Z" fill="#93B74C"></path><path d="M153.685 100.141C153.133 100.141 152.621 100.369 152.357 100.873C152.153 101.374 152.521 101.938 152.949 102.186C153.281 102.398 153.725 102.322 154.11 102.334C154.498 102.086 154.918 101.95 154.966 101.426C155.086 100.705 154.374 100.081 153.689 100.145L153.685 100.141Z" fill="#3F5226"></path><path d="M155.554 89.2368C156.302 89.0047 156.482 88.0883 156.026 87.5121C155.702 87.0479 154.962 87.0279 154.478 87.2C154.15 87.4081 153.769 87.7962 153.753 88.2044C153.793 88.6285 154.102 89.0447 154.482 89.2288C154.826 89.3048 155.206 89.2848 155.554 89.2368Z" fill="#3F5226"></path><path d="M164.481 78.2809C165.542 78.2529 166.398 79.1172 166.414 80.2417C166.43 81.3101 165.566 82.2464 164.518 82.2945C163.541 82.3385 162.537 81.3861 162.477 80.3657C162.417 79.2893 163.353 78.3129 164.481 78.2809Z" fill="#93B74C"></path><path d="M44.0919 83.4069C43.3436 83.639 43.1636 84.5553 43.6197 85.1315C43.9439 85.5957 44.6841 85.6157 45.1683 85.4437C45.4965 85.2356 45.8766 84.8474 45.8926 84.4393C45.8526 84.0151 45.5445 83.599 45.1643 83.4149C44.8202 83.3389 44.4401 83.3589 44.0919 83.4069Z" fill="#3F5226"></path><path d="M35.1645 94.3626C34.1041 94.3907 33.2478 93.5263 33.2318 92.4019C33.2158 91.3335 34.0801 90.3971 35.1285 90.3491C36.1049 90.3051 37.1093 91.2575 37.1693 92.2779C37.2293 93.3543 36.2929 94.3306 35.1645 94.3626Z" fill="#93B74C"></path><path d="M183.805 91.3296C183.253 91.3296 182.74 91.5577 182.476 92.0619C182.272 92.5621 182.64 93.1263 183.069 93.3744C183.401 93.5865 183.845 93.5105 184.229 93.5225C184.617 93.2744 185.037 93.1383 185.085 92.6141C185.205 91.8938 184.493 91.2696 183.809 91.3336L183.805 91.3296Z" fill="#3F5226"></path><path d="M80.6938 60.0376C80.1416 60.0376 79.6294 60.2657 79.3653 60.7699C79.1612 61.2701 79.5293 61.8343 79.9575 62.0824C80.2896 62.2945 80.7338 62.2185 81.1179 62.2305C81.5061 61.9824 81.9263 61.8463 81.9743 61.3221C82.0943 60.6018 81.382 59.9776 80.6978 60.0416L80.6938 60.0376Z" fill="#3F5226"></path><path d="M27.9338 85.771C27.3816 85.771 26.8694 85.9991 26.6053 86.5033C26.4012 87.0035 26.7693 87.5677 27.1975 87.8158C27.5296 88.0279 27.9738 87.9519 28.3579 87.9639C28.7461 87.7158 29.1662 87.5797 29.2143 87.0555C29.3343 86.3352 28.622 85.711 27.9378 85.775L27.9338 85.771Z" fill="#3F5226"></path><path d="M174.789 124.363C175.538 124.131 175.718 123.214 175.262 122.638C174.938 122.174 174.197 122.154 173.713 122.326C173.385 122.534 173.005 122.922 172.989 123.33C173.029 123.755 173.337 124.171 173.717 124.355C174.061 124.431 174.441 124.411 174.789 124.363Z" fill="#93B74C"></path><path d="M182.452 119.516C183.513 119.488 184.369 120.353 184.385 121.477C184.401 122.545 183.537 123.482 182.488 123.53C181.512 123.574 180.508 122.621 180.448 121.601C180.388 120.525 181.324 119.548 182.452 119.516Z" fill="#93B74C"></path><path d="M124.402 70.4977C125.463 70.4697 126.319 71.3341 126.335 72.4585C126.351 73.5269 125.487 74.4632 124.438 74.5113C123.462 74.5553 122.458 73.6029 122.398 72.5825C122.338 71.5061 123.274 70.5297 124.402 70.4977Z" fill="#3F5226"></path><path d="M88.9009 151.564C89.3851 151.908 90.0934 151.704 90.6696 151.724C97.3681 151.736 119.028 151.728 125.727 151.724C126.019 151.716 126.303 151.7 126.575 151.576C127.103 151.32 127.42 150.62 127.143 150.076C126.891 149.579 126.443 149.299 125.879 149.331C119.132 149.319 97.4202 149.331 90.6696 149.323C90.1454 149.331 89.5892 149.251 89.101 149.443C88.5408 149.607 88.1526 150.224 88.2847 150.796C88.3567 151.136 88.6088 151.38 88.8969 151.556L88.9009 151.564Z" fill="#3F5226"></path><path d="M32.3035 78.8809C33.1758 78.8809 33.9881 78.5207 34.4083 77.7244C34.7284 76.9321 34.1482 76.0398 33.4719 75.6436C32.9437 75.3075 32.2435 75.4275 31.6392 75.4115C31.027 75.8037 30.3587 76.0198 30.2787 76.8521C30.0866 77.9885 31.2151 78.9809 32.2995 78.8809H32.3035Z" fill="#93B74C"></path><path d="M83.5589 70.4893C84.4312 70.4893 85.2435 70.1291 85.6637 69.3328C85.9838 68.5405 85.4036 67.6482 84.7273 67.252C84.1991 66.9159 83.4988 67.0359 82.8946 67.0199C82.2824 67.4121 81.6141 67.6282 81.5341 68.4605C81.342 69.5969 82.4704 70.5893 83.5549 70.4893H83.5589Z" fill="#93B74C"></path><path d="M139.264 94.7156C139.776 94.7596 140.3 94.7276 140.813 94.7316C148.023 94.7516 155.23 94.7316 162.441 94.7396C162.965 94.7276 163.613 94.8117 164.085 94.5596C164.602 94.3075 164.914 93.5752 164.586 93.063C164.318 92.6428 163.889 92.3507 163.373 92.3907C155.794 92.3907 148.239 92.3988 140.665 92.3787C140.12 92.3867 139.5 92.2827 138.976 92.4468C138.516 92.6228 138.12 93.143 138.18 93.6512C138.236 94.1954 138.74 94.6396 139.264 94.7156Z" fill="#3F5226"></path><path d="M148.632 106.756C149.116 107.1 149.824 106.896 150.4 106.916C157.099 106.928 178.759 106.92 185.457 106.916C185.75 106.908 186.034 106.892 186.306 106.768C186.834 106.512 187.15 105.811 186.874 105.267C186.622 104.771 186.174 104.491 185.61 104.523C178.863 104.511 157.151 104.523 150.4 104.515C149.876 104.523 149.32 104.443 148.832 104.635C148.271 104.799 147.883 105.415 148.015 105.987C148.087 106.327 148.339 106.572 148.628 106.748L148.632 106.756Z" fill="#3F5226"></path><path d="M140.128 85.6439C140.512 85.9201 141.081 85.756 141.537 85.772C146.875 85.78 164.137 85.772 169.475 85.772C169.708 85.764 169.936 85.752 170.152 85.652C170.572 85.4479 170.824 84.8917 170.604 84.4555C170.404 84.0593 170.044 83.8393 169.595 83.8633C164.217 83.8553 146.915 83.8633 141.537 83.8593C141.121 83.8673 140.677 83.8032 140.288 83.9553C139.844 84.0834 139.532 84.5795 139.64 85.0357C139.696 85.3078 139.9 85.5039 140.128 85.6399V85.6439Z" fill="#3F5226"></path><path d="M163.273 116.215C162.709 116.179 162.145 116.195 161.58 116.203C160.984 116.215 160.352 116.591 160.304 117.239C160.228 117.735 160.5 118.128 160.904 118.38C161.308 118.656 161.888 118.536 162.361 118.548C162.757 118.528 163.201 118.572 163.581 118.448C163.877 118.256 164.189 117.988 164.333 117.659C164.461 117.015 163.945 116.255 163.273 116.219V116.215Z" fill="#3F5226"></path><path d="M169.003 118.624C169.823 118.612 170.652 118.664 171.464 118.6C172.12 118.536 172.773 117.676 172.448 117.044C172.252 116.643 171.976 116.311 171.504 116.255C170.732 116.155 169.936 116.231 169.155 116.203C168.423 116.231 167.659 116.075 167.034 116.535C166.55 116.983 166.566 117.952 167.134 118.332C167.587 118.784 168.411 118.572 168.999 118.62L169.003 118.624Z" fill="#3F5226"></path><path d="M170.564 92.3858C170 92.3498 169.435 92.3658 168.871 92.3738C168.275 92.3858 167.643 92.762 167.595 93.4102C167.519 93.9064 167.791 94.2985 168.195 94.5506C168.599 94.8267 169.179 94.7067 169.652 94.7187C170.048 94.6987 170.492 94.7427 170.872 94.6187C171.168 94.4266 171.48 94.1585 171.624 93.8304C171.752 93.1861 171.236 92.4258 170.564 92.3898V92.3858Z" fill="#3F5226"></path><path d="M51.0064 69.697L32.9396 53.683L37.4613 48.581L44.612 54.9194L48.1213 50.9579L40.9706 44.6195L45.4923 39.5176L63.5592 55.5317L59.0375 60.6336L51.6707 54.1031L48.1573 58.0646L55.5241 64.5951L51.0024 69.697H51.0064Z" fill="#3F5226"></path><path d="M74.4554 44.4361L69.3415 47.2732L70.526 51.0226L65.2319 53.9597L59.8219 31.2631L58.5814 30.0427L66.0202 25.9131L83.751 43.6838L77.1405 47.3532L74.4594 44.4361H74.4554ZM68.041 43.1916L71.5343 41.2509L65.256 34.4403L68.037 43.1916H68.041Z" fill="#3F5226"></path><path d="M92.5662 42.0913L85.8356 43.2957L81.582 19.5307L84.259 19.0506C84.9073 18.9345 85.8677 18.7304 87.1441 18.4423C88.4166 18.1502 89.473 17.9301 90.3093 17.7821C93.2304 17.2579 95.5233 17.51 97.1919 18.5384C98.8606 19.5668 99.933 21.4035 100.409 24.0525C100.689 25.621 100.597 27.0736 100.133 28.4141C99.6689 29.7546 98.9406 30.883 97.9442 31.7994C98.5805 31.8394 99.1647 32.0915 99.7009 32.5517C100.237 33.0159 100.693 33.5921 101.069 34.2843C101.446 34.9766 101.79 35.6849 102.106 36.4011C102.422 37.1174 102.766 37.8217 103.13 38.5099C103.498 39.1982 103.854 39.6984 104.207 40.0105L96.7238 41.351C96.5397 41.187 96.3316 40.6788 96.0955 39.8224C95.8594 38.9661 95.5593 37.9377 95.1992 36.7413C94.8391 35.5448 94.4549 34.5564 94.0508 33.7761C94.0227 33.7801 93.9907 33.7881 93.9507 33.7921C93.6946 33.8402 93.4185 33.8842 93.1264 33.9282C92.8343 33.9722 92.5782 34.0082 92.3621 34.0322C92.142 34.0562 91.9139 34.0843 91.6779 34.1123C91.4378 34.1403 91.2657 34.1643 91.1577 34.1843L92.5742 42.0913H92.5662ZM91.1256 30.2948C91.4618 30.2348 91.7459 30.1708 91.97 30.1027C92.1941 30.0347 92.4381 29.9387 92.7022 29.8146C92.9663 29.6906 93.1744 29.5305 93.3265 29.3345C93.4785 29.1384 93.6146 28.8983 93.7306 28.6142C93.8467 28.3301 93.9107 27.9739 93.9187 27.5538C93.9267 27.1336 93.8827 26.6534 93.7867 26.1132L93.4985 24.5126C93.2865 23.3362 92.8343 22.5719 92.134 22.2158C91.4338 21.8596 90.5134 21.7836 89.361 21.9917L88.9768 22.0597L90.4734 30.4149L91.1216 30.2988L91.1256 30.2948Z" fill="#3F5226"></path><path d="M105.968 16.0449L113.518 16.9133L114.351 25.3845L115.195 34.2718L117.932 25.7966L120.721 17.7416L126.103 18.3578L117.416 41.6586L109.989 40.8063L105.972 16.0449H105.968Z" fill="#3F5226"></path><path d="M123.83 42.9115L132.902 20.5391L146.151 25.9091L143.942 30.2587L137.471 27.4137L135.723 31.7273L140.877 33.8161L139.064 38.2818L134.066 35.8089L132.009 40.8868L139.3 43.6198L137.367 48.3936L123.834 42.9075L123.83 42.9115Z" fill="#3F5226"></path><path d="M142.717 52.3709C142.105 51.6706 141.645 51.0104 141.337 50.3941C141.029 49.7779 140.804 49.2417 140.66 48.7895C140.516 48.3334 140.424 47.9172 140.384 47.5411L143.834 43.8757C143.822 44.816 144.026 45.7964 144.438 46.8128C144.854 47.8292 145.498 48.6735 146.371 49.3377C147.243 50.006 147.943 50.3941 148.471 50.5062C149 50.6182 149.452 50.4262 149.828 49.934C150.228 49.4098 150.348 48.7935 150.192 48.0853C150.032 47.377 149.616 46.3486 148.936 45.0001C148.691 44.5039 148.495 44.0718 148.343 43.7036C148.191 43.3355 148.027 42.7993 147.855 42.087C147.683 41.3747 147.607 40.7105 147.627 40.0982C147.647 39.482 147.787 38.7777 148.051 37.9854C148.311 37.1891 148.719 36.4329 149.268 35.7126C152.245 31.8191 155.93 31.551 160.328 34.9123C161.028 35.4445 161.628 36.0207 162.133 36.6409C162.637 37.2572 162.997 37.7894 163.213 38.2295C163.429 38.6697 163.593 39.1179 163.701 39.574C163.809 40.0302 163.869 40.3343 163.873 40.4824C163.877 40.6344 163.873 40.7505 163.869 40.8265L160.636 43.3595C160.592 42.5312 160.348 41.7509 159.896 41.0186C159.444 40.2863 158.931 39.6981 158.351 39.2539C156.955 38.1855 155.922 38.0895 155.254 38.9618C155.078 39.1899 154.966 39.43 154.91 39.6821C154.854 39.9342 154.87 40.2103 154.946 40.5144C155.026 40.8185 155.11 41.0866 155.194 41.3267C155.278 41.5668 155.41 41.8789 155.59 42.2671C155.77 42.6552 155.898 42.9553 155.974 43.1714C157.051 45.0641 157.607 46.7608 157.647 48.2613C157.687 49.7579 157.195 51.1744 156.178 52.5069C154.526 54.6678 152.737 55.9042 150.812 56.2204C148.884 56.5365 146.911 55.9242 144.894 54.3797C144.054 53.7394 143.325 53.0672 142.713 52.3629L142.717 52.3709Z" fill="#3F5226"></path><path d="M168.639 50.4219L165.61 46.6725L169.855 43.2432L180.287 56.1561L176.042 59.5854L173.013 55.8359L158.479 67.5764L154.105 62.1623L168.639 50.4219Z" fill="#3F5226"></path><path d="M24.4444 144.058C23.7081 142.521 23.34 141.065 23.336 139.692C23.332 138.316 23.6721 137.059 24.3604 135.923C25.0486 134.786 25.965 133.758 27.1054 132.838C28.2458 131.917 29.6424 131.061 31.291 130.273C32.5155 129.685 33.6519 129.224 34.6923 128.884C35.7327 128.544 36.7691 128.312 37.8055 128.18C38.8378 128.052 39.8062 128.088 40.7066 128.296C41.6069 128.504 42.4792 128.872 43.3236 129.396C44.1679 129.921 44.9682 130.665 45.7285 131.625C46.4887 132.586 47.193 133.754 47.8533 135.131C48.1494 135.751 48.3975 136.359 48.5935 136.959C48.7896 137.56 48.9297 138.08 49.0137 138.528C49.0977 138.976 49.1458 139.412 49.1618 139.84C49.1778 140.269 49.1738 140.613 49.1538 140.873C49.1338 141.133 49.0977 141.381 49.0457 141.621C48.9937 141.861 48.9497 142.013 48.9217 142.081C48.8937 142.149 48.8737 142.201 48.8576 142.237L44.452 144.006L42.8314 140.625L44.7961 138.384C44.8121 138.04 44.6761 137.564 44.388 136.959C44.1519 136.463 43.9118 136.075 43.6717 135.795C43.4316 135.515 43.0955 135.283 42.6673 135.103C42.2351 134.919 41.7149 134.866 41.1027 134.939C40.4905 135.011 39.7102 135.207 38.7578 135.527C37.8055 135.847 36.689 136.315 35.4005 136.931C32.7115 138.22 30.7908 139.32 29.6304 140.233C28.4699 141.145 28.0978 142.041 28.5219 142.922C28.73 143.354 28.9461 143.702 29.1662 143.958C29.3903 144.218 29.6704 144.426 30.0145 144.582C30.3586 144.738 30.7708 144.774 31.255 144.694C31.7432 144.614 32.3194 144.414 32.9876 144.094L34.8803 143.186L34.2641 140.469L38.0536 138.652L42.0151 146.919L29.2262 153.025L27.6416 149.72L29.5023 148.552C27.1774 147.731 25.4928 146.239 24.4564 144.074L24.4444 144.058Z" fill="#3F5226"></path><path d="M37.5414 163.874C37.0732 163.061 36.7531 162.289 36.577 161.557C36.401 160.821 36.3609 160.076 36.453 159.328C36.545 158.58 36.7331 157.871 37.0172 157.207C37.3013 156.543 37.7054 155.847 38.2376 155.114C38.7658 154.382 39.3341 153.69 39.9383 153.038C40.5425 152.385 41.2508 151.681 42.0711 150.929C43.2796 149.812 44.392 148.9 45.4084 148.196C46.4207 147.491 47.4852 146.947 48.5936 146.559C49.702 146.171 50.7664 146.031 51.7868 146.147C52.8072 146.259 53.8756 146.639 54.992 147.279C56.1084 147.92 57.2368 148.856 58.3733 150.088C59.1576 150.937 59.7818 151.769 60.25 152.589C60.7182 153.41 61.0383 154.186 61.2144 154.922C61.3904 155.659 61.4264 156.407 61.3224 157.163C61.2184 157.923 61.0223 158.636 60.7342 159.304C60.4461 159.972 60.0339 160.676 59.5017 161.413C58.9655 162.149 58.4013 162.841 57.8011 163.49C57.2008 164.138 56.4926 164.838 55.6763 165.59C54.4678 166.707 53.3514 167.615 52.335 168.315C51.3146 169.016 50.2582 169.552 49.1578 169.932C48.0574 170.312 47.001 170.44 45.9806 170.316C44.9602 170.192 43.8958 169.808 42.7834 169.164C41.6709 168.519 40.5465 167.579 39.4101 166.351C38.6378 165.514 38.0136 164.69 37.5454 163.878L37.5414 163.874ZM42.1231 161.913C41.707 162.777 41.795 163.53 42.3912 164.174C42.8274 164.646 43.2796 164.898 43.7397 164.918C44.1999 164.942 44.8602 164.674 45.7165 164.114C46.5728 163.554 47.7453 162.589 49.2258 161.221L52.8712 157.851C54.3117 156.519 55.2561 155.386 55.7003 154.45C56.1444 153.514 56.0684 152.725 55.4722 152.081C54.876 151.437 54.1117 151.305 53.1833 151.685C52.255 152.065 50.8784 153.102 49.0537 154.786L45.2563 158.296C43.5837 159.844 42.5353 161.049 42.1191 161.909L42.1231 161.913Z" fill="#3F5226"></path><path d="M58.1492 181.672C57.461 181.04 56.9207 180.4 56.5326 179.748C56.1445 179.095 55.8844 178.403 55.7483 177.659C55.6123 176.915 55.5802 176.186 55.6523 175.466C55.7243 174.746 55.9004 173.958 56.1885 173.101C56.4726 172.245 56.8087 171.413 57.1888 170.612C57.569 169.812 58.0372 168.928 58.5894 167.959C59.4097 166.531 60.198 165.326 60.9543 164.354C61.7106 163.378 62.5589 162.541 63.4992 161.837C64.4396 161.133 65.416 160.685 66.4243 160.484C67.4327 160.288 68.5652 160.328 69.8216 160.604C71.0781 160.881 72.4346 161.437 73.8872 162.269C74.8876 162.841 75.7359 163.45 76.4281 164.094C77.1204 164.738 77.6606 165.382 78.0488 166.031C78.4369 166.679 78.693 167.383 78.8251 168.135C78.9531 168.892 78.9811 169.628 78.9051 170.356C78.8291 171.08 78.649 171.873 78.3609 172.737C78.0728 173.601 77.7366 174.43 77.3605 175.226C76.9844 176.022 76.5162 176.903 75.964 177.867C75.1437 179.296 74.3514 180.496 73.5911 181.468C72.8268 182.441 71.9785 183.273 71.0461 183.961C70.1137 184.654 69.1414 185.094 68.129 185.282C67.1166 185.47 65.9882 185.422 64.7317 185.138C63.4752 184.854 62.1227 184.297 60.6702 183.461C59.6818 182.893 58.8415 182.293 58.1532 181.66L58.1492 181.672ZM61.9306 178.427C61.7906 179.376 62.1027 180.068 62.863 180.504C63.4232 180.824 63.9274 180.928 64.3716 180.812C64.8197 180.696 65.3679 180.244 66.0162 179.452C66.6684 178.659 67.4928 177.391 68.4971 175.638L70.9661 171.333C71.9424 169.628 72.5027 168.263 72.6467 167.239C72.7908 166.215 72.4826 165.482 71.7184 165.046C70.9541 164.61 70.1898 164.71 69.4175 165.354C68.6452 165.995 67.6408 167.395 66.4043 169.552L63.8354 174.038C62.7029 176.014 62.0667 177.479 61.9266 178.427H61.9306Z" fill="#3F5226"></path><path d="M83.7509 192.532C82.7505 192.256 81.7141 192 80.6417 191.759L77.4485 191.039L82.7505 167.49L85.9437 168.211C86.844 168.399 87.8284 168.587 88.9008 168.771C89.9692 168.955 90.8096 169.115 91.4098 169.251C94.8271 170.019 97.0599 171.528 98.1083 173.777C99.1567 176.025 99.2688 178.987 98.4404 182.656C98.1603 183.9 97.8082 185.069 97.388 186.157C96.9679 187.246 96.3997 188.302 95.6914 189.335C94.9791 190.363 94.1868 191.207 93.3065 191.867C92.4262 192.528 91.3538 192.984 90.0853 193.232C88.8168 193.48 87.4483 193.44 85.9757 193.108C85.4915 193 84.7513 192.808 83.7509 192.532ZM88.8928 188.17C89.7171 187.034 90.4574 185.017 91.1097 182.124L91.5658 180.095C92.042 177.978 92.1541 176.286 91.906 175.021C91.6579 173.753 91.0616 173.016 90.1253 172.804L88.6167 172.464L84.8393 189.242L86.1238 189.531C87.1402 189.759 88.0645 189.307 88.8888 188.17H88.8928Z" fill="#3F5226"></path><path d="M108.216 171.784L115.679 170.352L119.008 178.187L122.474 186.414L122.546 177.507L122.798 168.983L128.12 167.963L126.803 192.796L119.461 194.205L108.216 171.78V171.784Z" fill="#3F5226"></path><path d="M127.86 167.33L134.338 164.617L143.658 186.886L137.179 189.599L127.86 167.33Z" fill="#3F5226"></path><path d="M155.394 180.411C153.978 181.356 152.961 182.036 152.349 182.456L150.74 183.604L136.719 163.953L139.62 161.884C140.324 161.38 141.113 160.784 141.981 160.087C142.849 159.391 143.486 158.899 143.89 158.611C145.198 157.679 146.379 156.998 147.427 156.566C148.479 156.138 149.412 155.95 150.228 156.01C151.044 156.07 151.761 156.298 152.381 156.702C152.997 157.106 153.581 157.695 154.134 158.463C154.978 159.647 155.43 160.86 155.49 162.1C155.55 163.341 155.134 164.437 154.246 165.393C157.051 163.745 159.476 164.353 161.516 167.214C162.133 168.075 162.557 168.947 162.801 169.827C163.041 170.712 163.089 171.612 162.949 172.532C162.805 173.453 162.389 174.389 161.696 175.337C161.004 176.286 160.052 177.194 158.835 178.062C157.963 178.683 156.819 179.467 155.402 180.411H155.394ZM147.659 161.628C147.103 161.628 146.479 161.876 145.786 162.372L144.562 163.245L148.019 168.091L149.376 167.122C150.024 166.658 150.34 166.05 150.324 165.293C150.308 164.537 150.036 163.793 149.508 163.053L149.208 162.632C148.728 161.96 148.211 161.628 147.655 161.628H147.659ZM156.502 173.525C156.551 172.816 156.358 172.152 155.918 171.536L155.082 170.363C154.562 169.635 153.962 169.287 153.269 169.315C152.581 169.343 151.941 169.567 151.349 169.991L150.04 170.924L153.93 176.374L155.238 175.441C156.03 174.873 156.454 174.237 156.502 173.525Z" fill="#3F5226"></path><path d="M170.732 167.722L152.073 152.409L161.14 141.356L164.638 144.758L159.996 150.088L163.593 153.041L167.122 148.743L170.848 151.8L167.002 155.838L171.236 159.315L176.018 153.165L179.999 156.43L170.736 167.718L170.732 167.722Z" fill="#3F5226"></path><path d="M185.685 146.651C185.125 147.399 184.581 147.983 184.041 148.415C183.505 148.844 183.028 149.18 182.612 149.416C182.196 149.652 181.808 149.832 181.448 149.948L177.142 147.343C178.067 147.159 178.983 146.755 179.887 146.135C180.796 145.514 181.484 144.71 181.952 143.718C182.42 142.725 182.656 141.957 182.652 141.417C182.648 140.877 182.368 140.472 181.812 140.208C181.216 139.928 180.588 139.936 179.927 140.24C179.267 140.544 178.351 141.169 177.17 142.117C176.734 142.457 176.354 142.741 176.026 142.965C175.698 143.189 175.206 143.461 174.545 143.782C173.885 144.102 173.253 144.314 172.649 144.422C172.044 144.53 171.324 144.538 170.492 144.45C169.659 144.362 168.835 144.122 168.015 143.734C163.585 141.637 162.549 138.087 164.918 133.086C165.294 132.293 165.73 131.585 166.23 130.961C166.73 130.341 167.17 129.876 167.559 129.572C167.947 129.268 168.351 129.016 168.771 128.812C169.195 128.608 169.479 128.488 169.623 128.452C169.771 128.416 169.883 128.392 169.964 128.384L173.117 131.013C172.316 131.229 171.604 131.629 170.984 132.225C170.36 132.817 169.895 133.446 169.583 134.102C168.831 135.691 168.951 136.719 169.948 137.191C170.208 137.315 170.468 137.375 170.724 137.375C170.98 137.375 171.252 137.307 171.528 137.163C171.808 137.023 172.056 136.883 172.268 136.751C172.484 136.619 172.761 136.423 173.105 136.167C173.449 135.911 173.713 135.723 173.909 135.603C175.538 134.154 177.078 133.254 178.535 132.901C179.991 132.549 181.48 132.733 182.992 133.45C185.449 134.614 187.034 136.103 187.746 137.919C188.459 139.736 188.27 141.793 187.186 144.09C186.734 145.046 186.23 145.898 185.669 146.643L185.685 146.651Z" fill="#3F5226"></path></g><defs><clipPath id="clip0_1126_439"><rect width="210.488" height="210.488" fill="white" transform="translate(0.587402 0.367188)"></rect></clipPath></defs></svg>