<svg xmlns="http://www.w3.org/2000/svg" viewBox="0 0 95.62 95.62"><defs><style>.cls-1{fill:none;stroke:#fff;stroke-miterlimit:10;stroke-width:2px;}.cls-2{fill:#fff;}</style></defs><g id="Layer_2" data-name="Layer 2"><g id="Layer_1-2" data-name="Layer 1"><circle class="cls-1" cx="47.81" cy="47.81" r="46.81"></circle><path class="cls-2" d="M44,59.11a70.28,70.28,0,0,0,10.69-12Q59,40.77,59,34.71c0-3.82-.93-6.82-2.77-9s-4.83-3.3-8.93-3.3S40.24,23.64,38,26.13s-3.39,5.82-3.57,10H26.73q.36-9.84,6-15.22t14.52-5.36q9.06,0,14.38,5t5.32,13.81a26.32,26.32,0,0,1-4.35,14.21,62.13,62.13,0,0,1-9.9,12.14q-5.53,5.24-14.16,12.18H68.78v6.69H26.47V73.85Q37.65,64.88,44,59.11Z"></path></g></g></svg>