<svg xmlns="http://www.w3.org/2000/svg" viewBox="0 0 191.99 43.83"><defs><style>.cls-1,.cls-3{fill:#1a4c8c;}.cls-1{fill-rule:evenodd;}.cls-2{fill:#12a085;}</style></defs><g id="Layer_2" data-name="Layer 2"><g id="Layer_1-2" data-name="Layer 1"><path id="Fill-9" class="cls-1" d="M179.9,27.13a4.15,4.15,0,1,0,8.29,0A4.11,4.11,0,0,0,184,22.94,4,4,0,0,0,179.9,27.13ZM192,14V34.32h-3.34l-.23-2a5.28,5.28,0,0,1-4.65,2.3c-4.25,0-7.44-2.8-7.44-7.51,0-4.95,3.14-7.51,7.35-7.51,1.52,0,3.89.81,4.74,2.3V14Z"></path><path class="cls-2" d="M43.23,1.59A11.17,11.17,0,0,1,47.34,0a45.3,45.3,0,0,1-4,3,71.83,71.83,0,0,0-24,31.65A109.86,109.86,0,0,0,9.43,15.81,14.42,14.42,0,0,1,8.4,14c4.21,2.47,7.55,6.22,10.66,9.94A66.73,66.73,0,0,1,43.23,1.59Z"></path><path class="cls-2" d="M18,12.23a3.31,3.31,0,1,1-1.14,5.32A3.33,3.33,0,0,1,18,12.23Z"></path><path class="cls-2" d="M162.11,30.06a2.39,2.39,0,1,1-.82,3.85A2.41,2.41,0,0,1,162.11,30.06Z"></path><path class="cls-3" d="M0,8.1A36.34,36.34,0,0,1,33,5.18a44.43,44.43,0,0,1,5.25-2c-2.39,1.73-4.82,3.41-7.07,5.35a32.66,32.66,0,0,0-27.37,1.7c.54,11.37,6.07,22.6,15.49,29.18a37.13,37.13,0,0,0,15-24.73A40.7,40.7,0,0,0,30.58,17a63.33,63.33,0,0,1,8-8.69,44.17,44.17,0,0,1-6.75,23.23A38,38,0,0,1,19.25,43.83C7,36.55-.12,22.2,0,8.1Z"></path><path class="cls-2" d="M47.05,34.64,41.29,14.8h4.17l3.08,11.08c.13.4.24.83.34,1.29s.18.91.24,1.33.12.82.16,1.19.09.68.13.92l-.65,0,.4-2c.11-.54.21-1,.31-1.45s.22-.85.37-1.29l3-8.18h3.36l2.92,8.18a16.15,16.15,0,0,1,.53,1.63q.2.78.33,1.5c.09.49.18,1,.25,1.46l-.57.12c0-.4.09-.74.12-1s.06-.56.08-.8.06-.5.1-.76.09-.55.16-.9.18-.76.32-1.23l3.06-11h4.11L61.77,34.64h-3L54.09,22.91l.43.05L50.16,34.64Z"></path><path class="cls-2" d="M74.56,34.92a8.1,8.1,0,0,1-4.07-1,6.92,6.92,0,0,1-2.7-2.72,7.94,7.94,0,0,1-1-4,8.85,8.85,0,0,1,.55-3.2,7.65,7.65,0,0,1,1.51-2.51,6.9,6.9,0,0,1,2.31-1.64,7.2,7.2,0,0,1,2.91-.58,6.45,6.45,0,0,1,2.71.57A6.52,6.52,0,0,1,79,21.45a7.11,7.11,0,0,1,1.39,2.38,8,8,0,0,1,.43,3l0,1.25H69.26l-.62-2.47h9l-.43.51v-.62a2.79,2.79,0,0,0-.48-1.38,3.15,3.15,0,0,0-1.06-1,3,3,0,0,0-1.47-.35,3.94,3.94,0,0,0-2,.48,3.1,3.1,0,0,0-1.26,1.41,5.38,5.38,0,0,0-.43,2.27A4.72,4.72,0,0,0,71,29.28a4,4,0,0,0,1.57,1.55,5.06,5.06,0,0,0,2.4.55,4.63,4.63,0,0,0,1.73-.31A6.16,6.16,0,0,0,78.37,30l1.84,2.69a7.77,7.77,0,0,1-1.73,1.23,8.57,8.57,0,0,1-3.92,1Z"></path><path class="cls-3" d="M87,34.64,79.46,14.8h4.3l3.95,10.74c.21.59.4,1.1.55,1.55s.29.86.41,1.24.23.77.34,1.14.21.77.32,1.2l-.78,0c.14-.59.28-1.13.41-1.63s.3-1,.49-1.59.42-1.2.69-1.94L93.88,14.8h4.27l-7.6,19.84Z"></path><path class="cls-3" d="M105.53,34.92a8.1,8.1,0,0,1-4.07-1,7,7,0,0,1-2.7-2.72,8,8,0,0,1-1-4,9.07,9.07,0,0,1,.54-3.2,7.65,7.65,0,0,1,1.51-2.51,6.9,6.9,0,0,1,2.31-1.64,7.24,7.24,0,0,1,2.91-.58,6.46,6.46,0,0,1,4.86,2.14,7,7,0,0,1,1.39,2.38,8,8,0,0,1,.43,3l0,1.25h-11.5l-.62-2.47h9l-.43.51v-.62a2.88,2.88,0,0,0-.47-1.38,3.18,3.18,0,0,0-1.07-1,3,3,0,0,0-1.46-.35,4,4,0,0,0-2,.48,3.1,3.1,0,0,0-1.26,1.41,5.38,5.38,0,0,0-.43,2.27,4.83,4.83,0,0,0,.55,2.35,4,4,0,0,0,1.57,1.55,5.06,5.06,0,0,0,2.4.55,4.59,4.59,0,0,0,1.73-.31A6.35,6.35,0,0,0,109.35,30l1.83,2.69a7.77,7.77,0,0,1-1.73,1.23,8.57,8.57,0,0,1-3.92,1Z"></path><path class="cls-3" d="M114.59,34.64v-15h3.71l.13,4.82-.65-1a6.26,6.26,0,0,1,1.06-2.11,5.37,5.37,0,0,1,1.72-1.48,4.21,4.21,0,0,1,2.07-.54,5.26,5.26,0,0,1,.89.08,5.68,5.68,0,0,1,.73.2l-1,4.42a3.87,3.87,0,0,0-.77-.3,4,4,0,0,0-1-.12,3,3,0,0,0-1.2.24,2.71,2.71,0,0,0-1,.68,2.94,2.94,0,0,0-.64,1,3.66,3.66,0,0,0-.23,1.3v7.77Z"></path><path class="cls-3" d="M128.66,16.59a2.41,2.41,0,0,1-1.73-.58,2.11,2.11,0,0,1-.63-1.63,2.09,2.09,0,0,1,.64-1.57,2.36,2.36,0,0,1,1.72-.61,2.43,2.43,0,0,1,1.73.58,2.1,2.1,0,0,1,.62,1.6,2.13,2.13,0,0,1-.64,1.59A2.35,2.35,0,0,1,128.66,16.59Zm-1.9,18.05v-15h3.84v15Z"></path><path class="cls-3" d="M171.49,16.59a2.46,2.46,0,0,1-1.73-.58,2.1,2.1,0,0,1-.62-1.63,2.08,2.08,0,0,1,.63-1.57,2.38,2.38,0,0,1,1.72-.61,2.41,2.41,0,0,1,1.73.58,2.07,2.07,0,0,1,.62,1.6,2.16,2.16,0,0,1-.63,1.59A2.39,2.39,0,0,1,171.49,16.59ZM169.6,34.64v-15h3.84v15Z"></path><path class="cls-3" d="M133.69,23.42V20h9.09v3.4Zm2.13,11.22v-16a5.3,5.3,0,0,1,.6-2.52,4.41,4.41,0,0,1,4.08-2.44,4.86,4.86,0,0,1,1.79.33,4.51,4.51,0,0,1,1.43.86l-1.13,3a6.36,6.36,0,0,0-.72-.39,1.73,1.73,0,0,0-.66-.15,1.83,1.83,0,0,0-.86.18,1.24,1.24,0,0,0-.5.54,2.32,2.32,0,0,0-.16.89V34.64h-3.87Z"></path><path class="cls-3" d="M147.35,41.15l3.13-7.7.06,2.32-7-16.12h4.36l3.48,8.64a8.3,8.3,0,0,1,.42,1.12c.14.42.25.83.34,1.2l-.65.31c.13-.32.26-.68.39-1.1s.28-.86.42-1.33l3-8.84h4.38l-6,15-2.46,6.51Z"></path></g></g></svg>