<svg xmlns="http://www.w3.org/2000/svg" xmlns:xlink="http://www.w3.org/1999/xlink" id="Layer_1" x="0px" y="0px" viewBox="0 0 95.6 95.6" style="enable-background:new 0 0 95.6 95.6;" xml:space="preserve"><style type="text/css">	.st0{fill:#FFFFFF;stroke:#000000;stroke-width:2;stroke-miterlimit:10;}</style><circle class="st0" cx="47.8" cy="47.8" r="46.8"></circle><path d="M44,59.1c4-3.6,7.6-7.6,10.7-12c2.9-4.2,4.3-8.4,4.3-12.4c0-3.8-0.9-6.8-2.8-9s-4.8-3.3-8.9-3.3s-7.1,1.2-9.3,3.7 s-3.4,5.8-3.6,10h-7.7c0.2-6.6,2.2-11.6,6-15.2c3.8-3.6,8.6-5.4,14.5-5.4c6,0,10.8,1.7,14.4,5c3.5,3.3,5.3,7.9,5.3,13.8 c-0.1,5.1-1.6,10-4.3,14.2c-2.8,4.4-6.1,8.5-9.9,12.1c-3.7,3.5-8.4,7.6-14.2,12.2h30.2v6.7H26.5v-5.7C33.9,67.9,39.8,63,44,59.1z"></path></svg>