<svg xmlns="http://www.w3.org/2000/svg" viewBox="0 0 81.08 82.82"><defs><style>.cls-1{fill:none;stroke:#ecf4fe;stroke-miterlimit:10;}.cls-2{fill:#ecf4fe;}</style></defs><title>Asset 9</title><g id="Layer_2" data-name="Layer 2"><g id="Layer_1-2" data-name="Layer 1"><polygon class="cls-1" points="27.5 78.48 12.5 78.48 5 65.49 12.5 52.5 27.5 52.5 35 65.49 27.5 78.48"/><polygon class="cls-1" points="50 65.48 35 65.48 27.5 52.49 35 39.5 50 39.5 57.5 52.49 50 65.48"/><polygon class="cls-1" points="72.5 78.48 57.5 78.48 50 65.49 57.5 52.5 72.5 52.5 80 65.49 72.5 78.48"/><polygon class="cls-1" points="73 26.48 58 26.48 50.5 13.49 58 0.5 73 0.5 80.5 13.49 73 26.48"/><polygon class="cls-1" points="50.5 39.48 35.5 39.48 28 26.49 35.5 13.5 50.5 13.5 58 26.49 50.5 39.48"/><polygon class="cls-2" points="15 64.15 5 64.15 0 55.49 5 46.83 15 46.83 20 55.49 15 64.15"/><polygon class="cls-2" points="58 35.15 48 35.15 43 26.49 48 17.83 58 17.83 63 26.49 58 35.15"/><polygon class="cls-2" points="45 82.82 40 82.82 37.5 78.49 40 74.16 45 74.16 47.5 78.49 45 82.82"/></g></g></svg>