<svg id="Layer_1" data-name="Layer 1" xmlns="http://www.w3.org/2000/svg" viewBox="0 0 216 216"><defs><style>.cls-1{fill:#fefefe;}.cls-2{fill:#010101;}.cls-3{fill:#fff;}.cls-4{fill:#020202;}.cls-5{fill:#030303;}</style></defs><path class="cls-1" d="M20.42,62a22,22,0,0,1,6.65-1H183c3.72,0,7.51-.3,11.16.65,9.23,2.15,16.52,11.11,16.28,20.66-.05,21.35,0,42.7,0,64.05-.36,11-10.52,20.31-21.45,20.17q-81,0-162,0c-11,.21-21.3-9.15-21.63-20.26,0-21.32,0-42.64,0-63.95C5.12,73.16,11.76,64.62,20.42,62Zm-.71,9.12c-3.55,2.09-5.56,5.88-6.47,9.78q94.65.15,189.32,0c-1.1-6.5-6.84-12-13.57-11.82q-78.51,0-157,0C27.82,69,23.31,68.63,19.71,71.09Zm-6.34,72.17c63,.13,126-.21,189,.16,0-19.77,0-39.54,0-59.3q-94.44,0-188.88,0C13.32,103.82,13.49,123.54,13.37,143.26Zm-.13,3.42c1.19,6.52,7,12,13.8,11.77q81,0,162,0a13.71,13.71,0,0,0,13.4-11.79C139.35,146.7,76.29,146.59,13.24,146.68Z"/><path class="cls-1" d="M27.67,95.68c10.12-.06,20.24,0,30.36,0,4.67.09,9.68.26,13.75,2.81,3.58,2.2,4.14,7.88,1,10.67-1.93,1.54-4.36,2.2-6.57,3.2,3.2,1.08,7,1.8,9,4.81a7.4,7.4,0,0,1-2.13,10.31c-5.61,3.75-12.68,3.42-19.12,3.47-8.77,0-17.53,0-26.28,0,0-1.92,0-3.83,0-5.74,1.64-.65,3.93-1.21,3.83-3.44.36-5.5.23-11,.05-16.54.11-2.3-2.08-3.24-3.89-3.85C27.65,99.44,27.66,97.56,27.67,95.68Zm19.21,6.2c0,2.52.09,5,.18,7.57,3.18,0,6.47.32,9.56-.64s2.62-6.36-.72-6.77A59,59,0,0,0,46.88,101.88Zm.23,13.88c0,2.94-.1,5.88-.22,8.83,3.29-.16,6.74.48,9.93-.53a4.22,4.22,0,0,0,1.45-6.91C55,114.79,50.81,116,47.11,115.76Z"/><path class="cls-1" d="M86.36,121.51c3.89-8.61,7.58-17.3,11.51-25.89,5.36.08,10.73,0,16.11,0,4,8.67,7.68,17.48,11.7,26.14a6,6,0,0,0,4.66,3.32c0,1.92,0,3.84,0,5.78q-12.57,0-25.14,0c0-2,0-4,0-6,1.82-.11,5.07.13,5-2.52l-.56-2.35c-4,.08-7.94,0-11.9,0l-.16,3.27c.33,1.72,2.59,1.26,3.85,1.75,0,1.94,0,3.89,0,5.84-6.71-.05-13.43,0-20.14,0,0-1.95,0-3.9,0-5.85C83.32,124.5,85.65,123.8,86.36,121.51Zm17.43-16.46c-1.48,4-2.8,8.13-4.25,12.17,2.82,0,5.66,0,8.5,0C106.66,113.15,105.34,109.05,103.79,105.05Z"/><path class="cls-2" d="M19.71,71.09c3.6-2.46,8.11-2,12.26-2q78.51,0,157,0c6.73-.15,12.47,5.32,13.57,11.82q-94.67,0-189.32,0C14.15,77,16.16,73.18,19.71,71.09Z"/><path class="cls-2" d="M47.11,115.76c3.7.26,7.93-1,11.16,1.39a4.22,4.22,0,0,1-1.45,6.91c-3.19,1-6.64.37-9.93.53C47,121.64,47.06,118.7,47.11,115.76Z"/><path class="cls-2" d="M13.24,146.68c63.05-.09,126.11,0,189.17-.05A13.71,13.71,0,0,1,189,158.42q-81,.12-162,0C20.22,158.69,14.43,153.2,13.24,146.68Z"/><path d="M13.37,143.26c.12-19.72,0-39.44.09-59.16q94.44.11,188.88,0c0,19.76,0,39.53,0,59.3C139.34,143.05,76.35,143.39,13.37,143.26Zm14.3-47.58c0,1.88,0,3.76,0,5.65,1.81.61,4,1.55,3.89,3.85.18,5.5.31,11-.05,16.54.1,2.23-2.19,2.79-3.83,3.44,0,1.91,0,3.82,0,5.74,8.75,0,17.51,0,26.28,0,6.44,0,13.51.28,19.12-3.47a7.4,7.4,0,0,0,2.13-10.31c-2-3-5.84-3.73-9-4.81,2.21-1,4.64-1.66,6.57-3.2,3.18-2.79,2.62-8.47-1-10.67C67.71,95.91,62.7,95.74,58,95.65,47.91,95.69,37.79,95.62,27.67,95.68Zm58.69,25.83c-.71,2.29-3,3-5.1,3.53,0,1.95,0,3.9,0,5.85,6.71.05,13.43,0,20.14,0,0-2,0-3.9,0-5.84-1.26-.49-3.52,0-3.85-1.75l.16-3.27c4,0,7.93,0,11.9,0l.56,2.35c.07,2.65-3.18,2.41-5,2.52,0,2,0,4,0,6q12.57,0,25.14,0c0-1.94,0-3.86,0-5.78a6,6,0,0,1-4.66-3.32c-4-8.66-7.71-17.47-11.7-26.14-5.38,0-10.75,0-16.11,0C93.94,104.21,90.25,112.9,86.36,121.51Zm49.87-25.86c0,1.93,0,3.86,0,5.8,1.83.52,3.88,1.46,3.89,3.69.2,5.38.15,10.79,0,16.17.18,2.37-2.16,3.17-3.91,3.87,0,1.91,0,3.83,0,5.76,7.71-.05,15.42,0,23.14,0,0-1.94,0-3.87,0-5.8-1.26-.36-2.84-.24-3.6-1.5-.69-2.59-.34-5.3-.37-7.94,3.23.27,7.17-.76,9.71,1.86,2.4,3.51,1,8.53,4,11.71,4.73,3.09,11.49,3.62,16.37.56,2.75-1.66,3.19-5,3.31-7.93q-3.15,0-6.25,0c-.46-2.14-.25-4.6-1.65-6.41a40.61,40.61,0,0,0-5.25-3.78c2.57-.82,5.57-1.16,7.46-3.33,2.58-2.53,2.06-7.21-.72-9.4-3.39-2.93-8.08-3.27-12.35-3.36Q153.14,95.66,136.23,95.65Z"/><path class="cls-3" d="M136.23,95.65q16.91,0,33.83,0c4.27.09,9,.43,12.35,3.36,2.78,2.19,3.3,6.87.72,9.4-1.89,2.17-4.89,2.51-7.46,3.33a40.61,40.61,0,0,1,5.25,3.78c1.4,1.81,1.19,4.27,1.65,6.41q3.1-.06,6.25,0c-.12,2.93-.56,6.27-3.31,7.93-4.88,3.06-11.64,2.53-16.37-.56-3-3.18-1.58-8.2-4-11.71-2.54-2.62-6.48-1.59-9.71-1.86,0,2.64-.32,5.35.37,7.94.76,1.26,2.34,1.14,3.6,1.5,0,1.93,0,3.86,0,5.8-7.72,0-15.43,0-23.14,0,0-1.93,0-3.85,0-5.76,1.75-.7,4.09-1.5,3.91-3.87.13-5.38.18-10.79,0-16.17,0-2.23-2.06-3.17-3.89-3.69C136.25,99.51,136.24,97.58,136.23,95.65Zm19.18,6.17q0,3.83,0,7.65c3.51-.22,7.16.5,10.58-.53,3.08-1.27,2.45-6.67-1-6.94C161.8,101.63,158.59,101.88,155.41,101.82Z"/><path class="cls-4" d="M46.88,101.88a59,59,0,0,1,9,.16c3.34.41,3.93,5.71.72,6.77s-6.38.59-9.56.64C47,106.92,46.92,104.4,46.88,101.88Z"/><path class="cls-4" d="M103.79,105.05c1.55,4,2.87,8.1,4.25,12.18-2.84,0-5.68,0-8.5,0C101,113.18,102.31,109.08,103.79,105.05Z"/><path class="cls-5" d="M155.41,101.82c3.18.06,6.39-.19,9.57.18,3.45.27,4.08,5.67,1,6.94-3.42,1-7.07.31-10.58.53Q155.4,105.65,155.41,101.82Z"/></svg>