<svg id="Layer_1" data-name="Layer 1" xmlns="http://www.w3.org/2000/svg" viewBox="0 0 216 216"><defs><style>.cls-1{fill:#fbfcfa;}.cls-2{fill:#932c02;}.cls-3{fill:#e89303;}.cls-4{fill:#8e2c03;}.cls-5{fill:#f9d600;}.cls-6{fill:#fff3bb;}.cls-7{fill:#f1d83d;}.cls-8{fill:#f4ae00;}.cls-9{fill:#fad402;}.cls-10{fill:#922c01;}.cls-11{fill:#912d00;}.cls-12{fill:#f9f4b9;}.cls-13{fill:#fad20c;}.cls-14{fill:#fbd309;}</style></defs><path class="cls-1" d="M76.25,40.18a33.58,33.58,0,0,1,27.87-23.6c15.33-2.24,31.29,7.69,36,22.46,1,2.25.72,5.25,3,6.74A51.84,51.84,0,0,1,159.5,70c2.08,6.57,1.62,14,5.67,19.85,3.15,5.69,9,9.17,12.35,14.68a50.66,50.66,0,0,1,5.5,11.2c5.8,3.51,11,9.13,11.21,16.28q.12,16.46,0,32.93c0,7-4.93,13.05-10.92,16.26-9.86,5.43-21.3,6.67-32.25,8.39-1.35.24-2.18,1.5-3.21,2.29a32.8,32.8,0,0,1-32.95,6.34c-4.09-1.24-7.36-4-10.89-6.23-19.39-.47-39-1.3-57.91-5.74-7.06-1.82-14.5-4.21-19.54-9.78A19,19,0,0,1,21.64,163c.06-10.29-.08-20.58.09-30.87.13-6,3.85-11.48,8.83-14.67,1.24-1,3-1.49,3.61-3.11,2.38-5.65,5.27-11.29,9.8-15.53,4.63-4.4,9-9.54,10.58-15.88,1-4.67,1.49-9.47,3-14A52.42,52.42,0,0,1,73.66,45.68C75.51,44.44,75.6,42.09,76.25,40.18Zm3.82,7C70.4,54.36,62.77,64.89,60.94,77c-.73,6-2.25,12-5.85,17C51.33,99.85,45,103.66,41.9,110c-1.85,2.88-2.36,6.54-4.44,9.23C32.57,121.93,27.19,125.86,27,132c-.41,9.65,0,19.31-.16,29-.11,3.67,0,7.67,2.41,10.7,3.72,5,9.86,7.17,15.59,8.89,20,5.13,40.75,5.72,61.26,6.27,5.58,4.63,12.39,8.38,19.88,8,8.46.34,16.38-4,21.86-10.21,8.77-.92,17.57-2.25,26-5,5.2-1.8,10.71-4.3,13.65-9.21,2.34-4.47,1.47-9.7,1.65-14.54-.19-8.34.37-16.71-.29-25-.6-5.67-5.77-8.8-9.95-11.78-1.7-3.64-2.84-7.56-5.13-10.89-2.83-4.71-7.34-8-10.67-12.29a31.12,31.12,0,0,1-6.49-14.06c-.89-5-1.58-10.16-3.73-14.84-3.42-8-9.32-14.6-16.14-19.84-1.3-13.55-13-25.21-26.74-25.67C95.28,20.37,81.17,32.39,80.07,47.13Z"/><path class="cls-2" d="M80.07,47.13C81.17,32.39,95.28,20.37,110,21.57c13.73.46,25.44,12.12,26.74,25.67,6.82,5.24,12.72,11.87,16.14,19.84,2.15,4.68,2.84,9.81,3.73,14.84A31.12,31.12,0,0,0,163.1,96c3.33,4.29,7.84,7.58,10.67,12.29,2.29,3.33,3.43,7.25,5.13,10.89,4.18,3,9.35,6.11,9.95,11.78.66,8.32.1,16.69.29,25-.18,4.84.69,10.07-1.65,14.54-2.94,4.91-8.45,7.41-13.65,9.21-8.42,2.72-17.22,4.05-26,5-5.48,6.23-13.4,10.55-21.86,10.21-7.49.34-14.3-3.41-19.88-8-20.51-.55-41.28-1.14-61.26-6.27-5.73-1.72-11.87-3.93-15.59-8.89-2.37-3-2.52-7-2.41-10.7.15-9.66-.25-19.32.16-29,.18-6.17,5.56-10.1,10.45-12.81,2.08-2.69,2.59-6.35,4.44-9.23,3.14-6.33,9.43-10.14,13.19-16,3.6-4.94,5.12-11,5.85-17C62.77,64.89,70.4,54.36,80.07,47.13ZM96.44,36.38c-4.84,4-6.69,10.63-6.07,16.75C79.88,58.56,72,69.16,70.77,81,69.64,91.58,64,101.16,56.39,108.39a30.21,30.21,0,0,0-9,15.9c-.62,5.41-9.26,3.44-10.06,8.81,0,10.93-.27,21.87.15,32.79a17.58,17.58,0,0,0,5.31,3C53.68,173,65.48,174,77,175.15c11.17,1.27,22.44,1.13,33.66,1.44,2.64,1.3,4.11,4.47,6.91,5.74,8.12,5,20.23,1.47,23.91-7.46,10.08-.93,20.31-2,29.92-5.37l.63.1c3.12-1.53,7.45-3.11,6.69-7.45-.28-10.05.25-20.12-.27-30.15-1.84-2.68-5.19-3.5-8-4.63l-.91-2.28c-1.31-5.93-4-11.8-8.5-16-5.58-5.38-10.42-11.75-13-19.12-2-5.45-1.91-11.43-3.89-16.9-3.08-8.65-9.84-15.7-17.84-20,.56-5.75-.82-12-5.24-16C114.63,30.51,103.13,30.13,96.44,36.38Z"/><path class="cls-3" d="M96.44,36.38c6.69-6.25,18.19-5.87,24.57.65,4.42,4,5.8,10.28,5.24,16a52.12,52.12,0,0,0-10.54-3.69c.81-5.62-6.27-9.07-10.82-6.54-2.84,1-3.76,4-4.55,6.55a61.09,61.09,0,0,0-10,3.75C89.75,47,91.6,40.43,96.44,36.38Z"/><path class="cls-4" d="M104.89,42.83c4.55-2.53,11.63.92,10.82,6.54a36.21,36.21,0,0,0-15.37,0C101.13,46.8,102.05,43.8,104.89,42.83Z"/><path class="cls-5" d="M100.34,49.38a36.21,36.21,0,0,1,15.37,0,52.12,52.12,0,0,1,10.54,3.69c8,4.33,14.76,11.38,17.84,20,2,5.47,1.84,11.45,3.89,16.9,2.6,7.37,7.44,13.74,13,19.12,4.54,4.18,7.19,10,8.5,16-.19.37-.58,1.09-.78,1.45a256.21,256.21,0,0,0-40.93-5.16c-25.67-1.24-51.6-.52-76.88,4.38-1.54.42-3,.18-3.52-1.47a30.21,30.21,0,0,1,9-15.9C64,101.16,69.64,91.58,70.77,81,72,69.16,79.88,58.56,90.37,53.13A61.09,61.09,0,0,1,100.34,49.38ZM81.47,69.52c-1.82,4.61-3.11,10-.65,14.64C84.48,79,87.92,73.6,91.93,68.64L95,67.89c2.27-2.49,4.56-5,6.6-7.67-.07-.41-.2-1.23-.27-1.64l.22-.19.32-2.14C92.88,55,84.84,61.65,81.47,69.52Z"/><path class="cls-6" d="M81.47,69.52C84.84,61.65,92.88,55,101.86,56.25l-.32,2.14-.22.19c-3.55,2.93-7,6-9.39,10.06-4,5-7.45,10.31-11.11,15.52C78.36,79.52,79.65,74.13,81.47,69.52Z"/><path class="cls-7" d="M91.93,68.64c2.35-4,5.84-7.13,9.39-10.06.07.41.2,1.23.27,1.64-2,2.68-4.33,5.18-6.6,7.67Z"/><path class="cls-8" d="M50.91,125.76c25.28-4.9,51.21-5.62,76.88-4.38a256.21,256.21,0,0,1,40.93,5.16c.2-.36.59-1.08.78-1.45l.91,2.28c2.85,1.13,6.2,1.95,8,4.63.52,10,0,20.1.27,30.15a65.87,65.87,0,0,0-22.11-6.81A224.45,224.45,0,0,0,125,152.21c-23-.44-46.26-.43-69,3.66-5.56,1.07-11.2,2.37-16.23,5.06-2,.83-1.93,3.17-2.31,5-.42-10.92-.19-21.86-.15-32.79.8-5.37,9.44-3.4,10.06-8.81C47.93,125.94,49.37,126.18,50.91,125.76Z"/><path class="cls-8" d="M111.21,158.37c10.08,0,20.16.46,30.23,1a31.06,31.06,0,0,1,2.05,10.67l1-.07c-1.07,1.58-2.1,3.18-3,4.86-3.68,8.93-15.79,12.43-23.91,7.46-2.8-1.27-4.27-4.44-6.91-5.74-11.22-.31-22.49-.17-33.66-1.44,11.24.15,22.51.87,33.75.19-.51-1.33-1-2.64-1.47-4C108.21,166.92,109.32,162.42,111.21,158.37Zm1.05,4.53c.27,1.81-.45,4.21,1.47,5.32,2.77,3,8.13-.52,6.93-4.3.09-3-3.64-3.33-5.83-3.71C114,161.11,113.11,162,112.26,162.9Z"/><path class="cls-9" d="M56,155.87c22.75-4.09,46-4.1,69-3.66a224.45,224.45,0,0,1,31.58,3.13,65.87,65.87,0,0,1,22.11,6.81c.76,4.34-3.57,5.92-6.69,7.45l-.63-.1c-1.69-.31-3.37-.58-5.05-.85q2.79-1.85,5.53-3.77c-1.42-.48-2.83-1-4.24-1.4-8.47-2.69-17.39-3.4-26.2-4.07-10.07-.58-20.15-1-30.23-1A430.89,430.89,0,0,0,67.94,160c-6.95.89-14.29,1-20.59,4.42l1,2,1.25,2.38c-2.29.05-4.58.12-6.86.1a17.58,17.58,0,0,1-5.31-3c.38-1.79.33-4.13,2.31-5C44.82,158.24,50.46,156.94,56,155.87Z"/><path class="cls-10" d="M67.94,160a430.89,430.89,0,0,1,43.27-1.58c-1.89,4-3,8.55-1.93,13-12.12.22-24.23-.34-36.32-1.13-8.26-.68-16.58-1.46-24.56-3.86l-1-2C53.65,161,61,160.84,67.94,160Z"/><path class="cls-11" d="M141.44,159.41c8.81.67,17.73,1.38,26.2,4.07l1.11,1.74c-7.37,4-16.1,3.95-24.26,4.79l-1,.07A31.06,31.06,0,0,0,141.44,159.41Z"/><path class="cls-12" d="M112.26,162.9c.85-.9,1.71-1.79,2.57-2.69,2.19.38,5.92.7,5.83,3.71,1.2,3.78-4.16,7.27-6.93,4.3C111.81,167.11,112.53,164.71,112.26,162.9Z"/><path class="cls-13" d="M167.64,163.48c1.41.43,2.82.92,4.24,1.4q-2.74,1.92-5.53,3.77c1.68.27,3.36.54,5.05.85-9.61,3.34-19.84,4.44-29.92,5.37.91-1.68,1.94-3.28,3-4.86,8.16-.84,16.89-.75,24.26-4.79Z"/><path class="cls-14" d="M49.65,168.76l-1.25-2.38c8,2.4,16.3,3.18,24.56,3.86,12.09.79,24.2,1.35,36.32,1.13.44,1.33,1,2.64,1.47,4-11.24.68-22.51,0-33.75-.19C65.48,174,53.68,173,42.79,168.86,45.07,168.88,47.36,168.81,49.65,168.76Z"/></svg>