<svg id="Layer_1" data-name="Layer 1" xmlns="http://www.w3.org/2000/svg" viewBox="0 0 216 216"><defs><style>.cls-1{fill:#fcfdfc;}.cls-2{fill:#7fa512;}.cls-3{fill:#bed63a;}.cls-4{fill:#48250f;}.cls-5{fill:#fefefd;}.cls-6{fill:#7b012e;}.cls-7{fill:#e00755;}.cls-8{fill:#ffdcea;}</style></defs><path class="cls-1" d="M74.51,34.83c-1.46-10,1.11-20,3.56-29.63C84.91,6.36,92,6.29,98.63,8.36a49.63,49.63,0,0,1,29.7,23.69,50.63,50.63,0,0,1,5.58,32.77c8.74,13.16,13,29,13.5,44.65,8.93-.65,18.23.7,26,5.4,12.45,7.4,19.85,21.51,21.11,35.69,1.79,16.71-6,33.54-18.48,44.47-10.63,9.56-25.46,12.56-39.38,12.22-7.92.1-15.68-1.77-23.17-4.18-7.11,2.13-14.39,4-21.88,4.11-18.18,1-37.46-4.73-50.2-18.17-10.11-10.67-13.59-26.09-12.27-40.42,1.23-14.1,7.45-28.66,19.58-36.68,10.69-7.19,24.79-7.24,36.51-2.62a65.6,65.6,0,0,0,9.6-21.79A50.61,50.61,0,0,1,60.74,70.7c-6.09-6.58-9.31-15.08-13.09-23.05C56.11,42.44,64.55,36.7,74.51,34.83Zm9-20.94c-.56,3.24-1.28,6.46-1.67,9.73-.89,6,.31,12,1.62,17.8-4.63.54-9.39.81-13.79,2.52-4.12,1.42-7.69,4-11.64,5.77-.16,3.46,1.75,6.49,3.33,9.41C64.84,64.76,69.75,69.38,75,73.34c8.4,5,18.45,7.68,28.23,6.41-.32,12.81-5.82,24.81-12.64,35.42-.9,1.06-1.84,2.08-2.81,3.07-9.11-4-19.72-6.52-29.36-2.87S42,127.88,39,137.52c-4.06,12.91-3.75,27.75,3,39.74,7.56,12.89,22.19,20,36.61,22,11.6,1.33,23.87.57,34.57-4.45a65.92,65.92,0,0,0,43.26,2.61c12.84-3.51,22.62-14.19,27.69-26.16,6.72-16.07,2.52-36.72-11.37-47.69-9.09-7.29-22-8.27-32.75-4.55.57-17.36-2.3-35.86-12.73-50.18L126,66.74a66.56,66.56,0,0,0,1.08-11.09,42,42,0,0,0-15.94-32.47A42.54,42.54,0,0,0,83.56,13.89Z"/><path class="cls-2" d="M83.56,13.89a42.54,42.54,0,0,1,27.62,9.29,42,42,0,0,1,15.94,32.47A66.56,66.56,0,0,1,126,66.74l1.2,2.05-1.36-1.39c-.57.67-1.14,1.36-1.7,2C120.05,59,112.24,49.93,101.9,45.33c-5.73-2.7-12.12-3.62-18.39-3.91C82.2,35.61,81,29.58,81.89,23.62,82.28,20.35,83,17.13,83.56,13.89Z"/><path class="cls-3" d="M69.72,43.94c4.4-1.71,9.16-2,13.79-2.52,6.27.29,12.66,1.21,18.39,3.91,10.34,4.6,18.15,13.68,22.28,24.11.56-.68,1.13-1.37,1.7-2-.76,1.62-1,3.75-2.79,4.65a47.89,47.89,0,0,1-19.88,7.7C93.43,81,83.38,78.33,75,73.34c-5.23-4-10.14-8.58-13.57-14.22-1.58-2.92-3.49-5.95-3.33-9.41C62,47.92,65.6,45.36,69.72,43.94Z"/><path class="cls-4" d="M125.88,67.4l1.36,1.39C137.67,83.11,140.54,101.61,140,119c-4.79.92-9.23-1.75-13.84-2.57.27-13.1-2.28-26.38-8.75-37.88A79.66,79.66,0,0,1,107,114.88a57.47,57.47,0,0,0-16.41.29c6.82-10.61,12.32-22.61,12.64-35.42a47.89,47.89,0,0,0,19.88-7.7C124.85,71.15,125.12,69,125.88,67.4Z"/><path class="cls-5" d="M107,114.88a79.66,79.66,0,0,0,10.4-36.36c6.47,11.5,9,24.78,8.75,37.88C119.79,115,113.2,117.15,107,114.88Z"/><path class="cls-6" d="M58.4,115.37c9.64-3.65,20.25-1.11,29.36,2.87,1-1,1.91-2,2.81-3.07a57.47,57.47,0,0,1,16.41-.29c6.22,2.27,12.81.08,19.15,1.52,4.61.82,9.05,3.49,13.84,2.57,10.77-3.72,23.66-2.74,32.75,4.55,13.89,11,18.09,31.62,11.37,47.69-5.07,12-14.85,22.65-27.69,26.16a65.92,65.92,0,0,1-43.26-2.61c-10.7,5-23,5.78-34.57,4.45-14.42-1.92-29-9.06-36.61-22-6.7-12-7-26.83-3-39.74C42,127.88,48.75,119,58.4,115.37Zm5.8,15a13.59,13.59,0,0,0-8.84,8.88c-3.18,9.17-4.75,19.87-.22,28.88,4.86,8.61,14.42,13.27,23.83,15a49.88,49.88,0,0,0,26.64-2.51c10.44-5.4,17.49-17.18,16.44-29-.93-7.23-3.85-15-10.48-18.85-3.51-2.42-8-2-12-1.84-5.28.15-9.85,4.9-15.25,3.07C78,131.75,71.06,127.91,64.2,130.41Zm83,3A35.33,35.33,0,0,1,134.92,137c2.13,6.71,2.68,13.76,3.07,20.75-.13,3.92-1.51,7.67-2.65,11.39-1.55,5-5.54,8.79-6.63,13.92a50.32,50.32,0,0,0,26.89-2.33c4-1.76,7-5.15,9.58-8.54,3.3-4.89,6.5-10.37,6-16.51a24.07,24.07,0,0,0-8.58-20C158.26,132.32,152.28,132.6,147.15,133.44Z"/><path class="cls-7" d="M64.2,130.41c6.86-2.5,13.75,1.34,20.1,3.64,5.4,1.83,10-2.92,15.25-3.07,4-.12,8.51-.58,12,1.84,6.63,3.83,9.55,11.62,10.48,18.85,1,11.85-6,23.63-16.44,29A49.88,49.88,0,0,1,79,183.21c-9.41-1.77-19-6.43-23.83-15-4.53-9-3-19.71.22-28.88A13.59,13.59,0,0,1,64.2,130.41ZM66.91,139c-5.49,2.12-8.32,10.09-4,14.62,3.46,3.36,9.16,3.53,13.4,1.63a7.14,7.14,0,0,0,4.29-7.58C80.68,141,72.86,136.24,66.91,139Z"/><path class="cls-7" d="M147.15,133.44c5.13-.84,11.11-1.12,15.46,2.25a24.07,24.07,0,0,1,8.58,20c.49,6.14-2.71,11.62-6,16.51-2.61,3.39-5.6,6.78-9.58,8.54A50.32,50.32,0,0,1,128.71,183c1.09-5.13,5.08-9,6.63-13.92,1.14-3.72,2.52-7.47,2.65-11.39-.39-7-.94-14-3.07-20.75A35.33,35.33,0,0,0,147.15,133.44Z"/><path class="cls-8" d="M66.91,139c6-2.71,13.77,2,13.64,8.67a7.14,7.14,0,0,1-4.29,7.58c-4.24,1.9-9.94,1.73-13.4-1.63C58.59,149,61.42,141.07,66.91,139Z"/></svg>