<svg id="Layer_1" data-name="Layer 1" xmlns="http://www.w3.org/2000/svg" viewBox="0 0 216 216"><defs><style>.cls-1{fill:#fbfefb;}.cls-2{fill:#354202;}.cls-3{fill:#9fc903;}.cls-4{fill:#a0c510;}.cls-5{fill:#d8f370;}.cls-6{fill:#d7f26e;}.cls-7{fill:#90b500;}.cls-8{fill:#91b500;}.cls-9{fill:#92b400;}.cls-10{fill:#92b501;}.cls-11{fill:#7e9600;}.cls-12{fill:#91b401;}.cls-13{fill:#91b501;}.cls-14{fill:#d8f46c;}.cls-15{fill:#abc941;}</style></defs><path class="cls-1" d="M53.75,29.45c14.88-12.53,38.71-11.61,52.7,1.87a40.89,40.89,0,0,1,25-10.69A40,40,0,0,1,166,36.48a27,27,0,0,0,5.65,5.27,40.17,40.17,0,0,1,13.45,37.41,41.47,41.47,0,0,1-10.15,20.63,40.27,40.27,0,0,1-4.65,59.07c-4.05,2.65-6,7.34-9.87,10.25-11.42,10.23-28.62,12.45-42.64,6.66-9.68,14.16-25.65,22.92-42.05,26.85-4.77,1.2-10,2.1-14.7.08a16.85,16.85,0,0,1-10.26-13.61q-1.09-11.76-2-23.55a20.68,20.68,0,0,0-5.64-6.35A39.46,39.46,0,0,1,27.54,131.9,40.15,40.15,0,0,1,38,99.84c-5.33-6.1-9.26-13.57-10.32-21.66A40.14,40.14,0,0,1,42.33,40.94C46.81,37.81,49.26,32.62,53.75,29.45Zm71-1.88c-7.29,1.89-13.58,6.54-18.26,12.36A34.42,34.42,0,0,0,78.37,26.35,34,34,0,0,0,51.06,40.67c-1.82,2.87-5,4.32-7.37,6.7a34.58,34.58,0,0,0-9.23,34.68c2,7.07,6.55,13.1,12.07,17.8-6.56,5.25-11.52,12.66-12.9,21-2.35,12,2.26,25.3,11.95,32.91,4,2.53,6.64,6.44,9.42,10.13-.55,7.73.9,15.4,1.34,23.1.1,4.31,2.57,8.69,6.71,10.26,4.33,1.87,9,.2,13.34-.79,15.92-4.18,31.4-13.56,39.28-28.45A35.13,35.13,0,0,0,149,169.75c6.19-2.8,10.77-7.92,14.8-13.21,8.92-5.93,15.32-15.79,15.95-26.61a34.45,34.45,0,0,0-13.41-30.06,38.41,38.41,0,0,0,9.49-11.43c7.94-14.22,3.76-33.95-9.52-43.48-3.9-2.43-5.77-6.85-9.24-9.73A34.72,34.72,0,0,0,124.7,27.57Z"/><path class="cls-2" d="M124.7,27.57a34.72,34.72,0,0,1,32.41,7.66c3.47,2.88,5.34,7.3,9.24,9.73,13.28,9.53,17.46,29.26,9.52,43.48a38.41,38.41,0,0,1-9.49,11.43,34.45,34.45,0,0,1,13.41,30.06c-.63,10.82-7,20.68-15.95,26.61-4,5.29-8.61,10.41-14.8,13.21A35.13,35.13,0,0,1,115.67,168c-7.88,14.89-23.36,24.27-39.28,28.45-4.33,1-9,2.66-13.34.79-4.14-1.57-6.61-5.95-6.71-10.26-.44-7.7-1.89-15.37-1.34-23.1-2.78-3.69-5.46-7.6-9.42-10.13-9.69-7.61-14.3-20.88-11.95-32.91,1.38-8.37,6.34-15.78,12.9-21-5.52-4.7-10.1-10.73-12.07-17.8a34.58,34.58,0,0,1,9.23-34.68c2.34-2.38,5.55-3.83,7.37-6.7A34,34,0,0,1,78.37,26.35a34.42,34.42,0,0,1,28.07,13.58C111.12,34.11,117.41,29.46,124.7,27.57ZM59,48.62c-1.95,3.77-6.64,4.64-9.08,8C42.38,64.88,42,78.46,49.21,87c6.12,7.77,16.51,9.56,25.69,11.08,2.33.55,5.26-.05,6.9,2.09C73.08,101.84,64,102.58,56,106.75c-9.07,4.94-14.1,16.39-11.21,26.37a23.1,23.1,0,0,0,10.4,14c3.53,1.86,4.65,6,7.54,8.53,7.52,7.45,20.27,8.78,29,2.74,8.07-4.89,11.06-14.64,12.39-23.44.08.45.25,1.35.33,1.8-1.42,8.31-4.06,17.05-10.6,22.81-7.6,6.88-18.41,8.21-28.26,8.08.86,6.38,1.16,12.82,1.89,19.21l1.78,0c12.39-2.49,24.73-8.16,32.87-18.11,5.86-7.09,7.83-16.41,8.38-25.37,2.21,6.53,6,12.95,12.42,16,9.21,5.13,21.84,2.92,28.65-5.17,2-2.36,3.16-5.54,6-7a23.28,23.28,0,0,0,11-16.35,23.64,23.64,0,0,0-9.54-22.81c-8.34-5.47-18.65-6.13-28.21-7.87-.06-.14-.17-.43-.23-.58l1.94-1c9.24-.72,19-2.25,26.85-7.47,10.8-7.54,12.67-24.5,3.78-34.21-2.53-3.48-7.19-4.64-9.34-8.43a22.8,22.8,0,0,0-12.18-10c-12-4.44-27.41,2.89-30.12,15.74-3.46,7.66-3.55,16.39-5.13,24.57-1.75-9.6-2.25-19.65-6.48-28.6C96,42.31,87.25,36.86,78.3,37.36A22.69,22.69,0,0,0,59,48.62Z"/><path class="cls-3" d="M59,48.62A22.69,22.69,0,0,1,78.3,37.36c9-.5,17.72,5,21.71,12.89,4.23,9,4.73,19,6.48,28.6,1.58-8.18,1.67-16.91,5.13-24.57,1.9-2.21,3.57-4.93,6.48-5.91-.23.67-.68,2-.9,2.67,4.86-2,9.8-4.16,15.14-4.46,5.67-.69,11.25.82,16.67,2.34l.2-.82.57-2c3.55,6.49,11,9.25,14.79,15.5,3.58,6.16,3.08,14,.41,20.34a34.53,34.53,0,0,1-7.38,8.34c-5.95,3.67-13,4.77-19.81,5.75,2.25-4.24,3.63-9.47,1.52-14-2.45-3.79-6.07-6.62-9.29-9.72-3-3-7.52-4.64-11.72-3.44-5.64,1.3-9.2,6.74-10.21,12.16,2.58-2.5,4.81-6,8.66-6.56a11.29,11.29,0,0,1,9.72,3.48c3,3.34,7.66,6.09,7.86,11.09.78,4-2.14,7.25-3.64,10.69.06.15.17.44.23.58,9.56,1.74,19.87,2.4,28.21,7.87a23.64,23.64,0,0,1,9.54,22.81,23.28,23.28,0,0,1-11,16.35c-2.89,1.49-4,4.67-6,7-6.81,8.09-19.44,10.3-28.65,5.17-6.45-3.09-10.21-9.51-12.42-16-.55,9-2.52,18.28-8.38,25.37-8.14,9.95-20.48,15.62-32.87,18.11-1.84-4.31-1.62-9-1.23-13.57,8.09-.92,17.77-.26,23.59-7,8.37-7.16,15.16-18.14,12.83-29.53-.08-.45-.25-1.35-.33-1.8-1.33,8.8-4.32,18.55-12.39,23.44-8.77,6-21.52,4.71-29-2.74-2.89-2.54-4-6.67-7.54-8.53a23.1,23.1,0,0,1-10.4-14c-2.89-10,2.14-21.43,11.21-26.37,8-4.17,17.11-4.91,25.83-6.54-1.64-2.14-4.57-1.54-6.9-2.09C65.72,96.6,55.33,94.81,49.21,87c-7.18-8.58-6.83-22.16.68-30.43C52.33,53.26,57,52.39,59,48.62Zm7.89-3.11c-2.56,1.92-3.57,5.07-5.37,7.6-3.68,2.51-8.44,4.32-10,8.92-2.06,4-1.41,8.6-.13,12.78,2.2-3.33,4.35-6.78,7.48-9.31,2.67-2.28,6-3.58,9.08-5.08,2.64-1.05,3-4.21,4.33-6.42,1.84-4.48,5.57-7.69,9.26-10.64C76.77,41.31,70.72,41.94,66.86,45.51ZM82.63,72.23c-2.44,2.91-5.53,5.21-7.92,8.16-2.57,4.46-2.66,10.57.52,14.76a5.5,5.5,0,0,0,7.15,1.58l-2.84-1.21C78.11,91,77.84,84.84,82.2,81.83c2.81-2.2,5.13-5,8.27-6.79,2.59-1.55,5.71-.3,8.29.62,3.53,1.41,5,5.14,6.54,8.31-.41-4.79-1.69-10.13-5.93-13C94.57,66.87,86.8,67.58,82.63,72.23ZM94.37,83.06A36.58,36.58,0,0,0,88,89.56c-2.86,2.91-1.47,8,1.76,10.1,2.46,2,5.7,2.18,8.72,2.44l.77.61-3.1.23c-4.21-.45-7.95,2.44-9.55,6.16-1,4.9,3.44,8.26,6.64,11.14a7.26,7.26,0,0,0,9.9-.42c1.79-1.73,1.78-4.38,2.2-6.66.35-1,.72-1.91,1.08-2.86l1,1.48c-1.37,5,3.3,11.85,8.9,10.11,3.61-.41,5.74-3.63,8-6.07s1.83-6.26,1.43-9.42c-2.58-1.52-5.19-3.26-8.29-3.36-1.38-.17-2.76-.36-4.14-.56,1.44-.47,2.88-.91,4.34-1.29,3-.38,6.48-1.17,7.86-4.21,2.14-3.83-.36-8.26-3.31-10.85-2.54-2.72-6.94-5.47-10.48-2.85-3.14,1.63-3.81,5.26-4.51,8.39l-.24,2.81a40.8,40.8,0,0,0-2.42-7.68C102.54,83.49,98,81.06,94.37,83.06ZM72.56,116c-.12,3.41.44,7.29,3.3,9.55,3,2.66,5.47,5.9,8.59,8.43,6.49,4.93,18.88,1.1,19-7.82-2.3,1.43-4.54,3.08-7.16,3.89-3.77,1.37-7.73-1-10.18-3.8-2.62-3.15-6.91-5.4-7.28-9.9-1.35-5.1,2.52-9.51,6.38-12.24C78.92,104.45,73.12,109.63,72.56,116Zm53.79-12c5.36,2.24,10,8.39,7.38,14.31-2.3,3.63-5.78,6.36-8.38,9.78A12.61,12.61,0,0,1,114,129.36c-2.89-1-3.88-4.1-5.42-6.39-.14,4.59,2.12,9.37,6.38,11.42a12.25,12.25,0,0,0,15.36-2.34c3.27-4,8.52-6.73,9.76-12.14.46-3.52,0-7.5-2.28-10.34C134.67,106.63,131,103.5,126.35,104Zm-76.2,15c-2.36,4.51-1.61,9.81-.57,14.59,1.75-3.45,2.73-7.25,4.6-10.64,3.4-6.32,9-10.84,14.73-15C61.16,106.82,53.23,111.9,50.15,119Z"/><path class="cls-4" d="M111.62,54.28c2.71-12.85,18.1-20.18,30.12-15.74a22.8,22.8,0,0,1,12.18,10c2.15,3.79,6.81,5,9.34,8.43,8.89,9.71,7,26.67-3.78,34.21-7.86,5.22-17.61,6.75-26.85,7.47,1.7-.92,3.39-1.86,5.16-2.63,6.8-1,13.86-2.08,19.81-5.75A34.53,34.53,0,0,0,165,81.9c2.67-6.39,3.17-14.18-.41-20.34-3.78-6.25-11.24-9-14.79-15.5l-.57,2c-3.9-4-9.06-7.3-14.87-6.94-6.29-.42-11.91,3-16.24,7.21C115.19,49.35,113.52,52.07,111.62,54.28Z"/><path class="cls-5" d="M118.1,48.37c4.33-4.25,10-7.63,16.24-7.21,5.81-.36,11,2.94,14.87,6.94l-.2.82c-5.42-1.52-11-3-16.67-2.34C127,46.88,122.06,49,117.2,51,117.42,50.37,117.87,49,118.1,48.37Z"/><path class="cls-6" d="M66.86,45.51c3.86-3.57,9.91-4.2,14.65-2.15-3.69,3-7.42,6.16-9.26,10.64-1.28,2.21-1.69,5.37-4.33,6.42-3.12,1.5-6.41,2.8-9.08,5.08-3.13,2.53-5.28,6-7.48,9.31-1.28-4.18-1.93-8.73.13-12.78,1.56-4.6,6.32-6.41,10-8.92C63.29,50.58,64.3,47.43,66.86,45.51Z"/><path class="cls-7" d="M82.63,72.23C86.8,67.58,94.57,66.87,99.37,71c4.24,2.86,5.52,8.2,5.93,13-1.55-3.17-3-6.9-6.54-8.31-2.58-.92-5.7-2.17-8.29-.62-3.14,1.74-5.46,4.59-8.27,6.79-4.36,3-4.09,9.16-2.66,13.69l2.84,1.21a5.5,5.5,0,0,1-7.15-1.58c-3.18-4.19-3.09-10.3-.52-14.76C77.1,77.44,80.19,75.14,82.63,72.23Z"/><path class="cls-8" d="M118.3,68.8c4.2-1.2,8.69.46,11.72,3.44,3.22,3.1,6.84,5.93,9.29,9.72,2.11,4.56.73,9.79-1.52,14-1.77.77-3.46,1.71-5.16,2.63l-1.94,1c1.5-3.44,4.42-6.68,3.64-10.69-.2-5-4.83-7.75-7.86-11.09a11.29,11.29,0,0,0-9.72-3.48c-3.85.51-6.08,4.06-8.66,6.56C109.1,75.54,112.66,70.1,118.3,68.8Z"/><path class="cls-8" d="M72.56,116c.56-6.36,6.36-11.54,12.64-11.89-3.86,2.73-7.73,7.14-6.38,12.24.37,4.5,4.66,6.75,7.28,9.9,2.45,2.75,6.41,5.17,10.18,3.8,2.62-.81,4.86-2.46,7.16-3.89-.11,8.92-12.5,12.75-19,7.82-3.12-2.53-5.58-5.77-8.59-8.43C73,123.28,72.44,119.4,72.56,116Z"/><path class="cls-8" d="M126.35,104c4.61-.5,8.32,2.63,11.46,5.57,2.25,2.84,2.74,6.82,2.28,10.34-1.24,5.41-6.49,8.1-9.76,12.14A12.25,12.25,0,0,1,115,134.39c-4.26-2-6.52-6.83-6.38-11.42,1.54,2.29,2.53,5.43,5.42,6.39a12.61,12.61,0,0,0,11.34-1.27c2.6-3.42,6.08-6.15,8.38-9.78C136.33,112.39,131.71,106.24,126.35,104Z"/><path class="cls-9" d="M94.37,83.06c3.67-2,8.17.43,10.13,3.74a40.8,40.8,0,0,1,2.42,7.68l0,1.51c-1.52-2.19-2.25-6.08-5.57-5.87-3.89.36-7.91,4.4-6.75,8.48a25.77,25.77,0,0,0,3.87,3.5c-3-.26-6.26-.47-8.72-2.44-3.23-2.07-4.62-7.19-1.76-10.1A36.58,36.58,0,0,1,94.37,83.06Z"/><path class="cls-10" d="M111.67,83.28c3.54-2.62,7.94.13,10.48,2.85,2.95,2.59,5.45,7,3.31,10.85-1.38,3-4.86,3.83-7.86,4.21.33-2,1.24-4.08.79-6.13a9.73,9.73,0,0,0-5.33-4.68c-2.06-.74-4,.69-5.9,1.29C107.86,88.54,108.53,84.91,111.67,83.28Z"/><path class="cls-11" d="M94.56,98.6c-1.16-4.08,2.86-8.12,6.75-8.48,3.32-.21,4,3.68,5.57,5.87l0-1.51.24-2.81c1.9-.6,3.84-2,5.9-1.29a9.73,9.73,0,0,1,5.33,4.68c.45,2-.46,4.11-.79,6.13-1.46.38-2.9.82-4.34,1.29,1.38.2,2.76.39,4.14.56.42,1.91,1.15,3.81,1,5.81a11.68,11.68,0,0,1-6.34,5.79c-1.88-.34-3.35-1.68-4.76-2.86l-1-1.48c-.36,1-.73,1.88-1.08,2.86-1.52.5-3,1.33-4.63,1.39a11.27,11.27,0,0,1-5.9-4.91c-1.17-2.32.46-4.61,1.34-6.7l3.1-.23-.77-.61A25.77,25.77,0,0,1,94.56,98.6Z"/><path class="cls-12" d="M86.55,109.1c1.6-3.72,5.34-6.61,9.55-6.16-.88,2.09-2.51,4.38-1.34,6.7a11.27,11.27,0,0,0,5.9,4.91c1.63-.06,3.11-.89,4.63-1.39-.42,2.28-.41,4.93-2.2,6.66a7.26,7.26,0,0,1-9.9.42C90,117.36,85.52,114,86.55,109.1Z"/><path class="cls-13" d="M117.4,103c3.1.1,5.71,1.84,8.29,3.36.4,3.16,1,6.86-1.43,9.42s-4.41,5.66-8,6.07c-5.6,1.74-10.27-5.14-8.9-10.11,1.41,1.18,2.88,2.52,4.76,2.86a11.68,11.68,0,0,0,6.34-5.79C118.55,106.85,117.82,105,117.4,103Z"/><path class="cls-14" d="M50.15,119c3.08-7.08,11-12.16,18.76-11-5.7,4.13-11.33,8.65-14.73,15-1.87,3.39-2.85,7.19-4.6,10.64C48.54,128.79,47.79,123.49,50.15,119Z"/><path class="cls-15" d="M104.46,136.79c2.33,11.39-4.46,22.37-12.83,29.53-5.82,6.76-15.5,6.1-23.59,7-.39,4.55-.61,9.26,1.23,13.57l-1.78,0c-.73-6.39-1-12.83-1.89-19.21,9.85.13,20.66-1.2,28.26-8.08C100.4,153.84,103,145.1,104.46,136.79Z"/></svg>