<svg id="Layer_1" data-name="Layer 1" xmlns="http://www.w3.org/2000/svg" viewBox="0 0 216 216"><defs><style>.cls-1{fill:#fbfefd;}.cls-2{fill:#012e3b;}.cls-3{fill:#26aae1;}.cls-4{fill:#29a7df;}.cls-5{fill:#27aae0;}.cls-6{fill:#0279a2;}.cls-7{fill:#8fcffe;}.cls-8{fill:#8fcfff;}.cls-9{fill:#27aae2;}.cls-10{fill:#0279a4;}</style></defs><path class="cls-1" d="M63.1,41.92c3.75-1.07,7.69-.86,11.55-.87,24.34,0,48.67,0,73,0a22.85,22.85,0,0,1,16,6c9.83,9.28,19.47,18.75,29.26,28.06,2.41,2.32,5.16,4.52,6.49,7.69a13.17,13.17,0,0,1-2.13,13.91q-36.72,41.34-73.54,82.58c-3.11,3.18-5.57,7.3-9.83,9.1a13.4,13.4,0,0,1-15-3.38q-39.3-44.15-78.62-88.26c-4.36-4.82-4.37-12.95.26-17.59,10.77-10.63,21.8-21,32.68-31.51A22.56,22.56,0,0,1,63.1,41.92ZM67,48.77a15.54,15.54,0,0,0-9.17,4.8Q42.13,68.72,26.35,83.86C23.75,86,24,90,26.25,92.36q37.64,42.15,75.18,84.38c2,2.12,3.84,5.26,7.13,5.26,2.37.13,4.18-1.53,5.63-3.2q38.58-43.41,77.26-86.75a5.77,5.77,0,0,0-.29-8.11C180.7,73.72,170,63.73,159.56,53.52a16.4,16.4,0,0,0-12.89-4.94C120.13,48.74,93.57,48.35,67,48.77Z"/><path class="cls-2" d="M67,48.77c26.54-.42,53.1,0,79.64-.19a16.4,16.4,0,0,1,12.89,4.94c10.46,10.21,21.14,20.2,31.6,30.42a5.77,5.77,0,0,1,.29,8.11q-38.58,43.41-77.26,86.75c-1.45,1.67-3.26,3.33-5.63,3.2-3.29,0-5.14-3.14-7.13-5.26Q63.85,134.53,26.25,92.36c-2.28-2.32-2.5-6.32.1-8.5Q42.1,68.71,57.86,53.57A15.54,15.54,0,0,1,67,48.77Zm8.83,14c2.71,5.3,5.71,10.45,8.48,15.72C88.78,73.51,92.55,68,96.63,62.8,89.71,62.64,82.78,62.66,75.86,62.73Zm44.86.21c3.61,4.22,6.92,8.69,10.19,13.18.64.75,1.15,1.86,2.27,2,3-5,5.65-10.25,8.45-15.39C134.66,62.72,127.68,62.43,120.72,62.94Zm-26.15,20c9.43.1,18.87.07,28.31,0-4.52-6.39-9.36-12.56-14.24-18.69C104.07,70.58,99.07,76.57,94.57,82.94ZM151.9,65.65c-2.79,5.89-6.48,11.29-9.17,17.22,9,.11,18,.28,27,0Q160.81,74.23,151.9,65.65ZM47.62,82.94c9.07.08,18.15.09,27.22,0-3-5.75-6.2-11.45-9.3-17.18C59.55,71.46,53.64,77.25,47.62,82.94ZM46.16,93.5c16.71,18.6,33.07,37.51,50,55.9-5.6-18.59-10.88-37.29-16.33-55.93C68.61,93.5,57.38,93.45,46.16,93.5Zm44.6.07q9,30.86,17.93,61.73,9.16-30.84,17.94-61.78C114.67,93.73,102.7,93.18,90.76,93.57Zm46.59.21c-3.3,13.19-7.68,26.07-11.17,39.2a117.46,117.46,0,0,0-4.34,16.16c3.49-4.69,7.91-8.56,11.59-13.1,10.74-11.91,21.26-24,32-35.93a46,46,0,0,0,5.47-6.43,32.82,32.82,0,0,0-7.27-.42C154.88,93.93,146.1,93.14,137.35,93.78Z"/><path class="cls-3" d="M75.86,62.73c6.92-.07,13.85-.09,20.77.07C92.55,68,88.78,73.51,84.34,78.45,81.57,73.18,78.57,68,75.86,62.73Z"/><path class="cls-4" d="M120.72,62.94c7-.51,13.94-.22,20.91-.23-2.8,5.14-5.49,10.35-8.45,15.39-1.12-.12-1.63-1.23-2.27-2C127.64,71.63,124.33,67.16,120.72,62.94Z"/><path class="cls-5" d="M94.57,82.94c4.5-6.37,9.5-12.36,14.07-18.67,4.88,6.13,9.72,12.3,14.24,18.69C113.44,83,104,83,94.57,82.94Z"/><path class="cls-6" d="M151.9,65.65q8.88,8.59,17.8,17.19c-9,.31-18,.14-27,0C145.42,76.94,149.11,71.54,151.9,65.65Z"/><path class="cls-7" d="M47.62,82.94c6-5.69,11.93-11.48,17.92-17.2,3.1,5.73,6.25,11.43,9.3,17.18C65.77,83,56.69,83,47.62,82.94Z"/><path class="cls-8" d="M46.16,93.5c11.22,0,22.45,0,33.68,0,5.45,18.64,10.73,37.34,16.33,55.93C79.23,131,62.87,112.1,46.16,93.5Z"/><path class="cls-9" d="M90.76,93.57c11.94-.39,23.91.16,35.87,0q-8.79,30.93-17.94,61.78Q99.74,124.43,90.76,93.57Z"/><path class="cls-10" d="M137.35,93.78c8.75-.64,17.53.15,26.28-.52a32.82,32.82,0,0,1,7.27.42,46,46,0,0,1-5.47,6.43c-10.74,11.92-21.26,24-32,35.93-3.68,4.54-8.1,8.41-11.59,13.1A117.46,117.46,0,0,1,126.18,133C129.67,119.85,134.05,107,137.35,93.78Z"/></svg>