<svg id="Layer_1" data-name="Layer 1" xmlns="http://www.w3.org/2000/svg" viewBox="0 0 216 216"><defs><style>.cls-1{fill:#7fa512;}.cls-2{fill:#bed63a;}.cls-3{fill:#fcfdfb;}.cls-4{fill:#686003;}.cls-5{fill:#feda01;}.cls-6{fill:#ffe443;}.cls-7{fill:#fff9df;}.cls-8{fill:#e9c301;}.cls-9{fill:#fdf9de;}</style></defs><path class="cls-1" d="M173.71,55.92a47.43,47.43,0,0,1,24.91,13.33c-4.62,7.21-10.25,14-18,18.11-3.67-7.53-9.3-14-15.59-19.42C168.53,64.39,171.8,60.54,173.71,55.92Z"/><path class="cls-2" d="M133,51.4c6.95-14.84,23.53-23.73,39.66-23.32,1.82.09,4.86-.32,5.19,2.17.95,8.34.32,17.33-3.74,24.81-.11.22-.31.65-.42.86-1.91,4.62-5.18,8.47-8.63,12A81.37,81.37,0,0,0,133,51.4Z"/><path class="cls-3" d="M129.36,42.39a49.85,49.85,0,0,1,38.36-21.75c5.69-.22,11.39.15,17.09.33.52,9.92,2,20.09-1,29.79,9.7,3.09,17.16,10.2,24.84,16.52C203.89,74,200,81.4,193.78,86.92c7.07,5.34,12.41,13.44,12.69,22.49.88,11.32-5.92,22.46-15.93,27.56-1.4.89-3.29,1.35-4.07,2.95-7.74,14.49-20.89,25.54-35.63,32.46a100.2,100.2,0,0,1-64.33,6.7c-19.36-4.26-37.76-14.74-49.78-30.72-2-2.34-3-5.9-6.23-6.91a34.9,34.9,0,0,1-19-17.88A30.5,30.5,0,0,1,13.29,95,35,35,0,0,1,29.54,81.08c1.41-.72,3.19-1.1,4-2.62,11.28-18.06,30.65-30,51.1-35C99.24,39.74,114.56,40,129.36,42.39Zm3.66,9a93.91,93.91,0,0,0-56,2.51c-15.1,5.47-29,15.4-37.39,29.32-1,1.52-1.79,3.41-3.8,3.71-7.75,2.42-14.6,8-17.77,15.59a22.36,22.36,0,0,0,1.08,19.81c3.79,7.11,11,11.85,18.6,14,10.44,19.39,30.79,31.71,52,36.07,18.35,3.56,37.9,2.21,55.15-5.27,15.7-6.57,29.69-18.32,36.84-34,5.06-2.08,10.18-4.79,13.29-9.48a20.84,20.84,0,0,0,1-23.36,24.19,24.19,0,0,0-10-8.83c-2-1-4.55-1.62-5.22-4.1,7.7-4.06,13.33-10.9,18-18.11a47.43,47.43,0,0,0-24.91-13.33c.11-.21.31-.64.42-.86,4.06-7.48,4.69-16.47,3.74-24.81-.33-2.49-3.37-2.08-5.19-2.17C156.55,27.67,140,36.56,133,51.4Z"/><path class="cls-4" d="M77,53.91a93.91,93.91,0,0,1,56-2.51,81.37,81.37,0,0,1,32.06,16.54c6.29,5.47,11.92,11.89,15.59,19.42.67,2.48,3.19,3.11,5.22,4.1a24.19,24.19,0,0,1,10,8.83,20.84,20.84,0,0,1-1,23.36c-3.11,4.69-8.23,7.4-13.29,9.48-7.15,15.68-21.14,27.43-36.84,34-17.25,7.48-36.8,8.83-55.15,5.27-21.17-4.36-41.52-16.68-52-36.07-7.63-2.14-14.81-6.88-18.6-14A22.36,22.36,0,0,1,18,102.53c3.17-7.55,10-13.17,17.77-15.59,2-.3,2.83-2.19,3.8-3.71C48,69.31,61.9,59.38,77,53.91Zm2.93,8.68c-13.53,5-26.12,14-33.24,26.82-1.35,2.07-1.87,5.41-4.91,5.49-6.21,1.15-12.23,4.76-15,10.6-2.44,4.79-1.32,10.79,2,14.87,3.71,4.57,9.43,7,15.15,7.79,3.22,6.44,7.09,12.65,12.48,17.51,1.81,1.51,3.41,3.61,5.75,4.28,5.63,5.22,12.85,8.34,20,10.85a84.81,84.81,0,0,0,61.67-3.22c13.76-6.5,26-17.61,31-32.31,3.59-1,7.33-2,10.24-4.45,4.55-3.34,6.19-10.19,3.3-15.11-2.61-4.78-8-7.18-13.17-8.07-3.82-9.06-9.25-18.15-17.73-23.5-3.38-3.94-8.31-6.24-12.81-8.68C124.64,55.84,100.73,55.08,79.93,62.59Z"/><path class="cls-5" d="M79.93,62.59c20.8-7.51,44.71-6.75,64.71,2.87,4.5,2.44,9.43,4.74,12.81,8.68,2.11,4.7,5.12,9,6.77,13.88,2.9,6.75,1.74,14.39.38,21.36-3.61,11.58-12,21.41-22.23,27.77-18.39,12-41,16.28-62.73,15.06-5.9-.1-11.62-1.76-17.48-2.26-2.34-.67-3.94-2.77-5.75-4.28-5.39-4.86-9.26-11.07-12.48-17.51-5.72-.8-11.44-3.22-15.15-7.79-3.32-4.08-4.44-10.08-2-14.87,2.77-5.84,8.79-9.45,15-10.6,3-.08,3.56-3.42,4.91-5.49C53.81,76.61,66.4,67.64,79.93,62.59ZM98.59,63c-10.51,1.3-20.36,5.62-29.37,11-3.57,2.59-6.5,5.91-9.75,8.87-3,2.59-4.52,6.4-6.73,9.64-2.5,3.41-1.68,7.88-2.32,11.83-.48-.92-1-1.83-1.41-2.74-1.36-1.23-2.69-2.47-4-3.74-2.71-.16-5.54.38-7.46,2.46-2,1.73-1.31,4.54-1.54,6.84.63,1.53.94,3.57,2.71,4.27,3.76,1.58,7.9.29,11.24-1.7,2.3,4.45,3.64,9.54,7.21,13.22a46,46,0,0,0,22.51,12.18,88.61,88.61,0,0,0,24,1c4.86.24,9.39-1.62,14-2.64,8.7-1.62,16.42-6.35,23.42-11.57,4.89-3.84,8.22-9.22,11.38-14.49,4-6.86,5-15.81,1.35-23-3.3-9-11.51-15.66-20.57-18.31A60.21,60.21,0,0,0,98.59,63Z"/><path class="cls-6" d="M98.59,63a60.21,60.21,0,0,1,34.73,3.07c9.06,2.65,17.27,9.3,20.57,18.31,3.63,7.23,2.68,16.18-1.35,23-3.16,5.27-6.49,10.65-11.38,14.49-7,5.22-14.72,10-23.42,11.57-4.66,1-9.19,2.88-14,2.64a88.61,88.61,0,0,1-24-1A46,46,0,0,1,57.17,123c-3.57-3.68-4.91-8.77-7.21-13.22-3.34,2-7.48,3.28-11.24,1.7-1.77-.7-2.08-2.74-2.71-4.27,1.56,1.3,3.09,2.65,4.6,4,2.07-.31,4.52-.08,6.08-1.79,2.25-1.91,1.9-5.14,2.32-7.79.45.91.93,1.82,1.41,2.74.64-3.95-.18-8.42,2.32-11.83,2.21-3.24,3.7-7,6.73-9.64,3.25-3,6.18-6.28,9.75-8.87C78.23,68.6,88.08,64.28,98.59,63Zm-16,6.8A33,33,0,0,0,66.57,80.33c-2.47,2.64-1.39,6.5-1.47,9.75,4.58,4.67,11,7.84,17.62,7.13,11.37.82,23.29-2.25,32-9.88,2.75-2.44,5.1-6.13,4.26-10-.51-3.27-3.16-5.65-5.81-7.33C103.54,65.65,92.43,66.79,82.62,69.78Z"/><path class="cls-7" d="M82.62,69.78c9.81-3,20.92-4.13,30.5.27,2.65,1.68,5.3,4.06,5.81,7.33.84,3.82-1.51,7.51-4.26,10C106,95,94.09,98,82.72,97.21c-6.67.71-13-2.46-17.62-7.13.08-3.25-1-7.11,1.47-9.75A33,33,0,0,1,82.62,69.78Z"/><path class="cls-8" d="M157.45,74.14c8.48,5.35,13.91,14.44,17.73,23.5,5.15.89,10.56,3.29,13.17,8.07,2.89,4.92,1.25,11.77-3.3,15.11-2.91,2.46-6.65,3.45-10.24,4.45-4.95,14.7-17.21,25.81-31,32.31a84.81,84.81,0,0,1-61.67,3.22c-7.16-2.51-14.38-5.63-20-10.85,5.86.5,11.58,2.16,17.48,2.26,21.72,1.22,44.34-3,62.73-15.06C152.6,130.79,161,121,164.6,109.38c1.36-7,2.52-14.61-.38-21.36C162.57,83.11,159.56,78.84,157.45,74.14Z"/><path class="cls-9" d="M37.55,100.33c1.92-2.08,4.75-2.62,7.46-2.46,1.31,1.27,2.64,2.51,4,3.74-.42,2.65-.07,5.88-2.32,7.79-1.56,1.71-4,1.48-6.08,1.79-1.51-1.37-3-2.72-4.6-4C36.24,104.87,35.58,102.06,37.55,100.33Z"/></svg>