<svg id="Layer_1" data-name="Layer 1" xmlns="http://www.w3.org/2000/svg" viewBox="0 0 216 216"><defs><style>.cls-1{fill:#7fa512;}.cls-2{fill:#bed63a;}.cls-3{fill:#fcfdfd;}.cls-4{fill:#65381a;}.cls-5{fill:#48020b;}.cls-6{fill:#560236;}.cls-7{fill:#8e2560;}.cls-8{fill:#690f45;}.cls-9{fill:#993976;}.cls-10{fill:#c76fa7;}.cls-11{fill:#c470a4;}</style></defs><path class="cls-1" d="M163,50.93l2.43-.14c7.88,1.44,14.32,6.71,20,12.11-6.08,9.58-15.79,16.95-27.1,19a40.79,40.79,0,0,0-5.89-8.69l-.63-.82a33,33,0,0,0-5.1-6.59A40,40,0,0,0,163,50.93Z"/><path class="cls-2" d="M126.8,44.38c7.61-14.68,25.59-22.48,41.6-18.89,0,5.21.58,10.59-1.06,15.64a59.56,59.56,0,0,1-3.26,8.24c.34.36,1,1.06,1.38,1.42l-2.43.14A40,40,0,0,1,146.7,65.77a33,33,0,0,1,5.1,6.59,55.56,55.56,0,0,0-25-16.18l-2.73-.88Q125.51,49.86,126.8,44.38Z"/><path class="cls-3" d="M134.62,24.68c6.54-3.61,13.56-6.7,21.12-7.22,6.77-.64,13.52.51,20.27,1,.05,9,.83,18.32-2.17,27C182.42,49,188.65,56,195.45,62c-4.34,5.54-8.07,11.65-13.39,16.36a48,48,0,0,1-13.75,8.49c9.75,26,4.63,55.85-9.85,79-7.11,11.2-16.16,21.34-27.28,28.68-13,8.72-28.77,13.6-44.46,12.61-13.09-.83-25.61-6.29-35.81-14.41-23.32-18.65-34.57-50.65-29.37-79.89A94.29,94.29,0,0,1,40.26,72.54c10.25-13.12,24.06-24,40.21-28.69A61.68,61.68,0,0,1,108,42.34c.07-6.2-.7-12.36-1.16-18.52A179.1,179.1,0,0,1,134.62,24.68Zm-7.82,19.7q1-6.37,1.37-12.81c-4.37-.33-8.75-.44-13.12-.42a159.19,159.19,0,0,1,0,19.9l-2.13.44c-12.67-4.45-27-3-39,2.79-13.66,6.46-24.82,17.43-33,30C33.09,96.74,27.87,111.19,27.82,126A79.34,79.34,0,0,0,43,173.74C52.3,186.34,66,196.22,81.65,199c13.66,2.32,27.88-.84,39.95-7.43s22-16.73,29.57-28.17c12.94-20,18.46-45.48,11.86-68.66l-.34-.4a58.09,58.09,0,0,0-10.26-21.16,40.79,40.79,0,0,1,5.89,8.69c11.31-2,21-9.39,27.1-19-5.64-5.4-12.08-10.67-20-12.11-.35-.36-1-1.06-1.38-1.42a59.56,59.56,0,0,0,3.26-8.24c1.64-5.05,1-10.43,1.06-15.64C152.39,21.9,134.41,29.7,126.8,44.38Z"/><path class="cls-4" d="M115.05,31.15c4.37,0,8.75.09,13.12.42q-.4,6.43-1.37,12.81-1.3,5.48-2.75,10.92l2.73.88c-1.86-.41-3.73-.74-5.57-1.15a70.09,70.09,0,0,0-8.28-3.54l2.13-.44A159.19,159.19,0,0,0,115.05,31.15Z"/><path class="cls-5" d="M121.21,55c1.84.41,3.71.74,5.57,1.15a55.56,55.56,0,0,1,25,16.18l.63.82a58.09,58.09,0,0,1,10.26,21.16c-3.87-4.1-4.72-10-7.72-14.62C152.28,74.6,147.69,71,143.67,67,137.41,60.9,128.63,59.1,121.21,55Z"/><path class="cls-6" d="M74,54.28c12-5.74,26.3-7.24,39-2.79A70.09,70.09,0,0,1,121.21,55c7.42,4.07,16.2,5.87,22.46,11.92,4,4,8.61,7.65,11.3,12.77,3,4.66,3.85,10.52,7.72,14.62l.34.4c6.6,23.18,1.08,48.67-11.86,68.66-7.55,11.44-17.39,21.67-29.57,28.17S95.31,201.32,81.65,199C66,196.22,52.3,186.34,43,173.74A79.34,79.34,0,0,1,27.82,126C27.87,111.19,33.09,96.74,41,84.3,49.14,71.71,60.3,60.74,74,54.28Zm16.09,6.19c-10.57,1.9-19.94,7.88-27.68,15.13-6.46,6.43-12.26,13.65-16.13,22-14.87,27-6.62,64.4,18.42,82.42a45,45,0,0,0,32.08,8.52c15.92-2.32,30.48-11.51,40.2-24.23a80.54,80.54,0,0,0,16.9-37.33c2.22-14,.91-29.12-6.62-41.4a41,41,0,0,0-27.43-19.81c-4.23-1-7.92-3.4-12.1-4.5A40,40,0,0,0,90.05,60.47Z"/><path class="cls-7" d="M90.05,60.47a40,40,0,0,1,17.64.76c4.18,1.1,7.87,3.54,12.1,4.5a41,41,0,0,1,27.43,19.81c7.53,12.28,8.84,27.41,6.62,41.4a80.54,80.54,0,0,1-16.9,37.33c-9.72,12.72-24.28,21.91-40.2,24.23A45,45,0,0,1,64.66,180c-25-18-33.29-55.43-18.42-82.42,3.87-8.31,9.67-15.53,16.13-22C70.11,68.35,79.48,62.37,90.05,60.47ZM49.67,115c-3.37,13.53-2.88,28.61,3.67,41.13-.45-5.41-1.9-10.74-1.52-16.2A70.74,70.74,0,0,1,69.69,93c6-7.45,13.92-13,22-18,5.44-3.24,11.55-5,17.22-7.73C81.6,68,56.32,88.58,49.67,115ZM106,72.38a38.68,38.68,0,0,0-19.1,8.82C71.47,92.49,63,112.8,66.08,131.7a32.38,32.38,0,0,0,13.15,21.71c7.65,5.81,18.23,6.1,27.1,3.24,10.4-2.81,18.81-10.3,25.32-18.62,6.72-10,11.16-21.9,10.44-34.06C142,93.41,137.15,82.52,128,76.76,121.73,72.17,113.55,71.06,106,72.38Z"/><path class="cls-8" d="M49.67,115C56.32,88.58,81.6,68,108.92,67.25,103.25,70,97.14,71.74,91.7,75c-8.09,5-16,10.54-22,18a70.74,70.74,0,0,0-17.87,47c-.38,5.46,1.07,10.79,1.52,16.2C46.79,143.65,46.3,128.57,49.67,115Z"/><path class="cls-9" d="M106,72.38c7.54-1.32,15.72-.21,22,4.38C137.15,82.52,142,93.41,142.09,104c.72,12.16-3.72,24.09-10.44,34.06-6.51,8.32-14.92,15.81-25.32,18.62-8.87,2.86-19.45,2.57-27.1-3.24A32.38,32.38,0,0,1,66.08,131.7C63,112.8,71.47,92.49,86.91,81.2A38.68,38.68,0,0,1,106,72.38Zm9.93,4a3.45,3.45,0,0,0-1.08,5.35c1.88,2.51,6.78.4,6.11-2.78C120.82,76.47,117.94,75.47,115.94,76.39ZM100,82.4c-6.7,1.61-12.29,6.07-17,10.95s-8,11-8.77,17.64c-.43,3.89,2.38,8.05,6.42,8.43,6,.7,11.78-2.38,16.54-5.82,6.65-5.18,12.58-12.13,14.39-20.56.81-3.5.17-8-3.14-10A12.47,12.47,0,0,0,100,82.4Z"/><path class="cls-10" d="M115.94,76.39c2-.92,4.88.08,5,2.57.67,3.18-4.23,5.29-6.11,2.78A3.45,3.45,0,0,1,115.94,76.39Z"/><path class="cls-11" d="M100,82.4a12.47,12.47,0,0,1,8.49.68c3.31,2,4,6.46,3.14,10-1.81,8.43-7.74,15.38-14.39,20.56-4.76,3.44-10.49,6.52-16.54,5.82-4-.38-6.85-4.54-6.42-8.43.73-6.68,4.22-12.8,8.77-17.64S93.33,84,100,82.4Z"/></svg>