<svg id="Layer_1" data-name="Layer 1" xmlns="http://www.w3.org/2000/svg" viewBox="0 0 216 216"><defs><style>.cls-1{fill:#fcfefc;}.cls-2{fill:#fdd2d3;}.cls-3{fill:#ffd2d6;}.cls-4{fill:#6a0809;}.cls-5{fill:#7a0201;}.cls-6{fill:#d10b0c;}.cls-7{fill:#fa7878;}.cls-8{fill:#f97877;}.cls-9{fill:#fc7979;}</style></defs><path class="cls-1" d="M40.61,39.24c20.12-.25,40.27.52,60.37-.52,8,0,15.87,2.28,23.42,4.88.26-1.46.55-2.92.84-4.37q26.13,0,52.26,0c-.42,13.32.89,27-3.26,39.91-3.1,10.18-9.54,19-17.25,26.22-5.57,5.24-11.93,9.62-17,15.37,1.07,2.35,2,4.74,2.95,7.16,4.31.1,8.63,0,13,0,0,18.52,0,37,0,55.57-35.57,0-71.13.07-106.7-.05q0-27.73,0-55.47,5.25-.08,10.52,0a64.48,64.48,0,0,1,4-14.45c-7.7-.06-15.41,0-23.11,0C40.6,88.74,40.55,64,40.61,39.24Zm5.68,5.7c-.56,18.24,0,36.5-.31,54.75a24.21,24.21,0,0,0,.81,7.48c5.34-.12,10.7.22,16-.24,3.75.53,7.58.08,11.37.21a50.8,50.8,0,0,0-8.42,27.13c-3.43,0-6.86,0-10.28-.05,0,14.32,0,28.63,0,42.95q47.05,0,94.11,0,0-21.47,0-42.92c-3.83,0-7.65,0-11.46,0-.94-4.73-3.47-8.92-4.76-13.52-.5-1.33.63-2.49,1.31-3.5,5-6,11.39-10.49,17.09-15.71C160.21,94,167.13,84.21,169.25,73c2.26-9,1.58-18.35,2-27.53a16.51,16.51,0,0,0-5.21-.79c-9.66.14-19.33.11-29,.05a27.43,27.43,0,0,0-6.52.71l-1.35,6.43C117.34,48,105,43,92.33,45.81,87,44.15,81.42,44.89,76,44.74,66.07,44.9,56.17,44.56,46.29,44.94Z"/><path class="cls-2" d="M40.29,44.94c9.88-.38,19.78,0,29.68-.2,5.45.15,11.06-.59,16.36,1.07l-2.51.5c-4.21-1-8.55-.61-12.82-.62-10,0-20,0-30,0-.16,20.48.32,41-.24,61.45A24.21,24.21,0,0,1,40,99.69C40.28,81.44,39.73,63.18,40.29,44.94Z"/><path class="cls-3" d="M124.51,45.41A27.43,27.43,0,0,1,131,44.7c9.66.06,19.33.09,29-.05a16.51,16.51,0,0,1,5.21.79C151.67,45.87,138.07,45.86,124.51,45.41Z"/><path class="cls-4" d="M47,45.72c10-.07,20,0,30,0,4.27,0,8.61-.38,12.82.62l2.51-.5c12.64-2.85,25,2.16,36.83,6l1.35-6.43c13.56.45,27.16.46,40.72,0-.4,9.18.28,18.54-2,27.53-1.05-8.34.12-16.73-.38-25.09-8.25-1.1-16.55.54-24.82-.24-3.44-.11-7-1.1-10.37-.35-2.12,1.58-2.29,5.25-5,6-6.11-1-11.46-4.71-17.67-5.27-4.94-.42-9.86-2-14.82-1.06A37.14,37.14,0,0,1,85,47.71c-5.74-.72-11.44,1-17.18.32a140.28,140.28,0,0,0-18.79-.38c-.08,19.3-.42,38.62,0,57.93,4.59,0,9.38-.53,13.73,1.35-5.34.46-10.7.12-16,.24C47.35,86.7,46.87,66.2,47,45.72Z"/><path class="cls-5" d="M85,47.71A37.14,37.14,0,0,0,96.2,47c5-.91,9.88.64,14.82,1.06,6.21.56,11.56,4.3,17.67,5.27,2.7-.78,2.87-4.45,5-6,3.41-.75,6.93.24,10.37.35,8.27.78,16.57-.86,24.82.24.5,8.36-.67,16.75.38,25.09-2.12,11.24-9,21-17.47,28.52-5.7,5.22-12.12,9.73-17.09,15.71-.68,1-1.81,2.17-1.31,3.5,1.29,4.6,3.82,8.79,4.76,13.52,3.81,0,7.63,0,11.46,0q0,21.47,0,42.92-47.05,0-94.11,0c0-14.32,0-28.63,0-42.95,3.42,0,6.85,0,10.28.05a50.8,50.8,0,0,1,8.42-27.13c-3.79-.13-7.62.32-11.37-.21-4.35-1.88-9.14-1.31-13.73-1.35-.46-19.31-.12-38.63,0-57.93A140.28,140.28,0,0,1,67.85,48C73.59,48.74,79.29,47,85,47.71ZM80.66,58.59c-.39-1.44-.21-3.24-1.53-4.22-4.66-.36-9.34.05-14,0-3.2-.13-6.41-.15-9.6-.14.21,14.77,0,29.54.12,44.32,3.07-.07,6.14-.09,9.22-.08,6.26,0,12.52,0,18.79-.1.63-4.88.45-10.37,3.72-14.4,3.09-2.52,7.13-.89,10.37.24l-.22.27c4.7,1,9.22,2.63,13.92,3.6C107,91.19,102,93.31,97.56,96.37a52.22,52.22,0,0,0-19,20.87,32.67,32.67,0,0,0-3.15,22.36c-.1,1.52.22,3.45-1.85,3.56-3.12-.28-6.26-.24-9.39-.21.12,8.49.09,17,.06,25.47,3.12.05,6.25.06,9.39,0,22.4-.11,44.8,0,67.2-.05-.18-8.46,0-16.93-.06-25.4-3.76,0-7.67.67-11.26-.74l.2-3.52c1-7-6.63-12.7-3.56-19.75-.07-1.36-1-2.88-.15-4.12,8.32-13.1,24.26-19.43,31.28-33.57,4.08-7.19,5-15.58,5.12-23.71.22-1.45-.58-3.47-2.33-3.24-7.35-.13-14.71,0-22.06-.06-.76,2.34-1.53,4.68-2.33,7-7.52.82-14.27-3-21.23-5.14-6.77-2.7-14.21-2.47-21.33-1.85C88.51,54.48,85.2,58.31,80.66,58.59Z"/><path class="cls-6" d="M80.66,58.59c4.54-.28,7.85-4.11,12.42-4.32,7.12-.62,14.56-.85,21.33,1.85,7,2.14,13.71,6,21.23,5.14.8-2.34,1.57-4.68,2.33-7,7.35,0,14.71-.07,22.06.06,1.75-.23,2.55,1.79,2.33,3.24-.08,8.13-1,16.52-5.12,23.71-7,14.14-23,20.47-31.28,33.57-.88,1.24.08,2.76.15,4.12-3.07,7,4.56,12.75,3.56,19.75l-.2,3.52c3.59,1.41,7.5.69,11.26.74.07,8.47-.12,16.94.06,25.4-22.4,0-44.8-.06-67.2.05-.18-8.41-.16-16.83-.06-25.24,2.07-.11,1.75-2,1.85-3.56.34,1.18.72,2.36,1.11,3.55,2.94-.1,5.88-.15,8.82-.19-3.6-11.87.14-24.77,7.85-34.16,7.15-9.46,17.84-15,28-20.63-7.5-1.28-14.29-5.26-21.92-5.86l-1.48,1.88c-3.24-1.13-7.28-2.76-10.37-.24-3.27,4-3.09,9.52-3.72,14.4-6.27.11-12.53.09-18.79.1.08-14.7-.38-29.42.26-44.1,4.66.07,9.34-.34,14,0C80.45,55.35,80.27,57.15,80.66,58.59Z"/><path class="cls-7" d="M49.53,54.21c3.19,0,6.4,0,9.6.14-.64,14.68-.18,29.4-.26,44.1-3.08,0-6.15,0-9.22.08C49.5,83.75,49.74,69,49.53,54.21Z"/><path class="cls-8" d="M97.75,84.19l1.48-1.88c7.63.6,14.42,4.58,21.92,5.86-10.15,5.61-20.84,11.17-28,20.63-7.71,9.39-11.45,22.29-7.85,34.16-2.94,0-5.88.09-8.82.19-.39-1.19-.77-2.37-1.11-3.55a32.67,32.67,0,0,1,3.15-22.36,52.22,52.22,0,0,1,19-20.87c4.46-3.06,9.48-5.18,13.89-8.31-4.7-1-9.22-2.64-13.92-3.6Z"/><path class="cls-9" d="M58.14,143c3.13,0,6.27-.07,9.39.21-.1,8.41-.12,16.83.06,25.24-3.14.08-6.27.07-9.39,0C58.23,159.93,58.26,151.44,58.14,143Z"/></svg>