<svg id="Layer_1" data-name="Layer 1" xmlns="http://www.w3.org/2000/svg" viewBox="0 0 216 216"><defs><style>.cls-1{fill:#fcfdfc;}.cls-2{fill:#48020b;}.cls-3{fill:#315003;}.cls-4{fill:#d3fa26;}.cls-5{fill:#fcd6d8;}.cls-6{fill:#dd1d42;}.cls-7{fill:#f97b92;}.cls-8{fill:#e51c3e;}.cls-9{fill:#4b0108;}.cls-10{fill:#4a020b;}.cls-11{fill:#4c0108;}.cls-12{fill:#4a0108;}.cls-13{fill:#4b0109;}.cls-14{fill:#4b010a;}.cls-15{fill:#480209;}</style></defs><path class="cls-1" d="M152.22,19.38a16.13,16.13,0,0,1,15.63,3.17c23.47,22.78,33.81,57.75,27.33,89.72A99.68,99.68,0,0,1,33.71,169.58c-3.19-2.81-6.74-5.46-8.79-9.27a16.27,16.27,0,0,1,3-19.05q59-59,117.93-117.93A16.1,16.1,0,0,1,152.22,19.38Zm2,7.24A11.53,11.53,0,0,0,150.69,29q-58.48,58.52-117,117c-3.88,3.19-4.22,9.67-.43,13.06a92.21,92.21,0,0,0,116.8,9.52A92.12,92.12,0,0,0,163.55,28.76,8.56,8.56,0,0,0,154.22,26.62Z"/><path class="cls-2" d="M154.22,26.62a8.56,8.56,0,0,1,9.33,2.14,91.86,91.86,0,0,1,22.81,40,92.18,92.18,0,0,1-36.28,99.82,92.21,92.21,0,0,1-116.8-9.52c-3.79-3.39-3.45-9.87.43-13.06q58.47-58.52,117-117A11.53,11.53,0,0,1,154.22,26.62ZM153,38.91c-1.68,2.11-4.56,3.7-5.6,6.08l-.31-.28c-1.41,1.48-2.84,2.95-4.27,4.42-28.61,28.62-57.41,57.08-85.77,85.94-1.22,1.07-2.44,2.16-3.66,3.24l.12.1c-1.6,1.62-3.19,3.25-4.8,4.87q-2.69,2.59-5.32,5.25-2.15,2-4.27,4a80.46,80.46,0,0,0,48.53,23.3c8.79.28,17.74,1,26.38-1.11,15.87-3.38,31.24-10.89,42.37-22.89a82.11,82.11,0,0,0,24-48.91c.34-10.57,1-21.43-2.42-31.62-3.18-13.05-10.17-24.9-18.91-35C156.7,34.28,154.58,37.35,153,38.91Z"/><path class="cls-3" d="M153,38.91c1.54-1.56,3.66-4.63,6-2.63,8.74,10.08,15.73,21.93,18.91,35,3.39,10.19,2.76,21,2.42,31.62a82.11,82.11,0,0,1-24,48.91c-11.13,12-26.5,19.51-42.37,22.89-8.64,2.07-17.59,1.39-26.38,1.11a80.46,80.46,0,0,1-48.53-23.3q2.13-2,4.27-4A77.46,77.46,0,0,0,169,63.37,82.11,82.11,0,0,0,153,38.91Z"/><path class="cls-4" d="M147.44,45c1-2.38,3.92-4,5.6-6.08A82.11,82.11,0,0,1,169,63.37,77.49,77.49,0,0,1,43.43,148.53q2.64-2.66,5.32-5.25c12.1,10.88,27.72,18.86,44.27,18.77,7,.15,14.15.26,21.07-1.23a72.92,72.92,0,0,0,33.8-19.56c11.36-12.43,19.32-28.85,18.76-46,0-7,.3-14.1-1.93-20.79C161.34,63.58,156.34,52.53,147.44,45Z"/><path class="cls-5" d="M147.13,44.71l.31.28c8.9,7.54,13.9,18.59,17.28,29.52,2.23,6.69,1.94,13.83,1.93,20.79.56,17.11-7.4,33.53-18.76,46a72.92,72.92,0,0,1-33.8,19.56c-6.92,1.49-14,1.38-21.07,1.23-16.55.09-32.17-7.89-44.27-18.77,1.61-1.62,3.2-3.25,4.8-4.87a64.16,64.16,0,0,0,38.53,17.33,63,63,0,0,0,67.14-50.42,61.68,61.68,0,0,0-3.4-35.88,62.42,62.42,0,0,0-13-20.31C144.29,47.66,145.72,46.19,147.13,44.71Z"/><path class="cls-6" d="M57.09,135.07c28.36-28.86,57.16-57.32,85.77-85.94a62.42,62.42,0,0,1,13,20.31c-4.2-3.46-5.95-8.75-8.87-13.16-.62.66-1.23,1.33-1.82,2-1.35-.93-2.48-2.39-4.17-2.64a18.27,18.27,0,0,0-3.14,2.47q-37.41,37.61-75,75c-1.26,1.33-2.42,2.75-3.58,4.17C58.53,136.58,57.81,135.81,57.09,135.07Z"/><path class="cls-7" d="M137.82,58.13A18.27,18.27,0,0,1,141,55.66c1.69.25,2.82,1.71,4.17,2.64-4.27,5.7-9.68,10.37-14.64,15.45Q98.73,105.54,66.94,137.3c-1.25,1.1-2.49,2.43-4.19,2.8-1.48-.37-2.36-1.87-3.49-2.77,1.16-1.42,2.32-2.84,3.58-4.17Q100.35,95.66,137.82,58.13Z"/><path class="cls-8" d="M145.13,58.3c.59-.69,1.2-1.36,1.82-2,2.92,4.41,4.67,9.7,8.87,13.16a61.68,61.68,0,0,1,3.4,35.88,63,63,0,0,1-67.14,50.42,64.16,64.16,0,0,1-38.53-17.33l-.12-.1c1.22-1.08,2.44-2.17,3.66-3.24.72.74,1.44,1.51,2.17,2.26,1.13.9,2,2.4,3.49,2.77,1.7-.37,2.94-1.7,4.19-2.8q31.78-31.77,63.55-63.55C135.45,68.67,140.86,64,145.13,58.3Zm-4.8,11.51c-2.72,1.08-6.46,2.85-6.89,6,3.66,2.18,10,4.09,13,0A4.54,4.54,0,0,0,140.33,69.81ZM133.89,90.3c3.49,2.71,7.86,6.29,12.55,4.32,2.46-2,1.7-5.07.76-7.61A14.91,14.91,0,0,0,133.89,90.3ZM121.83,105a26,26,0,0,0,9.25,4.87c1.39-.72,3.24-1,4-2.57,1.69-2.67-.61-7.37-4.05-6.6C127.63,100.86,123.62,101.73,121.83,105Zm2.26,12.5c0,4.07,1.94,7.65,4.53,10.65l5.61-.24c.7-1.81,1.8-3.67,1.22-5.67C132.8,118.69,128.29,117.56,124.09,117.47Zm-13.55,6c-1.42,4.4-2.23,10.42,2.13,13.48l3.35-.26q1.26-1.16,2.55-2.25C119.31,129.16,114.85,125.37,110.54,123.44ZM76.37,136.37a20.16,20.16,0,0,0,2.41,4.36c1.85.62,4.62.92,5.67-1.15,2.55-3.81,1-8.78-1.22-12.37A21.32,21.32,0,0,0,76.37,136.37Zm15.37,6c.75,4,6.67,4.39,8.4.9,1.11-4.23-.74-8.41-3.12-11.82C94.49,134.59,91.21,138.07,91.74,142.4Z"/><path class="cls-9" d="M140.33,69.81a4.54,4.54,0,0,1,6.12,6c-3,4.08-9.35,2.17-13,0C133.87,72.66,137.61,70.89,140.33,69.81Z"/><path class="cls-10" d="M133.89,90.3A14.91,14.91,0,0,1,147.2,87c.94,2.54,1.7,5.64-.76,7.61C141.75,96.59,137.38,93,133.89,90.3Z"/><path class="cls-11" d="M121.83,105c1.79-3.24,5.8-4.11,9.21-4.3,3.44-.77,5.74,3.93,4.05,6.6-.77,1.56-2.62,1.85-4,2.57A26,26,0,0,1,121.83,105Z"/><path class="cls-12" d="M124.09,117.47c4.2.09,8.71,1.22,11.36,4.74.58,2-.52,3.86-1.22,5.67l-5.61.24C126,125.12,124.07,121.54,124.09,117.47Z"/><path class="cls-13" d="M110.54,123.44c4.31,1.93,8.77,5.72,8,11q-1.29,1.09-2.55,2.25l-3.35.26C108.31,133.86,109.12,127.84,110.54,123.44Z"/><path class="cls-14" d="M76.37,136.37a21.32,21.32,0,0,1,6.86-9.16c2.18,3.59,3.77,8.56,1.22,12.37-1,2.07-3.82,1.77-5.67,1.15A20.16,20.16,0,0,1,76.37,136.37Z"/><path class="cls-15" d="M91.74,142.4c-.53-4.33,2.75-7.81,5.28-10.92,2.38,3.41,4.23,7.59,3.12,11.82C98.41,146.79,92.49,146.41,91.74,142.4Z"/></svg>