<svg xmlns="http://www.w3.org/2000/svg" viewBox="0 0 3097 794"><defs><style>.cls-1{fill:#fff;}.cls-2{fill:none;stroke:#fff;stroke-miterlimit:10;stroke-width:52px;}</style></defs><g id="Layer_2" data-name="Layer 2"><g id="Layer_1-2" data-name="Layer 1"><path class="cls-1" d="M139.92,646.39V141.26H282.58v200H393.36v-200H536V646.39H393.36v-206H282.58v206Z"></path><path class="cls-1" d="M843.07,565.79H720.66l-16.37,80.6H577.57L709,176.17l-10.34-34.91h178l144,505.13H862.46ZM738.33,477.87h83.61L776.25,289.51Z"></path><path class="cls-1" d="M1200.09,646.39H1057V141.26h56.89q20.67,0,61.63-1.93t67.69-2q93.09,0,139,41t45.91,125.42q0,50-21.77,88.78t-57.53,61.64q19.38,4.74,33.39,22A127.3,127.3,0,0,1,1404,516.87q7.75,23.49,13.57,47.41t13.36,47.2q7.55,23.28,16.6,34.91h-159q-4.74-6-7.33-33.83T1274,545.75q-4.54-39-12.72-65.3h-2.16q-8.2,0-17.45-.2t-16.17-.66c-4.6-.28-9.41-.58-14.44-.86s-8.69-.44-11-.44Zm13.79-248.25a157.57,157.57,0,0,0,18.1-.86,115.78,115.78,0,0,0,16.15-3.24,35.39,35.39,0,0,0,14.66-7.54,61.94,61.94,0,0,0,11-13.36Q1279,365,1281.54,352a155.89,155.89,0,0,0,2.59-30.19v-34q0-37.5-19.61-52.36t-56.25-14.87h-8.18V398.14Z"></path><path class="cls-1" d="M1438.58,141.26h159.05l37.5,174.11,38.78,182.75,36.64-182.75,38.8-174.11h113.34l-125,505.13H1581.25Z"></path><path class="cls-1" d="M1884.38,646.39V141.26h299.11L2174.88,243,2027,238.67v97.41h116.38V436.92L2027,428.29V543L2190,538.64V646.39Z"></path><path class="cls-1" d="M2338.57,649.62q-28.67-5.8-48.05-15.29a236.9,236.9,0,0,1-31.69-18.11A136.12,136.12,0,0,1,2238.36,599l10.79-104.73q17.67,23.72,47.4,41.15a124.59,124.59,0,0,0,64.22,17.46q34.47,0,49.78-7.33t15.3-26.72q0-20.67-17.45-35.34t-60.13-35.35q-15.51-7.72-26.3-14t-28.65-20.69q-17.88-14.43-29.1-30.17t-19.82-40.51a160.86,160.86,0,0,1-8.61-53.24q0-153.84,173.68-153.86a223.44,223.44,0,0,1,51.94,5.83q24.36,5.82,38.14,12.7a137.3,137.3,0,0,1,25.22,16.18q11.42,9.27,14.44,12.92a54.7,54.7,0,0,1,4.31,5.81L2522,272.28a102.28,102.28,0,0,0-42-29.52q-25.21-9.7-48-9.7-55.18,0-55.18,34.48a38,38,0,0,0,3.44,16.38,37.15,37.15,0,0,0,11.2,13.36q7.77,6,14.44,10.34t18.53,10.56q11.86,6.27,17.91,10.13,62.91,26.71,92.44,63.36t29.53,89.22q0,85.33-42,129.94t-121.75,44.6A312.37,312.37,0,0,1,2338.57,649.62Z"></path><path class="cls-1" d="M2710.46,255.47H2609.6V141.26H2957V255.47H2856.13V646.39H2710.46Z"></path><rect class="cls-2" x="26" y="26" width="3045" height="742"></rect></g></g></svg>