<svg xmlns="http://www.w3.org/2000/svg" viewBox="0 0 163.57 163.57"><defs><style>.cls-1{fill:#fff;stroke:#3f5226;stroke-miterlimit:10;stroke-width:5.29px;}.cls-2{fill:none;}.cls-3{fill:#93b74c;}.cls-4{fill:#3f5226;}.cls-5{fill:#fd6440;}</style></defs><g id="Layer_2" data-name="Layer 2"><g id="Layer_2-2" data-name="Layer 2"><circle class="cls-1" cx="81.79" cy="81.79" r="79.14"></circle><path class="cls-2" d="M102.88,109.24l-.06,0,.06,0-.1-.23h0Z"></path><path class="cls-2" d="M102.44,109.14h0l.13,0Z"></path><path class="cls-2" d="M79.92,59.33a.64.64,0,0,1,.09.22h0a.64.64,0,0,0-.09-.22,8.11,8.11,0,0,0-1.25-1.83A8.11,8.11,0,0,1,79.92,59.33Z"></path><path class="cls-2" d="M82.38,65.16a40.22,40.22,0,0,0,3.16,7.2,40.22,40.22,0,0,1-3.16-7.2c-.24-.78-.69-1.49-.93-2.26a3,3,0,0,0-.29-.65,3,3,0,0,1,.29.65C81.69,63.67,82.14,64.38,82.38,65.16Z"></path><path class="cls-2" d="M78.34,57.21a3.11,3.11,0,0,1,.33.29A3.11,3.11,0,0,0,78.34,57.21Z"></path><path class="cls-2" d="M75.36,71.9q1.88,3.54,3.73,7.09c.18.34.37.69.57,1-.2-.33-.39-.68-.57-1Q77.23,75.44,75.36,71.9Z"></path><path class="cls-2" d="M88.43,82.35a2.7,2.7,0,0,1-.28.31A2.7,2.7,0,0,0,88.43,82.35Z"></path><path class="cls-2" d="M70.61,60.33a3.5,3.5,0,0,0-.07.45A3.5,3.5,0,0,1,70.61,60.33Z"></path><path class="cls-2" d="M71.9,58.19a4.2,4.2,0,0,0-1.26,2,4.2,4.2,0,0,1,1.26-2,6.28,6.28,0,0,1,2.67-1.54A6.28,6.28,0,0,0,71.9,58.19Z"></path><path class="cls-2" d="M74.11,87.41h0Z"></path><path class="cls-2" d="M77.45,86a.56.56,0,0,0,0-.08h0A.56.56,0,0,1,77.45,86Z"></path><path class="cls-2" d="M62.6,74.44h0a28.44,28.44,0,0,1,4.74,5.07A28.44,28.44,0,0,0,62.6,74.44Z"></path><path class="cls-2" d="M63.39,64.41a7.22,7.22,0,0,0-.72.29c-.21.1-.4.21-.59.32.19-.11.38-.22.59-.32A7.22,7.22,0,0,1,63.39,64.41Z"></path><path class="cls-2" d="M61.25,65.59h0Z"></path><path class="cls-2" d="M72.22,79.57a2.83,2.83,0,0,1,.37-.32A2.83,2.83,0,0,0,72.22,79.57Z"></path><path class="cls-2" d="M66.23,64.23a3.6,3.6,0,0,1,.83.36A3.6,3.6,0,0,0,66.23,64.23Z"></path><path class="cls-2" d="M63.64,64.33a5.89,5.89,0,0,1,.86-.2A5.89,5.89,0,0,0,63.64,64.33Z"></path><path class="cls-2" d="M67.67,65a4,4,0,0,0-.61-.43,4,4,0,0,1,.61.43Z"></path><path class="cls-2" d="M75.35,78.51a.31.31,0,0,1,.06.25A.31.31,0,0,0,75.35,78.51Z"></path><path class="cls-2" d="M73.82,80.81h0l-.19.1h0Z"></path><path class="cls-2" d="M76.86,86.6a3.65,3.65,0,0,0,.59-.59,3.65,3.65,0,0,1-.59.59Z"></path><path class="cls-2" d="M59.22,74l0,0Z"></path><path class="cls-2" d="M58.55,71.94A4.77,4.77,0,0,0,59,73.52a4.77,4.77,0,0,1-.42-1.58,7.25,7.25,0,0,1,1.59-5.25A7.25,7.25,0,0,0,58.55,71.94Z"></path><path class="cls-2" d="M67.09,67h0Z"></path><path class="cls-2" d="M68.48,81.34c-.12-.23-.26-.46-.39-.69C68.22,80.88,68.36,81.11,68.48,81.34Z"></path><path class="cls-2" d="M74.19,76.34q-2.26-4.23-4.54-8.45a1.14,1.14,0,0,0-.15-.23,1.14,1.14,0,0,1,.15.23Q71.93,72.11,74.19,76.34Z"></path><path class="cls-2" d="M61.14,75.3h0l-.3-.07Z"></path><path class="cls-2" d="M30.33,59A4.31,4.31,0,0,0,31,60.48c.44.68.91,1.33,1.4,2-.49-.64-1-1.29-1.4-2A4.31,4.31,0,0,1,30.33,59Z"></path><path class="cls-2" d="M64.75,87.11l0,0Z"></path><path class="cls-2" d="M56.43,84.42a1.07,1.07,0,0,1-.14-.16A1.07,1.07,0,0,0,56.43,84.42Z"></path><path class="cls-2" d="M60.19,77.68a.32.32,0,0,1-.47,0A.32.32,0,0,0,60.19,77.68Z"></path><path class="cls-2" d="M59.48,77.53l.16.14Z"></path><path class="cls-2" d="M67.37,85.45c0-.18-.08-.37-.18-.55-.84-1.42-1.64-2.87-2.54-4.25.9,1.38,1.7,2.83,2.54,4.25C67.29,85.08,67.42,85.27,67.37,85.45Z"></path><path class="cls-2" d="M30.4,57.76l0-.08Z"></path><path class="cls-2" d="M34.58,56.7l.55.23Z"></path><path class="cls-2" d="M35.13,56.93a6.65,6.65,0,0,1,.58.33A6.65,6.65,0,0,0,35.13,56.93Z"></path><path class="cls-2" d="M32.42,62.48a61.55,61.55,0,0,0,4.89,5.45,3,3,0,0,0,.48.38,3,3,0,0,1-.48-.38A61.55,61.55,0,0,1,32.42,62.48Z"></path><path class="cls-2" d="M30.33,59a4.49,4.49,0,0,1-.06-.48A4.49,4.49,0,0,0,30.33,59Z"></path><path class="cls-2" d="M61.09,77a12.19,12.19,0,0,1,1.72,1.31A12.19,12.19,0,0,0,61.09,77c-.2-.13-.43-.28-.58-.13C60.66,76.73,60.89,76.88,61.09,77Z"></path><path class="cls-2" d="M30.27,58.52a1.77,1.77,0,0,1,0-.23A1.77,1.77,0,0,0,30.27,58.52Z"></path><path class="cls-2" d="M33.39,56.42h0Z"></path><path class="cls-2" d="M59.15,87.57a16.25,16.25,0,0,1,1,2.19,1.18,1.18,0,0,0,.2.36,1.18,1.18,0,0,1-.2-.36A16.25,16.25,0,0,0,59.15,87.57Z"></path><path class="cls-2" d="M47.88,77.73q1.78,1.5,3.63,2.92-1.84-1.43-3.63-2.92Z"></path><path class="cls-2" d="M60.38,90.12c.22.24.47.12.83-.17C60.85,90.24,60.6,90.36,60.38,90.12Z"></path><path class="cls-2" d="M56.18,83.93h0a.09.09,0,0,1,0,0c0,.07,0,.18.11.28-.07-.1-.13-.21-.11-.28A.09.09,0,0,0,56.18,83.93Z"></path><path class="cls-2" d="M64,87.66h0Z"></path><path class="cls-2" d="M67.22,85.65a.34.34,0,0,0,.13-.17A.34.34,0,0,1,67.22,85.65Z"></path><path class="cls-2" d="M98.18,70.47a10.17,10.17,0,0,1,.31,1A10.17,10.17,0,0,0,98.18,70.47Z"></path><path class="cls-2" d="M84.16,51.19h0Z"></path><path class="cls-2" d="M98.41,75.16a3.27,3.27,0,0,1-.41.51A3.27,3.27,0,0,0,98.41,75.16Z"></path><path class="cls-2" d="M82.1,55.64a2,2,0,0,0,0-.25A2,2,0,0,1,82.1,55.64Z"></path><path class="cls-2" d="M82.27,56.44c0-.13-.07-.27-.1-.4C82.2,56.17,82.23,56.31,82.27,56.44Z"></path><path class="cls-2" d="M98.87,73.81a3.53,3.53,0,0,0-.05-.85c0-.34-.12-.68-.2-1,.08.34.15.68.2,1A3.53,3.53,0,0,1,98.87,73.81Z"></path><path class="cls-2" d="M96,66.12l.28.6Z"></path><path class="cls-2" d="M98.18,70.47a10.79,10.79,0,0,0-.63-1.38c-.08-.13-.14-.25-.21-.38.07.13.13.25.21.38A10.79,10.79,0,0,1,98.18,70.47Z"></path><path class="cls-2" d="M92.58,56.72a3.26,3.26,0,0,0-.62-.61h0A3.26,3.26,0,0,1,92.58,56.72Z"></path><path class="cls-2" d="M90.71,51.37a6.86,6.86,0,0,0-.64-.68l-.3-.25.3.25A6.86,6.86,0,0,1,90.71,51.37Z"></path><path class="cls-2" d="M92.52,54.65a21.84,21.84,0,0,0-1.08-2.23,21.84,21.84,0,0,1,1.08,2.23Z"></path><path class="cls-2" d="M90.71,51.37a9,9,0,0,1,.53.73A9,9,0,0,0,90.71,51.37Z"></path><path class="cls-2" d="M82.36,56.73a2.5,2.5,0,0,0,.09.25c.11.29.23.57.34.86-.11-.29-.23-.57-.34-.86A2.5,2.5,0,0,1,82.36,56.73Z"></path><path class="cls-2" d="M94,77.33a4.55,4.55,0,0,0,.73,0l.42-.07-.42.07A4.55,4.55,0,0,1,94,77.33Z"></path><path class="cls-3" d="M77.79,84.68l0-.14,0,.14Z"></path><path class="cls-3" d="M74.13,80.68a1.74,1.74,0,0,1,.6-.11A1.74,1.74,0,0,0,74.13,80.68Z"></path><path class="cls-3" d="M74.13,80.68l-.31.13h0Z"></path><path class="cls-3" d="M76.23,85.79l.36-.2-.36.2A3,3,0,0,1,74,85.68h0a3,3,0,0,0,2.23.11l0,0h0Z"></path><path class="cls-3" d="M76.71,82.33l.27.44Z"></path><path class="cls-3" d="M73.63,80.91h0a3.07,3.07,0,0,0-.31.17A3.07,3.07,0,0,1,73.63,80.91Z"></path><path class="cls-3" d="M72.67,81.68a2.1,2.1,0,0,0-.29.5h0A2.1,2.1,0,0,1,72.67,81.68Z"></path><path class="cls-3" d="M73.32,81.08a2.94,2.94,0,0,0-.56.48A2.94,2.94,0,0,1,73.32,81.08Z"></path><path class="cls-3" d="M75,80.61a1.46,1.46,0,0,1,.48.21A1.46,1.46,0,0,0,75,80.61Z"></path><path class="cls-3" d="M72.93,83.87a6.86,6.86,0,0,0,.34.74,5.13,5.13,0,0,0,.62,1l.11.12a3,3,0,0,0,2.23.11l.36-.2.2-.06,0,.09a2.56,2.56,0,0,0,.7-.45,1,1,0,0,0,.31-.45.08.08,0,0,1,0,0l0-.14a4.19,4.19,0,0,0-.18-.58,13.25,13.25,0,0,0-.6-1.19l-.27-.44a9.23,9.23,0,0,0-.63-.91,2.7,2.7,0,0,0-.39-.43,1.73,1.73,0,0,0-.21-.17,1.46,1.46,0,0,0-.48-.21l-.27,0a1.74,1.74,0,0,0-.6.11l-.31.13-.19.1a3.07,3.07,0,0,0-.31.17,2.94,2.94,0,0,0-.56.48l-.09.12a2.1,2.1,0,0,0-.29.5A13.06,13.06,0,0,0,72.93,83.87Z"></path><path class="cls-3" d="M76.23,85.79l0,0,.4-.17-.07-.08Z"></path><path class="cls-3" d="M76.77,85.62l0-.09-.2.06.07.08Z"></path><path class="cls-3" d="M76.59,85.59l.07.08h0Z"></path><path class="cls-3" d="M72.67,81.68l.09-.12a2.94,2.94,0,0,1,.56-.48,3.07,3.07,0,0,1,.31-.17l-.08,0a2.42,2.42,0,0,0-1.25,1c0,.08,0,.17.08.27A2.1,2.1,0,0,1,72.67,81.68Z"></path><path class="cls-3" d="M74,85.68a1.46,1.46,0,0,0,.89.42,3,3,0,0,0,1.37-.25h0l0,0A3,3,0,0,1,74,85.68Z"></path><path class="cls-3" d="M74.73,80.57l.27,0a1.46,1.46,0,0,1,.48.21,1.73,1.73,0,0,1,.21.17,2.7,2.7,0,0,1,.39.43,9.23,9.23,0,0,1,.63.91l.27.44a13.25,13.25,0,0,1,.6,1.19,4.19,4.19,0,0,1,.18.58l0,.14,0-.13a.54.54,0,0,0-.15-.35s-.18-.53-.85-2c-1.08-2.38-1.82-2-3-1.41l.31-.13A1.74,1.74,0,0,1,74.73,80.57Z"></path><path class="cls-3" d="M76.71,82.33a9.23,9.23,0,0,0-.63-.91,2.7,2.7,0,0,0-.39-.43,2.7,2.7,0,0,1,.39.43A9.23,9.23,0,0,1,76.71,82.33Z"></path><path class="cls-3" d="M72.67,81.68l.09-.12Z"></path><path class="cls-3" d="M77.76,84.54a4.19,4.19,0,0,0-.18-.58,13.25,13.25,0,0,0-.6-1.19,13.25,13.25,0,0,1,.6,1.19A4.19,4.19,0,0,1,77.76,84.54Z"></path><path class="cls-3" d="M83,81.59a3.06,3.06,0,0,0,1.26.94,2.48,2.48,0,0,0,1.56.12A2.29,2.29,0,0,0,87,81.81a2.78,2.78,0,0,0,.35-.59,3.81,3.81,0,0,0,.19-.57,2.74,2.74,0,0,0,0-.87,3,3,0,0,0-.11-.68l-.66-.75a2.87,2.87,0,0,0-3.28-.64,1.91,1.91,0,0,0-1.4,1.86A5.05,5.05,0,0,0,82.59,81,3.43,3.43,0,0,0,83,81.59Z"></path><path class="cls-3" d="M83.55,77.71a2.87,2.87,0,0,1,3.28.64l.66.75a4.28,4.28,0,0,0-.15-.51c-1.88-2.78-4-1.72-4.13-1.67a2.46,2.46,0,0,0-1.06,2.65A1.91,1.91,0,0,1,83.55,77.71Z"></path><path class="cls-3" d="M97.36,73a.24.24,0,0,0,0-.08A8.33,8.33,0,0,0,96,71.24a2.1,2.1,0,0,0-1.31-.72,2.74,2.74,0,0,0-2.62.91A2.33,2.33,0,0,0,92.25,74c.74,1.53,1.51,2.15,2.7,2a6.17,6.17,0,0,0,1-.35,3.12,3.12,0,0,0,1-.72,2.22,2.22,0,0,0,.35-.6A2.48,2.48,0,0,0,97.36,73Z"></path><path class="cls-3" d="M92,73.91a6.39,6.39,0,0,0,.58,1.21,2.14,2.14,0,0,0,.59.64,1.76,1.76,0,0,0,1.18.31A2.81,2.81,0,0,0,95,76c-1.19.13-2-.49-2.7-2a2.33,2.33,0,0,1-.16-2.53,2.74,2.74,0,0,1,2.62-.91,2.1,2.1,0,0,1,1.31.72,8.33,8.33,0,0,1,1.32,1.64.24.24,0,0,0,0-.08c-2-3.67-4.62-2.54-4.72-2.49a2.18,2.18,0,0,0-1.11,2.2c0,.1.07.2.11.31C91.71,73.14,91.83,73.51,92,73.91Z"></path><path class="cls-4" d="M112.25,117q-1.11-3.63-2.23-7.27a2.79,2.79,0,0,1,.39-2.44c.59-.91,1.2-1.8,1.74-2.73,2.29-4,4.37-8.08,6.45-12.17A4.69,4.69,0,0,1,120,90.48a7,7,0,0,0,3-5.83A34.19,34.19,0,0,1,126.5,71a5,5,0,0,0,.51-2.2,6.79,6.79,0,0,1,1.3-4,49.88,49.88,0,0,1,6.24-6.91c1.6-1.52,1.6-3,0-4.46A6.12,6.12,0,0,0,128,52.26a29.45,29.45,0,0,0-15,10.88,4.82,4.82,0,0,0-1.14,2.54,5.85,5.85,0,0,1-2.54,4.45,2,2,0,0,1-2.7.06c-1.09-.86-2.15-1.77-3.25-2.62a6.43,6.43,0,0,1-2.13-3A45.56,45.56,0,0,0,96.45,55a50.43,50.43,0,0,0-4-5.52,5.54,5.54,0,0,0-6-1.82,9.24,9.24,0,0,0-6.61,5.71c-.38.91-.88,1.29-1.82,1a8.29,8.29,0,0,0-9.91,5.94c-.29,1.2-.85,1.51-2,1.48A9.08,9.08,0,0,0,57.4,66.7a10.08,10.08,0,0,0-1.1,2.8,1.24,1.24,0,0,1-1.69,1,2.92,2.92,0,0,1-1.25-.64A129.75,129.75,0,0,1,41.79,59.49a36.2,36.2,0,0,0-5.43-4.6c-2.59-1.76-6.78-1-8.14,2a4.94,4.94,0,0,0-.39,1.78,8.16,8.16,0,0,0,2,4.49,109.08,109.08,0,0,0,8.63,9.35A188.18,188.18,0,0,0,54.71,86.24a8.92,8.92,0,0,1,2.89,4,73.37,73.37,0,0,0,6,12.53c2.07,3.39,4,6.87,7.08,9.54A7.16,7.16,0,0,1,73,115.84c.92,3.12,1.85,6.22,2.79,9.33.5-.36,1-.7,1.54-1l.49-.28-2.26-7.39a3.3,3.3,0,0,1-.07-.5,16.92,16.92,0,0,0,4.44.45,9.54,9.54,0,0,0,6.1-2.35c.61-.55.71-.92-.11-1.34a2.89,2.89,0,0,0-2.34-.28c-5.23,1.51-9.51,0-12.92-4-2.2-2.56-3.73-5.59-5.47-8.47a61.33,61.33,0,0,1-3.33-6.32A1.65,1.65,0,0,1,61.93,92a7.79,7.79,0,0,1,6.21-4.23,1.1,1.1,0,0,1,1.17.4,6.29,6.29,0,0,0,4,2.41l.14,0a12.43,12.43,0,0,0-1,1.13,5.34,5.34,0,0,0-.67,1.06,3.6,3.6,0,0,0-.3,1c-.08.6.06,1,.33,1.08a.67.67,0,0,0,.58-.14c0,.12,0,.23-.05.36a24.67,24.67,0,0,1,4.55-4.48A17.74,17.74,0,0,1,82.39,88c-.35.46-.71.9-1.08,1.34s-1,.88-1.45,1.34-1,1-1.4,1.48c-.22.26-.44.51-.66.79s-.44.56-.64.87a5.64,5.64,0,0,0-.73,1.58,3.42,3.42,0,0,0-.1,1.5,2.13,2.13,0,0,0,.17.57,2,2,0,0,0,.25.37c.19.18.35.23.48.18a.68.68,0,0,0,.3-.4c.09-.2.15-.43.26-.7a10.77,10.77,0,0,1,1.1-2,6.15,6.15,0,0,1,.37-.52,34.71,34.71,0,0,1,7.43-5.83c0-.08.11-.18.2-.08h0a1,1,0,0,1-.1.22h0a20.87,20.87,0,0,0-2.9,4.74c-.1.24-.19.49-.28.75a11.05,11.05,0,0,0,.15,7.77,5.7,5.7,0,0,0,2.53,2.82c.18.1.37.23.56.07a.48.48,0,0,0,.1-.57c0-.1-.07-.19-.1-.29-1.77-4.53-.9-8.78,1.89-12.73A37.09,37.09,0,0,1,99.85,80.85c.87-.33,1.75-.62,2.64-.86s1.59-.72,1.52-1.14-.91-.62-1.88-.36l-.49.14-.4-.07a5.82,5.82,0,0,1,3.4-1c.33,0,.64,0,1,.08l.35.14a25.4,25.4,0,0,0,3,.88,29.79,29.79,0,0,1,4.13,1.36q1,.42,2,.9a11.67,11.67,0,0,1,1.21.71,8.89,8.89,0,0,1,1.18,1.44c.24.37.5.74.78,1.14.06.21.11.4.15.55s.12.39.25.45a.3.3,0,0,0,.23,0l.06,0,0,0v0a1.3,1.3,0,0,0,.21-.17,2.13,2.13,0,0,0,.47-1.13,3.52,3.52,0,0,0-.24-1.76,3.62,3.62,0,0,0-.52-.91,4.6,4.6,0,0,0-.74-.79A11,11,0,0,0,116,79.12l-.68-.32A11.2,11.2,0,0,0,111.8,77c-1-.3-1.93-.68-2.91-1-.53-.17-.66-.32-.24-.81a25.78,25.78,0,0,0,3.4-5.25c.54-1.06,1.32-1.31,2.53-.76.47.21.93.43,1.4.61a8.17,8.17,0,0,0,2.17.79,3.5,3.5,0,0,0,2.23-.2c.55-.26.79-.63.71-.89s-.43-.42-.86-.56-1-.24-1.6-.37c-.2,0-.4-.1-.6-.16v0a.78.78,0,0,0-.32-.18l-.47-.1a5.86,5.86,0,0,1-.74-.41,4.16,4.16,0,0,1-.79-.71,2.78,2.78,0,0,1-.29-.41,2.11,2.11,0,0,1-.2-.43,10.53,10.53,0,0,1-.35-1.36l0-.11a6.11,6.11,0,0,1,.53-.89,24.48,24.48,0,0,1,7.38-6.43,28.73,28.73,0,0,1,5.79-2.89,3.84,3.84,0,0,1,4,.53c.81.68.8,1,0,1.73a44.07,44.07,0,0,0-6.65,7.78A7.62,7.62,0,0,0,124.58,69a4.6,4.6,0,0,1-.62,2.48,30.72,30.72,0,0,0-3.15,11.77c-.08.82-.14,1.64-.22,2.47a3.57,3.57,0,0,1-1.41,2.7c-1.88,1.28-2.7,3.23-3.62,5.13-1.83,3.75-3.74,7.46-5.76,11.11a8.56,8.56,0,0,1-6.92,4.58l-.06,0a.33.33,0,0,1-.38-.12h0l.13,0,.21-.08h0a14.29,14.29,0,0,0,4.75-3.9c.13-.17.26-.33.38-.5.31-.41.6-.83.88-1.27a36.57,36.57,0,0,0,2.32-4.44c.22-.5.07-.65-.44-.72-.77-.11-1.47-.22-2,.65-3.13,5.41-7.85,8.48-13.38,10.36a46.24,46.24,0,0,1-4.7.36c-1.5,0-2.74.45-2.78,1s1.2,1.08,2.77,1h.07c.82.25,1.65.43,2.46.61.16,0,5.76,1.08,10.37-.64l.13,0a11.67,11.67,0,0,1,3.15-.56.66.66,0,0,1,.84-.62c.32.22.36.65.47,1l1.53,5h0c.27.89.55,1.78.82,2.67C111.06,118.35,111.65,117.67,112.25,117ZM67.06,85.74c-.28.13-.55.27-.81.41a14.68,14.68,0,0,0-1.5,1l0,0-.7.53h0l-1,.85-.35.29-1,.86-.35.29c-.36.29-.61.41-.83.17a1.18,1.18,0,0,1-.2-.36,16.25,16.25,0,0,0-1-2.19c-.13-.23-.27-.45-.42-.67a9.13,9.13,0,0,0-.71-1,8.76,8.76,0,0,0-1.45-1.4l-.14-.12a1.07,1.07,0,0,1-.14-.16h0c-.07-.1-.13-.21-.11-.28a.09.09,0,0,0,0,0h0a2.3,2.3,0,0,0,.87-.53.8.8,0,0,0,.28-.91,1,1,0,0,0-.76-.45,3.91,3.91,0,0,0-1.19,0,4.28,4.28,0,0,1-3-.7h0l-.88-.67q-1.84-1.43-3.63-2.92a7.94,7.94,0,0,0,2.62-1.34,2.47,2.47,0,0,0,.87-1.26.82.82,0,0,0-.23-.89,1.05,1.05,0,0,0-.89,0,3.35,3.35,0,0,0-1,.57,5.54,5.54,0,0,1-2.82,1.16,2.93,2.93,0,0,0-.53.1h0l-.43-.38q-2.49-2.18-4.93-4.4a1.83,1.83,0,0,1-.32-.39,3.11,3.11,0,0,0,.49-.16,3.43,3.43,0,0,0,.55-.25,2.78,2.78,0,0,0,.91-.85,2.27,2.27,0,0,0,.39-.89c.09-.55-.08-.91-.34-1a.72.72,0,0,0-.53.07,3.1,3.1,0,0,0-.4.21c-.33.21-.69.47-1,.67a1.8,1.8,0,0,1-.69.22,2.58,2.58,0,0,1-.82-.07l-.2-.07-.16-.14h0a3.07,3.07,0,0,1-.41-.2l-.17-.11a3,3,0,0,1-.48-.38,61.55,61.55,0,0,1-4.89-5.45l0,0c-.49-.64-1-1.29-1.4-2A4.31,4.31,0,0,1,30.33,59a4.49,4.49,0,0,1-.06-.48,1.77,1.77,0,0,1,0-.23,1.86,1.86,0,0,1,.12-.53l0-.08a1.92,1.92,0,0,1,.64-.78,2.64,2.64,0,0,1,1.07-.42,4.52,4.52,0,0,1,.95-.08l.31,0h0a4.29,4.29,0,0,1,.88.18l.28.1.55.23a6.65,6.65,0,0,1,.58.33,10.33,10.33,0,0,1,1,.67A56.83,56.83,0,0,1,42.2,63a94.5,94.5,0,0,0,11.35,9.57c1.26.91,2.5,1.85,3.69,2.86l.54.46c.52.47,1,.95,1.53,1.45l.17.15.16.14.08,0a.32.32,0,0,0,.47,0,.64.64,0,0,0,.11-.22,1,1,0,0,0,.09-.31.66.66,0,0,1,.09-.22l0-.05c.15-.15.38,0,.58.13a12.19,12.19,0,0,1,1.72,1.31,7.12,7.12,0,0,1,.93,1c.32.42.62.85.91,1.29.9,1.38,1.7,2.83,2.54,4.25.1.18.23.37.18.55l0,0a.34.34,0,0,1-.13.17Zm9.8.86a3.79,3.79,0,0,1-.65.42,3.61,3.61,0,0,1-.68.28,3.43,3.43,0,0,1-1.42.11h0a2.8,2.8,0,0,1-.56-.12,4.84,4.84,0,0,1-.49-.18,4.38,4.38,0,0,1-1.57-1.22c-.2-.23-.39-.47-.58-.71s-.37-.49-.54-.74c-.36-.5-.69-1-1-1.54l-.3-.53c-.1-.17-.2-.35-.29-.54l-.27-.49c-.12-.23-.26-.46-.39-.69l-.36-.57-.39-.57a28.44,28.44,0,0,0-4.74-5.07h0A17.34,17.34,0,0,1,61,72.71c-.45-.55-1.07-.83-1.42-.59s-.3,1,.19,1.58.83,1,1.28,1.44l.08.16-.3-.07a2.7,2.7,0,0,1-.91-.46,3.15,3.15,0,0,1-.38-.35,2.88,2.88,0,0,1-.33-.43l0,0a2.93,2.93,0,0,1-.23-.43,4.77,4.77,0,0,1-.42-1.58,7.25,7.25,0,0,1,1.59-5.25,8.06,8.06,0,0,1,.69-.74l.42-.36h0a7.89,7.89,0,0,1,.82-.56c.19-.11.38-.22.59-.32a7.22,7.22,0,0,1,.72-.29l.25-.08a5.89,5.89,0,0,1,.86-.2,4,4,0,0,1,1.73.1,3.6,3.6,0,0,1,.83.36,4,4,0,0,1,.61.43h0a7.59,7.59,0,0,0-.93.27,2.05,2.05,0,0,0-.95.74.62.62,0,0,0-.05.71.71.71,0,0,0,.61.2.41.41,0,0,0,.31.09h.43l.51,0,.26,0a2.14,2.14,0,0,1,.73.06,1.65,1.65,0,0,1,.91.65,1.14,1.14,0,0,1,.15.23q2.28,4.22,4.54,8.45l1.11,2.07a.31.31,0,0,1,0,.1.31.31,0,0,1,.06.25.58.58,0,0,1-.06.15c-.56,0-1.1-.26-1.69-.14a2.4,2.4,0,0,0-.82.31,2.2,2.2,0,0,0-.25.17,2.83,2.83,0,0,0-.37.32,3.9,3.9,0,0,0-.33.38c-.08.13-.16.25-.24.39a4,4,0,0,0-.44,1.35,4.43,4.43,0,0,0,.29,2.16,5.5,5.5,0,0,0,.63,1.2,2.83,2.83,0,0,0,.2.28,4.17,4.17,0,0,0,.34.38l.1.11L73,86l.18.2a2.69,2.69,0,0,0,.7.51,2.26,2.26,0,0,0,.92.22,3.61,3.61,0,0,0,1.73-.45,5.77,5.77,0,0,0,.72-.41l.24-.17h0a.56.56,0,0,1,0,.08,3.65,3.65,0,0,1-.59.59Zm-3.31-5.66.08,0,.19-.1c1.18-.57,1.92-1,3,1.41.67,1.45.85,2,.85,2a.54.54,0,0,1,.15.35l0,.13a.08.08,0,0,0,0,0,1,1,0,0,1-.31.45,2.56,2.56,0,0,1-.7.45l-.11,0h0l-.4.17h0a3,3,0,0,1-1.37.25,1.46,1.46,0,0,1-.89-.42h0l-.11-.12a5.13,5.13,0,0,1-.62-1,6.86,6.86,0,0,1-.34-.74,13.06,13.06,0,0,1-.55-1.69h0c0-.1,0-.19-.08-.27A2.42,2.42,0,0,1,73.55,80.94ZM85,84.25a3.23,3.23,0,0,1-1.2-.11,4.39,4.39,0,0,1-2-1.33A16,16,0,0,1,80.29,81c-.22-.32-.43-.65-.63-1s-.39-.68-.57-1q-1.86-3.55-3.73-7.09l-3.74-7.08-.3-.62-.21-.5L71,63.33a5.41,5.41,0,0,1-.44-2.24,3,3,0,0,1,0-.31,3.5,3.5,0,0,1,.07-.45l0-.13a4.2,4.2,0,0,1,1.26-2,6.28,6.28,0,0,1,2.67-1.54,5.07,5.07,0,0,1,3,.14,3.23,3.23,0,0,1,.62.3l.18.12a3.11,3.11,0,0,1,.33.29,8.11,8.11,0,0,1,1.25,1.83.64.64,0,0,1,.09.22,10.7,10.7,0,0,0-1.6-.15c-.68,0-1.2.4-1.16.82s.53.73,1.09.73c.4,0,.8,0,1.2.1h0l.28.11a2.79,2.79,0,0,1,1,.67A2,2,0,0,1,81,62c0,.07.1.14.14.21a3,3,0,0,1,.29.65c.24.77.69,1.48.93,2.26a40.22,40.22,0,0,0,3.16,7.2c.21.41.43.82.65,1.23.66,1.23,1.32,2.46,1.92,3.71l.27.55c.08.19.17.38.25.56a5.84,5.84,0,0,1,.49,1.91,2.76,2.76,0,0,1-.35,1.54,3.08,3.08,0,0,1-.34.49,2.7,2.7,0,0,1-.28.31,4.15,4.15,0,0,1-.44.38c-.15.12-.32.24-.51.37a5.54,5.54,0,0,1-1.67.75Zm9.75-7a4.55,4.55,0,0,1-.73,0,3.06,3.06,0,0,1-2.67-1.56,94.15,94.15,0,0,1-7-14.19c-.14-.32-.27-.65-.4-1l-.49-1.21-.63-1.56c-.11-.29-.23-.57-.34-.86a2.5,2.5,0,0,1-.09-.25,1.61,1.61,0,0,1-.09-.29c0-.13-.07-.27-.1-.4s0-.27-.07-.4a2,2,0,0,0,0-.25,4.38,4.38,0,0,1,.27-1.82,4.94,4.94,0,0,1,.47-1,6.55,6.55,0,0,1,.39-.53,5.11,5.11,0,0,1,.45-.48c.16-.15.33-.29.5-.42h0A6.5,6.5,0,0,1,88,49.81a2.91,2.91,0,0,1,1.73.63l.3.25a6.86,6.86,0,0,1,.64.68h0a9,9,0,0,1,.53.73c.07.11.13.22.2.32a21.84,21.84,0,0,1,1.08,2.23c-.65-.23-1.31-.44-2-.61s-1.46,0-1.55.44.41.87,1.12,1.06,1.24.36,1.85.57h0a3.26,3.26,0,0,1,.62.61,3.19,3.19,0,0,1,.55,1.07,1.82,1.82,0,0,1,.07.25,44.28,44.28,0,0,0,1.26,4.3c.17.46.34.93.52,1.39.32.8.67,1.6,1,2.39l.28.6c.33.67.68,1.33,1,2,.07.13.13.25.21.38a10.79,10.79,0,0,1,.63,1.38,10.17,10.17,0,0,1,.31,1c.05.16.09.33.13.49.08.34.15.68.2,1a3.53,3.53,0,0,1,.05.85,3.22,3.22,0,0,1-.14.7,3,3,0,0,1-.32.65,3.27,3.27,0,0,1-.41.51l-.26.25a5.73,5.73,0,0,1-2.57,1.31Z"></path><path class="cls-4" d="M97.93,74.84a2.48,2.48,0,0,0,.18-1.09,3.28,3.28,0,0,0-.19-1l-.12-.31a6.36,6.36,0,0,0-1.41-3.4,3.33,3.33,0,0,0-5.21.17,4,4,0,0,0-.61,4.33,5.76,5.76,0,0,0,.73,1.37,4.41,4.41,0,0,0,.38.75,3,3,0,0,0,.88.92,2.6,2.6,0,0,0,.83.35,3,3,0,0,0,1,.06,4.35,4.35,0,0,0,1-.21,7.91,7.91,0,0,0,1-.41,4.8,4.8,0,0,0,.91-.63A2.76,2.76,0,0,0,97.93,74.84ZM92.6,70.31c.1,0,2.69-1.18,4.72,2.49a513785625492.74,513785625492.74,0,0,1,0,.16,2.48,2.48,0,0,1,0,1.35,2.44,2.44,0,0,1-.1.24,1.45,1.45,0,0,1-.25.36,3.12,3.12,0,0,1-1,.72A6.17,6.17,0,0,1,95,76a2.81,2.81,0,0,1-.62.09,1.76,1.76,0,0,1-1.18-.31,2.14,2.14,0,0,1-.59-.64A6.39,6.39,0,0,1,92,73.91c-.15-.4-.27-.77-.38-1.09,0-.11-.08-.21-.11-.31A2.18,2.18,0,0,1,92.6,70.31Z"></path><path class="cls-4" d="M88.25,81.62a3.73,3.73,0,0,0,.28-.76,3.63,3.63,0,0,0,.11-1.19,4,4,0,0,0-1.15-2.49,1.1,1.1,0,0,0-.16-.15c-.06-.11-.12-.22-.17-.33a2.84,2.84,0,0,0-3-1.6,3.54,3.54,0,0,0-3.08,2.13c-1.19,2.59,1.1,5.75,3,6.33a2.51,2.51,0,0,0,1.46,0,2.91,2.91,0,0,0,.4,0,3.16,3.16,0,0,0,1.75-1.09A3.88,3.88,0,0,0,88.25,81.62Zm-5-4.7c.08,0,2.25-1.11,4.13,1.67a4.28,4.28,0,0,1,.15.51,3,3,0,0,1,.11.68,2.74,2.74,0,0,1,0,.87,3.81,3.81,0,0,1-.19.57,2.78,2.78,0,0,1-.35.59,2.29,2.29,0,0,1-1.19.84,2.48,2.48,0,0,1-1.56-.12A3.06,3.06,0,0,1,83,81.59a3.43,3.43,0,0,1-.41-.61,1.09,1.09,0,0,1-.08-.15,5.55,5.55,0,0,1-.24-.56,2.19,2.19,0,0,1-.12-.7A2.46,2.46,0,0,1,83.21,76.92Z"></path><path class="cls-5" d="M102.78,109l-.21.08-.13,0a.33.33,0,0,0,.38.12l.06,0-.1-.23Z"></path><path class="cls-5" d="M82.51,80.83a1.09,1.09,0,0,0,.08.15,5.05,5.05,0,0,1-.44-1.41,2.19,2.19,0,0,0,.12.7A5.55,5.55,0,0,0,82.51,80.83Z"></path><path class="cls-5" d="M70.64,60.2l0,.13a3.5,3.5,0,0,0-.07.45A5.34,5.34,0,0,0,71,63.33c.2.5.41,1,.66,1.49l3.74,7.08q1.88,3.54,3.73,7.09c.18.34.37.69.57,1s.41.66.63,1a16,16,0,0,0,1.47,1.82A3.84,3.84,0,0,0,85,84.25a5,5,0,0,0,2.2-.84,6.42,6.42,0,0,0,1-.75,2.7,2.7,0,0,0,.28-.31,3.08,3.08,0,0,0,.34-.49,2.76,2.76,0,0,0,.35-1.54,5.84,5.84,0,0,0-.49-1.91c-.08-.18-.17-.37-.25-.56l-.27-.55c-.81-1.67-1.71-3.3-2.57-4.94a40.22,40.22,0,0,1-3.16-7.2c-.24-.78-.69-1.49-.93-2.26a3,3,0,0,0-.29-.65,2.79,2.79,0,0,0-1.62-1.2c-.4,0-.8-.09-1.2-.1-.56,0-1-.3-1.09-.73s.48-.83,1.16-.82a10.7,10.7,0,0,1,1.6.15.64.64,0,0,0-.09-.22,8.11,8.11,0,0,0-1.25-1.83,3.11,3.11,0,0,0-.33-.29l-.18-.12a3.23,3.23,0,0,0-.62-.3,5.07,5.07,0,0,0-3-.14,6.28,6.28,0,0,0-2.67,1.54A4.2,4.2,0,0,0,70.64,60.2ZM84.2,75.1a2.84,2.84,0,0,1,3,1.6c0,.11.11.22.17.33a1.1,1.1,0,0,1,.16.15,4,4,0,0,1,1.15,2.49,3.63,3.63,0,0,1-.11,1.19,3.73,3.73,0,0,1-.28.76,3.88,3.88,0,0,1-.5.77A3.16,3.16,0,0,1,86,83.48a2.91,2.91,0,0,1-.4,0,2.51,2.51,0,0,1-1.46,0c-1.92-.58-4.21-3.74-3-6.33A3.54,3.54,0,0,1,84.2,75.1Z"></path><path class="cls-5" d="M60.14,66.69a7.25,7.25,0,0,0-1.59,5.25A4.77,4.77,0,0,0,59,73.52a2.93,2.93,0,0,0,.23.43l0,0a2.84,2.84,0,0,0,1.62,1.24l.3.07-.08-.16c-.45-.46-.88-.94-1.28-1.44s-.55-1.33-.19-1.58,1,0,1.42.59a17.34,17.34,0,0,0,1.59,1.73,28.44,28.44,0,0,1,4.74,5.07l.39.57.36.57c.13.23.27.46.39.69l.27.49c.19.37.39.72.59,1.07a22.51,22.51,0,0,0,2.13,3,4.1,4.1,0,0,0,2.62,1.52h0A3.78,3.78,0,0,0,77.45,86a.56.56,0,0,0,0-.08l-.24.17a5.77,5.77,0,0,1-.72.41,3.61,3.61,0,0,1-1.73.45,2.26,2.26,0,0,1-.92-.22,2.69,2.69,0,0,1-.7-.51L73,86a5.24,5.24,0,0,1-1.8-4.34,3.5,3.5,0,0,1,1-2.12,2.83,2.83,0,0,1,.37-.32,2.53,2.53,0,0,1,1.07-.48c.59-.12,1.13.19,1.69.14a.58.58,0,0,0,.06-.15.31.31,0,0,0-.06-.25.31.31,0,0,0,0-.1l-1.11-2.07q-2.26-4.23-4.54-8.45a1.14,1.14,0,0,0-.15-.23A1.73,1.73,0,0,0,67.86,67l-.26,0-.51,0h-.43a.41.41,0,0,1-.31-.09.71.71,0,0,1-.61-.2.62.62,0,0,1,.05-.71,2.05,2.05,0,0,1,.95-.74,7.59,7.59,0,0,1,.93-.27,4,4,0,0,0-.61-.43,3.6,3.6,0,0,0-.83-.36,4,4,0,0,0-1.73-.1,5.89,5.89,0,0,0-.86.2l-.25.08a7.22,7.22,0,0,0-.72.29c-.21.1-.4.21-.59.32a7.89,7.89,0,0,0-.82.56h0l-.42.36A8.06,8.06,0,0,0,60.14,66.69Z"></path><path class="cls-5" d="M67.37,85.45c0-.18-.08-.37-.18-.55-.84-1.42-1.64-2.87-2.54-4.25-.29-.44-.59-.87-.91-1.29a7.12,7.12,0,0,0-.93-1A12.19,12.19,0,0,0,61.09,77c-.2-.13-.43-.28-.58-.13l0,.05a.66.66,0,0,0-.09.22,1,1,0,0,1-.09.31.64.64,0,0,1-.11.22.32.32,0,0,1-.47,0l-.08,0-.16-.14-.17-.15c-.66-.67-1.35-1.3-2.07-1.91-1.19-1-2.43-2-3.69-2.86A94.5,94.5,0,0,1,42.2,63a56.83,56.83,0,0,0-5.53-5.11,10.33,10.33,0,0,0-1-.67,6.65,6.65,0,0,0-.58-.33l-.55-.23a4.47,4.47,0,0,0-1.16-.28h0a4.52,4.52,0,0,0-1.26.06,2.15,2.15,0,0,0-1.71,1.2l0,.08a1.86,1.86,0,0,0-.12.53,1.77,1.77,0,0,0,0,.23,4.49,4.49,0,0,0,.06.48A4.31,4.31,0,0,0,31,60.48c.44.68.91,1.33,1.4,2l0,0a61.55,61.55,0,0,0,4.89,5.45,3,3,0,0,0,.48.38l.17.11a3.07,3.07,0,0,0,.41.2h0l.16.14.2.07a2.58,2.58,0,0,0,.82.07,1.8,1.8,0,0,0,.69-.22c.35-.2.71-.46,1-.67a3.1,3.1,0,0,1,.4-.21.72.72,0,0,1,.53-.07c.26.08.43.44.34,1a2.27,2.27,0,0,1-.39.89,2.78,2.78,0,0,1-.91.85,3.43,3.43,0,0,1-.55.25,3.11,3.11,0,0,1-.49.16,1.83,1.83,0,0,0,.32.39c1.77,1.61,3.55,3.21,5.36,4.78a2.93,2.93,0,0,1,.53-.1,5.54,5.54,0,0,0,2.82-1.16,3.35,3.35,0,0,1,1-.57,1.05,1.05,0,0,1,.89,0,.82.82,0,0,1,.23.89,2.47,2.47,0,0,1-.87,1.26,7.94,7.94,0,0,1-2.62,1.34q1.78,1.5,3.63,2.92l.88.67h0a4.28,4.28,0,0,0,3,.7,3.91,3.91,0,0,1,1.19,0,1,1,0,0,1,.76.45.8.8,0,0,1-.28.91,2.3,2.3,0,0,1-.87.53.09.09,0,0,1,0,0c0,.07,0,.18.11.28h0a1.07,1.07,0,0,0,.14.16l.14.12a9.84,9.84,0,0,1,2.16,2.36c.15.22.29.44.42.67a16.25,16.25,0,0,1,1,2.19,1.18,1.18,0,0,0,.2.36c.22.24.47.12.83-.17l.35-.29,1-.86.35-.29,1-.85h0l.7-.53,0,0a14.68,14.68,0,0,1,1.5-1c.26-.14.53-.28.81-.41l.16-.09a.34.34,0,0,0,.13-.17Z"></path><path class="cls-5" d="M83.66,51.61a5.11,5.11,0,0,0-.45.48,6.55,6.55,0,0,0-.39.53,4.6,4.6,0,0,0-.74,2.77,2,2,0,0,1,0,.25c0,.13,0,.26.07.4s.06.27.1.4a1.61,1.61,0,0,0,.09.29,2.5,2.5,0,0,0,.09.25c.11.29.23.57.34.86l.63,1.56.49,1.21a97.68,97.68,0,0,0,7.44,15.16A3.06,3.06,0,0,0,94,77.33a4.55,4.55,0,0,0,.73,0l.42-.07a5.73,5.73,0,0,0,2.57-1.31l.26-.25a3.27,3.27,0,0,0,.41-.51,2.83,2.83,0,0,0,.46-1.35,3.53,3.53,0,0,0-.05-.85c0-.34-.12-.68-.2-1,0-.16-.08-.33-.13-.49a10.17,10.17,0,0,0-.31-1,10.79,10.79,0,0,0-.63-1.38c-.08-.13-.14-.25-.21-.38-.36-.66-.71-1.32-1-2l-.28-.6c-.37-.79-.72-1.59-1-2.39A42.22,42.22,0,0,1,93.2,58a1.82,1.82,0,0,0-.07-.25,3.19,3.19,0,0,0-.55-1.07,3.26,3.26,0,0,0-.62-.61c-.61-.21-1.22-.41-1.85-.57S88.89,54.9,89,54.48s.79-.64,1.55-.44,1.33.38,2,.61a21.84,21.84,0,0,0-1.08-2.23c-.07-.1-.13-.21-.2-.32a9,9,0,0,0-.53-.73h0a6.86,6.86,0,0,0-.64-.68l-.3-.25A2.91,2.91,0,0,0,88,49.81a6.5,6.5,0,0,0-3.87,1.37h0C84,51.32,83.82,51.46,83.66,51.61ZM96.39,69.07a6.36,6.36,0,0,1,1.41,3.4l.12.31a3.28,3.28,0,0,1,.19,1,2.48,2.48,0,0,1-.18,1.09,2.76,2.76,0,0,1-.68.93,4.8,4.8,0,0,1-.91.63,7.91,7.91,0,0,1-1,.41,4.35,4.35,0,0,1-1,.21,3,3,0,0,1-1-.06,2.6,2.6,0,0,1-.83-.35,3,3,0,0,1-.88-.92,4.41,4.41,0,0,1-.38-.75,5.76,5.76,0,0,1-.73-1.37,4,4,0,0,1,.61-4.33A3.33,3.33,0,0,1,96.39,69.07Z"></path><path class="cls-5" d="M97.26,74.55a2.44,2.44,0,0,0,.1-.24,2.22,2.22,0,0,1-.35.6A1.45,1.45,0,0,0,97.26,74.55Z"></path><path class="cls-5" d="M109.49,120.05c.33-.34.64-.68,1-1-.27-.89-.55-1.78-.82-2.67h0l-1.53-5c-.11-.37-.15-.8-.47-1a.66.66,0,0,0-.84.62,11.67,11.67,0,0,0-3.15.56l-.13,0c-4.61,1.72-10.21.66-10.37.64-.81-.18-1.64-.36-2.46-.61h-.07c-1.57,0-2.81-.48-2.77-1s1.28-1,2.78-1a46.24,46.24,0,0,0,4.7-.36c5.53-1.88,10.25-5,13.38-10.36.5-.87,1.2-.76,2-.65.51.07.66.22.44.72a36.57,36.57,0,0,1-2.32,4.44,15.16,15.16,0,0,1-6,5.67l.1.23a8.56,8.56,0,0,0,6.92-4.58c2-3.65,3.93-7.36,5.76-11.11.92-1.9,1.74-3.85,3.62-5.13a3.57,3.57,0,0,0,1.41-2.7c.08-.83.14-1.65.22-2.47A30.72,30.72,0,0,1,124,71.48a4.6,4.6,0,0,0,.62-2.48,7.62,7.62,0,0,1,1.33-4.51,44.07,44.07,0,0,1,6.65-7.78c.77-.77.78-1.05,0-1.73a3.84,3.84,0,0,0-4-.53,28.73,28.73,0,0,0-5.79,2.89,24.48,24.48,0,0,0-7.38,6.43,6.11,6.11,0,0,0-.53.89l0,.11a10.53,10.53,0,0,0,.35,1.36,2.11,2.11,0,0,0,.2.43,2.78,2.78,0,0,0,.29.41,4.16,4.16,0,0,0,.79.71,5.86,5.86,0,0,0,.74.41l.47.1a.78.78,0,0,1,.32.18v0c.2.06.4.12.6.16.62.13,1.16.25,1.6.37s.77.28.86.56-.16.63-.71.89a3.5,3.5,0,0,1-2.23.2,8.17,8.17,0,0,1-2.17-.79c-.47-.18-.93-.4-1.4-.61-1.21-.55-2-.3-2.53.76a25.78,25.78,0,0,1-3.4,5.25c-.42.49-.29.64.24.81,1,.3,1.93.68,2.91,1a11.2,11.2,0,0,1,3.54,1.82l.68.32a11,11,0,0,1,2.08,1.33,4.6,4.6,0,0,1,.74.79,3.62,3.62,0,0,1,.52.91,3.52,3.52,0,0,1,.24,1.76,2.13,2.13,0,0,1-.47,1.13,1.3,1.3,0,0,1-.21.17v0l0,0-.06,0a.3.3,0,0,1-.23,0c-.13-.06-.19-.23-.25-.45s-.09-.34-.15-.55c-.28-.4-.54-.77-.78-1.14a8.89,8.89,0,0,0-1.18-1.44A11.67,11.67,0,0,0,115,81q-1-.48-2-.9a29.79,29.79,0,0,0-4.13-1.36,25.4,25.4,0,0,1-3-.88l-.35-.14c-.32,0-.63-.07-1-.08a5.82,5.82,0,0,0-3.4,1l.4.07.49-.14c1-.26,1.82-.06,1.88.36s-.62.9-1.52,1.14-1.77.53-2.64.86A37.09,37.09,0,0,0,88.74,91.24c-2.79,4-3.66,8.2-1.89,12.73,0,.1.07.19.1.29a.48.48,0,0,1-.1.57c-.19.16-.38,0-.56-.07a5.7,5.7,0,0,1-2.53-2.82,11.05,11.05,0,0,1-.15-7.77c.09-.26.18-.51.28-.75a20.87,20.87,0,0,1,2.9-4.74h0c0-.08.13-.21.1-.23s-.15,0-.2.08a34.71,34.71,0,0,0-7.43,5.83,6.15,6.15,0,0,0-.37.52,10.77,10.77,0,0,0-1.1,2c-.11.27-.17.5-.26.7a.68.68,0,0,1-.3.4c-.13,0-.29,0-.48-.18a2,2,0,0,1-.25-.37,2.13,2.13,0,0,1-.17-.57,3.42,3.42,0,0,1,.1-1.5,5.64,5.64,0,0,1,.73-1.58c.2-.31.42-.59.64-.87s.44-.53.66-.79c.45-.51.92-1,1.4-1.48s1-.91,1.45-1.34S82,88.42,82.39,88a17.74,17.74,0,0,0-5.52,2.66,24.67,24.67,0,0,0-4.55,4.48c0-.13,0-.24.05-.36a.67.67,0,0,1-.58.14c-.27-.08-.41-.48-.33-1.08a3.6,3.6,0,0,1,.3-1,5.34,5.34,0,0,1,.67-1.06,12.43,12.43,0,0,1,1-1.13l-.14,0a6.29,6.29,0,0,1-4-2.41,1.1,1.1,0,0,0-1.17-.4A7.79,7.79,0,0,0,61.93,92a1.65,1.65,0,0,0-.11,1.72,61.33,61.33,0,0,0,3.33,6.32c1.74,2.88,3.27,5.91,5.47,8.47,3.41,4,7.69,5.46,12.92,4a2.89,2.89,0,0,1,2.34.28c.82.42.72.79.11,1.34a9.54,9.54,0,0,1-6.1,2.35,16.92,16.92,0,0,1-4.44-.45,3.3,3.3,0,0,0,.07.5l2.26,7.39a19.6,19.6,0,0,1,5.38-2.17,26.35,26.35,0,0,1,7.9-.63c3.87.27,7.56,1.4,11.37,2a6.76,6.76,0,0,0,2.88,0C107.81,122.64,109.49,120.05,109.49,120.05Z"></path><path class="cls-4" d="M38.39,53.32,24.09,40.64l3.58-4,5.66,5,2.78-3.13-5.66-5,3.58-4L48.34,42.11l-3.59,4L38.92,41l-2.78,3.13L42,49.29Z"></path><path class="cls-4" d="M56.94,33.35l-4,2.24.94,3-4.2,2.33-4.28-18-1-1,5.89-3.27,14,14.07-5.24,2.91Zm-5.08-1,2.77-1.53-5-5.4Z"></path><path class="cls-4" d="M71.29,31.49,66,32.44,62.6,13.62l2.12-.37c.51-.1,1.27-.26,2.28-.49s1.84-.4,2.51-.52a7.74,7.74,0,0,1,5.45.6,6,6,0,0,1,2.54,4.37,6.64,6.64,0,0,1-.22,3.45,6.38,6.38,0,0,1-1.73,2.68,2.33,2.33,0,0,1,1.39.59A4.67,4.67,0,0,1,78,25.31c.3.55.57,1.1.82,1.67s.53,1.13.82,1.67a4.25,4.25,0,0,0,.85,1.19L74.58,30.9a3.21,3.21,0,0,1-.5-1.21c-.18-.68-.42-1.49-.71-2.44a13.51,13.51,0,0,0-.9-2.35h-.08l-.65.11-.61.09-.55.06-.41.06Zm-1.14-9.34c.27,0,.49-.1.67-.15a5,5,0,0,0,.58-.23,1.41,1.41,0,0,0,.5-.38,2.36,2.36,0,0,0,.32-.57,2.52,2.52,0,0,0,.15-.84,6.23,6.23,0,0,0-.11-1.14L72,17.57A2.32,2.32,0,0,0,71,15.75a3.53,3.53,0,0,0-2.2-.18l-.3.06,1.18,6.61Z"></path><path class="cls-4" d="M81.88,10.86l6,.69.66,6.71.67,7,2.16-6.72,2.21-6.38,4.26.49L91,31.14l-5.88-.67Z"></path><path class="cls-4" d="M96,32.13l7.18-17.71,10.49,4.25-1.75,3.44-5.12-2.25-1.38,3.42,4.08,1.65-1.44,3.54-4-2-1.63,4,5.78,2.17-1.53,3.78Z"></path><path class="cls-4" d="M111,39.63a7.73,7.73,0,0,1-1.09-1.57,9.94,9.94,0,0,1-.54-1.27,6.19,6.19,0,0,1-.22-1l2.74-2.9a5.93,5.93,0,0,0,.48,2.33,4.68,4.68,0,0,0,1.52,2,4.57,4.57,0,0,0,1.67.92,1,1,0,0,0,1.07-.45,1.66,1.66,0,0,0,.29-1.46,12,12,0,0,0-1-2.45c-.2-.39-.35-.73-.47-1a9.81,9.81,0,0,1-.39-1.28,5.64,5.64,0,0,1-.18-1.58,6.53,6.53,0,0,1,.33-1.67,6.08,6.08,0,0,1,1-1.8c2.36-3.08,5.27-3.3,8.76-.63a8.38,8.38,0,0,1,1.42,1.36,6.91,6.91,0,0,1,.86,1.26,5.52,5.52,0,0,1,.39,1.07,4.63,4.63,0,0,1,.13.72,2.36,2.36,0,0,1,0,.27l-2.56,2a3.77,3.77,0,0,0-.59-1.85,4.81,4.81,0,0,0-1.22-1.4c-1.1-.85-1.92-.92-2.45-.23a1.36,1.36,0,0,0-.27.57,1.25,1.25,0,0,0,0,.66c.06.24.13.45.19.64s.18.44.32.75.24.54.3.71a8.74,8.74,0,0,1,1.33,4,5.18,5.18,0,0,1-1.17,3.36,6.88,6.88,0,0,1-4.25,2.94,6,6,0,0,1-4.68-1.45A12.23,12.23,0,0,1,111,39.63Z"></path><path class="cls-4" d="M131.52,38.09l-2.4-3,3.36-2.72,8.26,10.23-3.36,2.71-2.4-3-11.51,9.3L120,47.38Z"></path><path class="cls-4" d="M18,112a8,8,0,0,1-.89-3.45,5.71,5.71,0,0,1,.81-3,9.55,9.55,0,0,1,2.17-2.44,16.9,16.9,0,0,1,3.31-2,21.89,21.89,0,0,1,2.69-1.1,13.1,13.1,0,0,1,2.47-.56,6.21,6.21,0,0,1,2.29.09,6.8,6.8,0,0,1,2.08.86,7.62,7.62,0,0,1,1.9,1.77,14.61,14.61,0,0,1,1.69,2.77,14.12,14.12,0,0,1,.59,1.44,11.86,11.86,0,0,1,.33,1.25,6.27,6.27,0,0,1,.12,1,7,7,0,0,1,0,.82,3.65,3.65,0,0,1-.08.59,3.14,3.14,0,0,1-.1.37l0,.12L33.87,112l-1.29-2.68,1.55-1.78a2.47,2.47,0,0,0-.32-1.13,4.61,4.61,0,0,0-.57-.92,2.22,2.22,0,0,0-.8-.55,2.45,2.45,0,0,0-1.24-.12,9.51,9.51,0,0,0-1.86.46,25.67,25.67,0,0,0-2.65,1.12A26.36,26.36,0,0,0,22.12,109c-.92.72-1.21,1.44-.88,2.13a3.75,3.75,0,0,0,.52.82,1.77,1.77,0,0,0,.67.49,1.58,1.58,0,0,0,1,.09,4.91,4.91,0,0,0,1.37-.48l1.5-.72-.49-2.15,3-1.44,3.14,6.54-10.12,4.85-1.25-2.62,1.47-.92A6.73,6.73,0,0,1,18,112Z"></path><path class="cls-4" d="M28.28,127.5a6.85,6.85,0,0,1-.76-1.84,5,5,0,0,1-.1-1.76,6.3,6.3,0,0,1,.44-1.68,8.88,8.88,0,0,1,1-1.66,16.49,16.49,0,0,1,1.34-1.64c.48-.52,1-1.08,1.69-1.68a24.31,24.31,0,0,1,2.64-2.16,10.4,10.4,0,0,1,2.52-1.3,5.65,5.65,0,0,1,2.53-.33,6.53,6.53,0,0,1,2.53.89,11.62,11.62,0,0,1,2.68,2.22,10.91,10.91,0,0,1,1.49,2,7.23,7.23,0,0,1,.77,1.85,4.58,4.58,0,0,1,.08,1.77,6.37,6.37,0,0,1-.46,1.7,8.93,8.93,0,0,1-1,1.67q-.64.87-1.35,1.65c-.47.51-1,1.06-1.68,1.66A23.86,23.86,0,0,1,40,131a10.33,10.33,0,0,1-2.52,1.28,5.41,5.41,0,0,1-2.51.31,6.58,6.58,0,0,1-2.54-.91,11.61,11.61,0,0,1-2.67-2.23A11.16,11.16,0,0,1,28.28,127.5Zm3.63-1.56a1.48,1.48,0,0,0,.21,1.79,1.56,1.56,0,0,0,1.07.59,3,3,0,0,0,1.57-.63,23.48,23.48,0,0,0,2.77-2.3l2.89-2.67a9.83,9.83,0,0,0,2.24-2.7,1.56,1.56,0,0,0-.18-1.87,1.49,1.49,0,0,0-1.82-.31,13.23,13.23,0,0,0-3.26,2.46l-3,2.78A11.67,11.67,0,0,0,31.91,125.94Z"></path><path class="cls-4" d="M44.43,141.43a6.76,6.76,0,0,1-1.28-1.53,4.65,4.65,0,0,1-.62-1.65,6,6,0,0,1-.08-1.73,8.16,8.16,0,0,1,.42-1.88,19.74,19.74,0,0,1,.79-2q.45-.94,1.11-2.1a24.54,24.54,0,0,1,1.87-2.86,10.81,10.81,0,0,1,2-2A5.6,5.6,0,0,1,51,124.65a6.52,6.52,0,0,1,2.69.09,11.66,11.66,0,0,1,3.22,1.32,10.82,10.82,0,0,1,2,1.44A6.93,6.93,0,0,1,60.17,129a4.68,4.68,0,0,1,.62,1.67,6.46,6.46,0,0,1,.06,1.75,8.17,8.17,0,0,1-.43,1.89,18,18,0,0,1-.79,2c-.29.63-.66,1.33-1.1,2.1a23.49,23.49,0,0,1-1.88,2.85,10.45,10.45,0,0,1-2,2,5.69,5.69,0,0,1-2.31,1,6.55,6.55,0,0,1-2.69-.11,11.79,11.79,0,0,1-3.22-1.32A11.44,11.44,0,0,1,44.43,141.43Zm3-2.57a1.48,1.48,0,0,0,.74,1.64,1.63,1.63,0,0,0,1.2.24,3,3,0,0,0,1.3-1.08,21.85,21.85,0,0,0,2-3l2-3.41A9.83,9.83,0,0,0,55.9,130a1.56,1.56,0,0,0-.73-1.74,1.49,1.49,0,0,0-1.82.25A13.31,13.31,0,0,0,51,131.82l-2,3.56A11.65,11.65,0,0,0,47.42,138.86Z"></path><path class="cls-4" d="M64.47,149.92c-.79-.21-1.61-.42-2.46-.61l-2.53-.57,4.2-18.65,2.53.57q1.07.22,2.34.45c.85.14,1.51.27,2,.38q4,.91,5.3,3.58c.83,1.78.92,4.13.26,7a19.55,19.55,0,0,1-.83,2.77,12,12,0,0,1-1.34,2.52,9.13,9.13,0,0,1-1.89,2,6.28,6.28,0,0,1-2.55,1.08,8,8,0,0,1-3.26-.1C65.85,150.29,65.26,150.14,64.47,149.92Zm4.07-3.45a13.85,13.85,0,0,0,1.76-4.79l.36-1.61a10,10,0,0,0,.27-4,2,2,0,0,0-1.41-1.76l-1.2-.27-3,13.29,1,.23A2.09,2.09,0,0,0,68.54,146.47Z"></path><path class="cls-4" d="M83.53,133.49l5.91-1.13,2.64,6.2,2.74,6.52.06-7.06.2-6.74,4.21-.81-1,19.66-5.81,1.12Z"></path><path class="cls-4" d="M98.94,130l5.13-2.15,7.37,17.64-5.13,2.14Z"></path><path class="cls-4" d="M120.57,140.47c-1.12.75-1.93,1.28-2.41,1.62l-1.28.9L105.8,127.42l2.3-1.63c.55-.4,1.18-.88,1.87-1.43s1.19-.94,1.51-1.16a14.4,14.4,0,0,1,2.8-1.62,5.14,5.14,0,0,1,2.22-.44,3.57,3.57,0,0,1,1.71.55,5.41,5.41,0,0,1,1.38,1.4,5.31,5.31,0,0,1,1.07,2.88,3.44,3.44,0,0,1-1,2.61c2.23-1.31,4.15-.82,5.76,1.44a6.76,6.76,0,0,1,1,2.08,4.8,4.8,0,0,1-.88,4.35,9.65,9.65,0,0,1-2.27,2.16C122.6,139.1,121.69,139.72,120.57,140.47Zm-6.11-14.88a2.64,2.64,0,0,0-1.48.58l-1,.69,2.73,3.84,1.08-.76a1.67,1.67,0,0,0,.75-1.45,3.15,3.15,0,0,0-.64-1.77l-.24-.33A1.55,1.55,0,0,0,114.46,125.59Zm7,9.43a2.35,2.35,0,0,0-.46-1.58l-.66-.93a1.68,1.68,0,0,0-1.43-.83,2.77,2.77,0,0,0-1.52.53l-1,.74,3.07,4.32,1-.74A2.07,2.07,0,0,0,121.45,135Z"></path><path class="cls-4" d="M132.57,130.58,117.8,118.44,125,109.7l2.77,2.7-3.68,4.21,2.85,2.34,2.79-3.4,2.95,2.43-3,3.19,3.35,2.76,3.79-4.87,3.15,2.59Z"></path><path class="cls-4" d="M144.32,114.08a7.46,7.46,0,0,1-1.3,1.4,8.83,8.83,0,0,1-1.13.79,6.54,6.54,0,0,1-.92.42l-3.41-2.07a5.85,5.85,0,0,0,2.18-1,4.67,4.67,0,0,0,1.63-1.92,4.55,4.55,0,0,0,.56-1.82,1,1,0,0,0-.66-1,1.69,1.69,0,0,0-1.5,0,11.73,11.73,0,0,0-2.18,1.48c-.34.27-.65.5-.9.68a10.05,10.05,0,0,1-1.18.64,6.05,6.05,0,0,1-1.5.51,6.4,6.4,0,0,1-1.71,0,6.07,6.07,0,0,1-2-.57q-5.25-2.49-2.44-8.43a8.22,8.22,0,0,1,1-1.68,6.66,6.66,0,0,1,1.05-1.1,5.46,5.46,0,0,1,1-.6,5.12,5.12,0,0,1,.68-.29l.27,0,2.49,2.08a3.93,3.93,0,0,0-1.69,1,5.21,5.21,0,0,0-1.11,1.49c-.59,1.26-.5,2.07.29,2.44a1.37,1.37,0,0,0,.61.15,1.31,1.31,0,0,0,.64-.17,6.29,6.29,0,0,0,.59-.32c.17-.11.39-.26.66-.46a7.48,7.48,0,0,1,.64-.45,8.85,8.85,0,0,1,3.66-2.14,5.24,5.24,0,0,1,3.53.44,6.87,6.87,0,0,1,3.76,3.54,6,6,0,0,1-.44,4.89A11.25,11.25,0,0,1,144.32,114.08Z"></path></g></g></svg>