<svg xmlns="http://www.w3.org/2000/svg" xmlns:xlink="http://www.w3.org/1999/xlink" viewBox="0 0 526.02 526.02"><defs><style>.cls-1,.cls-8{fill:none;}.cls-2,.cls-3,.cls-4{fill:#3f5226;}.cls-3{font-size:159.65px;}.cls-3,.cls-4{font-family:Jomhuria-Regular, Jomhuria;}.cls-4{font-size:80px;}.cls-5{clip-path:url(#clip-path);}.cls-6{fill:#93b74c;}.cls-7{fill:#fd6440;}.cls-8{stroke:#3f5226;stroke-miterlimit:10;stroke-width:17px;}</style><clipPath id="clip-path" transform="translate(-675.46 -266.49)"><rect class="cls-1" width="1920" height="1080"></rect></clipPath></defs><g id="Layer_2" data-name="Layer 2"><g id="Layer_1-2" data-name="Layer 1"><path class="cls-2" d="M717.48,448.81l7.4-16L768.54,453l6.66-14.39,12.94,6L774.08,475Z" transform="translate(-675.46 -266.49)"></path><path class="cls-2" d="M803.47,410.52,793.66,422l6.26,8-10.15,11.9-33.65-50-4.1-1.82,14.26-16.73,59,26.95L812.6,415.16Zm-16.65,2.8,6.7-7.86-21.36-10.79Z" transform="translate(-675.46 -266.49)"></path><path class="cls-2" d="M837.11,393a21.94,21.94,0,0,1-7.32,1.62,15.42,15.42,0,0,1-6.2-1.15,17.85,17.85,0,0,1-5.23-3.25,29.45,29.45,0,0,1-4.36-5l-24.56-35L805,339.32l23.19,33.07q3.89,5.53,6.49,6.79a4.48,4.48,0,0,0,4.82-.29A6.21,6.21,0,0,0,841.3,377a5.46,5.46,0,0,0,.69-2.63,9.19,9.19,0,0,0-.88-3.8,28.58,28.58,0,0,0-2.9-5l-23.28-33.2,13.77-9.65L853.45,358a30.82,30.82,0,0,1,3.19,5.63,17.71,17.71,0,0,1,1.36,5.83,14.06,14.06,0,0,1-.92,6.11,21.57,21.57,0,0,1-4,6.27,45.27,45.27,0,0,1-16,11.21Z" transform="translate(-675.46 -266.49)"></path><path class="cls-2" d="M868.51,373.49l-15.75-55.16-3.89-4.09,18.83-5.38,15,16.75,14.55,16.83-9-22.06-4.59-16.07,16.32-4.66,17.13,60-15.61,4.46-18.94-20.21-11.76-12.7L879.39,350l5.39,18.88Z" transform="translate(-675.46 -266.49)"></path><text class="cls-3" transform="translate(188.86 117.69) rotate(-23.32)"> </text><path class="cls-2" d="M959.85,352.39a11.43,11.43,0,0,1-1.75,1.39,23.88,23.88,0,0,1-2.94,1.72,19.56,19.56,0,0,1-4.57,1.49,32,32,0,0,1-6.16.7,27.87,27.87,0,0,1-12-2,17.88,17.88,0,0,1-7.89-6.58,31.21,31.21,0,0,1-4.25-10,61.4,61.4,0,0,1-1.53-13,66.39,66.39,0,0,1,.91-13.62,29.36,29.36,0,0,1,3.84-10.15,17.56,17.56,0,0,1,7.7-6.7,30.46,30.46,0,0,1,12.13-2.46,31.92,31.92,0,0,1,6.22.44,23,23,0,0,1,4.6,1.23,17.47,17.47,0,0,1,3.07,1.63,14.58,14.58,0,0,1,1.74,1.29c.23.24.41.44.52.57L959,310.62l-8.09.19L948,304.54a6.31,6.31,0,0,0-1.6-.23,8.26,8.26,0,0,0-5.45,1.75c-1.25,1.11-2.17,3.24-2.78,6.4a68.58,68.58,0,0,0-.69,13.56,56.41,56.41,0,0,0,.87,9.19,25.84,25.84,0,0,0,1.76,6,10.89,10.89,0,0,0,2.37,3.33,6.6,6.6,0,0,0,2.43,1.56,7.44,7.44,0,0,0,2.3.3,26.5,26.5,0,0,0,5.67-.8,13.18,13.18,0,0,0,4.85-2.16l2.59,8.35Z" transform="translate(-675.46 -266.49)"></path><path class="cls-2" d="M964.82,357.86l18.56-59.54,16.82,5.24-7.35,23.58,13,4.07,7.35-23.58,16.82,5.25-18.57,59.54-16.81-5.24,7.57-24.29-13.06-4.07-7.57,24.29Z" transform="translate(-675.46 -266.49)"></path><path class="cls-2" d="M1050.13,324.18l15.64,9.2-31.64,53.76-15.64-9.21Z" transform="translate(-675.46 -266.49)"></path><path class="cls-2" d="M1040.4,392.45,1081,351.94l1.71-5.38,13.83,13.86-7.41,21.22-7.66,20.87,14.92-18.57,11.83-11.8,12,12-44.16,44-11.46-11.49,8.5-26.36,5.4-16.44-12.25,16.65-13.9,13.87Z" transform="translate(-675.46 -266.49)"></path><path class="cls-2" d="M1086.31,450.35a26.47,26.47,0,0,1-2.21-11.44,18.29,18.29,0,0,1,3.22-9.56,30.58,30.58,0,0,1,7.55-7.55,55.25,55.25,0,0,1,11.18-6,72.7,72.7,0,0,1,9-3.07,42.3,42.3,0,0,1,8.13-1.34,21.07,21.07,0,0,1,7.46.74,22.23,22.23,0,0,1,6.58,3.23,24.41,24.41,0,0,1,5.87,6.11,48,48,0,0,1,5,9.36,40.27,40.27,0,0,1,1.63,4.82,34.17,34.17,0,0,1,.84,4.11,22,22,0,0,1,.19,3.4,26.07,26.07,0,0,1-.18,2.66,14.18,14.18,0,0,1-.39,1.92,9.47,9.47,0,0,1-.39,1.16,3.73,3.73,0,0,0-.18.4l-11.63,3.89-3.67-9,5.4-5.49a8.29,8.29,0,0,0-.84-3.74,14.4,14.4,0,0,0-1.67-3.11,6.86,6.86,0,0,0-2.49-1.94,7.82,7.82,0,0,0-4-.66,31.3,31.3,0,0,0-6.14,1.16,80.07,80.07,0,0,0-8.88,3.11q-10.68,4.38-15.38,7.65T1097,448a12,12,0,0,0,1.51,2.77,6.4,6.4,0,0,0,2.09,1.74,5.52,5.52,0,0,0,3.18.48,17.48,17.48,0,0,0,4.57-1.3l5-2.05-1.18-7.11,10-4.11,9,21.92-33.9,13.81-3.59-8.76,5-2.73A21.93,21.93,0,0,1,1086.31,450.35Z" transform="translate(-675.46 -266.49)"></path><path class="cls-2" d="M786.29,708.68a19.66,19.66,0,0,1-4-7.39,18.66,18.66,0,0,1-.17-8.15,38,38,0,0,1,2.69-8.65,85.6,85.6,0,0,1,5-9.38A73.87,73.87,0,0,1,796.3,666a34.5,34.5,0,0,1,6.88-6.25,19,19,0,0,1,7.74-3.18,22.11,22.11,0,0,1,8.9.59,38.47,38.47,0,0,1,10.42,4.63,32.11,32.11,0,0,1,8.32,7,19.19,19.19,0,0,1,4,7.48,19.75,19.75,0,0,1,.11,8.24,37.59,37.59,0,0,1-2.68,8.68,84.46,84.46,0,0,1-5,9.36,72.81,72.81,0,0,1-6.43,9.11,33.69,33.69,0,0,1-6.88,6.21,19,19,0,0,1-7.76,3.11,22,22,0,0,1-8.88-.68,39.5,39.5,0,0,1-10.4-4.67A32.43,32.43,0,0,1,786.29,708.68ZM798,702.43c-.32,2.56.5,4.45,2.47,5.65a5.84,5.84,0,0,0,4,1q1.8-.3,4.58-3.31a65.37,65.37,0,0,0,6.8-9.6l6.68-10.94q7.85-12.85,2-16.46c-2-1.22-4.1-1-6.28.53s-4.93,5-8.22,10.44l-7,11.4Q798.48,698.58,798,702.43Z" transform="translate(-675.46 -266.49)"></path><path class="cls-2" d="M850.73,699.93,842,695.81l5.91-9.67a45.34,45.34,0,0,0,4.77,1.79,22.08,22.08,0,0,0,4.49.81,11.46,11.46,0,0,0,4.88-.64,16.15,16.15,0,0,0,4.75-2.77l10,6.13L844.3,744.64l-15.21-9.29Z" transform="translate(-675.46 -266.49)"></path><path class="cls-2" d="M910.36,721.23l-9.64,1,0-11.34a45.76,45.76,0,0,0,5-1,22.67,22.67,0,0,0,4.26-1.64,11.42,11.42,0,0,0,3.83-3.08,16.15,16.15,0,0,0,2.62-4.84l11.76,0-.1,62.32-17.83,0Z" transform="translate(-675.46 -266.49)"></path><path class="cls-2" d="M938.92,762.78l-.32-.64a45.13,45.13,0,0,1-.25-7.18q0-7.61,10.4-15.68,8.63-7.06,12.31-11.74t3.69-9.2a11.12,11.12,0,0,0-1.16-5c-1.38-2.8-3.44-4.21-6.17-4.21a19.86,19.86,0,0,0-5.86.74l-2.57,11-9.68-.07-.78-12.5q5.81-8.77,22.2-8.75a42.58,42.58,0,0,1,6.92.55A24.56,24.56,0,0,1,973.8,702a17.37,17.37,0,0,1,5,3.36,14.31,14.31,0,0,1,3.29,5.19,20,20,0,0,1,1.21,7.27,17.21,17.21,0,0,1-.94,5.67,16.54,16.54,0,0,1-2.51,4.73,32.48,32.48,0,0,1-3.76,4.06,37.61,37.61,0,0,1-4.55,3.62l-5.06,3.39-5.12,3.43a53.21,53.21,0,0,0-4.85,3.69,34.26,34.26,0,0,0-4.13,4.14l31.94-2.34,0,14.69Z" transform="translate(-675.46 -266.49)"></path><path class="cls-2" d="M1037.49,744.38l-.63-.35a45.93,45.93,0,0,1-4.27-5.78q-4.29-6.29-.29-18.82,3.12-10.7,3.51-16.64t-2.16-9.68a10.93,10.93,0,0,0-3.76-3.42q-4.08-2.3-7.47,0a20,20,0,0,0-4.41,3.92l4.08,10.49-8,5.42-7.72-9.87q-.17-10.53,13.37-19.77a42.9,42.9,0,0,1,6-3.47,24.84,24.84,0,0,1,6.13-1.93,17.31,17.31,0,0,1,6-.07,14.39,14.39,0,0,1,5.65,2.42,20.16,20.16,0,0,1,5.11,5.31,17.27,17.27,0,0,1,2.43,5.21,16.76,16.76,0,0,1,.61,5.32,32.52,32.52,0,0,1-.8,5.48,38.09,38.09,0,0,1-1.71,5.55q-1.07,2.65-2.26,5.67l-2.28,5.71a51.7,51.7,0,0,0-1.91,5.79,33.09,33.09,0,0,0-1.06,5.75l25-20,8.29,12.13Z" transform="translate(-675.46 -266.49)"></path><path class="cls-2" d="M1077.46,712.61l-4.92-7.2a13.59,13.59,0,0,0,8.53-2.42,16.91,16.91,0,0,0,4.13-3.76,6.71,6.71,0,0,0,1.51-3.64,8.31,8.31,0,0,0-.35-3.11,11.46,11.46,0,0,0-1.47-2.86q-5.21-7.61-14.21-1.45l-1.14.78-4.11-6,.57-.39q4.83-3.3,6.23-6.35c.93-2,.48-4.39-1.37-7.09s-3.92-4-6.36-4.13a12.61,12.61,0,0,0-7.66,2.56,13.59,13.59,0,0,0-5.35,7.08l-4.93-7.21a29.4,29.4,0,0,1,10.63-13.12,34.13,34.13,0,0,1,9.12-4.63,16.67,16.67,0,0,1,7.75-.72,15.29,15.29,0,0,1,6.23,2.51,19.72,19.72,0,0,1,5,5.17q6.68,9.75-3.19,17.78a15.82,15.82,0,0,1,11.64-2.12q5.71,1.29,10.22,7.87,4,5.8,1.48,13.3t-11.93,13.95A29.48,29.48,0,0,1,1077.46,712.61Z" transform="translate(-675.46 -266.49)"></path><text class="cls-4" transform="matrix(0.92, -0.39, 0.39, 0.92, 326.84, 485.46)">-</text><text class="cls-4" transform="translate(189.42 478.43) rotate(21.31)">-</text><g class="cls-5"><path class="cls-6" d="M925.57,436.62a30,30,0,0,0-30.34-30.34,30,30,0,0,0,30.34-30.35,30,30,0,0,0,30.35,30.35,30,30,0,0,0-30.35,30.34" transform="translate(-675.46 -266.49)"></path><path class="cls-6" d="M823.92,490.75a22.6,22.6,0,0,0-22.85-22.85,22.6,22.6,0,0,0,22.85-22.85,22.6,22.6,0,0,0,22.86,22.85,22.6,22.6,0,0,0-22.86,22.85" transform="translate(-675.46 -266.49)"></path><path class="cls-6" d="M1073.26,513.71a16.22,16.22,0,0,0-16.4-16.41,16.22,16.22,0,0,0,16.4-16.4,16.22,16.22,0,0,0,16.41,16.4,16.23,16.23,0,0,0-16.41,16.41" transform="translate(-675.46 -266.49)"></path><path class="cls-6" d="M804.93,536.68a16.22,16.22,0,0,0-16.4-16.41,16.21,16.21,0,0,0,16.4-16.4,16.22,16.22,0,0,0,16.41,16.4,16.23,16.23,0,0,0-16.41,16.41" transform="translate(-675.46 -266.49)"></path><path class="cls-6" d="M854.36,669.19a22.28,22.28,0,0,0-22.53-22.53,22.27,22.27,0,0,0,22.53-22.53,22.28,22.28,0,0,0,22.53,22.53,22.28,22.28,0,0,0-22.53,22.53" transform="translate(-675.46 -266.49)"></path><path class="cls-6" d="M1102.83,628a15.27,15.27,0,0,0-15.44-15.44,15.27,15.27,0,0,0,15.44-15.44,15.27,15.27,0,0,0,15.44,15.44A15.27,15.27,0,0,0,1102.83,628" transform="translate(-675.46 -266.49)"></path><path class="cls-6" d="M1125.65,603a22.56,22.56,0,0,0-22.82-22.81,22.57,22.57,0,0,0,22.82-22.82,22.56,22.56,0,0,0,22.81,22.82A22.56,22.56,0,0,0,1125.65,603" transform="translate(-675.46 -266.49)"></path><path class="cls-6" d="M918.83,559.61l-.39-.31.39.31" transform="translate(-675.46 -266.49)"></path><path class="cls-6" d="M900.3,557a5.74,5.74,0,0,1,1.36-1.6,5.74,5.74,0,0,0-1.36,1.6" transform="translate(-675.46 -266.49)"></path><path class="cls-6" d="M900.3,557c-.2.35-.37.7-.54,1h0c.17-.34.34-.69.54-1" transform="translate(-675.46 -266.49)"></path><path class="cls-6" d="M917.13,566l.51-1.32-.51,1.32a10.37,10.37,0,0,1-6.19,4.59h0a10.34,10.34,0,0,0,6.19-4.59l.18.08-.18-.08" transform="translate(-675.46 -266.49)"></path><path class="cls-6" d="M910.79,555.71c.57.19,1.13.38,1.69.59-.56-.21-1.12-.4-1.69-.59" transform="translate(-675.46 -266.49)"></path><path class="cls-6" d="M899.45,558.71h0c-.16.38-.31.75-.43,1.12.12-.37.27-.74.43-1.12" transform="translate(-675.46 -266.49)"></path><path class="cls-6" d="M898.6,562.87a7.58,7.58,0,0,0,.31,2,7.58,7.58,0,0,1-.31-2" transform="translate(-675.46 -266.49)"></path><path class="cls-6" d="M899,559.83a9.32,9.32,0,0,0-.43,2.53,9.32,9.32,0,0,1,.43-2.53" transform="translate(-675.46 -266.49)"></path><path class="cls-6" d="M902.45,554.89a5.19,5.19,0,0,1,1.74-.49,5.19,5.19,0,0,0-1.74.49" transform="translate(-675.46 -266.49)"></path><path class="cls-6" d="M904.09,568.13c.6.32,1.46.77,2.54,1.22a16.73,16.73,0,0,0,3.74,1.16l.57.06a10.37,10.37,0,0,0,6.19-4.59c.17-.44.34-.88.5-1.32.14-.2.27-.41.4-.62.05.1.09.21.14.31a9.79,9.79,0,0,0,.9-2.73,4.15,4.15,0,0,0-.17-1.88s0-.08-.07-.13l-.39-.31a10.6,10.6,0,0,0-1.77-1.14,42.36,42.36,0,0,0-4.19-1.86c-.56-.21-1.12-.4-1.69-.59-1.21-.4-2.43-.77-3.68-1.05a9.94,9.94,0,0,0-2-.28,5.88,5.88,0,0,0-.94,0,5.19,5.19,0,0,0-1.74.49,4.38,4.38,0,0,0-.79.5,5.74,5.74,0,0,0-1.36,1.6c-.2.35-.37.7-.54,1s-.21.45-.31.68-.31.75-.43,1.12a9.32,9.32,0,0,0-.43,2.53,4.34,4.34,0,0,0,0,.51,7.58,7.58,0,0,0,.31,2,51.53,51.53,0,0,0,5.18,3.29" transform="translate(-675.46 -266.49)"></path><path class="cls-6" d="M917.13,566l.18.08c.24-.44.47-.88.68-1.32l-.35-.08-.51,1.32" transform="translate(-675.46 -266.49)"></path><path class="cls-6" d="M918.17,564.35c0-.1-.09-.21-.14-.31-.13.21-.26.42-.4.62l.36.08c.07-.13.12-.26.18-.39" transform="translate(-675.46 -266.49)"></path><path class="cls-6" d="M917.63,564.66l.36.08-.36-.08" transform="translate(-675.46 -266.49)"></path><path class="cls-6" d="M898.6,562.87a4.34,4.34,0,0,1,0-.51,9.32,9.32,0,0,1,.43-2.53c.12-.37.27-.74.43-1.12l-.12.25c-1.05,2.24-1.54,3.83-1.21,5.32l.79.56a7.58,7.58,0,0,1-.31-2" transform="translate(-675.46 -266.49)"></path><path class="cls-6" d="M910.94,570.57a4.92,4.92,0,0,0,3.29-.8,10.41,10.41,0,0,0,3.07-3.69v0l-.18-.08a10.37,10.37,0,0,1-6.19,4.59" transform="translate(-675.46 -266.49)"></path><path class="cls-6" d="M901.66,555.39a4.38,4.38,0,0,1,.79-.5,5.19,5.19,0,0,1,1.74-.49,5.88,5.88,0,0,1,.94,0,9.94,9.94,0,0,1,2,.28c1.25.28,2.47.65,3.68,1.05.57.19,1.13.38,1.69.59a43.59,43.59,0,0,1,4.2,1.86,10.91,10.91,0,0,1,1.76,1.14l.39.31a4.11,4.11,0,0,0-.21-.42,1.87,1.87,0,0,0-1.16-.59s-1.66-1-6.62-3.44c-8.13-3.94-9.2-1.26-11.08,2.87.17-.34.34-.69.54-1a5.74,5.74,0,0,1,1.36-1.6" transform="translate(-675.46 -266.49)"></path><path class="cls-6" d="M910.79,555.71c-1.21-.4-2.43-.77-3.68-1.05a9.94,9.94,0,0,0-2-.28,9.94,9.94,0,0,1,2,.28c1.25.28,2.47.65,3.68,1.05" transform="translate(-675.46 -266.49)"></path><path class="cls-6" d="M898.6,562.87a4.34,4.34,0,0,1,0-.51,4.34,4.34,0,0,0,0,.51" transform="translate(-675.46 -266.49)"></path><path class="cls-6" d="M918.44,559.3a10.91,10.91,0,0,0-1.76-1.14,43.59,43.59,0,0,0-4.2-1.86,43.59,43.59,0,0,1,4.2,1.86,10.91,10.91,0,0,1,1.76,1.14" transform="translate(-675.46 -266.49)"></path><path class="cls-6" d="M925.92,539.93a10.57,10.57,0,0,0,5.39-.28,8.53,8.53,0,0,0,4.43-3.12,7.78,7.78,0,0,0,1.33-4.85,10.62,10.62,0,0,0-.36-2.32,11.94,11.94,0,0,0-.77-1.93,10.31,10.31,0,0,0-1.77-2.46,12.77,12.77,0,0,0-1.77-1.54c-1.2-.22-2.31-.41-3.41-.56-4.62-.63-7.8,1.72-10.13,5.52a6.55,6.55,0,0,0,.34,8,17.91,17.91,0,0,0,4.27,2.8,13.17,13.17,0,0,0,2.45.72" transform="translate(-675.46 -266.49)"></path><path class="cls-6" d="M918.86,528.39c2.33-3.79,5.51-6.14,10.13-5.52,1.1.15,2.21.35,3.41.56a16.52,16.52,0,0,0-1.54-1c-11.12-3.27-14.55,4.3-14.67,4.64-1.39,4.15.69,7.3,3,9.37a6.55,6.55,0,0,1-.34-8" transform="translate(-675.46 -266.49)"></path><path class="cls-6" d="M945.17,485.37l-.22-.16a30.06,30.06,0,0,0-7.12-1.47c-1.75-.08-3.58-.18-5.06,1-2.67,2.06-5.31,4.34-5,8.19.3,3.62,3.14,5.08,6,6.38,5.33,2.43,8.75,2.4,11.62-.55a21.33,21.33,0,0,0,2-3.18,10.76,10.76,0,0,0,1.18-4.2,8.63,8.63,0,0,0-.39-2.37,8.79,8.79,0,0,0-3-3.61" transform="translate(-675.46 -266.49)"></path><path class="cls-6" d="M933,499.74a22.11,22.11,0,0,0,4.17,1.95,7.94,7.94,0,0,0,3,.42,6.34,6.34,0,0,0,3.84-1.79,11.76,11.76,0,0,0,1.42-1.59c-2.87,2.95-6.29,3-11.62.55-2.84-1.3-5.68-2.76-6-6.38-.32-3.85,2.32-6.13,5-8.19,1.48-1.15,3.31-1,5.06-1a30,30,0,0,1,7.12,1.47l-.24-.17c-13.48-5.3-17.9,3.4-18,3.76a7.46,7.46,0,0,0,1.87,8.3l1,.57c1,.6,2.16,1.34,3.45,2.07" transform="translate(-675.46 -266.49)"></path><path class="cls-2" d="M1081.56,569.88q-10.95-7.25-21.91-14.47a9.52,9.52,0,0,1-4.32-7.37c-.44-3.7-.77-7.42-1.4-11.08-2.66-15.65-6.09-31.13-9.57-46.59-.6-2.7-1.09-5.38-.29-8.19,2.4-8.32.29-15.3-4.73-22.22-9.55-13.17-17.22-27.48-20.85-43.76a16.84,16.84,0,0,0-3.47-7,23.57,23.57,0,0,1-5.27-13.46c-.74-10.76.17-21.43,1.44-32.1.9-7.57-2.32-11.47-9.8-11.92-8.87-.55-15.43,3.69-20,11.11-11.76,18.9-17.57,39.47-16,61.93.22,3.25.55,6.66,2.54,9.27,4,5.31,4.33,11.15,3,17.42-.84,4-3,6-7,6.07-4.8.12-9.6,0-14.4.19a22.4,22.4,0,0,1-12.35-3.4,157.19,157.19,0,0,0-33.84-14.82,179.82,179.82,0,0,0-22.82-5.89c-8.28-1.4-14.87,1.32-20,8.37-6.64,9.14-8.4,19-5.08,29.74,1,3.23.49,5.35-2.58,6.71-12.07,5.33-20.67,22.46-13.34,37.6,1.84,3.82,1.07,5.88-2.1,8.36-10.44,8.16-14.63,18.88-12.32,32.13a35.17,35.17,0,0,0,3.22,9.89c1.49,3,.61,5-2.2,6.46a10,10,0,0,1-4.74,1.05,447.81,447.81,0,0,1-53.7-2.27,125.81,125.81,0,0,0-24.55-.34c-10.76,1-20.17,12.35-17.32,23.18,0,0,1.36,4.22,2.89,5.6,4.22,4.33,9.49,6.32,15.25,7.49a380.28,380.28,0,0,0,43.53,5.91c24.43,2.09,48.92,1.65,73.41,1a30.39,30.39,0,0,1,16.43,4.23c13.92,8,28.25,15.06,43.4,20.26,13,4.46,25.89,9.4,39.82,9.85a24.77,24.77,0,0,1,14,4.34q13.9,9.44,27.93,18.7a61,61,0,0,1,1.87-6.08c.22-.6.46-1.2.69-1.8l-22.27-14.72a14.12,14.12,0,0,1-1.28-1.16,58.32,58.32,0,0,0,12.82-8.57c5.78-5.31,9.86-11.63,11.07-19.67.42-2.8-.13-4-3.24-3.33a10.06,10.06,0,0,0-6.85,4.41c-10.6,15.5-25.32,20.92-43.06,17.88-11.5-2-22.23-6.69-33.19-10.52a222.61,222.61,0,0,1-22.76-9.5,5.76,5.76,0,0,1-3.48-4.85c-1.59-9.55.3-17.94,7.23-24.9,1.16-1.16,2.21-2,4-1.5,5.62,1.46,11,.23,16-2.42l.46-.22a42.69,42.69,0,0,0-.31,5.32,17.84,17.84,0,0,0,.57,4.27A12.39,12.39,0,0,0,922,597.8c1.09,1.76,2.35,2.51,3.24,2.15a2.38,2.38,0,0,0,1.22-1.66c.21.36.42.71.65,1.07.17-7.77.28-15,2.28-21.91a60.82,60.82,0,0,1,8.86-19.24c.08,2,.07,4,.06,5.95-.37,2.24-.68,4.5-.92,6.76s-.38,4.67-.46,7c0,1.18-.06,2.31,0,3.55s.09,2.46.22,3.71a19.4,19.4,0,0,0,1.53,5.84,12.07,12.07,0,0,0,3,4.21,7.9,7.9,0,0,0,1.69,1.13,5.85,5.85,0,0,0,1.48.44c.89.07,1.43-.14,1.67-.58a2.21,2.21,0,0,0-.07-1.72c-.2-.71-.55-1.48-.84-2.43a37.18,37.18,0,0,1-1.49-7.74c-.08-.71-.12-1.45-.15-2.2,1.18-10.85,2.9-21.58,7-31.84,0-.33-.13-.73.36-.68,0,0,0,0,0,0a4.13,4.13,0,0,1,.2.81h0c.24,6.45.77,12.85,2.69,19,.28.87.58,1.74.92,2.61a38,38,0,0,0,17.45,20.35,19.51,19.51,0,0,0,12.94,2c.7-.11,1.5-.2,1.66-1a1.68,1.68,0,0,0-1-1.74l-.92-.53c-14.65-8.19-21.69-21.42-22.93-38.07a127.22,127.22,0,0,1,6.75-52.07,85.14,85.14,0,0,1,5.12-8.11c1.87-2.6,2.65-5.38,1.54-6.37s-3.78.37-5.79,3.18c-.34.47-.66,1-1,1.45-.39.24-.8.47-1.23.7a20.2,20.2,0,0,1,7-10,27.27,27.27,0,0,1,2.72-1.91c.4-.11.81-.24,1.26-.38a96.41,96.41,0,0,0,9.87-4.21,102.58,102.58,0,0,1,14-5.48c2.39-.72,4.82-1.36,7.24-1.92a37.6,37.6,0,0,1,4.79-.79,30.45,30.45,0,0,1,6.3,1.26c1.46.45,2.94.86,4.6,1.3.62.42,1.14.82,1.6,1.16.64.45,1.16.76,1.65.64a.94.94,0,0,0,.59-.51,1.45,1.45,0,0,0,.09-.22l.12,0-.09-.11a2.82,2.82,0,0,0,.18-.91,7.27,7.27,0,0,0-1.21-4.05,12.18,12.18,0,0,0-4.52-4.17,14.17,14.17,0,0,0-3.39-1.29,16.78,16.78,0,0,0-3.68-.46,36.33,36.33,0,0,0-8.48,1c-.85.2-1.69.42-2.53.63a38.3,38.3,0,0,0-13.41,2.94c-3.27,1.34-6.64,2.42-9.91,3.77-1.78.73-2.46.62-2.42-1.63a88.41,88.41,0,0,0-2.46-21.44c-.91-4,.61-6.39,5.06-7.59,1.69-.46,3.39-.9,5.06-1.44a29.12,29.12,0,0,0,7.51-2.66,12.44,12.44,0,0,0,5.51-5.44c.89-1.92.71-3.42-.09-3.94s-2.06-.18-3.5.42-3.14,1.49-5.08,2.51a21.27,21.27,0,0,1-1.94.88.36.36,0,0,1,0-.09,3.1,3.1,0,0,0-1.26.23,15.78,15.78,0,0,0-1.47.77,19.67,19.67,0,0,1-2.87.51,13.14,13.14,0,0,1-3.67-.13,11.06,11.06,0,0,1-1.67-.45,8.34,8.34,0,0,1-1.47-.72,36.26,36.26,0,0,1-3.92-2.84l-.32-.25a20.08,20.08,0,0,1-.57-3.52c-.88-11.53,1.92-22.52,5.53-33.33a99.27,99.27,0,0,1,9.06-20.43c2.72-4.45,6.4-7.39,11.78-7.34,3.62,0,4.24.81,3.86,4.57-1.19,11.76-2.16,23.52-.59,35.32.76,5.64,2.5,10.71,6.36,14.91a15.91,15.91,0,0,1,3.8,8c2.83,14.2,9.62,26.49,17.49,38.24,1.59,2.37,3.24,4.7,4.84,7.06,2.11,3.12,3.2,6.75,2.17,10.3-2.19,7.55-.07,14.54,1.64,21.63,3.37,14,6.45,28.06,9.1,42.24,2,10.84-1,19.69-8.36,27.39a2.31,2.31,0,0,1-.14.19,1.17,1.17,0,0,1-1.27.53h0l.24-.43.38-.67a49,49,0,0,0,4.08-20.84c0-.72,0-1.45-.07-2.17-.09-1.76-.25-3.53-.47-5.29a121.34,121.34,0,0,0-3.59-16.93c-.5-1.81-1.24-1.89-2.73-1-2.31,1.41-4.4,2.67-3.84,6.07,3.57,21.29-2.22,39.84-12.83,57-3.73,4-7.63,7.74-11.72,11.3-3.9,3.39-6.31,7.22-5.15,8.83s5.57.25,9.67-3.32l.16-.14c2.73-1.18,5.33-2.5,7.89-3.83.47-.25,17.72-9.75,26.21-24.48.08-.13.17-.26.25-.37a40,40,0,0,1,7.16-8.43,2.3,2.3,0,0,1,.86-3.51c1.35-.11,2.4,1,3.52,1.7l15,9.86h0l8,5.31c.14-3.12.23-6.25.31-9.37M892.6,586c-.47,1-.88,1.91-1.27,2.88a55.41,55.41,0,0,0-1.9,5.85l0,.13c-.26,1-.5,2-.72,2.95v0c-.34,1.52-.65,3-.94,4.58l-.3,1.54q-.42,2.29-.87,4.59c-.1.51-.2,1-.31,1.53-.32,1.56-.71,2.45-1.81,2.28a4.12,4.12,0,0,1-1.34-.53,56.13,56.13,0,0,0-7.54-3.55c-.85-.33-1.72-.62-2.59-.89a35.9,35.9,0,0,0-4-1,32.58,32.58,0,0,0-7-.53,4.24,4.24,0,0,1-.61,0,4.67,4.67,0,0,1-.75-.1h0a1.32,1.32,0,0,1-.92-.5l-.08-.15a8.13,8.13,0,0,0,1.16-3.32c.13-1.55-.38-2.66-1.26-3a3.52,3.52,0,0,0-3,.48,14,14,0,0,0-3.19,2.57,15,15,0,0,1-9.46,4.68h0l-3.83.16c-5.36.19-10.71.24-16.07.2a26.82,26.82,0,0,0,4-9.32,8.44,8.44,0,0,0-.45-5.26c-.65-1.31-1.6-2-2.56-1.87a3.55,3.55,0,0,0-2.42,1.88,11,11,0,0,0-1.44,3.72,19.58,19.58,0,0,1-5,9.31,13.62,13.62,0,0,0-1.19,1.4l-2-.05c-7.6-.21-15.2-.53-22.8-.89a6.13,6.13,0,0,1-1.73-.32,14.48,14.48,0,0,0,1.88-3.39,10,10,0,0,0,.57-4.27,8.22,8.22,0,0,0-1-3.21c-.94-1.67-2.17-2.25-3.06-1.89a2.61,2.61,0,0,0-1.27,1.36,10.63,10.63,0,0,0-.58,1.43c-.43,1.3-.81,2.76-1.3,4.07a5.92,5.92,0,0,1-1.36,2.11,8.28,8.28,0,0,1-2.34,1.6c-.22.11-.46.18-.69.27l-.71,0a8.07,8.07,0,0,1-1.54.38l-.7.09a10.63,10.63,0,0,1-2.11,0,208.05,208.05,0,0,1-25-3.74l-.12,0c-2.7-.63-5.38-1.34-8-2.19a14.86,14.86,0,0,1-5.05-2.47,10.15,10.15,0,0,1-1.2-1.15c-.17-.2-.33-.41-.48-.62a6.57,6.57,0,0,1-.86-1.66c0-.1-.07-.19-.1-.28a6.26,6.26,0,0,1,0-3.46,9.24,9.24,0,0,1,1.92-3.5,15.92,15.92,0,0,1,2.37-2.29c.28-.22.56-.43.84-.62l.09-.07a16.14,16.14,0,0,1,2.75-1.46l1-.36a17.19,17.19,0,0,1,2-.57,21.39,21.39,0,0,1,2.26-.41,35.16,35.16,0,0,1,4-.33c8.69-.3,17.33.62,26,1.45a328.4,328.4,0,0,0,51.25.54c5.37-.33,10.76-.57,16.15-.49.81,0,1.62,0,2.42,0,2.43.08,4.85.22,7.27.46l.78.06h.72l.32,0c.71-.1,1.18-.41,1.17-1.15a2.81,2.81,0,0,0-.15-.82,6.62,6.62,0,0,0-.46-1,2.21,2.21,0,0,1-.26-.78,1.41,1.41,0,0,1,0-.2c.06-.74,1-.83,1.81-.93a41.33,41.33,0,0,1,7.45-.29,26.92,26.92,0,0,1,4.78.71q2.64.65,5.24,1.46c5.45,1.67,10.76,3.77,16.11,5.74.67.25,1.43.48,1.7,1a1.11,1.11,0,0,0,0,.13,1.36,1.36,0,0,1,0,.73,3.12,3.12,0,0,1-.22.59m28-19.26a15.06,15.06,0,0,1-.79,2.57,13,13,0,0,1-1.22,2.24A12.14,12.14,0,0,1,915,575l0,0a12.68,12.68,0,0,1-1.76.9,13.86,13.86,0,0,1-1.71.61,15.56,15.56,0,0,1-6.86.2c-1-.19-2.08-.41-3.11-.64s-2-.48-3.07-.76c-2-.54-4.06-1.17-6-1.88-.67-.24-1.32-.49-2-.75s-1.31-.52-2-.8-1.19-.5-1.8-.73c-.85-.34-1.7-.66-2.56-1s-1.47-.49-2.2-.72-1.53-.46-2.3-.67a97.19,97.19,0,0,0-23.76-3.08h0a60.46,60.46,0,0,1-8-1.1c-2.41-.5-4.66.1-5.08,1.55s1.35,3.23,4,3.78c2.17.44,4.36.77,6.56,1l.56.24a9.7,9.7,0,0,1-1,.48,9.21,9.21,0,0,1-3.42.77,9.7,9.7,0,0,1-1.78-.09,11.71,11.71,0,0,1-1.8-.42l-.16-.05a14.79,14.79,0,0,1-1.57-.64A17.06,17.06,0,0,1,839.6,568,25.24,25.24,0,0,1,832.51,547c.08-.63.18-1.26.31-1.89,0,0,0,0,0,0a24,24,0,0,1,.94-3.28,22.14,22.14,0,0,1,.89-2.15c.4-.84.82-1.62,1.26-2.36.16-.27.33-.53.49-.78a20.5,20.5,0,0,1,1.87-2.43,13.82,13.82,0,0,1,4.82-3.52,12.58,12.58,0,0,1,3-.88,13.59,13.59,0,0,1,2.57-.18,21,21,0,0,0-1.87,2.77,6.82,6.82,0,0,0-.89,4.05c.16,1.13.69,1.85,1.4,2a2.54,2.54,0,0,0,2.07-.79,1.42,1.42,0,0,0,1-.45l.24-.2a1.86,1.86,0,0,1,.22-.19c.23-.19.45-.39.67-.59.43-.4.84-.83,1.26-1.26l.64-.63a7.24,7.24,0,0,1,2.08-1.43,5.77,5.77,0,0,1,3.85-.29,7.12,7.12,0,0,1,.92.31Q875.6,539,890.9,545.29l7.51,3.08.36.14a1.39,1.39,0,0,1,.72.55,1.33,1.33,0,0,1,.15.54c-1.38,1.39-3.48,1.73-4.81,3.34a9,9,0,0,0-1.49,2.65,8.1,8.1,0,0,0-.3,1,10.1,10.1,0,0,0-.28,1.66,12.6,12.6,0,0,0,0,1.74,12,12,0,0,0,.2,1.55,13.65,13.65,0,0,0,1.78,4.57,15.39,15.39,0,0,0,5.52,5.11,20,20,0,0,0,4.33,1.83c.38.11.76.21,1.14.29a15.45,15.45,0,0,0,1.77.27l.49,0c.38,0,.75,0,1.11,0s.59.1.9.13a9,9,0,0,0,3-.18,7.57,7.57,0,0,0,2.95-1.43,12.81,12.81,0,0,0,3.6-5,24,24,0,0,0,1-2.67c.1-.32.19-.65.26-1,0,.12,0,.22.05.34A11.2,11.2,0,0,1,920.57,566.74ZM899.33,559l.12-.25c.09-.22.2-.45.31-.68,1.88-4.13,3-6.81,11.08-2.87,5,2.41,6.62,3.44,6.62,3.44a1.87,1.87,0,0,1,1.16.59,4.11,4.11,0,0,1,.21.42s0,.09.07.13a4.15,4.15,0,0,1,.17,1.88,9.79,9.79,0,0,1-.9,2.73c-.06.13-.11.26-.18.39-.21.44-.44.88-.68,1.32v0a10.41,10.41,0,0,1-3.07,3.69,4.87,4.87,0,0,1-3.29.8h0l-.57-.06a16.73,16.73,0,0,1-3.74-1.16c-1.08-.45-1.94-.9-2.54-1.22a51.53,51.53,0,0,1-5.18-3.29h0l-.79-.56c-.33-1.49.16-3.08,1.21-5.32m37.74-16.34a11.33,11.33,0,0,1-3.41,2.34,15.28,15.28,0,0,1-8.37.94,54.92,54.92,0,0,1-7.91-1.63c-1.29-.36-2.56-.77-3.83-1.22s-2.53-.94-3.78-1.47q-12.74-5.37-25.5-10.67l-25.52-10.64c-.73-.31-1.44-.65-2.16-1l-1.65-.84-1.24-.67a19.53,19.53,0,0,1-6.1-5c-.22-.28-.42-.57-.62-.87a12.66,12.66,0,0,1-.78-1.34l-.2-.42a14.52,14.52,0,0,1-1.07-8.11,21.5,21.5,0,0,1,3.7-10,17.69,17.69,0,0,1,8.22-6.15,9.51,9.51,0,0,1,2.31-.57l.76-.06a10.85,10.85,0,0,1,1.51,0,29.22,29.22,0,0,1,7.34,2.12,2.41,2.41,0,0,1,.74.4,36.25,36.25,0,0,0-4.58,3.12c-1.83,1.46-2.31,3.69-1.28,4.73s3,.77,4.5-.45a31.16,31.16,0,0,1,3.39-2.36c.34-.13.67-.25,1-.35a9.74,9.74,0,0,1,4.17-.45,6.44,6.44,0,0,1,1,.17c.28.07.56.15.85.25a10.43,10.43,0,0,1,2.16,1.09c2.36,1.53,5.12,2.41,7.46,4,7.63,5.09,15.89,8.77,24.23,12.24l4.45,1.83c4.45,1.83,8.9,3.66,13.27,5.66l1.92.89c.64.3,1.27.61,1.9.94a19.55,19.55,0,0,1,5.5,4,9.69,9.69,0,0,1,2.46,4.86,11.34,11.34,0,0,1,.17,2c0,.47,0,1-.07,1.46a18.93,18.93,0,0,1-.33,1.95,20.55,20.55,0,0,1-.56,2.1,18.65,18.65,0,0,1-2.79,5.69,12.87,12.87,0,0,1-1.22,1.41m10.68-39.95a17.22,17.22,0,0,1-1.87,1.7,10.56,10.56,0,0,1-10.54,1.69c-17.4-5.76-33.8-13.72-49.92-22.28l-3.22-1.72-4-2.14-5.1-2.78-2.79-1.52-.81-.48c-.29-.18-.58-.37-.85-.56a12.74,12.74,0,0,1-1.15-.86,13.81,13.81,0,0,1-1.06-.93c-.21-.2-.41-.4-.6-.61a15.13,15.13,0,0,1-3.29-5.41,16.42,16.42,0,0,1-.83-3.59,21.25,21.25,0,0,1-.12-2.26,19.37,19.37,0,0,1,.15-2.27c.09-.75.22-1.49.38-2.23v0a22.4,22.4,0,0,1,7.3-12.16,9.87,9.87,0,0,1,6-2.12,11.8,11.8,0,0,1,1.33,0,24.16,24.16,0,0,1,3.23.4h0a27.86,27.86,0,0,1,3,.78q.62.19,1.23.42a72,72,0,0,1,7.77,3.53c-2.23.83-4.44,1.73-6.6,2.73-2.46,1.15-3.86,3.27-3.19,4.59s3,1.43,5.33.36c2-.94,4.1-1.78,6.18-2.56a11.94,11.94,0,0,1,3,.27,11.4,11.4,0,0,1,3.82,1.64,8.86,8.86,0,0,1,.73.52,144.6,144.6,0,0,0,12.81,8.66q2.19,1.32,4.44,2.55c2.62,1.46,5.3,2.81,8,4.1l2.07,1c2.35,1.07,4.72,2.07,7.13,3l1.39.56a34.26,34.26,0,0,1,4.73,2.28c1,.59,2,1.23,3,1.91.49.34,1,.69,1.44,1.05.94.72,1.87,1.47,2.76,2.25a12.11,12.11,0,0,1,2,2.16,9.92,9.92,0,0,1,1.17,2.2,10.27,10.27,0,0,1,.58,2.43,12,12,0,0,1,0,2.25c0,.41-.08.82-.15,1.24a19.56,19.56,0,0,1-4,9.13c-.3.38-.62.74-1,1.1" transform="translate(-675.46 -266.49)"></path><path class="cls-2" d="M950.81,489.14a8.63,8.63,0,0,0-1.9-3.32,12.55,12.55,0,0,0-2.63-2.14c-.34-.21-.67-.39-1-.57A22,22,0,0,0,934,477.17c-7.22-1.52-13.42,4.31-13.49,11.88-.06,6.1,2.91,10,7.88,12.87a19.11,19.11,0,0,0,5,2.05,15.27,15.27,0,0,0,2.68,1.18,10.69,10.69,0,0,0,4.36.49,8.68,8.68,0,0,0,3-.87,10.83,10.83,0,0,0,2.76-2,15.48,15.48,0,0,0,2.18-2.77,24.16,24.16,0,0,0,1.66-3.2,15,15,0,0,0,1-3.66,9.46,9.46,0,0,0-.24-4m-24.13-.34c.13-.36,4.55-9.07,18-3.76l.23.17.22.16a8.79,8.79,0,0,1,3,3.61,5,5,0,0,1,.26.86,5.86,5.86,0,0,1,.13,1.51,10.76,10.76,0,0,1-1.18,4.2,21.33,21.33,0,0,1-2,3.18,11.76,11.76,0,0,1-1.42,1.59,6.34,6.34,0,0,1-3.84,1.79,7.94,7.94,0,0,1-3-.42,22.11,22.11,0,0,1-4.17-1.95c-1.29-.73-2.45-1.47-3.45-2.07l-1-.57a7.46,7.46,0,0,1-1.87-8.3" transform="translate(-675.46 -266.49)"></path><path class="cls-2" d="M940,528.45a14.82,14.82,0,0,0-.94-2.64,12.63,12.63,0,0,0-2.33-3.39,13.65,13.65,0,0,0-4.42-3,14,14,0,0,0-4.09-1.07c-.27,0-.53,0-.78,0l-1.18-.49A9.73,9.73,0,0,0,914.86,520c-3.36,3.43-4.89,7.42-3.55,12.45,2.52,9.49,15.57,12.87,22,10.2a8.63,8.63,0,0,0,3.82-3.27,8.54,8.54,0,0,0,1-1,10.89,10.89,0,0,0,2.28-6.75,14.42,14.42,0,0,0-.36-3.16M916.19,527c.12-.34,3.55-7.91,14.67-4.64a16.52,16.52,0,0,1,1.54,1,13.37,13.37,0,0,1,1.77,1.54,10.31,10.31,0,0,1,1.77,2.46,11.09,11.09,0,0,1,.76,1.93,10,10,0,0,1,.37,2.32,7.78,7.78,0,0,1-1.33,4.85,8.53,8.53,0,0,1-4.43,3.12,10.6,10.6,0,0,1-5.4.28,13.17,13.17,0,0,1-2.45-.72l-.54-.23a19.17,19.17,0,0,1-1.85-1,7.93,7.93,0,0,1-1.87-1.6c-2.32-2.07-4.4-5.22-3-9.37" transform="translate(-675.46 -266.49)"></path><path class="cls-7" d="M1038.82,569.46l-.38.67-.24.43a1.17,1.17,0,0,0,1.27-.53,2.31,2.31,0,0,0,.14-.19Z" transform="translate(-675.46 -266.49)"></path><path class="cls-7" d="M922.92,539l.55.23a17.91,17.91,0,0,1-4.27-2.8,7.67,7.67,0,0,0,1.87,1.59,17.26,17.26,0,0,0,1.85,1" transform="translate(-675.46 -266.49)"></path><path class="cls-7" d="M846,510.14l.2.42a12.66,12.66,0,0,0,.78,1.34,18.54,18.54,0,0,0,6.72,5.87c1.65.9,3.32,1.77,5,2.5l25.52,10.64q12.75,5.31,25.5,10.67,1.88.79,3.78,1.47c1.27.45,2.55.86,3.84,1.22a55.9,55.9,0,0,0,7.9,1.64c5,.64,8.92-.43,11.79-3.29a17.08,17.08,0,0,0,4-7.1,21.26,21.26,0,0,0,.89-4c0-.5.07-1,.07-1.46a11.42,11.42,0,0,0-.17-2,9.69,9.69,0,0,0-2.46-4.86,19.6,19.6,0,0,0-5.5-4c-.62-.33-1.26-.64-1.9-.94l-1.92-.89c-5.82-2.67-11.79-5-17.72-7.49-8.34-3.47-16.6-7.15-24.23-12.24-2.34-1.56-5.1-2.44-7.46-4a10.43,10.43,0,0,0-2.16-1.09,9.57,9.57,0,0,0-7,.38,30.62,30.62,0,0,0-3.39,2.36c-1.53,1.22-3.47,1.51-4.51.45s-.55-3.27,1.28-4.73a36.25,36.25,0,0,1,4.58-3.12,2.41,2.41,0,0,0-.74-.4,29.1,29.1,0,0,0-7.34-2.12,10.85,10.85,0,0,0-1.51,0l-.76.06a9.51,9.51,0,0,0-2.31.57,17.69,17.69,0,0,0-8.22,6.15,21.61,21.61,0,0,0-3.7,10,14.52,14.52,0,0,0,1.07,8.11M914.86,520a9.74,9.74,0,0,1,11.37-2.24l1.17.49c.25,0,.51,0,.78,0a14,14,0,0,1,4.09,1.07,13.65,13.65,0,0,1,4.42,3,12.63,12.63,0,0,1,2.33,3.39,14.82,14.82,0,0,1,.94,2.64,14.42,14.42,0,0,1,.36,3.16,10.89,10.89,0,0,1-2.28,6.75,8.54,8.54,0,0,1-1,1,8.63,8.63,0,0,1-3.82,3.27c-6.38,2.67-19.43-.71-22-10.2-1.33-5,.19-9,3.55-12.45" transform="translate(-675.46 -266.49)"></path><path class="cls-7" d="M832.31,550.49A25,25,0,0,0,839.6,568a17.06,17.06,0,0,0,4.58,3.31,13,13,0,0,0,1.57.64l.16.05a9.76,9.76,0,0,0,8-.74l-.56-.24q-3.3-.35-6.56-1c-2.65-.55-4.42-2.35-4-3.78s2.67-2,5.08-1.55a60.46,60.46,0,0,0,8,1.1,97.19,97.19,0,0,1,23.76,3.08c.77.21,1.53.43,2.3.67s1.47.47,2.2.72,1.71.62,2.56,1c.61.23,1.21.47,1.8.73,1.3.56,2.61,1.07,3.94,1.55a77.84,77.84,0,0,0,12.22,3.28A14.37,14.37,0,0,0,915,575l0,0a12.63,12.63,0,0,0,5.54-8.24,11.2,11.2,0,0,0,.27-2.83c0-.12,0-.22-.05-.34-.07.34-.16.67-.26,1a24,24,0,0,1-1,2.67,12.81,12.81,0,0,1-3.6,5,7.57,7.57,0,0,1-2.95,1.43,9,9,0,0,1-3,.18c-.31,0-.6-.08-.9-.13a15.92,15.92,0,0,1-4.51-.65c-4-1.14-7.83-3.66-9.85-6.94a13.46,13.46,0,0,1-2-6.12,12.6,12.6,0,0,1,0-1.74,10.1,10.1,0,0,1,.28-1.66,9.07,9.07,0,0,1,1.79-3.64c1.33-1.61,3.43-2,4.81-3.34a1.33,1.33,0,0,0-.15-.54,1.39,1.39,0,0,0-.72-.55l-.36-.14-7.51-3.08Q875.6,539,860.27,532.8a7.12,7.12,0,0,0-.92-.31,6,6,0,0,0-5.93,1.72l-.64.63c-.42.43-.83.86-1.26,1.26-.22.2-.44.4-.67.59l-.22.19-.23.2a1.46,1.46,0,0,1-1,.45,2.54,2.54,0,0,1-2.07.79c-.71-.15-1.24-.87-1.4-2a6.82,6.82,0,0,1,.89-4.05,21,21,0,0,1,1.87-2.77,15.48,15.48,0,0,0-2.57.18,12.58,12.58,0,0,0-3,.88,13.82,13.82,0,0,0-4.82,3.52,20.5,20.5,0,0,0-1.87,2.43c-.16.25-.33.51-.49.78-.44.74-.86,1.52-1.26,2.36a22.14,22.14,0,0,0-.89,2.15,24,24,0,0,0-.94,3.28s0,0,0,0c-.13.63-.23,1.26-.31,1.89a25.15,25.15,0,0,0-.2,3.47" transform="translate(-675.46 -266.49)"></path><path class="cls-7" d="M892.78,584.55c-.27-.57-1-.8-1.7-1-5.35-2-10.66-4.07-16.11-5.74q-2.6-.81-5.24-1.46a26.92,26.92,0,0,0-4.78-.71,41.33,41.33,0,0,0-7.45.29c-.79.1-1.75.19-1.81.93a1.41,1.41,0,0,0,0,.2,2.21,2.21,0,0,0,.26.78,6.62,6.62,0,0,1,.46,1,2.81,2.81,0,0,1,.15.82c0,.74-.46,1.05-1.17,1.15l-.32,0h-.72l-.78-.06c-3.22-.32-6.46-.47-9.69-.51-5.39-.07-10.78.16-16.15.49a328.4,328.4,0,0,1-51.25-.54c-8.62-.83-17.26-1.75-26-1.45a37.6,37.6,0,0,0-4,.33,21.39,21.39,0,0,0-2.26.41,19.45,19.45,0,0,0-2,.57,16.16,16.16,0,0,0-3.71,1.82l-.09.07a15.53,15.53,0,0,0-3.21,2.91c-1.92,2.28-2.57,4.72-1.9,7,0,.09.07.18.1.28a6.8,6.8,0,0,0,.86,1.67c.15.2.31.41.48.61a10.15,10.15,0,0,0,1.2,1.15,14.9,14.9,0,0,0,5,2.47c2.67.85,5.35,1.56,8.05,2.19l.12,0a208.05,208.05,0,0,0,25,3.74,10.63,10.63,0,0,0,2.11,0l.7-.09a8.07,8.07,0,0,0,1.54-.38l.71,0c.23-.09.47-.16.69-.27a8.28,8.28,0,0,0,2.34-1.6,5.92,5.92,0,0,0,1.36-2.11c.49-1.31.88-2.77,1.3-4.07a10.63,10.63,0,0,1,.58-1.43,2.61,2.61,0,0,1,1.27-1.36c.89-.36,2.12.22,3.06,1.89a8.06,8.06,0,0,1,1,3.21,10,10,0,0,1-.57,4.27,12.22,12.22,0,0,1-.9,1.9,12.35,12.35,0,0,1-1,1.49,6.13,6.13,0,0,0,1.73.32c8.26.39,16.51.75,24.77.94a13.62,13.62,0,0,1,1.19-1.4,19.58,19.58,0,0,0,5-9.31,11,11,0,0,1,1.44-3.72,3.55,3.55,0,0,1,2.42-1.88c1-.1,1.91.56,2.56,1.87a8.44,8.44,0,0,1,.45,5.26,26.82,26.82,0,0,1-4,9.32c5.36,0,10.71,0,16.07-.2l3.83-.16h0a15,15,0,0,0,9.46-4.68,14,14,0,0,1,3.19-2.57,3.52,3.52,0,0,1,3-.48c.88.39,1.39,1.5,1.26,3a8.13,8.13,0,0,1-1.16,3.32l.08.15a1.32,1.32,0,0,0,.92.5h0a4.67,4.67,0,0,0,.75.1,4.24,4.24,0,0,0,.61,0,33.81,33.81,0,0,1,11,1.51c.87.27,1.74.56,2.59.89a56.13,56.13,0,0,1,7.54,3.55,4.12,4.12,0,0,0,1.34.53c1.1.17,1.49-.72,1.81-2.28.11-.51.21-1,.31-1.53q.45-2.29.87-4.59l.3-1.54c.29-1.53.6-3.06.94-4.58v0c.22-1,.46-2,.72-2.95l0-.13a55.41,55.41,0,0,1,1.9-5.85c.39-1,.8-1.93,1.27-2.88a3.12,3.12,0,0,0,.22-.59,1.36,1.36,0,0,0,0-.73,1.11,1.11,0,0,1,0-.13" transform="translate(-675.46 -266.49)"></path><path class="cls-7" d="M861.79,458.65a21.81,21.81,0,0,0-.15,2.27,21.25,21.25,0,0,0,.12,2.26,15.63,15.63,0,0,0,4.12,9c.19.21.39.41.6.61s.69.63,1.06.93a12.74,12.74,0,0,0,1.15.86c.27.19.56.38.86.56l.8.48,2.79,1.52,5.1,2.78,4,2.14c17.16,9.21,34.58,17.86,53.14,24a10.56,10.56,0,0,0,10.54-1.69,17.22,17.22,0,0,0,1.87-1.7c.34-.36.66-.72,1-1.1a19.56,19.56,0,0,0,4-9.13c.07-.42.11-.83.15-1.24a12,12,0,0,0,0-2.25,9.68,9.68,0,0,0-1.75-4.63,12.43,12.43,0,0,0-2-2.16c-.9-.78-1.83-1.53-2.77-2.25q-.7-.54-1.44-1.05c-1-.68-2-1.32-3-1.91a34.26,34.26,0,0,0-4.73-2.28l-1.39-.56c-2.41-.95-4.78-1.95-7.13-3l-2.07-1c-2.72-1.29-5.4-2.64-8-4.1a142.9,142.9,0,0,1-17.25-11.21,8.86,8.86,0,0,0-.73-.52,11.4,11.4,0,0,0-3.82-1.64,11.94,11.94,0,0,0-3-.27c-2.08.78-4.15,1.62-6.18,2.56-2.3,1.07-4.65,1-5.33-.36s.73-3.44,3.19-4.59c2.16-1,4.37-1.9,6.61-2.73a73,73,0,0,0-7.78-3.53q-.62-.23-1.23-.42a27.86,27.86,0,0,0-3-.78h0a24.16,24.16,0,0,0-3.23-.4,11.8,11.8,0,0,0-1.33,0,9.87,9.87,0,0,0-6,2.12,22.46,22.46,0,0,0-7.3,12.16v0c-.16.74-.29,1.48-.38,2.23M934,477.17a22,22,0,0,1,11.23,5.94c.34.18.67.36,1,.57a12.55,12.55,0,0,1,2.63,2.14,8.63,8.63,0,0,1,1.9,3.32,9.46,9.46,0,0,1,.24,4,15,15,0,0,1-1,3.66,23.43,23.43,0,0,1-1.66,3.19,15.2,15.2,0,0,1-2.18,2.78,10.83,10.83,0,0,1-2.76,2,8.68,8.68,0,0,1-3,.87,10.69,10.69,0,0,1-4.36-.49,15.27,15.27,0,0,1-2.68-1.18,19.26,19.26,0,0,1-5-2.05c-5-2.87-7.94-6.77-7.88-12.87.07-7.57,6.27-13.4,13.49-11.88" transform="translate(-675.46 -266.49)"></path><path class="cls-7" d="M948.4,489.84a5,5,0,0,0-.26-.86,8.63,8.63,0,0,1,.39,2.37,5.86,5.86,0,0,0-.13-1.51" transform="translate(-675.46 -266.49)"></path><path class="cls-7" d="M1081,584.08c.12-1.61.21-3.22.29-4.83l-8-5.31h0l-15-9.86c-1.12-.73-2.17-1.81-3.52-1.69a2.29,2.29,0,0,0-.86,3.5,39.91,39.91,0,0,0-7.16,8.44l-.25.36c-8.49,14.73-25.74,24.23-26.21,24.49-2.56,1.32-5.15,2.64-7.89,3.82l-.16.14c-4.1,3.57-8.54,4.92-9.67,3.32s1.25-5.44,5.15-8.83c4.09-3.56,8-7.34,11.72-11.3,10.61-17.15,16.4-35.7,12.84-57-.57-3.4,1.52-4.66,3.83-6.07,1.49-.92,2.23-.84,2.73,1a121.34,121.34,0,0,1,3.59,16.93c1.19,9.41.64,18.84-3.54,28.3l.79.38c7.33-7.7,10.39-16.55,8.36-27.39-2.65-14.18-5.73-28.24-9.1-42.24-1.71-7.09-3.83-14.08-1.64-21.63,1-3.55-.06-7.18-2.17-10.3-1.6-2.36-3.25-4.69-4.84-7.06-7.87-11.75-14.66-24-17.49-38.24a15.91,15.91,0,0,0-3.8-8c-3.86-4.2-5.6-9.27-6.36-14.91-1.57-11.8-.6-23.56.59-35.32.38-3.76-.24-4.53-3.86-4.57-5.38,0-9.06,2.89-11.78,7.35A99,99,0,0,0,978.46,388c-3.61,10.81-6.41,21.8-5.53,33.33a20.08,20.08,0,0,0,.57,3.52l.32.25a36.26,36.26,0,0,0,3.92,2.84,8.34,8.34,0,0,0,1.47.72,11.06,11.06,0,0,0,1.67.45,13.14,13.14,0,0,0,3.67.13,19.67,19.67,0,0,0,2.87-.51,15.78,15.78,0,0,1,1.47-.77,3.1,3.1,0,0,1,1.26-.23.36.36,0,0,0,0,.09,21.27,21.27,0,0,0,1.94-.88c1.94-1,3.63-1.89,5.08-2.51s2.67-1,3.5-.42,1,2,.09,3.94a12.44,12.44,0,0,1-5.51,5.44,28.76,28.76,0,0,1-7.51,2.66c-1.67.54-3.37,1-5.06,1.44-4.45,1.2-6,3.56-5.06,7.59a88.41,88.41,0,0,1,2.46,21.44c0,2.25.64,2.36,2.42,1.63,3.27-1.35,6.64-2.43,9.91-3.77a38.3,38.3,0,0,1,13.41-2.94c.84-.21,1.68-.43,2.53-.63a36.33,36.33,0,0,1,8.48-1,17.4,17.4,0,0,1,3.68.46,13.78,13.78,0,0,1,3.39,1.3,12.08,12.08,0,0,1,4.52,4.16,7.27,7.27,0,0,1,1.21,4.05,2.82,2.82,0,0,1-.18.91l.09.11-.12,0c0,.07,0,.16-.08.22a1,1,0,0,1-.6.51c-.49.12-1-.19-1.65-.64-.46-.34-1-.74-1.6-1.16-1.66-.44-3.14-.85-4.6-1.3a30.45,30.45,0,0,0-6.3-1.26,37.6,37.6,0,0,0-4.79.79c-2.42.56-4.85,1.2-7.24,1.92a102.58,102.58,0,0,0-14,5.48,96.41,96.41,0,0,1-9.87,4.21l-1.25.38a25.14,25.14,0,0,0-2.72,1.91,20.16,20.16,0,0,0-7,10c.43-.23.84-.46,1.23-.7.34-.49.66-1,1-1.45,2-2.81,4.7-4.15,5.8-3.18s.32,3.77-1.55,6.37a85.14,85.14,0,0,0-5.12,8.11A127.22,127.22,0,0,0,962.41,553c1.24,16.65,8.28,29.88,22.93,38.07l.92.53a1.68,1.68,0,0,1,1,1.74c-.16.84-1,.93-1.66,1a19.51,19.51,0,0,1-12.94-2,38,38,0,0,1-17.45-20.35c-.34-.87-.64-1.74-.91-2.61-1.93-6.13-2.46-12.53-2.7-19h0c-.07-.3-.12-.84-.23-.86-.49,0-.4.35-.36.68-4.08,10.26-5.8,21-7,31.84,0,.75.07,1.49.15,2.2a37.18,37.18,0,0,0,1.49,7.74c.29.95.64,1.72.84,2.43a2.21,2.21,0,0,1,.07,1.72c-.24.44-.78.65-1.67.58a5.85,5.85,0,0,1-1.48-.44,7.9,7.9,0,0,1-1.69-1.13,12.07,12.07,0,0,1-3-4.21,19.1,19.1,0,0,1-1.52-5.84c-.14-1.25-.2-2.48-.23-3.71s0-2.37.05-3.55c.07-2.34.23-4.68.45-7s.55-4.51.92-6.76c0-2,0-4-.06-5.95a60.82,60.82,0,0,0-8.86,19.24c-2,7-2.11,14.14-2.28,21.91-.23-.36-.44-.71-.65-1.07a2.42,2.42,0,0,1-1.22,1.67c-.89.35-2.15-.4-3.24-2.16a12.39,12.39,0,0,1-1.37-3.29,17.84,17.84,0,0,1-.57-4.27,42.69,42.69,0,0,1,.31-5.32l-.46.22c-5,2.65-10.39,3.88-16,2.42-1.78-.46-2.83.34-4,1.5-6.94,7-8.83,15.35-7.24,24.9a5.76,5.76,0,0,0,3.48,4.85,222.61,222.61,0,0,0,22.76,9.5c11,3.83,21.69,8.56,33.19,10.52,17.74,3,32.46-2.38,43.06-17.88a10.06,10.06,0,0,1,6.85-4.41c3.11-.67,3.66.53,3.24,3.33-1.21,8-5.29,14.36-11.07,19.67a58.32,58.32,0,0,1-12.82,8.57,12.73,12.73,0,0,0,1.28,1.16L1005,664a68.55,68.55,0,0,1,9.53-17.6,91,91,0,0,1,19.67-19c10.9-7.8,23.22-12.89,34.63-19.7a23.45,23.45,0,0,0,7.76-6.25c5.63-6.73,4.41-17.32,4.41-17.32" transform="translate(-675.46 -266.49)"></path></g><g class="cls-5"><circle class="cls-8" cx="263.01" cy="263.01" r="254.51"></circle></g></g></g></svg>