<svg xmlns="http://www.w3.org/2000/svg" viewBox="0 0 176.39 74.49"><defs><style>.cls-1{fill:#cccaca;}</style></defs><g id="Layer_2" data-name="Layer 2"><g id="Layer_1-2" data-name="Layer 1"><path class="cls-1" d="M4.94,60.85h8.93l-.61,3.31H0L4.67,37.75H9Z"></path><path class="cls-1" d="M21.36,63.4a7.79,7.79,0,0,1-3.14-3.12,9.25,9.25,0,0,1-1.12-4.6,13,13,0,0,1,1.65-6.46,12.36,12.36,0,0,1,4.56-4.63,12.55,12.55,0,0,1,6.48-1.71A9.62,9.62,0,0,1,34.5,44a8.16,8.16,0,0,1,3.21,3.12,8.92,8.92,0,0,1,1.16,4.61,12.68,12.68,0,0,1-6.34,11.08A12.73,12.73,0,0,1,26,64.5,9.62,9.62,0,0,1,21.36,63.4Zm9.17-3.78a8.55,8.55,0,0,0,2.83-3.27,9.48,9.48,0,0,0,1-4.35,5.35,5.35,0,0,0-1.48-4,5.16,5.16,0,0,0-3.73-1.42,6.6,6.6,0,0,0-3.93,1.23,8.41,8.41,0,0,0-2.7,3.31,10.38,10.38,0,0,0-1,4.42,5.43,5.43,0,0,0,1.39,4,4.85,4.85,0,0,0,3.59,1.4A6.88,6.88,0,0,0,30.53,59.62Z"></path><path class="cls-1" d="M43.83,48a12.34,12.34,0,0,1,4.24-3.78,10.91,10.91,0,0,1,5.24-1.35,8.14,8.14,0,0,1,4.15,1A6.6,6.6,0,0,1,60,46.26l.54-3h4.37L61.18,64.16H56.81L57.38,61a11.12,11.12,0,0,1-3.44,2.47,10.29,10.29,0,0,1-4.5,1,8.24,8.24,0,0,1-4.2-1.06,7.51,7.51,0,0,1-2.89-3,9.41,9.41,0,0,1-1.05-4.51,12.41,12.41,0,0,1,.23-2.32A13.73,13.73,0,0,1,43.83,48Zm15,4.1a5.36,5.36,0,0,0-1.5-4,5.17,5.17,0,0,0-3.74-1.46,7,7,0,0,0-3.27.82,7.94,7.94,0,0,0-2.77,2.39A8.56,8.56,0,0,0,46,53.59a7.79,7.79,0,0,0-.15,1.56,5.52,5.52,0,0,0,1.5,4.09,5.08,5.08,0,0,0,3.74,1.5,6.92,6.92,0,0,0,3.27-.84,7.93,7.93,0,0,0,2.77-2.45,8.87,8.87,0,0,0,1.56-3.78A7.65,7.65,0,0,0,58.82,52.11Z"></path><path class="cls-1" d="M69.6,48a12.31,12.31,0,0,1,4.23-3.78,11,11,0,0,1,5.28-1.35,8.79,8.79,0,0,1,3.88.89,6.65,6.65,0,0,1,2.77,2.38L87.55,36h4.37l-5,28.12H82.57L83.14,61a10.26,10.26,0,0,1-3.4,2.53,10.15,10.15,0,0,1-4.46,1A8.42,8.42,0,0,1,71,63.44a7.49,7.49,0,0,1-2.91-3,9.53,9.53,0,0,1-1-4.51,11.62,11.62,0,0,1,.23-2.32A13.6,13.6,0,0,1,69.6,48Zm15,4.1a5.36,5.36,0,0,0-1.5-4,5.19,5.19,0,0,0-3.75-1.46,7.07,7.07,0,0,0-3.27.82,8,8,0,0,0-2.77,2.39,8.68,8.68,0,0,0-1.56,3.74,7.79,7.79,0,0,0-.15,1.56,5.52,5.52,0,0,0,1.5,4.09,5.08,5.08,0,0,0,3.74,1.5,6.92,6.92,0,0,0,3.27-.84,8,8,0,0,0,2.78-2.45,9,9,0,0,0,1.55-3.78A7,7,0,0,0,84.59,52.11Z"></path><path class="cls-1" d="M100.66,43.22,97,64.16H92.64l3.69-20.94ZM97.35,39.8a2.2,2.2,0,0,1-.64-1.63,3,3,0,0,1,1-2.3,3.19,3.19,0,0,1,2.29-1,2.21,2.21,0,0,1,1.66.64,2.26,2.26,0,0,1,.62,1.64,3.14,3.14,0,0,1-1,2.3,3.19,3.19,0,0,1-2.28,1A2.29,2.29,0,0,1,97.35,39.8Z"></path><path class="cls-1" d="M122.26,44.65a6.44,6.44,0,0,1,2,5.07,14,14,0,0,1-.19,2.09l-2.2,12.35h-4.3l2.09-11.71a12.23,12.23,0,0,0,.15-1.52,4.21,4.21,0,0,0-1.15-3.19,4.52,4.52,0,0,0-3.22-1.1,6.06,6.06,0,0,0-4.16,1.5,7.07,7.07,0,0,0-2.14,4.31v-.11L107,64.16h-4.34l3.69-20.94h4.33l-.42,2.43A9.65,9.65,0,0,1,117,42.88,7.54,7.54,0,0,1,122.26,44.65Z"></path><path class="cls-1" d="M143.7,43.85a6,6,0,0,1,2.48,2.41l.54-3h4.37L147.36,64.5a12.69,12.69,0,0,1-2.13,5.15,11.06,11.06,0,0,1-4.14,3.55,12.53,12.53,0,0,1-5.74,1.29,12.18,12.18,0,0,1-4.86-.89A6.7,6.7,0,0,1,127.34,71a6.42,6.42,0,0,1-.92-4h4.3a3.64,3.64,0,0,0,1.63,2.65,6.3,6.3,0,0,0,3.69,1,6.82,6.82,0,0,0,4.52-1.59A7.47,7.47,0,0,0,143,64.5l.61-3.5a11.35,11.35,0,0,1-3.42,2.49,10,10,0,0,1-4.45,1,8.41,8.41,0,0,1-4.25-1.06,7.49,7.49,0,0,1-2.91-3,9.41,9.41,0,0,1-1-4.51,12.38,12.38,0,0,1,.22-2.32,13.73,13.73,0,0,1,2.3-5.58,12.43,12.43,0,0,1,4.24-3.78,10.91,10.91,0,0,1,5.24-1.35A8.38,8.38,0,0,1,143.7,43.85ZM145,52.11a5.36,5.36,0,0,0-1.5-4,5.17,5.17,0,0,0-3.74-1.46,7,7,0,0,0-3.27.82,7.94,7.94,0,0,0-2.77,2.39,8.56,8.56,0,0,0-1.56,3.74,7.79,7.79,0,0,0-.15,1.56,5.52,5.52,0,0,0,1.5,4.09,5.08,5.08,0,0,0,3.74,1.5,6.92,6.92,0,0,0,3.27-.84,7.93,7.93,0,0,0,2.77-2.45,8.87,8.87,0,0,0,1.56-3.78A7.65,7.65,0,0,0,145,52.11Z"></path><path class="cls-1" d="M153.14,63.78a2.23,2.23,0,0,1-.65-1.64,3.07,3.07,0,0,1,1-2.29,3.21,3.21,0,0,1,2.3-1,2.2,2.2,0,0,1,1.65.64,2.26,2.26,0,0,1,.63,1.64,3.13,3.13,0,0,1-1,2.3,3.18,3.18,0,0,1-2.28,1A2.26,2.26,0,0,1,153.14,63.78Z"></path><path class="cls-1" d="M162.29,63.78a2.22,2.22,0,0,1-.64-1.64,3,3,0,0,1,1-2.29,3.2,3.2,0,0,1,2.3-1,2.2,2.2,0,0,1,1.65.64,2.25,2.25,0,0,1,.62,1.64,3.12,3.12,0,0,1-1,2.3,3.18,3.18,0,0,1-2.28,1A2.28,2.28,0,0,1,162.29,63.78Z"></path><path class="cls-1" d="M171.45,63.78a2.22,2.22,0,0,1-.64-1.64,3.06,3.06,0,0,1,1-2.29,3.23,3.23,0,0,1,2.3-1,2.21,2.21,0,0,1,1.66.64,2.29,2.29,0,0,1,.62,1.64,3.31,3.31,0,0,1-3.27,3.26A2.26,2.26,0,0,1,171.45,63.78Z"></path><path class="cls-1" d="M8.82,26.11h9.27v2.81H5.36V2.43H8.82Z"></path><path class="cls-1" d="M21.89,4a2.26,2.26,0,0,1-.69-1.67A2.29,2.29,0,0,1,21.89.68,2.28,2.28,0,0,1,23.56,0a2.18,2.18,0,0,1,1.61.68,2.31,2.31,0,0,1,.67,1.68A2.29,2.29,0,0,1,25.17,4a2.18,2.18,0,0,1-1.61.68A2.28,2.28,0,0,1,21.89,4Zm3.34,4.06V28.92H21.77V8.09Z"></path><path class="cls-1" d="M38.87,25.73,45.33,8.09H49L40.85,28.92h-4L28.65,8.09h3.73Z"></path><path class="cls-1" d="M71.32,19.8H54.68a6.55,6.55,0,0,0,6.76,6.53,6.38,6.38,0,0,0,3.75-1A5.59,5.59,0,0,0,67.3,22.5H71a9,9,0,0,1-3.34,4.88,10.14,10.14,0,0,1-6.24,1.88,10.51,10.51,0,0,1-5.3-1.33,9.45,9.45,0,0,1-3.66-3.78,11.68,11.68,0,0,1-1.33-5.68,11.88,11.88,0,0,1,1.29-5.66,9.11,9.11,0,0,1,3.63-3.75,10.84,10.84,0,0,1,5.37-1.31A10.48,10.48,0,0,1,66.69,9,9,9,0,0,1,70.2,12.6a10.39,10.39,0,0,1,1.24,5.11A19.4,19.4,0,0,1,71.32,19.8ZM67,13.58a5.62,5.62,0,0,0-2.37-2.16,7.34,7.34,0,0,0-3.33-.74,6.42,6.42,0,0,0-4.46,1.67A6.81,6.81,0,0,0,54.72,17H67.87A6.37,6.37,0,0,0,67,13.58Z"></path><path class="cls-1" d="M86.6,8.68a12.74,12.74,0,0,1,4.77-4.84,13.1,13.1,0,0,1,6.71-1.75,13.64,13.64,0,0,1,7.56,2.09,12,12,0,0,1,4.71,5.93h-4.14A8.33,8.33,0,0,0,103,6.42a9.23,9.23,0,0,0-5-1.29,9.68,9.68,0,0,0-5,1.29,9.08,9.08,0,0,0-3.46,3.67,11.71,11.71,0,0,0-1.25,5.57,11.65,11.65,0,0,0,1.25,5.53,9.06,9.06,0,0,0,3.46,3.66,9.68,9.68,0,0,0,5,1.29,9.31,9.31,0,0,0,5-1.27,8.22,8.22,0,0,0,3.17-3.67h4.14a12,12,0,0,1-4.71,5.88,13.71,13.71,0,0,1-7.56,2.07,13.28,13.28,0,0,1-6.71-1.73,12.73,12.73,0,0,1-4.77-4.81,13.88,13.88,0,0,1-1.75-6.95A14,14,0,0,1,86.6,8.68Z"></path><path class="cls-1" d="M130.07,8.72a7.12,7.12,0,0,1,3,3,10.14,10.14,0,0,1,1.09,4.9V28.92h-3.42V17.14a6.69,6.69,0,0,0-1.56-4.77,5.58,5.58,0,0,0-4.26-1.65,5.71,5.71,0,0,0-4.35,1.71,7,7,0,0,0-1.61,5V28.92h-3.46V.8h3.46V11.06a6.75,6.75,0,0,1,2.83-2.47,9.19,9.19,0,0,1,4-.88A9,9,0,0,1,130.07,8.72Z"></path><path class="cls-1" d="M139.8,12.83a9.44,9.44,0,0,1,3.55-3.75,9.83,9.83,0,0,1,5-1.33,9.32,9.32,0,0,1,4.75,1.18,7.9,7.9,0,0,1,3,3V8.09h3.5V28.92h-3.5V25a8,8,0,0,1-3.06,3,9.11,9.11,0,0,1-4.73,1.2,9.41,9.41,0,0,1-8.55-5.21,11.94,11.94,0,0,1-1.29-5.62A11.66,11.66,0,0,1,139.8,12.83Zm15.39,1.53a6.68,6.68,0,0,0-2.57-2.67,6.88,6.88,0,0,0-3.55-.94,7,7,0,0,0-3.53.92A6.49,6.49,0,0,0,143,14.33a8.47,8.47,0,0,0-1,4.1,8.69,8.69,0,0,0,1,4.16,6.66,6.66,0,0,0,2.55,2.7,6.87,6.87,0,0,0,3.53.93,7,7,0,0,0,3.55-.93,6.64,6.64,0,0,0,2.57-2.7,8.61,8.61,0,0,0,.95-4.12A8.54,8.54,0,0,0,155.19,14.36Z"></path><path class="cls-1" d="M169.71,10.94V23.22a2.9,2.9,0,0,0,.64,2.14,3.17,3.17,0,0,0,2.24.63h2.55v2.93H172a6.18,6.18,0,0,1-4.33-1.33c-1-.89-1.44-2.34-1.44-4.37V10.94h-2.7V8.09h2.7V2.85h3.46V8.09h5.43v2.85Z"></path></g></g></svg>