<svg xmlns="http://www.w3.org/2000/svg" width="77pt" height="86pt" viewBox="0 0 77 86"><g id="#f26622ff"><path fill="#f26622" opacity="1.00" d=" M 58.46 1.34 C 60.93 -0.07 63.96 0.12 66.58 0.97 C 71.11 2.77 73.60 7.44 74.81 11.91 C 76.96 20.74 77.38 29.93 76.56 38.96 C 75.90 41.70 75.54 45.48 72.51 46.64 C 69.64 47.41 67.91 44.35 66.50 42.41 C 62.12 35.29 58.57 27.59 56.36 19.51 C 54.98 15.20 53.30 10.65 54.45 6.08 C 55.27 4.15 56.65 2.41 58.46 1.34 Z"></path><path fill="#f26622" opacity="1.00" d=" M 19.07 15.12 C 22.94 13.57 27.18 14.95 30.63 16.88 C 35.65 19.90 39.35 24.57 42.99 29.05 C 47.32 34.29 50.83 40.14 53.99 46.14 C 55.46 48.97 55.76 52.19 56.55 55.23 C 55.60 56.50 54.48 57.63 53.28 58.67 C 48.90 58.89 45.14 56.41 41.42 54.46 C 34.80 50.27 28.00 46.22 22.37 40.71 C 17.66 36.42 10.62 32.26 11.07 24.98 C 10.67 20.14 14.81 16.44 19.07 15.12 Z"></path><path fill="#f26622" opacity="1.00" d=" M 13.43 65.43 C 21.94 64.88 30.51 66.10 38.74 68.25 C 41.90 69.08 44.93 70.53 47.45 72.63 C 48.60 74.70 47.61 77.30 45.50 78.27 C 38.88 81.69 31.40 83.00 24.15 84.40 C 18.72 84.60 13.33 86.14 7.89 85.34 C 2.78 84.40 -1.01 78.67 1.19 73.70 C 2.83 68.49 8.32 65.85 13.43 65.43 Z"></path></g></svg>