<svg xmlns="http://www.w3.org/2000/svg" viewBox="0 0 69.67 91.24"><g id="Layer_2" data-name="Layer 2"><g id="Layer_1-2" data-name="Layer 1"><g id="_f26622ff" data-name="#f26622ff"><path d="M69.52,79c.57,2.78-.56,5.6-2.18,7.83-3.13,3.73-8.35,4.64-13,4.39a82.93,82.93,0,0,1-26.24-6.8c-2.4-1.49-5.87-3-6-6.25.17-3,3.62-3.65,5.9-4.39A88.59,88.59,0,0,1,52.92,71.3c4.53,0,9.38-.14,13.36,2.39A10,10,0,0,1,69.52,79Z" style="fill:#f26622"></path><path d="M68.76,37.25C69,41.41,66.38,45,63.47,47.68c-4.44,3.83-10,5.88-15.42,7.93a99.07,99.07,0,0,1-19.68,5.11c-3.15.51-6.3-.22-9.43-.42a22.42,22.42,0,0,1-2.25-4.18c1.17-4.23,4.7-7,7.71-9.95,6.05-5,12-10.17,19-13.79,5.55-3.13,11.7-8.51,18.48-5.81C66.62,27.7,68.84,32.79,68.76,37.25Z" style="fill:#f26622"></path><path d="M22.74,16.16a80,80,0,0,1-10.6,23.15,22.57,22.57,0,0,1-6.88,6.91A4.1,4.1,0,0,1,.51,42.6c-1.18-7.36-.08-14.87.86-22.2C2.88,15.18,3.1,9.58,5.56,4.67,8.06.11,14.68-1.7,18.72,1.94,23.15,5.13,23.94,11.17,22.74,16.16Z" style="fill:#f26622"></path></g></g></g></svg>