<svg xmlns="http://www.w3.org/2000/svg" viewBox="0 0 94 94"><defs><style>.cls-1{fill:#fff;}.cls-2{fill:#1bda5f;}.cls-3{fill:#f26622;}</style></defs><g id="Layer_2" data-name="Layer 2"><g id="Layer_1-2" data-name="Layer 1"><circle class="cls-1" cx="47" cy="47" r="47"></circle><circle class="cls-1" cx="82.96" cy="17.57" r="7.11"></circle><path class="cls-2" d="M82.49,29.32A11.5,11.5,0,1,0,71,17.82,11.5,11.5,0,0,0,82.49,29.32Zm5.07-13.61-5.75,5.75a1.07,1.07,0,0,1-1.52,0l-2.88-2.88a1.07,1.07,0,0,1,0-1.52,1.09,1.09,0,0,1,1.53,0l2.11,2.11,5-5a1.09,1.09,0,0,1,1.53,0,1.07,1.07,0,0,1,0,1.52Z"></path><g id="_f78802ff" data-name="#f78802ff"><path class="cls-3" d="M40.79,16.11A28.23,28.23,0,0,1,45,16,16.5,16.5,0,0,1,61.08,31.49a3.62,3.62,0,0,1,2.62,3.28c0,1.11,0,2.22,0,3.34a3.76,3.76,0,0,1-2.32,3.59v6H54.11a24.63,24.63,0,0,1-1.92,2.52,12.81,12.81,0,0,0,6.78,7v-.91c.81-.14,1.62-.26,2.43-.41a9.7,9.7,0,0,1,.9-2.33l-1.4-2q1.5-1.52,3-3l2,1.41A9,9,0,0,1,68.16,49c.14-.8.27-1.6.41-2.41,1.37,0,2.75,0,4.13,0,.17.8.33,1.61.51,2.42a11,11,0,0,1,2.33.89c.69-.45,1.34-.94,2-1.4l2.91,2.93-1.41,2A9,9,0,0,1,80,55.64l2.13.44v4.25L80,60.69c-.22.85-.53,1.68-.81,2.52l1.42,2-2.93,2.91-2-1.41a8.8,8.8,0,0,1-2.23.91c-.14.81-.27,1.62-.41,2.42H71.89a27.45,27.45,0,0,1,.21,4.25H16.44a19.26,19.26,0,0,1,1.1-7.9,9.85,9.85,0,0,1,2.88-3.84,23.14,23.14,0,0,1,4-2.36,33.54,33.54,0,0,0,8-4.82,14.43,14.43,0,0,0,3.71-5.11,15.07,15.07,0,0,1-3.39-5.55,13,13,0,0,1-.63-3.67c-.3-3.5-.5-7-.74-10.53a14.93,14.93,0,0,1,.38-5,4.23,4.23,0,0,1,1.79-2.36A10.8,10.8,0,0,1,36.73,22,22.81,22.81,0,0,1,44,20.79a27.61,27.61,0,0,1,7.18,1,10.78,10.78,0,0,1,1.3.35,7.06,7.06,0,0,1,3.29,1.75,5.39,5.39,0,0,1,1.16,2.78,28.93,28.93,0,0,1,0,6.17c-.19,2.78-.36,5.56-.59,8.34-.07.73-.13,1.45-.24,2.18a13.24,13.24,0,0,1-1,2.87h5V42.09H57.76V31.5h2A15,15,0,0,0,45.55,17.57a21.17,21.17,0,0,0-5.39.32,15,15,0,0,0-8.68,5.51,15.15,15.15,0,0,0-3.12,8.1h2.21V42.09c-.91,0-1.81,0-2.72,0a3.78,3.78,0,0,1-3.52-3.59c0-1.23,0-2.46,0-3.7a3.55,3.55,0,0,1,2.31-3.19A16.57,16.57,0,0,1,40.79,16.11m-3.38,7a13.8,13.8,0,0,0-2.64.86,3,3,0,0,0-1.71,1.65,11,11,0,0,0-.37,4.24,7.18,7.18,0,0,1,1.7-1.41,5.87,5.87,0,0,1,4-.58,23.33,23.33,0,0,1,4.07,1.25,12.64,12.64,0,0,0,9.25.51,4,4,0,0,1,3.73.93,18.33,18.33,0,0,0-.1-3.92,3.37,3.37,0,0,0-1.23-2.24,13.48,13.48,0,0,0-3.67-1.35,24,24,0,0,0-13,.06M34,30.86a4.46,4.46,0,0,0-1,2.87c.25,3.09.48,6.17.73,9.26a7.74,7.74,0,0,0,.71,2.18,12.27,12.27,0,0,0,5.53,6.16,9.38,9.38,0,0,0,6.28.62,10.51,10.51,0,0,0,6.13-4.5h-3v1.82h-8V44.13h8v1.81c1.29,0,2.57,0,3.86,0a9.54,9.54,0,0,0,1.19-3.48c.24-2.91.48-5.83.7-8.74a3.46,3.46,0,0,0-.76-2,2.25,2.25,0,0,0-1.61-.66,4.82,4.82,0,0,0-1.44.31,14.43,14.43,0,0,1-8.18-.32A21.87,21.87,0,0,0,38,29.36a4.33,4.33,0,0,0-4,1.5m-7.1,2.28A2.05,2.05,0,0,0,25.74,35c0,1.16,0,2.31,0,3.47a2.05,2.05,0,0,0,1.19,1.81,5.08,5.08,0,0,0,1.94.19c0-2.53,0-5.05,0-7.58a4.47,4.47,0,0,0-2,.23m32.22,7.35A5.12,5.12,0,0,0,61,40.31a2.07,2.07,0,0,0,1.22-1.82c0-1.15,0-2.31,0-3.47a2.11,2.11,0,0,0-1.07-1.85,4.14,4.14,0,0,0-2.07-.26c0,2.53,0,5.05,0,7.58M42.9,45.83V48h5V45.83h-5m26.47,4.24a8.1,8.1,0,0,0-3.64,1.52l-1.82-1.21c-.36.41-.75.81-1.11,1.22l1.31,1.81a9.15,9.15,0,0,0-1.52,3.64l-2.11.4v1.63l2.11.39a8.17,8.17,0,0,0,1.52,3.64L62.9,64.93,64,66l1.82-1.21a9.69,9.69,0,0,0,3.54,1.51c.13.71.27,1.41.4,2.12H71.4c.13-.7.27-1.4.4-2.11a9.43,9.43,0,0,0,3.73-1.51c.58.43,1.15.87,1.72,1.31l1.12-1.22L77.16,63a7.89,7.89,0,0,0,1.35-2.87,5.32,5.32,0,0,1,.25-.77l2.13-.4c0-.55,0-1.09,0-1.63l-2.12-.41a8,8,0,0,0-1.51-3.63l1.21-1.82-1.22-1.11-1.82,1.21a8.06,8.06,0,0,0-3.63-1.52c-.14-.7-.27-1.41-.41-2.12H69.77c-.13.71-.27,1.42-.4,2.12M37.14,51.29c-.47.86-1,1.72-1.51,2.53,1.58.93,3.15,1.9,4.74,2.81q3.65,0,7.29,0c1.67-.91,3.3-1.88,5-2.81a22.42,22.42,0,0,1-1.42-2.53A11,11,0,0,1,44.4,53.9a11.25,11.25,0,0,1-7.26-2.61M32.6,56.85A44.56,44.56,0,0,0,40,66c.27-1.69.65-3.38.88-5.09-.41-1-.86-2-1.3-3L34.63,55c-.69.6-1.3,1.28-2,1.83m16.16.88a.59.59,0,0,0-.3.34c-.39.93-.81,1.85-1.19,2.78.23,1.71.6,3.4.88,5.11a12.37,12.37,0,0,0,1.57-1.5,43.79,43.79,0,0,0,5.72-7.61,8.83,8.83,0,0,1-1.93-1.93l-4.75,2.81M49,67.36a28.18,28.18,0,0,1-4.9,3.73,18.49,18.49,0,0,1-2.81-1.94,45.61,45.61,0,0,1-9.82-11.4c-3,2.17-6.53,3.39-9.64,5.38A8,8,0,0,0,19.16,66a12.86,12.86,0,0,0-1.41,6.63q26.31,0,52.63,0c0-.91,0-1.82,0-2.73h-1.6c-.17-.8-.34-1.61-.5-2.42a9.8,9.8,0,0,1-2.34-.91l-2,1.41c-1-1-2-2-2.92-2.92l1.41-2a9,9,0,0,1-.92-2.23c-.81-.13-1.61-.28-2.41-.4,0-.54,0-1.07,0-1.61a10.11,10.11,0,0,1-2.33-1A48.08,48.08,0,0,1,49,67.36m-7.73-9.2c.26.65.54,1.29.81,1.93h3.84l.81-1.93H41.29m1,3.42c-.34,1.89-.68,3.79-1,5.68A19.36,19.36,0,0,0,44,69.38a23.61,23.61,0,0,0,2.83-2.14c-.34-1.88-.67-3.77-1-5.66Z"></path><path class="cls-3" d="M69.69,53a5.3,5.3,0,0,1,6,3.64,5.56,5.56,0,0,1-.73,4.54,5.24,5.24,0,0,1-9.5-2,5.35,5.35,0,0,1,.85-3.91A5.49,5.49,0,0,1,69.69,53m.16,1.6A3.72,3.72,0,0,0,67,59a3.89,3.89,0,0,0,3.73,3,3.83,3.83,0,0,0,3.71-3.24A3.74,3.74,0,0,0,73,55.31,3.82,3.82,0,0,0,69.85,54.6Z"></path></g></g></g></svg>