<svg xmlns="http://www.w3.org/2000/svg" viewBox="0 0 94 94"><defs><style>.cls-1{fill:#fff;}.cls-2{fill:#d80909;}.cls-3{fill:#8e8d8d;}</style></defs><g id="Layer_2" data-name="Layer 2"><g id="Layer_1-2" data-name="Layer 1"><circle class="cls-1" cx="47" cy="47" r="47"></circle><circle class="cls-1" cx="82.96" cy="17.57" r="7.11"></circle><path class="cls-2" d="M82.49,29.32A11.5,11.5,0,1,0,71,17.82,11.5,11.5,0,0,0,82.49,29.32ZM78.85,14.18a1.07,1.07,0,0,1,1.52,0l2.11,2.11,2.11-2.11a1.07,1.07,0,0,1,1.52,1.52L84,17.81l2.11,2.12a1.06,1.06,0,0,1,0,1.52,1.07,1.07,0,0,1-1.52,0l-2.11-2.11-2.11,2.11a1.07,1.07,0,0,1-1.52-1.52L81,17.81,78.85,15.7A1.06,1.06,0,0,1,78.85,14.18Z"></path><g id="_f78802ff" data-name="#f78802ff"><path class="cls-3" d="M44.08,19.2A25.66,25.66,0,0,1,48,19.05a15.24,15.24,0,0,1,9.45,3.55A15.4,15.4,0,0,1,63,33.5a3.34,3.34,0,0,1,2.43,3c0,1,0,2.07,0,3.1A3.5,3.5,0,0,1,63.23,43v5.54H56.46a21.21,21.21,0,0,1-1.78,2.34A11.86,11.86,0,0,0,61,57.36v-.84l2.26-.38A9.38,9.38,0,0,1,64.08,54L62.77,52.1c.94-.94,1.88-1.87,2.81-2.81l1.88,1.31a8.51,8.51,0,0,1,2.07-.85c.13-.74.25-1.49.37-2.24h3.85c.15.75.31,1.5.47,2.25a10.53,10.53,0,0,1,2.17.82c.64-.41,1.24-.87,1.87-1.29.9.91,1.82,1.81,2.72,2.72l-1.32,1.87A8.14,8.14,0,0,1,80.51,56l2,.41v4l-2,.34c-.2.79-.48,1.56-.74,2.34.43.63.88,1.25,1.31,1.88-.91.91-1.81,1.82-2.72,2.72l-1.87-1.32a8.44,8.44,0,0,1-2.07.85c-.13.75-.25,1.5-.38,2.25H73a26.07,26.07,0,0,1,.19,3.95H21.44a17.77,17.77,0,0,1,1-7.34,9.17,9.17,0,0,1,2.67-3.58,21.53,21.53,0,0,1,3.74-2.19,31.61,31.61,0,0,0,7.44-4.48A13.32,13.32,0,0,0,39.76,51a14,14,0,0,1-3.15-5.15A12.7,12.7,0,0,1,36,42.41c-.27-3.26-.46-6.53-.68-9.79a13.65,13.65,0,0,1,.36-4.68,3.81,3.81,0,0,1,1.66-2.19,9.61,9.61,0,0,1,3-1.09,21.25,21.25,0,0,1,6.77-1.11,25.52,25.52,0,0,1,6.67.95,9.81,9.81,0,0,1,1.21.33,6.46,6.46,0,0,1,3,1.62A4.91,4.91,0,0,1,59.09,29a26.86,26.86,0,0,1,0,5.74c-.18,2.58-.34,5.17-.55,7.75-.07.68-.12,1.36-.23,2a11.45,11.45,0,0,1-.88,2.67H62c0-1.29,0-2.58,0-3.86H59.86V33.51h1.88A14,14,0,0,0,48.51,20.56a19.64,19.64,0,0,0-5,.29,14.06,14.06,0,0,0-11,12.66h2.06v9.85c-.84,0-1.69,0-2.53,0A3.52,3.52,0,0,1,28.78,40c0-1.15,0-2.3,0-3.44a3.29,3.29,0,0,1,2.15-3,15.2,15.2,0,0,1,4.41-10,15.42,15.42,0,0,1,8.74-4.42m-3.14,6.53a12.29,12.29,0,0,0-2.45.79,2.85,2.85,0,0,0-1.6,1.54A10.24,10.24,0,0,0,36.55,32a6.61,6.61,0,0,1,1.58-1.31,5.47,5.47,0,0,1,3.7-.54,21.56,21.56,0,0,1,3.79,1.16,11.79,11.79,0,0,0,8.6.48,3.68,3.68,0,0,1,3.47.86,16.52,16.52,0,0,0-.1-3.65,3.07,3.07,0,0,0-1.13-2.07A12.23,12.23,0,0,0,53,25.67a22.21,22.21,0,0,0-12.1.06m-3.22,7.18a4.12,4.12,0,0,0-.95,2.67c.23,2.87.44,5.74.68,8.61a7.31,7.31,0,0,0,.66,2,11.35,11.35,0,0,0,5.14,5.72,8.66,8.66,0,0,0,5.84.58,9.78,9.78,0,0,0,5.7-4.18H52.05V50H44.64V45.25h7.41v1.69h3.58a8.69,8.69,0,0,0,1.12-3.24c.22-2.71.44-5.42.64-8.13a3.24,3.24,0,0,0-.7-1.84,2.19,2.19,0,0,0-1.5-.62,5,5,0,0,0-1.33.29,13.33,13.33,0,0,1-7.61-.3,20.86,20.86,0,0,0-4.79-1.58,4,4,0,0,0-3.74,1.39M31.12,35a1.92,1.92,0,0,0-1,1.75c0,1.07,0,2.15,0,3.22a1.91,1.91,0,0,0,1.1,1.69,4.6,4.6,0,0,0,1.81.17v-7a4.12,4.12,0,0,0-1.88.21m30,6.83a4.64,4.64,0,0,0,1.78-.16A1.94,1.94,0,0,0,64,40c0-1.08,0-2.15,0-3.23a2,2,0,0,0-1-1.72,3.93,3.93,0,0,0-1.93-.24v7m-15,5v2h4.61v-2H46m24.61,4a7.48,7.48,0,0,0-3.38,1.4l-1.69-1.12c-.34.38-.7.75-1,1.14l1.22,1.68a8.39,8.39,0,0,0-1.41,3.39c-.66.11-1.31.24-2,.36v1.52l2,.37a7.61,7.61,0,0,0,1.41,3.38c-.37.57-.75,1.12-1.12,1.69l1,1,1.69-1.13a8.93,8.93,0,0,0,3.29,1.41c.12.65.25,1.31.37,2h1.52c.12-.65.25-1.31.37-2a8.78,8.78,0,0,0,3.47-1.41c.54.4,1.07.82,1.6,1.22.34-.38.69-.75,1-1.13l-1.13-1.69a7.21,7.21,0,0,0,1.26-2.67,3.71,3.71,0,0,1,.24-.71l2-.37V57.54l-2-.38A7.45,7.45,0,0,0,78,53.79c.37-.57.75-1.13,1.12-1.69l-1.13-1-1.69,1.12a7.48,7.48,0,0,0-3.38-1.4c-.12-.66-.25-1.32-.38-2H71c-.12.66-.25,1.32-.37,2m-30,1.13a26.56,26.56,0,0,1-1.41,2.35c1.47.87,2.93,1.77,4.41,2.61q3.39,0,6.78,0c1.55-.85,3.06-1.75,4.6-2.62a20.8,20.8,0,0,1-1.32-2.35,10.28,10.28,0,0,1-6.31,2.43,10.44,10.44,0,0,1-6.75-2.43m-4.23,5.17a42.27,42.27,0,0,0,6.87,8.55c.26-1.58.61-3.15.82-4.74C43.77,60,43.35,59,43,58.1l-4.6-2.72c-.64.55-1.21,1.19-1.89,1.7m15,.82a.54.54,0,0,0-.28.31c-.36.87-.75,1.72-1.11,2.59.22,1.59.56,3.16.83,4.74a10.57,10.57,0,0,0,1.45-1.39,40.27,40.27,0,0,0,5.32-7.07,8.68,8.68,0,0,1-1.79-1.79L51.49,57.9m.24,8.95a26,26,0,0,1-4.55,3.47,17.45,17.45,0,0,1-2.62-1.81,42.28,42.28,0,0,1-9.12-10.6c-2.79,2-6.08,3.16-9,5A7.5,7.5,0,0,0,24,65.55a12.09,12.09,0,0,0-1.32,6.18H71.59c0-.85,0-1.7,0-2.55H70.1c-.17-.75-.32-1.5-.47-2.25a9.21,9.21,0,0,1-2.17-.84L65.58,67.4l-2.71-2.72c.44-.62.87-1.25,1.31-1.88a8.71,8.71,0,0,1-.86-2.07c-.75-.12-1.49-.26-2.24-.37v-1.5a9.43,9.43,0,0,1-2.16-.94,45.14,45.14,0,0,1-7.19,8.93M44.54,58.3l.75,1.79h3.58l.75-1.79H44.54m.94,3.18q-.48,2.64-.94,5.27a18.63,18.63,0,0,0,2.54,2,23.09,23.09,0,0,0,2.64-2c-.32-1.75-.63-3.51-.95-5.26Z"></path><path class="cls-3" d="M71,53.49a4.93,4.93,0,0,1,5.53,3.4,5.16,5.16,0,0,1-.68,4.22,4.87,4.87,0,0,1-3,2,4.8,4.8,0,0,1-3.72-.7A4.87,4.87,0,0,1,67,59.21a5,5,0,0,1,.79-3.63A5.15,5.15,0,0,1,71,53.49M71.1,55a3.45,3.45,0,0,0-2.7,4.09,3.6,3.6,0,0,0,3.47,2.79,3.56,3.56,0,0,0,3.45-3A3.48,3.48,0,0,0,71.1,55Z"></path></g></g></g></svg>