<svg xmlns="http://www.w3.org/2000/svg" id="Layer_1" data-name="Layer 1" viewBox="0 0 768 268"><path d="M752.14,299.55c-37.13-.05-74.28.08-111.42-.08-62.48-1.59-125-.1-187.44.11-66.16,2.62-132.38,1.18-198.57,1.57-95.76-1.46-191.52-8.69-287.31-4.5M-96.31,299l-2.64.35c-42.09,2.77-84.23-1.09-126-5.66V251.47c22.85,1.77,45.77,2.83,68.68,3.71,13.34,1.29,26.74,1,40.1,1.58,20.59,1.44,41.27,1.41,61.91,1,13.27.31,26.55.43,39.83-.13,2.58,0,5.15.08,7.73.15,8,.17,16-.1,23.94-.39l5-.17c5.23-.26,10.48-.34,15.73-.42,16.26-.62,32.48-2.32,48.76-2.08,61.39-2,122.86-1.33,184.19,1.6,21-.22,41.95,1.94,63,1.65,41.59.46,83.16-1.18,124.67-3.31,17.22-2,34.6-1.23,51.85-2.83,20.3-.32,40.6-.63,60.9-.72,22.71.81,45.46,0,68.16.89,23.55,1.62,47.17,1.11,70.75,1.19,16.13-.08,32.28.22,48.42-.42,21-1.14,42.07-.19,63-1.92,32.87-.75,141.94,2,174.81,2.19-5.17,6.61-22.79,13.15-22.21,22-.43,8.22-44.55,13.18-39.37,19-2.48,0-19.68.17-22.15.19-4.28-4.6,8.43-.65,2-.19-7.64-.38-32.58-3.06-38.3,1.32" style="fill:#4e2b01"></path><g style="opacity:0.8"><path d="M950.55,296.31c-45.59-.05-91.19.09-136.79-.09-76.7-1.76-153.41-.1-230.1.13-81.22,2.92-162.51,1.32-243.76,1.75-117.56-1.63-235.12-9.69-352.71-5M-91,295.67l-3.26.39c-51.67,3.09-103.4-1.21-154.73-6.31V242.7c28.06,2,56.19,3.16,84.31,4.14,16.37,1.44,32.83,1.09,49.23,1.76,25.28,1.61,50.66,1.57,76,1.08,16.3.33,32.59.48,48.89-.15,3.17,0,6.33.09,9.5.16,9.79.2,19.59-.1,29.38-.43l6.15-.19c6.42-.29,12.87-.38,19.31-.47,20-.69,34.24-3.87,54.23-3.6,28.26-.85,47.69,0,77,0,30.54,0,70.83-.48,101,0,18.09.29,36.36,1.23,54,2,25.8-.25,51.24,3.23,77,2.91,51.06.51,102.1-1.32,153.05-3.7,21.14-2.26,42.47-1.37,63.65-3.15,24.92-.36,49.84-.7,74.77-.81,27.88.91,55.79,0,83.67,1,28.91,1.8,57.9,1.23,86.85,1.32,19.8-.09,39.63.25,59.44-.46,25.79-1.27,51.65-.22,77.4-2.14,40.35-.84,174.25,2.24,214.6,2.44-6.35,7.37-28,14.67-27.26,24.53-.54,9.17-54.7,14.7-48.33,21.19-3.06,0-24.16.19-27.2.21-5.25-5.12,10.34-.73,2.41-.21-9.38-.43-40-3.42-47,1.47" style="fill:#4e2b01"></path></g><path d="M95.5,161.94s-.12,4.13,0,5.15l-1.16,54.85h6.32l-1.42-60.19a122.93,122.93,0,0,1,26-9.11l-1.14-2c2,.61,10.11-1.58,10.11-1.58a15.22,15.22,0,0,1-1.87-2.79c2.52,1.52,10.16-3.16,10.16-3.16-1.18-.28-2.65-2.49-2.65-2.49,4.16.95,10-2.78,10-2.78a27.35,27.35,0,0,1-1.61-2.65c3,.18,7.2-4.28,7.2-4.28l-2.25-2.46c2.88,0,7.65-4.41,7.65-4.41a10.8,10.8,0,0,1-3.19-2.33c2.19-.25,6.28-4.47,6.28-4.47a8.7,8.7,0,0,1-3.13-1.66c2.11-.61,5.44-4.93,5.44-4.93a15.08,15.08,0,0,1-3-1c2.9-.83,6.41-6.77,6.41-6.77l-1.56-.55c2.75-1.85,6.09-7.67,6.78-8.91l.19-.17-.11.05.06-.12-.19.17c-1.33.51-7.56,3-9.76,5.5l-.33-1.63s-6.37,2.67-7.6,5.43a16.35,16.35,0,0,1-.58-3.15s-4.72,2.7-5.63,4.7a8.67,8.67,0,0,1-1.21-3.33s-4.74,3.48-5.29,5.62a10.7,10.7,0,0,1-1.87-3.48s-5.05,4.11-5.42,7L135,107.4s-5,3.53-5.24,6.55a28.74,28.74,0,0,1-2.4-2s-4.49,5.22-4.12,9.47c0,0-2-1.76-2.1-3,0,0-5.69,6.92-4.52,9.63a15.76,15.76,0,0,1-2.51-2.23s-3.29,7.74-3,9.8l-1.53-1.19c1.18-2.38,2-3.77,2-3.77l-2.71-.54c2.13-1.32,6.54-10.42,6.54-10.42a19.54,19.54,0,0,1-4-.5c3.38-1.08,5.17-11.71,5.17-11.71-1.19.85-4.35.43-4.35.43,4.15-3,5.33-11.21,5.33-11.21a33.64,33.64,0,0,1-3.67-.63c2.55-2.59,1.8-9.91,1.8-9.91l-4,.1c2.3-2.59,2-10.41,2-10.41A13,13,0,0,1,109,77c1.5-2.19.91-9.23.91-9.23a10.34,10.34,0,0,1-4,1.53c1.1-2.4-.18-8.82-.18-8.82a18.83,18.83,0,0,1-3.31,2c1.52-3.3-1.09-11.17-1.09-11.17l-1.73,1c.5-3.94-2.14-11.57-2.72-13.18v-.31a.69.69,0,0,1,0,.15,1.26,1.26,0,0,0-.06-.15v.31c-.57,1.61-3.21,9.24-2.71,13.18l-1.74-1s-2.61,7.87-1.08,11.17a18.83,18.83,0,0,1-3.31-2s-1.28,6.42-.18,8.82a10.34,10.34,0,0,1-4-1.53s-.6,7,.91,9.23a13,13,0,0,1-4.63-1s-.26,7.82,2,10.41l-4-.1s-.75,7.32,1.8,9.91a33.42,33.42,0,0,1-3.66.63S77.47,105,81.62,108c0,0-3.17.42-4.35-.43,0,0,1.78,10.63,5.17,11.71a19.57,19.57,0,0,1-4,.5s4.42,9.1,6.55,10.42l-2.71.54s.77,1.39,1.95,3.77l-1.54,1.19c.33-2.06-3-9.8-3-9.8a15.76,15.76,0,0,1-2.51,2.23c1.17-2.71-4.52-9.63-4.52-9.63-.11,1.21-2.1,3-2.1,3,.36-4.25-4.12-9.47-4.12-9.47a28.74,28.74,0,0,1-2.4,2c-.24-3-5.23-6.55-5.23-6.55L56.7,110c-.37-2.86-5.42-7-5.42-7a10.7,10.7,0,0,1-1.87,3.48c-.55-2.14-5.29-5.62-5.29-5.62a8.67,8.67,0,0,1-1.21,3.33c-.9-2-5.63-4.7-5.63-4.7a16,16,0,0,1-.59,3.15c-1.22-2.76-7.59-5.43-7.59-5.43l-.33,1.63c-2.2-2.47-8.43-5-9.75-5.5l-.2-.17a.86.86,0,0,1,.07.12l-.12-.05.18.17c.7,1.24,4,7.06,6.79,8.91l-1.56.55s3.51,5.94,6.42,6.77a15.35,15.35,0,0,1-3,1S30.88,115,33,115.58a8.7,8.7,0,0,1-3.13,1.66s4.09,4.22,6.29,4.47A10.8,10.8,0,0,1,33,124s4.76,4.44,7.64,4.41l-2.25,2.46s4.18,4.46,7.21,4.28a29.87,29.87,0,0,1-1.62,2.65s5.79,3.73,10,2.78c0,0-1.47,2.21-2.65,2.49,0,0,7.64,4.68,10.17,3.16a16,16,0,0,1-1.88,2.79s8.13,2.19,10.11,1.58l-1.14,2s14.94,3.18,27,9.3" style="fill:#3e5225"></path><path d="M498.73,223.81s-.05,1.94,0,2.42l-.54,25.7h3l-.67-28.21a57.56,57.56,0,0,1,12.18-4.27l-.54-.94c.94.29,4.74-.74,4.74-.74a7.07,7.07,0,0,1-.87-1.31c1.18.72,4.76-1.48,4.76-1.48-.56-.13-1.24-1.16-1.24-1.16,2,.44,4.66-1.31,4.66-1.31a13.68,13.68,0,0,1-.75-1.24c1.41.09,3.37-2,3.37-2l-1.05-1.15c1.35,0,3.58-2.06,3.58-2.06a5.08,5.08,0,0,1-1.49-1.1c1-.12,2.94-2.09,2.94-2.09a4.11,4.11,0,0,1-1.46-.78c1-.29,2.54-2.31,2.54-2.31a7.22,7.22,0,0,1-1.42-.47c1.36-.4,3-3.18,3-3.18l-.73-.26c1.29-.86,2.86-3.59,3.18-4.17l.09-.08,0,0a.14.14,0,0,1,0,0l-.09.07c-.63.25-3.54,1.42-4.58,2.58l-.15-.76s-3,1.25-3.56,2.54a7.62,7.62,0,0,1-.28-1.47s-2.21,1.26-2.63,2.2a3.94,3.94,0,0,1-.57-1.56s-2.22,1.63-2.48,2.64a5.14,5.14,0,0,1-.88-1.64s-2.36,1.93-2.54,3.27l-1-1.2s-2.35,1.65-2.46,3.06a13.69,13.69,0,0,1-1.12-.91s-2.11,2.44-1.93,4.43c0,0-.94-.82-1-1.38,0,0-2.67,3.24-2.12,4.51a7.68,7.68,0,0,1-1.17-1.05s-1.55,3.63-1.39,4.6l-.72-.56c.55-1.12.92-1.77.92-1.77l-1.28-.25c1-.62,3.07-4.88,3.07-4.88a9.21,9.21,0,0,1-1.88-.24c1.59-.51,2.42-5.49,2.42-5.49a3.91,3.91,0,0,1-2,.2c1.94-1.41,2.49-5.25,2.49-5.25a16.72,16.72,0,0,1-1.72-.3c1.2-1.21.85-4.64.85-4.64l-1.88,0c1.08-1.22,1-4.89,1-4.89a6,6,0,0,1-2.17.5c.7-1,.42-4.33.42-4.33a4.93,4.93,0,0,1-1.86.72c.52-1.13-.08-4.14-.08-4.14a8.54,8.54,0,0,1-1.55.92c.71-1.55-.51-5.23-.51-5.23l-.81.46c.23-1.85-1-5.43-1.28-6.18v-.15l0,.07,0-.07v.15c-.27.75-1.51,4.33-1.27,6.18l-.81-.46s-1.23,3.68-.51,5.23a8.54,8.54,0,0,1-1.55-.92s-.6,3-.09,4.14a4.93,4.93,0,0,1-1.86-.72s-.28,3.3.43,4.33a6,6,0,0,1-2.17-.5s-.13,3.67,1,4.89l-1.87,0s-.36,3.43.84,4.64a16.25,16.25,0,0,1-1.72.3s.55,3.84,2.5,5.25a4,4,0,0,1-2-.2s.84,5,2.42,5.49a9.1,9.1,0,0,1-1.88.24s2.07,4.26,3.07,4.88l-1.27.25s.36.65.91,1.77l-.72.56c.16-1-1.39-4.6-1.39-4.6a7.68,7.68,0,0,1-1.17,1.05c.54-1.27-2.12-4.51-2.12-4.51-.05.56-1,1.38-1,1.38.18-2-1.93-4.43-1.93-4.43a13.69,13.69,0,0,1-1.12.91c-.11-1.41-2.45-3.06-2.45-3.06l-1,1.2c-.17-1.34-2.54-3.27-2.54-3.27a5.14,5.14,0,0,1-.88,1.64c-.26-1-2.48-2.64-2.48-2.64a3.94,3.94,0,0,1-.57,1.56c-.42-.94-2.63-2.2-2.63-2.2a7.62,7.62,0,0,1-.28,1.47c-.57-1.29-3.56-2.54-3.56-2.54l-.15.76c-1-1.16-3.95-2.33-4.57-2.58l-.1-.07,0,0-.06,0,.09.08c.32.58,1.89,3.31,3.18,4.17l-.73.26s1.64,2.78,3,3.18a7.22,7.22,0,0,1-1.42.47s1.56,2,2.55,2.31a4.2,4.2,0,0,1-1.47.78s1.92,2,2.95,2.09a5.18,5.18,0,0,1-1.5,1.1s2.23,2.08,3.58,2.06L472,209.26s2,2.1,3.38,2a14,14,0,0,1-.76,1.24s2.71,1.75,4.66,1.31c0,0-.69,1-1.24,1.16,0,0,3.58,2.2,4.76,1.48a6.57,6.57,0,0,1-.87,1.31s3.8,1,4.74.74l-.54.94a60.16,60.16,0,0,1,12.65,4.36" style="fill:#3e5225"></path><path d="M640.93,224.26a16.63,16.63,0,0,0,0,1.69l-.38,18h2.07l-.47-19.73a40.17,40.17,0,0,1,8.52-3l-.37-.66c.65.21,3.31-.51,3.31-.51a5.31,5.31,0,0,1-.61-.92c.83.5,3.33-1,3.33-1-.39-.09-.87-.81-.87-.81,1.37.31,3.26-.91,3.26-.91s-.52-.87-.52-.87c1,.06,2.36-1.41,2.36-1.41l-.74-.8c.95,0,2.51-1.45,2.51-1.45a3.62,3.62,0,0,1-1.05-.76c.72-.09,2.06-1.47,2.06-1.47a2.88,2.88,0,0,1-1-.54c.69-.2,1.78-1.62,1.78-1.62a5.23,5.23,0,0,1-1-.33c1-.27,2.11-2.22,2.11-2.22l-.52-.18a11,11,0,0,0,2.23-2.92l.06-.06,0,0,0,0-.06,0a10.81,10.81,0,0,0-3.2,1.81l-.11-.54s-2.09.88-2.49,1.78a5.05,5.05,0,0,1-.19-1s-1.55.89-1.85,1.54a2.83,2.83,0,0,1-.39-1.09s-1.56,1.14-1.74,1.84a3.5,3.5,0,0,1-.61-1.14s-1.66,1.35-1.78,2.29l-.69-.84s-1.64,1.15-1.72,2.14c0,0-.73-.55-.79-.64s-1.47,1.71-1.35,3.1c0,0-.65-.57-.69-1,0,0-1.86,2.27-1.48,3.16a5.17,5.17,0,0,1-.82-.73,12.36,12.36,0,0,0-1,3.21l-.51-.39c.39-.78.64-1.24.64-1.24l-.88-.17c.69-.44,2.14-3.42,2.14-3.42a6.36,6.36,0,0,1-1.31-.16c1.1-.36,1.69-3.84,1.69-3.84a2.77,2.77,0,0,1-1.43.14c1.36-1,1.75-3.68,1.75-3.68a11.94,11.94,0,0,1-1.2-.2c.84-.85.59-3.25.59-3.25l-1.31,0c.75-.85.67-3.42.67-3.42a4.15,4.15,0,0,1-1.52.35c.49-.72.3-3,.3-3a3.31,3.31,0,0,1-1.31.5,7.18,7.18,0,0,0-.06-2.89,5.75,5.75,0,0,1-1.08.64c.5-1.08-.36-3.66-.36-3.66l-.57.32a12.75,12.75,0,0,0-.89-4.32v-.1a.18.18,0,0,1,0,0l0,0v.1a12.75,12.75,0,0,0-.89,4.32l-.57-.32s-.86,2.58-.36,3.66a6.1,6.1,0,0,1-1.08-.64,7.18,7.18,0,0,0-.06,2.89,3.24,3.24,0,0,1-1.3-.5s-.2,2.31.3,3a4.12,4.12,0,0,1-1.52-.35s-.09,2.57.67,3.42l-1.32,0s-.24,2.4.59,3.25a11.94,11.94,0,0,1-1.2.2s.39,2.69,1.75,3.68a2.77,2.77,0,0,1-1.43-.14s.59,3.48,1.7,3.84a6.49,6.49,0,0,1-1.32.16s1.45,3,2.15,3.42l-.89.17s.25.46.64,1.24l-.51.39a12.36,12.36,0,0,0-1-3.21,5.17,5.17,0,0,1-.82.73c.38-.89-1.48-3.16-1.48-3.16,0,.4-.69,1-.69,1,.12-1.39-1.35-3.1-1.35-3.1s-.79.64-.79.64c-.08-1-1.72-2.14-1.72-2.14l-.69.84c-.12-.94-1.78-2.29-1.78-2.29a3.5,3.5,0,0,1-.61,1.14c-.18-.7-1.74-1.84-1.74-1.84a2.78,2.78,0,0,1-.4,1.09c-.29-.65-1.84-1.54-1.84-1.54a5.05,5.05,0,0,1-.19,1c-.4-.9-2.49-1.78-2.49-1.78l-.11.54a10.81,10.81,0,0,0-3.2-1.81l-.06,0a.11.11,0,0,1,0,0l0,0,.06.06a10.82,10.82,0,0,0,2.23,2.92l-.52.18s1.15,2,2.11,2.22a5.23,5.23,0,0,1-1,.33s1.09,1.42,1.78,1.62a2.88,2.88,0,0,1-1,.54s1.34,1.38,2.06,1.47a3.62,3.62,0,0,1-1.05.76s1.56,1.46,2.51,1.45l-.74.8s1.37,1.47,2.36,1.41a8.51,8.51,0,0,1-.53.87s1.9,1.22,3.27.91c0,0-.48.72-.87.81,0,0,2.5,1.54,3.33,1a5.31,5.31,0,0,1-.61.92s2.66.72,3.31.51l-.37.66a41.88,41.88,0,0,1,8.85,3" style="fill:#4e2b01;opacity:0.8"></path><path d="M159.93,225.26a16.63,16.63,0,0,0,0,1.69l-.38,18h2.07l-.47-19.73a40.17,40.17,0,0,1,8.52-3l-.37-.66c.65.21,3.31-.51,3.31-.51a5.31,5.31,0,0,1-.61-.92c.83.5,3.33-1,3.33-1-.39-.09-.87-.81-.87-.81,1.37.31,3.26-.91,3.26-.91s-.52-.87-.52-.87c1,.06,2.36-1.41,2.36-1.41l-.74-.8c.95,0,2.51-1.45,2.51-1.45a3.62,3.62,0,0,1-1-.76c.72-.09,2.06-1.47,2.06-1.47a2.88,2.88,0,0,1-1-.54c.69-.2,1.78-1.62,1.78-1.62a5.23,5.23,0,0,1-1-.33c.95-.27,2.11-2.22,2.11-2.22l-.52-.18a11,11,0,0,0,2.23-2.92l.06-.06,0,0,0,0-.06,0a10.81,10.81,0,0,0-3.2,1.81l-.11-.54s-2.09.88-2.49,1.78a5.05,5.05,0,0,1-.19-1s-1.55.89-1.85,1.54a2.83,2.83,0,0,1-.39-1.09s-1.56,1.14-1.74,1.84a3.5,3.5,0,0,1-.61-1.14s-1.66,1.35-1.78,2.29l-.69-.84s-1.64,1.15-1.72,2.14c0,0-.73-.55-.79-.64s-1.47,1.71-1.35,3.1c0,0-.65-.57-.69-1,0,0-1.86,2.27-1.48,3.16a5.17,5.17,0,0,1-.82-.73,12.36,12.36,0,0,0-1,3.21l-.51-.39c.39-.78.64-1.24.64-1.24l-.88-.17c.69-.44,2.14-3.42,2.14-3.42a6.36,6.36,0,0,1-1.31-.16c1.1-.36,1.69-3.84,1.69-3.84a2.77,2.77,0,0,1-1.43.14c1.36-1,1.75-3.68,1.75-3.68a11.94,11.94,0,0,1-1.2-.2c.84-.85.59-3.25.59-3.25l-1.31,0c.75-.85.67-3.42.67-3.42a4.15,4.15,0,0,1-1.52.35c.49-.72.3-3,.3-3a3.31,3.31,0,0,1-1.31.5,7.18,7.18,0,0,0-.06-2.89,5.75,5.75,0,0,1-1.08.64c.5-1.08-.36-3.66-.36-3.66l-.57.32a12.75,12.75,0,0,0-.89-4.32v-.1a.18.18,0,0,1,0,0l0,0v.1a12.75,12.75,0,0,0-.89,4.32l-.57-.32s-.86,2.58-.36,3.66a6.1,6.1,0,0,1-1.08-.64,7.18,7.18,0,0,0-.06,2.89,3.24,3.24,0,0,1-1.3-.5s-.2,2.31.3,3a4.12,4.12,0,0,1-1.52-.35s-.09,2.57.67,3.42l-1.32,0s-.24,2.4.59,3.25a11.94,11.94,0,0,1-1.2.2s.39,2.69,1.75,3.68a2.77,2.77,0,0,1-1.43-.14s.59,3.48,1.7,3.84a6.49,6.49,0,0,1-1.32.16s1.45,3,2.15,3.42l-.89.17s.25.46.64,1.24l-.51.39a12.36,12.36,0,0,0-1-3.21,5.17,5.17,0,0,1-.82.73c.38-.89-1.48-3.16-1.48-3.16,0,.4-.69,1-.69,1,.12-1.39-1.35-3.1-1.35-3.1s-.79.64-.79.64c-.08-1-1.72-2.14-1.72-2.14l-.69.84c-.12-.94-1.78-2.29-1.78-2.29a3.5,3.5,0,0,1-.61,1.14c-.18-.7-1.74-1.84-1.74-1.84a2.78,2.78,0,0,1-.4,1.09c-.29-.65-1.84-1.54-1.84-1.54a5.05,5.05,0,0,1-.19,1c-.4-.9-2.49-1.78-2.49-1.78l-.11.54a10.81,10.81,0,0,0-3.2-1.81l-.06,0a.11.11,0,0,1,0,0l0,0,.06.06a10.82,10.82,0,0,0,2.23,2.92l-.52.18s1.15,2,2.11,2.22a5.23,5.23,0,0,1-1,.33s1.09,1.42,1.78,1.62a2.88,2.88,0,0,1-1,.54s1.34,1.38,2.06,1.47a3.62,3.62,0,0,1-1.05.76s1.56,1.46,2.51,1.45l-.74.8s1.37,1.47,2.36,1.41a8.51,8.51,0,0,1-.53.87s1.9,1.22,3.27.91c0,0-.48.72-.87.81,0,0,2.5,1.54,3.33,1a5.31,5.31,0,0,1-.61.92s2.66.72,3.31.51l-.37.66a41.88,41.88,0,0,1,8.85,3" style="fill:#4e2b01;opacity:0.8"></path><path d="M439.93,230.26a16.63,16.63,0,0,0,0,1.69l-.38,18h2.07l-.47-19.73a40.17,40.17,0,0,1,8.52-3l-.37-.66c.65.21,3.31-.51,3.31-.51a5.31,5.31,0,0,1-.61-.92c.83.5,3.33-1,3.33-1-.39-.09-.87-.81-.87-.81,1.37.31,3.26-.91,3.26-.91s-.52-.87-.52-.87c1,.06,2.36-1.41,2.36-1.41l-.74-.8c1,0,2.51-1.45,2.51-1.45a3.62,3.62,0,0,1-1.05-.76c.72-.09,2.06-1.47,2.06-1.47a2.88,2.88,0,0,1-1-.54c.69-.2,1.78-1.62,1.78-1.62a5.23,5.23,0,0,1-1-.33c.95-.27,2.11-2.22,2.11-2.22l-.52-.18a11,11,0,0,0,2.23-2.92l.06-.06,0,0,0,0-.06,0a10.81,10.81,0,0,0-3.2,1.81l-.11-.54s-2.09.88-2.49,1.78a5.05,5.05,0,0,1-.19-1s-1.55.89-1.85,1.54a2.83,2.83,0,0,1-.39-1.09s-1.56,1.14-1.74,1.84a3.5,3.5,0,0,1-.61-1.14s-1.66,1.35-1.78,2.29l-.69-.84s-1.64,1.15-1.72,2.14c0,0-.73-.55-.79-.64s-1.47,1.71-1.35,3.1c0,0-.65-.57-.69-1,0,0-1.86,2.27-1.48,3.16a5.17,5.17,0,0,1-.82-.73,12.36,12.36,0,0,0-1,3.21l-.51-.39c.39-.78.64-1.24.64-1.24l-.88-.17c.69-.44,2.14-3.42,2.14-3.42a6.36,6.36,0,0,1-1.31-.16c1.1-.36,1.69-3.84,1.69-3.84a2.77,2.77,0,0,1-1.43.14c1.36-1,1.75-3.68,1.75-3.68a11.94,11.94,0,0,1-1.2-.2c.84-.85.59-3.25.59-3.25l-1.31,0c.75-.85.67-3.42.67-3.42a4.15,4.15,0,0,1-1.52.35c.49-.72.3-3,.3-3a3.31,3.31,0,0,1-1.31.5,7.18,7.18,0,0,0-.06-2.89,5.75,5.75,0,0,1-1.08.64c.5-1.08-.36-3.66-.36-3.66l-.57.32a12.75,12.75,0,0,0-.89-4.32v-.1a.18.18,0,0,1,0,0l0,0v.1a12.75,12.75,0,0,0-.89,4.32l-.57-.32s-.86,2.58-.36,3.66a6.1,6.1,0,0,1-1.08-.64,7.18,7.18,0,0,0-.06,2.89,3.24,3.24,0,0,1-1.3-.5s-.2,2.31.3,3a4.12,4.12,0,0,1-1.52-.35s-.09,2.57.67,3.42l-1.32,0s-.24,2.4.59,3.25a11.94,11.94,0,0,1-1.2.2s.39,2.69,1.75,3.68a2.77,2.77,0,0,1-1.43-.14s.59,3.48,1.7,3.84a6.49,6.49,0,0,1-1.32.16s1.45,3,2.15,3.42l-.89.17s.25.46.64,1.24l-.51.39a12.36,12.36,0,0,0-1-3.21,5.17,5.17,0,0,1-.82.73c.38-.89-1.48-3.16-1.48-3.16,0,.4-.69,1-.69,1,.12-1.39-1.35-3.1-1.35-3.1s-.79.64-.79.64c-.08-1-1.72-2.14-1.72-2.14l-.69.84c-.12-.94-1.78-2.29-1.78-2.29a3.5,3.5,0,0,1-.61,1.14c-.18-.7-1.74-1.84-1.74-1.84a2.78,2.78,0,0,1-.4,1.09c-.29-.65-1.84-1.54-1.84-1.54a5.05,5.05,0,0,1-.19,1c-.4-.9-2.49-1.78-2.49-1.78l-.11.54a10.81,10.81,0,0,0-3.2-1.81l-.06,0a.11.11,0,0,1,0,0l0,0,.06.06a10.82,10.82,0,0,0,2.23,2.92l-.52.18s1.15,2,2.11,2.22a5.23,5.23,0,0,1-1,.33s1.09,1.42,1.78,1.62a2.88,2.88,0,0,1-1,.54s1.34,1.38,2.06,1.47a3.62,3.62,0,0,1-1.05.76s1.56,1.46,2.51,1.45l-.74.8s1.37,1.47,2.36,1.41a8.51,8.51,0,0,1-.53.87s1.9,1.22,3.27.91c0,0-.48.72-.87.81,0,0,2.5,1.54,3.33,1a5.31,5.31,0,0,1-.61.92s2.66.72,3.31.51l-.37.66a41.88,41.88,0,0,1,8.85,3" style="fill:#4e2b01;opacity:0.8"></path><path d="M368.73,229.81s-.05,1.94,0,2.42l-.54,25.7h3l-.67-28.21a57.56,57.56,0,0,1,12.18-4.27l-.54-.94c.94.29,4.74-.74,4.74-.74a7.07,7.07,0,0,1-.87-1.31c1.18.72,4.76-1.48,4.76-1.48-.56-.13-1.24-1.16-1.24-1.16,1.95.44,4.66-1.31,4.66-1.31a13.68,13.68,0,0,1-.75-1.24c1.41.09,3.37-2,3.37-2l-1.05-1.15c1.35,0,3.58-2.06,3.58-2.06a5.08,5.08,0,0,1-1.49-1.1c1-.12,2.94-2.09,2.94-2.09a4.11,4.11,0,0,1-1.46-.78c1-.29,2.54-2.31,2.54-2.31a7.22,7.22,0,0,1-1.42-.47c1.36-.4,3-3.18,3-3.18l-.73-.26c1.29-.86,2.86-3.59,3.18-4.17l.09-.08-.05,0a.14.14,0,0,1,0,0l-.09.07c-.63.25-3.54,1.42-4.58,2.58l-.15-.76s-3,1.25-3.56,2.54a7.62,7.62,0,0,1-.28-1.47s-2.21,1.26-2.63,2.2a3.94,3.94,0,0,1-.57-1.56s-2.22,1.63-2.48,2.64a5.14,5.14,0,0,1-.88-1.64s-2.36,1.93-2.54,3.27l-1-1.2s-2.35,1.65-2.46,3.06a13.69,13.69,0,0,1-1.12-.91s-2.11,2.44-1.93,4.43c0,0-.94-.82-1-1.38,0,0-2.67,3.24-2.12,4.51a7.68,7.68,0,0,1-1.17-1.05s-1.55,3.63-1.39,4.6l-.72-.56c.55-1.12.92-1.77.92-1.77l-1.28-.25c1-.62,3.07-4.88,3.07-4.88a9.21,9.21,0,0,1-1.88-.24c1.59-.51,2.42-5.49,2.42-5.49a3.91,3.91,0,0,1-2,.2c1.94-1.41,2.49-5.25,2.49-5.25a16.72,16.72,0,0,1-1.72-.3c1.2-1.21.85-4.64.85-4.64l-1.88,0c1.08-1.22,1-4.89,1-4.89a6,6,0,0,1-2.17.5c.7-1,.42-4.33.42-4.33a4.93,4.93,0,0,1-1.86.72c.52-1.13-.08-4.14-.08-4.14a8.54,8.54,0,0,1-1.55.92c.71-1.55-.51-5.23-.51-5.23l-.81.46c.23-1.85-1-5.43-1.28-6.18v-.15l0,.07,0-.07v.15c-.27.75-1.51,4.33-1.27,6.18l-.81-.46s-1.23,3.68-.51,5.23a8.54,8.54,0,0,1-1.55-.92s-.6,3-.09,4.14a4.93,4.93,0,0,1-1.86-.72s-.28,3.3.43,4.33a6,6,0,0,1-2.17-.5s-.13,3.67,1,4.89l-1.87,0s-.36,3.43.84,4.64a16.25,16.25,0,0,1-1.72.3s.55,3.84,2.5,5.25a4,4,0,0,1-2-.2s.84,5,2.42,5.49a9.1,9.1,0,0,1-1.88.24s2.07,4.26,3.07,4.88l-1.27.25s.36.65.91,1.77l-.72.56c.16-1-1.39-4.6-1.39-4.6a7.68,7.68,0,0,1-1.17,1.05c.54-1.27-2.12-4.51-2.12-4.51-.05.56-1,1.38-1,1.38.18-2-1.93-4.43-1.93-4.43a13.69,13.69,0,0,1-1.12.91c-.11-1.41-2.45-3.06-2.45-3.06l-1,1.2c-.17-1.34-2.54-3.27-2.54-3.27a5.14,5.14,0,0,1-.88,1.64c-.26-1-2.48-2.64-2.48-2.64a3.94,3.94,0,0,1-.57,1.56c-.42-.94-2.63-2.2-2.63-2.2a7.62,7.62,0,0,1-.28,1.47c-.57-1.29-3.56-2.54-3.56-2.54l-.15.76c-1-1.16-3.95-2.33-4.57-2.58l-.1-.07,0,0-.06,0,.09.08c.32.58,1.89,3.31,3.18,4.17l-.73.26s1.64,2.78,3,3.18a7.22,7.22,0,0,1-1.42.47s1.56,2,2.55,2.31a4.2,4.2,0,0,1-1.47.78s1.92,2,2.95,2.09a5.18,5.18,0,0,1-1.5,1.1s2.23,2.08,3.58,2.06L342,215.26s2,2.1,3.38,2a14,14,0,0,1-.76,1.24s2.71,1.75,4.66,1.31c0,0-.69,1-1.24,1.16,0,0,3.58,2.2,4.76,1.48a6.57,6.57,0,0,1-.87,1.31s3.8,1,4.74.74l-.54.94a60.16,60.16,0,0,1,12.65,4.36" style="fill:#3e5225"></path><path d="M244.73,226.81s0,1.94,0,2.42l-.54,25.7h3l-.67-28.21a57.56,57.56,0,0,1,12.18-4.27l-.54-.94c.94.29,4.74-.74,4.74-.74a7.07,7.07,0,0,1-.87-1.31c1.18.72,4.76-1.48,4.76-1.48-.56-.13-1.24-1.16-1.24-1.16,1.95.44,4.66-1.31,4.66-1.31a13.68,13.68,0,0,1-.75-1.24c1.41.09,3.37-2,3.37-2l-1.05-1.15c1.35,0,3.58-2.06,3.58-2.06a5.08,5.08,0,0,1-1.49-1.1c1-.12,2.94-2.09,2.94-2.09a4.11,4.11,0,0,1-1.46-.78c1-.29,2.54-2.31,2.54-2.31a7.22,7.22,0,0,1-1.42-.47c1.36-.4,3-3.18,3-3.18l-.73-.26c1.29-.86,2.86-3.59,3.18-4.17l.09-.08-.05,0a.14.14,0,0,1,0,0l-.09.07c-.63.25-3.54,1.42-4.58,2.58l-.15-.76s-3,1.25-3.56,2.54a7.62,7.62,0,0,1-.28-1.47s-2.21,1.26-2.63,2.2a3.94,3.94,0,0,1-.57-1.56s-2.22,1.63-2.48,2.64a5.14,5.14,0,0,1-.88-1.64s-2.36,1.93-2.54,3.27l-1-1.2s-2.35,1.65-2.46,3.06a13.69,13.69,0,0,1-1.12-.91s-2.11,2.44-1.93,4.43c0,0-.94-.82-1-1.38,0,0-2.67,3.24-2.12,4.51a7.68,7.68,0,0,1-1.17-1.05s-1.55,3.63-1.39,4.6l-.72-.56c.55-1.12.92-1.77.92-1.77l-1.28-.25c1-.62,3.07-4.88,3.07-4.88a9.21,9.21,0,0,1-1.88-.24c1.59-.51,2.42-5.49,2.42-5.49a3.91,3.91,0,0,1-2,.2c1.94-1.41,2.49-5.25,2.49-5.25a16.72,16.72,0,0,1-1.72-.3c1.2-1.21.85-4.64.85-4.64l-1.88,0c1.08-1.22,1-4.89,1-4.89a6,6,0,0,1-2.17.5c.7-1,.42-4.33.42-4.33a4.93,4.93,0,0,1-1.86.72c.52-1.13-.08-4.14-.08-4.14a8.54,8.54,0,0,1-1.55.92c.71-1.55-.51-5.23-.51-5.23l-.81.46c.23-1.85-1-5.43-1.28-6.18v-.15l0,.07,0-.07v.15c-.27.75-1.51,4.33-1.27,6.18l-.81-.46s-1.23,3.68-.51,5.23a8.54,8.54,0,0,1-1.55-.92s-.6,3-.09,4.14a4.93,4.93,0,0,1-1.86-.72s-.28,3.3.43,4.33a6,6,0,0,1-2.17-.5s-.13,3.67.95,4.89l-1.87,0s-.36,3.43.84,4.64a16.25,16.25,0,0,1-1.72.3s.55,3.84,2.5,5.25a4,4,0,0,1-2-.2s.84,5,2.42,5.49a9.1,9.1,0,0,1-1.88.24s2.07,4.26,3.07,4.88l-1.27.25s.36.65.91,1.77l-.72.56c.16-1-1.39-4.6-1.39-4.6a7.68,7.68,0,0,1-1.17,1.05c.54-1.27-2.12-4.51-2.12-4.51,0,.56-1,1.38-1,1.38.18-2-1.93-4.43-1.93-4.43a13.69,13.69,0,0,1-1.12.91c-.11-1.41-2.45-3.06-2.45-3.06l-1,1.2c-.17-1.34-2.54-3.27-2.54-3.27a5.14,5.14,0,0,1-.88,1.64c-.26-1-2.48-2.64-2.48-2.64a3.94,3.94,0,0,1-.57,1.56c-.42-.94-2.63-2.2-2.63-2.2a7.62,7.62,0,0,1-.28,1.47c-.57-1.29-3.56-2.54-3.56-2.54l-.15.76c-1-1.16-4-2.33-4.57-2.58l-.1-.07,0,0-.06,0,.09.08c.32.58,1.89,3.31,3.18,4.17l-.73.26s1.64,2.78,3,3.18a7.22,7.22,0,0,1-1.42.47s1.56,2,2.55,2.31a4.2,4.2,0,0,1-1.47.78s1.92,2,2.95,2.09a5.18,5.18,0,0,1-1.5,1.1s2.23,2.08,3.58,2.06L218,212.26s2,2.1,3.38,2a14,14,0,0,1-.76,1.24s2.71,1.75,4.66,1.31c0,0-.69,1-1.24,1.16,0,0,3.58,2.2,4.76,1.48a6.57,6.57,0,0,1-.87,1.31s3.8,1,4.74.74l-.54.94a60.16,60.16,0,0,1,12.65,4.36" style="fill:#3e5225"></path><path d="M716.73,224.81s-.05,1.94,0,2.42l-.54,25.7h3l-.67-28.21a57.56,57.56,0,0,1,12.18-4.27l-.54-.94c.94.29,4.74-.74,4.74-.74a7.07,7.07,0,0,1-.87-1.31c1.18.72,4.76-1.48,4.76-1.48-.56-.13-1.24-1.16-1.24-1.16,2,.44,4.66-1.31,4.66-1.31a13.68,13.68,0,0,1-.75-1.24c1.41.09,3.37-2,3.37-2l-1.05-1.15c1.35,0,3.58-2.06,3.58-2.06a5.08,5.08,0,0,1-1.49-1.1c1-.12,2.94-2.09,2.94-2.09a4.11,4.11,0,0,1-1.46-.78c1-.29,2.54-2.31,2.54-2.31a7.22,7.22,0,0,1-1.42-.47c1.36-.4,3-3.18,3-3.18l-.73-.26c1.29-.86,2.86-3.59,3.18-4.17l.09-.08,0,0a.14.14,0,0,1,0,0l-.09.07c-.63.25-3.54,1.42-4.58,2.58l-.15-.76s-3,1.25-3.56,2.54a7.62,7.62,0,0,1-.28-1.47s-2.21,1.26-2.63,2.2a3.94,3.94,0,0,1-.57-1.56s-2.22,1.63-2.48,2.64a5.14,5.14,0,0,1-.88-1.64s-2.36,1.93-2.54,3.27l-1-1.2s-2.35,1.65-2.46,3.06a13.69,13.69,0,0,1-1.12-.91s-2.11,2.44-1.93,4.43c0,0-.94-.82-1-1.38,0,0-2.67,3.24-2.12,4.51a7.68,7.68,0,0,1-1.17-1.05s-1.55,3.63-1.39,4.6l-.72-.56c.55-1.12.92-1.77.92-1.77l-1.28-.25c1-.62,3.07-4.88,3.07-4.88a9.21,9.21,0,0,1-1.88-.24c1.59-.51,2.42-5.49,2.42-5.49a3.91,3.91,0,0,1-2,.2c1.94-1.41,2.49-5.25,2.49-5.25a16.72,16.72,0,0,1-1.72-.3c1.2-1.21.85-4.64.85-4.64l-1.88,0c1.08-1.22,1-4.89,1-4.89a6,6,0,0,1-2.17.5c.7-1,.42-4.33.42-4.33a4.93,4.93,0,0,1-1.86.72c.52-1.13-.08-4.14-.08-4.14a8.54,8.54,0,0,1-1.55.92c.71-1.55-.51-5.23-.51-5.23l-.81.46c.23-1.85-1-5.43-1.28-6.18v-.15l0,.07,0-.07v.15c-.27.75-1.51,4.33-1.27,6.18l-.81-.46s-1.23,3.68-.51,5.23a8.54,8.54,0,0,1-1.55-.92s-.6,3-.09,4.14a4.93,4.93,0,0,1-1.86-.72s-.28,3.3.43,4.33a6,6,0,0,1-2.17-.5s-.13,3.67,1,4.89l-1.87,0s-.36,3.43.84,4.64a16.25,16.25,0,0,1-1.72.3s.55,3.84,2.5,5.25a4,4,0,0,1-2-.2s.84,5,2.42,5.49a9.1,9.1,0,0,1-1.88.24s2.07,4.26,3.07,4.88l-1.27.25s.36.65.91,1.77l-.72.56c.16-1-1.39-4.6-1.39-4.6a7.68,7.68,0,0,1-1.17,1.05c.54-1.27-2.12-4.51-2.12-4.51,0,.56-1,1.38-1,1.38.18-2-1.93-4.43-1.93-4.43a13.69,13.69,0,0,1-1.12.91c-.11-1.41-2.45-3.06-2.45-3.06l-1,1.2c-.17-1.34-2.54-3.27-2.54-3.27a5.14,5.14,0,0,1-.88,1.64c-.26-1-2.48-2.64-2.48-2.64a3.94,3.94,0,0,1-.57,1.56c-.42-.94-2.63-2.2-2.63-2.2a7.62,7.62,0,0,1-.28,1.47c-.57-1.29-3.56-2.54-3.56-2.54l-.15.76c-1-1.16-4-2.33-4.57-2.58l-.1-.07,0,0-.06,0,.09.08c.32.58,1.89,3.31,3.18,4.17l-.73.26s1.64,2.78,3,3.18a7.22,7.22,0,0,1-1.42.47s1.56,2,2.55,2.31a4.2,4.2,0,0,1-1.47.78s1.92,2,2.95,2.09a5.18,5.18,0,0,1-1.5,1.1s2.23,2.08,3.58,2.06l-1,1.15s2,2.1,3.38,2a14,14,0,0,1-.76,1.24s2.71,1.75,4.66,1.31c0,0-.69,1-1.24,1.16,0,0,3.58,2.2,4.76,1.48a6.57,6.57,0,0,1-.87,1.31s3.8,1,4.74.74l-.54.94a60.16,60.16,0,0,1,12.65,4.36" style="fill:#3e5225"></path><polygon points="110.54 258 82.11 258 77.68 221.98 115.6 221.98 110.54 258" style="fill:#4e2b01"></polygon></svg>