<svg xmlns="http://www.w3.org/2000/svg" viewBox="0 0 94 94"><defs><style>.cls-1{fill:#fff;}.cls-2{fill:#f26622;}.cls-3{fill:#1bda5f;}</style></defs><g id="Layer_2" data-name="Layer 2"><g id="Layer_1-2" data-name="Layer 1"><circle class="cls-1" cx="47" cy="47" r="47"></circle><g id="_f78802ff" data-name="#f78802ff"><path class="cls-2" d="M53.31,16.37a1.65,1.65,0,0,1,1.33-.61,1.44,1.44,0,0,1,1.17,1.8,1.85,1.85,0,0,1-.63.9,4.22,4.22,0,0,0-1.06,2.36h6.1a1.14,1.14,0,0,1,.8.33q3.7,3.71,7.42,7.42a1.45,1.45,0,0,1,.62,1.1v13.9a1.47,1.47,0,0,1-.66,1.18L43.65,69.51c-1.31,1.32-2.66,2.62-3.95,4a1.31,1.31,0,0,1-2.15-.12Q27.89,63.67,18.2,54c-.68-.67-1.33-1.37-2.05-2a1.31,1.31,0,0,1,.05-1.63c.64-.55,1.2-1.18,1.81-1.76L45.49,21.12a1.2,1.2,0,0,1,.83-.3h5.09a7.49,7.49,0,0,1,1.9-4.45M18.89,51.2,38.68,71Q52.61,57.05,66.55,43.12v-13l-6.83-6.82c-1.78,0-3.56,0-5.35,0a3.54,3.54,0,0,0,1.19,1.58,7.3,7.3,0,0,1,2.1,5.45,5.22,5.22,0,0,1,2.08,2.26,5.07,5.07,0,1,1-4.82-2.93,3.94,3.94,0,0,0-1.47-2.88,7,7,0,0,1-1.89-3.49H46.77q-14,13.94-27.88,27.87M52.61,34.54a2.54,2.54,0,0,0,3.8,2.4,2.51,2.51,0,0,0,1.26-2,2.6,2.6,0,0,0-.55-1.75,5.65,5.65,0,0,1-1.8,2.55,1.28,1.28,0,0,1-1.68-.05,1.47,1.47,0,0,1-.09-2.08,3.8,3.8,0,0,0,1-1.29A2.57,2.57,0,0,0,52.61,34.54Z"></path><path class="cls-2" d="M71.61,37.27a1.26,1.26,0,0,1,2.52,0c0,3,0,5.93,0,8.89a1.54,1.54,0,0,1-.67,1.14L49.64,71.11a1.23,1.23,0,0,1-1.74-1.74l23.71-23.7C71.61,42.87,71.6,40.07,71.61,37.27Z"></path><path class="cls-2" d="M35.56,43.74A1.25,1.25,0,0,1,37,44l8.9,8.9a1.23,1.23,0,1,1-1.75,1.73l-8.89-8.89A1.24,1.24,0,0,1,35.56,43.74Z"></path><path class="cls-2" d="M30.69,48.73a1.28,1.28,0,0,1,1.3.38l8.49,8.49a2.11,2.11,0,0,1,.69.93A1.23,1.23,0,0,1,39,59.64c-3-3-5.95-5.93-8.91-8.91A1.24,1.24,0,0,1,30.69,48.73Z"></path></g><circle class="cls-1" cx="82.96" cy="17.57" r="7.11"></circle><path class="cls-3" d="M82.49,29.32A11.5,11.5,0,1,0,71,17.82,11.5,11.5,0,0,0,82.49,29.32Zm5.07-13.61-5.75,5.75a1.07,1.07,0,0,1-1.52,0l-2.88-2.88a1.07,1.07,0,0,1,0-1.52,1.09,1.09,0,0,1,1.53,0l2.11,2.11,5-5a1.09,1.09,0,0,1,1.53,0,1.07,1.07,0,0,1,0,1.52Z"></path></g></g></svg>