<svg xmlns="http://www.w3.org/2000/svg" viewBox="0 0 686 686"><g id="Layer_2" data-name="Layer 2"><g id="Layer_1-2" data-name="Layer 1"><circle cx="343" cy="343" r="343" style="fill:#fff"></circle><path d="M46.72,410V285.51H60.06v49.43a44.72,44.72,0,0,1,11.73-10.85q6.93-4.44,17.78-4.44A36,36,0,0,1,106.9,324a33.8,33.8,0,0,1,13.16,13q5.07,8.63,5.07,21.25V410H111.79V358.58q0-12.09-6.93-19.47t-18-7.37a27.22,27.22,0,0,0-13.51,3.37,25.8,25.8,0,0,0-9.69,9.52,27.13,27.13,0,0,0-3.64,14.13V410Z" style="fill:#f26622"></path><path d="M184.86,411.38q-13,0-22.67-6.13a41.53,41.53,0,0,1-15-16.62,53,53,0,0,1,0-46.32,41.68,41.68,0,0,1,15-16.53q9.69-6.13,22.67-6.13,11,0,18.93,4.26a36.15,36.15,0,0,1,12.89,11.56v-14.4H230V410H216.68V395.74a36.82,36.82,0,0,1-12.89,11.38Q195.89,411.38,184.86,411.38Zm1.78-12.09q9.95,0,16.8-4.62a29.45,29.45,0,0,0,10.4-12.35,41.74,41.74,0,0,0,0-33.69,29.53,29.53,0,0,0-10.4-12.27q-6.85-4.62-16.8-4.62a29.64,29.64,0,0,0-27.74,16.89,39.9,39.9,0,0,0,0,33.69,29.54,29.54,0,0,0,27.74,17Z" style="fill:#f26622"></path><path d="M253.13,410V321.07h13.33v21.87a36.45,36.45,0,0,1,2.76-6.14,33.51,33.51,0,0,1,5.95-7.73A34,34,0,0,1,285,322.4a33.51,33.51,0,0,1,14.13-2.75h.89V333h-1.6a27.71,27.71,0,0,0-17.15,5.42,35,35,0,0,0-11,14.05,44.86,44.86,0,0,0-3.82,18.4V410Z" style="fill:#f26622"></path><polyline points="361.76 411.07 347.67 411.07 300.51 319.41 314.81 319.41 314.87 319.56 315.03 319.86 352.2 392.77 353.63 395.57 354.47 397.45 355.52 399.64 357.92 395.42 357.92 395.42 359.35 392.62 396.53 319.71 396.68 319.41 396.75 319.26 411.05 319.26 363.95 411.07" style="fill:#f26622"></polyline><path d="M500,364.09a51.59,51.59,0,0,0-5.5-23.92,42.57,42.57,0,0,0-15.67-17.05q-10.17-6.33-24.29-6.33-13.92,0-24.2,6.33a42.23,42.23,0,0,0-15.76,17.05,51.59,51.59,0,0,0-5.5,23.92,49.78,49.78,0,0,0,5.78,23.83,43.7,43.7,0,0,0,16.22,17.14q10.44,6.33,24.38,6.33,16.31,0,26.67-7.8a44.94,44.94,0,0,0,15.12-20.07h-15a30.32,30.32,0,0,1-10.27,11.09q-6.6,4.32-16.32,4.31A32.18,32.18,0,0,1,439.48,395a30.39,30.39,0,0,1-11.1-10.64,37.42,37.42,0,0,1-5.22-14.75H500Zm-76.62-7.34a35.31,35.31,0,0,1,10-19.61q8-7.87,21.18-7.89t21.27,7.89a34,34,0,0,1,9.89,19.61Z" style="fill:#f26622"></path><path d="M583.19,370.22a28.82,28.82,0,0,0-11.35-7.78,86.65,86.65,0,0,0-14.77-4.32c-5.2-1-10.1-2.13-14.75-3.3A35.82,35.82,0,0,1,531,350.15a9.52,9.52,0,0,1-4.4-8.43q0-13.2,21.82-13.2,11.55,0,16.59,4.22a15.44,15.44,0,0,1,5.78,10.08h13.93A27.9,27.9,0,0,0,580,330.17a29,29,0,0,0-11.55-9.62q-7.61-3.75-19.7-3.76-17.81,0-26.87,6.88T512.8,343q0,8.43,4.4,13.3a29,29,0,0,0,11.37,7.52,99.18,99.18,0,0,0,14.75,4.3q7.8,1.65,14.77,3.39a33.71,33.71,0,0,1,11.36,4.86,10.13,10.13,0,0,1,4.39,8.8,11.05,11.05,0,0,1-2.55,7.52,16.11,16.11,0,0,1-6.33,4.4,34.74,34.74,0,0,1-7.79,2,53,53,0,0,1-6.78.55c-5.87,0-10.64-.9-14.3-2.67a19,19,0,0,1-8.17-7,21.84,21.84,0,0,1-3.2-8.89h-14.3a30.28,30.28,0,0,0,5.13,14.93,32.44,32.44,0,0,0,13.3,11.1q8.7,4.21,21.35,4.22,17.06,0,27.22-7.07t10.17-20.43C587.59,378.14,586.14,373.59,583.19,370.22Z" style="fill:#f26622"></path><path d="M628.84,318.25v-32.8H615.09v32.8h-18.7v12.1h18.7v79.56h13.75V330.35h21.09v-12.1Z" style="fill:#f26622"></path><path d="M354.17,292.53a32.87,32.87,0,0,0,0,3.36l-.76,35.79h4.13l-.93-39.28a80.56,80.56,0,0,1,17-5.95l-.75-1.3c1.3.4,6.6-1,6.6-1a10.7,10.7,0,0,1-1.22-1.82c1.65,1,6.63-2.07,6.63-2.07-.77-.18-1.73-1.62-1.73-1.62,2.72.62,6.49-1.81,6.49-1.81a20.11,20.11,0,0,1-1.05-1.73c2,.12,4.7-2.8,4.7-2.8l-1.47-1.6c1.89,0,5-2.88,5-2.88a7.13,7.13,0,0,1-2.09-1.52c1.44-.17,4.11-2.92,4.11-2.92a5.64,5.64,0,0,1-2.05-1.08c1.38-.4,3.55-3.22,3.55-3.22a10,10,0,0,1-2-.66c1.89-.54,4.18-4.42,4.18-4.42l-1-.36c1.8-1.2,4-5,4.43-5.81l.12-.11-.07,0a.48.48,0,0,1,0-.08l-.12.11c-.87.34-4.94,2-6.37,3.59l-.22-1.06s-4.16,1.74-5,3.54a10.11,10.11,0,0,1-.38-2.06s-3.08,1.77-3.67,3.08a5.61,5.61,0,0,1-.79-2.18s-3.09,2.27-3.45,3.67a7.19,7.19,0,0,1-1.23-2.27s-3.29,2.68-3.53,4.55l-1.39-1.68s-3.26,2.3-3.41,4.27a17.5,17.5,0,0,1-1.57-1.28s-2.93,3.41-2.69,6.18c0,0-1.3-1.14-1.37-1.93,0,0-3.71,4.51-2.95,6.28a10.5,10.5,0,0,1-1.64-1.45s-2.15,5.05-1.93,6.39l-1-.77c.77-1.56,1.27-2.47,1.27-2.47l-1.77-.35c1.39-.86,4.27-6.8,4.27-6.8a12.46,12.46,0,0,1-2.61-.33c2.2-.7,3.37-7.64,3.37-7.64-.78.56-2.84.29-2.84.29,2.71-2,3.48-7.32,3.48-7.32a23.38,23.38,0,0,1-2.39-.41c1.66-1.7,1.17-6.47,1.17-6.47l-2.61.06c1.5-1.69,1.33-6.79,1.33-6.79a8.49,8.49,0,0,1-3,.68c1-1.43.6-6,.6-6a6.8,6.8,0,0,1-2.59,1c.72-1.57-.12-5.76-.12-5.76a12.52,12.52,0,0,1-2.16,1.28c1-2.15-.71-7.29-.71-7.29l-1.13.64c.33-2.57-1.39-7.55-1.77-8.6v-.2l0,.09,0-.09v.2c-.38,1.05-2.1,6-1.78,8.6l-1.13-.64s-1.7,5.14-.7,7.29a12.14,12.14,0,0,1-2.16-1.28s-.84,4.19-.12,5.76a6.88,6.88,0,0,1-2.6-1s-.38,4.59.6,6a8.42,8.42,0,0,1-3-.68s-.17,5.1,1.33,6.79l-2.62-.06s-.48,4.77,1.18,6.47a23.38,23.38,0,0,1-2.39.41s.77,5.34,3.47,7.32c0,0-2.06.27-2.83-.29,0,0,1.16,6.94,3.37,7.64A12.59,12.59,0,0,1,343,265s2.88,5.94,4.27,6.8l-1.77.35s.5.91,1.28,2.47l-1,.77c.22-1.34-1.93-6.39-1.93-6.39a10.5,10.5,0,0,1-1.64,1.45c.76-1.77-3-6.28-3-6.28-.07.79-1.37,1.93-1.37,1.93.24-2.77-2.69-6.18-2.69-6.18a19.07,19.07,0,0,1-1.56,1.28c-.16-2-3.42-4.27-3.42-4.27l-1.39,1.68c-.24-1.87-3.53-4.55-3.53-4.55a7.19,7.19,0,0,1-1.23,2.27c-.35-1.4-3.45-3.67-3.45-3.67a5.61,5.61,0,0,1-.79,2.18c-.59-1.31-3.67-3.08-3.67-3.08a10.55,10.55,0,0,1-.39,2.06c-.8-1.8-5-3.54-5-3.54l-.22,1.06c-1.43-1.61-5.5-3.25-6.36-3.59l-.13-.11,0,.08-.07,0,.12.11c.45.81,2.63,4.61,4.43,5.81l-1,.36s2.29,3.88,4.18,4.42a10.28,10.28,0,0,1-2,.66s2.17,2.82,3.55,3.22a5.64,5.64,0,0,1-2.05,1.08s2.67,2.75,4.11,2.92a7,7,0,0,1-2.09,1.52s3.12,2.9,5,2.88l-1.46,1.6s2.73,2.92,4.7,2.8a20.11,20.11,0,0,1-1.05,1.73s3.77,2.43,6.49,1.81c0,0-1,1.44-1.73,1.62,0,0,5,3.06,6.63,2.07a10.7,10.7,0,0,1-1.22,1.82s5.3,1.43,6.6,1l-.75,1.3a83.67,83.67,0,0,1,17.62,6.08" style="fill:#3f5225"></path><path d="M355.52,390.85,356,390l1.49-2.87v-3.56l0-9.89.14-9.22c.12.33.25.66.37,1,0,.1.05.15.08.23a8,8,0,0,0,.29.77s0,0,0,0c.33.91.69,1.83,1.08,2.78.88,2.17,1.87,4.46,3,6.75.11.22.2.44.33.66l2.71-5.28c-.13-.25-.25-.49-.36-.74-4.5-9.2-7-18-7.32-20.2a1.37,1.37,0,0,1,0-.27v-.13s0-.09,0-.09v0l.28-19c.38.68.81,1.4,1.29,2.18l.08.1c1,1.54,2.22,3.24,3.61,5v0l.74,1-.06.07c.18.19.35.38.51.58h0c.11.12.22.25.34.37a75.77,75.77,0,0,0,2.93,11.76c.18.53.36,1.11.58,1.66,0,.16.09.32.15.49a.64.64,0,0,0,0,.07q1,2.69,2.2,5.63c.13.26.24.52.36.78l.06.12,2.81-5.48a2,2,0,0,1-.09-.22c-.11-.28-.24-.55-.33-.81a78.66,78.66,0,0,1-2.94-8.8,46.26,46.26,0,0,0,5.51,3.67,5.49,5.49,0,0,0,.59.31l.21.13,2.72-5.31-.26-.14c-.21-.09-.4-.2-.59-.3A45.18,45.18,0,0,1,368,336l0,0c-.41-.45-.78-.89-1.17-1.34l-.87-1a55.16,55.16,0,0,1-5.28-7.92h10.19s.48.94.57,1.06l0,.06a28.5,28.5,0,0,0,5.81,6.48A50.82,50.82,0,0,0,382,337l.56.36.33.2,2.71-5.28-.4-.2-.58-.32a30.31,30.31,0,0,1-7.42-6.16h11.84l3.26-6.35H318.7l3.25,6.35h11.84a30.31,30.31,0,0,1-7.42,6.16l-.58.32-.4.2,2.71,5.28.33-.2c.19-.13.39-.24.56-.36a49.55,49.55,0,0,0,4.76-3.8,29,29,0,0,0,5.82-6.48l0-.06c.08-.12.55-1,.56-1.06h10.19a55.16,55.16,0,0,1-5.28,7.92l-.87,1c-.38.45-.75.89-1.17,1.34l0,0a45.11,45.11,0,0,1-10.54,8c-.2.1-.39.21-.6.3l-.26.14,2.73,5.31.2-.13a5.49,5.49,0,0,0,.59-.31,46.4,46.4,0,0,0,5.52-3.67,81,81,0,0,1-2.95,8.8c-.09.26-.22.53-.33.81a1,1,0,0,1-.09.22l2.82,5.48s0-.08.05-.12c.12-.26.23-.52.36-.78q1.26-2.94,2.2-5.63a.36.36,0,0,1,0-.07c0-.17.11-.33.15-.49.22-.55.4-1.13.57-1.66a75.77,75.77,0,0,0,2.93-11.76c.13-.12.24-.25.35-.37h0c.17-.2.33-.39.51-.58l-.06-.07.75-1v0c1.38-1.76,2.62-3.46,3.6-5l.08-.1c.48-.78.91-1.5,1.29-2.18l.28,19v0s0,.05,0,.09v.13a.93.93,0,0,1,0,.27c-.3,2.18-2.82,11-7.32,20.2-.11.25-.23.49-.35.74l2.7,5.28c.13-.22.22-.44.33-.66,1.15-2.29,2.14-4.58,3-6.75.38-.95.74-1.87,1.07-2.78,0,0,0,0,0,0a8,8,0,0,0,.29-.77,1.23,1.23,0,0,0,.08-.23c.13-.34.25-.67.37-1l.14,9.22,0,9.89,0,2.5v1.06l1.48,2.87.46.83" style="fill:#492d12"></path></g></g></svg>