<svg xmlns="http://www.w3.org/2000/svg" id="Layer_1" data-name="Layer 1" viewBox="0 0 682.67 577.33"><defs><style>.cls-1{fill:#fff;}.cls-2{fill:#f26622;}.cls-3{fill:#3f5225;}.cls-4{fill:#492d12;}</style></defs><rect class="cls-1" y="-360" width="682.67" height="936" rx="341.33"></rect><path class="cls-2" d="M82.39,257.11V150.64H93.8v42.29a38.18,38.18,0,0,1,10-9.28q5.94-3.79,15.21-3.8a30.82,30.82,0,0,1,14.83,3.72,28.86,28.86,0,0,1,11.26,11.11q4.34,7.38,4.33,18.17v44.26h-11.4v-44q0-10.35-5.93-16.66t-15.37-6.31a23.36,23.36,0,0,0-11.56,2.89,22,22,0,0,0-8.29,8.14,23.21,23.21,0,0,0-3.11,12.09v43.8Z"></path><path class="cls-2" d="M200.57,258.33a34.84,34.84,0,0,1-32.25-19.47,45.31,45.31,0,0,1,0-39.62,35,35,0,0,1,32.25-19.39,33.59,33.59,0,0,1,16.2,3.65,31,31,0,0,1,11,9.88V181.06h11.4v76.05H227.8V245a31.52,31.52,0,0,1-11,9.73A33.71,33.71,0,0,1,200.57,258.33ZM202.09,248q8.52,0,14.37-4a25.11,25.11,0,0,0,8.9-10.57,35.67,35.67,0,0,0,0-28.82,25.19,25.19,0,0,0-8.9-10.49q-5.85-4-14.37-4a25.39,25.39,0,0,0-23.73,14.45,34.14,34.14,0,0,0,0,28.82A25.62,25.62,0,0,0,187.64,244,25.9,25.9,0,0,0,202.09,248Z"></path><path class="cls-2" d="M259,257.11V181.06h11.41v18.71a32.18,32.18,0,0,1,2.36-5.24,28.47,28.47,0,0,1,5.09-6.62,29,29,0,0,1,8.45-5.7,28.41,28.41,0,0,1,12.09-2.36h.76v11.41h-1.37a23.72,23.72,0,0,0-14.68,4.63,30,30,0,0,0-9.43,12,38.43,38.43,0,0,0-3.27,15.74v33.46Z"></path><polyline class="cls-2" points="351.91 258.06 339.86 258.06 299.51 179.64 311.75 179.64 311.8 179.77 311.93 180.03 343.74 242.41 344.96 244.81 345.68 246.41 346.57 248.28 348.63 244.68 348.63 244.68 349.85 242.28 381.66 179.9 381.79 179.64 381.85 179.51 394.08 179.51 353.79 258.06"></polyline><path class="cls-2" d="M470.16,217.87a44,44,0,0,0-4.71-20.47,36.5,36.5,0,0,0-13.4-14.58q-8.7-5.41-20.79-5.41-11.91,0-20.7,5.41a36.14,36.14,0,0,0-13.48,14.58,44.17,44.17,0,0,0-4.71,20.47,42.59,42.59,0,0,0,4.94,20.38,37.45,37.45,0,0,0,13.88,14.67,39.46,39.46,0,0,0,20.86,5.41q13.95,0,22.82-6.67a38.47,38.47,0,0,0,12.94-17.17H455a25.87,25.87,0,0,1-8.79,9.49q-5.64,3.69-14,3.68a27.55,27.55,0,0,1-13.8-3.36,26.06,26.06,0,0,1-9.49-9.1,32.26,32.26,0,0,1-4.47-12.62h65.72Zm-65.55-6.28a30.09,30.09,0,0,1,8.54-16.77q6.83-6.75,18.11-6.76t18.2,6.76a29.08,29.08,0,0,1,8.47,16.77Z"></path><path class="cls-2" d="M541.36,223.12a24.62,24.62,0,0,0-9.72-6.66A72.55,72.55,0,0,0,519,212.77q-6.68-1.34-12.62-2.83a30.72,30.72,0,0,1-9.73-4,8.13,8.13,0,0,1-3.76-7.21q0-11.28,18.66-11.29,9.88,0,14.2,3.61a13.16,13.16,0,0,1,4.94,8.62h11.92a24,24,0,0,0-4-10.82,24.76,24.76,0,0,0-9.88-8.23q-6.51-3.21-16.86-3.21-15.22,0-23,5.88t-7.77,16.54c0,4.81,1.26,8.61,3.77,11.37a24.69,24.69,0,0,0,9.73,6.44,84.62,84.62,0,0,0,12.62,3.68q6.66,1.41,12.63,2.9a29,29,0,0,1,9.72,4.15,8.7,8.7,0,0,1,3.76,7.53,9.45,9.45,0,0,1-2.19,6.44,13.7,13.7,0,0,1-5.41,3.76,29.49,29.49,0,0,1-6.67,1.73,44.77,44.77,0,0,1-5.8.47q-7.53,0-12.23-2.28a16.33,16.33,0,0,1-7-6,18.84,18.84,0,0,1-2.74-7.61H479.1a25.91,25.91,0,0,0,4.39,12.77,27.73,27.73,0,0,0,11.37,9.49q7.44,3.61,18.27,3.61,14.6,0,23.29-6t8.7-17.48Q545.12,227.43,541.36,223.12Z"></path><path class="cls-2" d="M580.41,178.65V150.59H568.65v28.06h-16V189h16v68.06h11.76V189h18V178.65Z"></path><path class="cls-3" d="M345.42,156.65s-.06,2.3,0,2.87l-.65,30.63h3.53l-.8-33.61a68.6,68.6,0,0,1,14.51-5.09l-.64-1.12c1.11.35,5.65-.88,5.65-.88a8.8,8.8,0,0,1-1.05-1.56c1.41.85,5.68-1.76,5.68-1.76-.67-.16-1.48-1.39-1.48-1.39,2.32.53,5.55-1.55,5.55-1.55a15.12,15.12,0,0,1-.9-1.48c1.69.1,4-2.39,4-2.39l-1.25-1.38c1.61,0,4.27-2.46,4.27-2.46a6,6,0,0,1-1.78-1.3c1.22-.14,3.51-2.5,3.51-2.5a4.84,4.84,0,0,1-1.75-.92c1.17-.35,3-2.75,3-2.75a8.36,8.36,0,0,1-1.69-.57c1.62-.47,3.58-3.78,3.58-3.78l-.88-.31c1.54-1,3.41-4.28,3.79-5l.11-.09-.07,0,0-.07-.11.1c-.74.29-4.22,1.69-5.45,3.07l-.18-.91s-3.56,1.49-4.24,3a8.38,8.38,0,0,1-.33-1.76s-2.64,1.51-3.14,2.63a4.91,4.91,0,0,1-.68-1.86s-2.64,1.94-3,3.14a6.08,6.08,0,0,1-1-2s-2.81,2.3-3,3.89l-1.19-1.43s-2.79,2-2.92,3.66a16.55,16.55,0,0,1-1.34-1.1s-2.51,2.92-2.3,5.29c0,0-1.11-1-1.17-1.66,0,0-3.18,3.87-2.53,5.38a8.63,8.63,0,0,1-1.4-1.25s-1.84,4.33-1.65,5.48l-.86-.67c.66-1.33,1.09-2.1,1.09-2.1l-1.51-.31c1.18-.73,3.65-5.81,3.65-5.81a10.88,10.88,0,0,1-2.24-.28c1.89-.61,2.89-6.54,2.89-6.54a4.68,4.68,0,0,1-2.43.24c2.31-1.68,3-6.26,3-6.26a18.35,18.35,0,0,1-2-.35c1.42-1.45,1-5.53,1-5.53l-2.23.05c1.28-1.45,1.14-5.81,1.14-5.81a7.34,7.34,0,0,1-2.59.58c.84-1.22.51-5.15.51-5.15a5.88,5.88,0,0,1-2.22.85c.61-1.33-.1-4.92-.1-4.92a10.37,10.37,0,0,1-1.85,1.09c.85-1.84-.6-6.23-.6-6.23l-1,.55c.28-2.21-1.2-6.47-1.52-7.37v-.17l0,.09,0-.09V88c-.32.9-1.8,5.16-1.52,7.37l-1-.55s-1.46,4.39-.61,6.23a10.37,10.37,0,0,1-1.85-1.09s-.71,3.59-.1,4.92a5.88,5.88,0,0,1-2.22-.85s-.33,3.93.51,5.15a7.26,7.26,0,0,1-2.58-.58s-.15,4.36,1.14,5.81l-2.24-.05s-.42,4.08,1,5.53a18.54,18.54,0,0,1-2,.35s.66,4.58,3,6.26a4.68,4.68,0,0,1-2.43-.24s1,5.93,2.89,6.54a10.88,10.88,0,0,1-2.24.28s2.47,5.08,3.66,5.81l-1.52.31s.43.77,1.09,2.1l-.86.67c.19-1.15-1.65-5.48-1.65-5.48a9.08,9.08,0,0,1-1.4,1.25c.65-1.51-2.53-5.38-2.53-5.38-.06.68-1.17,1.66-1.17,1.66.2-2.37-2.3-5.29-2.3-5.29a16.55,16.55,0,0,1-1.34,1.1c-.13-1.69-2.92-3.66-2.92-3.66l-1.19,1.43c-.21-1.59-3-3.89-3-3.89a5.93,5.93,0,0,1-1,2c-.31-1.2-2.95-3.14-2.95-3.14a4.91,4.91,0,0,1-.68,1.86c-.5-1.12-3.14-2.63-3.14-2.63a9.18,9.18,0,0,1-.33,1.76c-.69-1.54-4.24-3-4.24-3l-.19.91c-1.22-1.38-4.7-2.78-5.44-3.07l-.11-.1a.28.28,0,0,0,0,.07l-.07,0,.1.09c.39.69,2.26,3.94,3.79,5l-.87.31s2,3.31,3.58,3.78a8.36,8.36,0,0,1-1.69.57s1.85,2.4,3,2.75a4.84,4.84,0,0,1-1.75.92s2.29,2.36,3.51,2.5a6,6,0,0,1-1.78,1.3s2.66,2.48,4.27,2.46l-1.26,1.38s2.34,2.49,4,2.39c0,0-.76,1.36-.9,1.48s3.23,2.08,5.55,1.55c0,0-.82,1.23-1.48,1.39,0,0,4.26,2.61,5.68,1.76a9.42,9.42,0,0,1-1.05,1.56s4.54,1.23,5.65.88l-.64,1.12a71.78,71.78,0,0,1,15.07,5.2"></path><path class="cls-4" d="M346.57,240.76l.39-.71,1.27-2.45v-3l0-8.46.12-7.89c.1.28.21.56.31.86,0,.08.05.13.07.2.07.22.16.43.25.66,0,0,0,0,0,0,.28.78.59,1.57.92,2.38.75,1.86,1.6,3.81,2.58,5.77.09.19.17.38.28.57l2.32-4.52c-.11-.21-.22-.42-.31-.63a78.39,78.39,0,0,1-6.26-17.28,1.1,1.1,0,0,1,0-.24v-.1s0-.09,0-.09h0l.24-16.24c.33.59.69,1.2,1.1,1.87a.44.44,0,0,1,.07.08,52,52,0,0,0,3.09,4.28h0l.63.89-.05.06c.16.16.3.32.44.49h0c.09.11.19.21.29.32a65.63,65.63,0,0,0,2.51,10.06c.15.45.31,1,.49,1.42,0,.14.09.27.13.42a.11.11,0,0,0,0,.06c.54,1.53,1.16,3.14,1.88,4.81l.3.67a.54.54,0,0,1,0,.11l2.41-4.7a1,1,0,0,1-.08-.18c-.09-.24-.2-.47-.28-.7a67.71,67.71,0,0,1-2.52-7.53,38.73,38.73,0,0,0,4.72,3.15l.5.27.18.1L367,201a2.39,2.39,0,0,0-.22-.12l-.51-.25a38.68,38.68,0,0,1-9-6.82l0,0c-.35-.39-.67-.76-1-1.15l-.74-.9a46.15,46.15,0,0,1-4.52-6.77h8.72s.41.8.48.9l0,0a24.07,24.07,0,0,0,5,5.55,42.62,42.62,0,0,0,4.07,3.25c.15.11.32.2.48.31l.29.17,2.31-4.51-.34-.18-.49-.27a25.71,25.71,0,0,1-6.35-5.27h10.12l2.79-5.44h-63l2.79,5.44H328a26,26,0,0,1-6.36,5.27l-.49.27-.34.18,2.32,4.51.28-.17c.16-.11.33-.2.48-.31a41.4,41.4,0,0,0,4.07-3.25,24.27,24.27,0,0,0,5-5.55l0,0c.07-.1.47-.88.48-.9h8.72a45.35,45.35,0,0,1-4.52,6.77l-.74.9c-.33.39-.64.76-1,1.15l0,0a38.75,38.75,0,0,1-9,6.82l-.5.25-.23.12,2.33,4.54.18-.1.51-.27a38.6,38.6,0,0,0,4.71-3.15,67.46,67.46,0,0,1-2.51,7.53c-.09.23-.19.46-.29.7a.58.58,0,0,1-.08.18l2.41,4.7s0-.07.05-.11c.11-.22.2-.44.31-.67.71-1.67,1.34-3.28,1.88-4.81l0-.06c.05-.15.09-.28.13-.42.19-.47.34-1,.49-1.42a64.43,64.43,0,0,0,2.51-10.06,4.2,4.2,0,0,0,.29-.32h0c.14-.17.28-.33.43-.49,0,0,0,0-.05-.06l.64-.89h0a49.45,49.45,0,0,0,3.08-4.28l.07-.08c.41-.67.78-1.28,1.11-1.87l.23,16.24h0s0,.05,0,.09v.1a.75.75,0,0,1,0,.24,78.39,78.39,0,0,1-6.26,17.28c-.09.21-.2.42-.3.63l2.32,4.52c.1-.19.18-.38.28-.57,1-2,1.82-3.91,2.57-5.77.33-.81.64-1.6.92-2.38,0,0,0,0,0,0a6.77,6.77,0,0,0,.25-.66c0-.07.05-.12.07-.2.11-.3.21-.58.32-.86l.12,7.89,0,8.46v3l1.27,2.45.39.71"></path></svg>