<svg xmlns="http://www.w3.org/2000/svg" viewBox="0 0 94 94"><defs><style>.cls-1{fill:#fff;}.cls-2{fill:#d80909;}.cls-3{fill:#8e8d8d;}</style></defs><g id="Layer_2" data-name="Layer 2"><g id="Layer_1-2" data-name="Layer 1"><circle class="cls-1" cx="47" cy="47" r="47"></circle><circle class="cls-1" cx="82.96" cy="17.57" r="7.11"></circle><path class="cls-2" d="M82.49,29.32A11.5,11.5,0,1,0,71,17.82,11.5,11.5,0,0,0,82.49,29.32ZM78.85,14.18a1.07,1.07,0,0,1,1.52,0l2.11,2.11,2.11-2.11a1.07,1.07,0,0,1,1.52,1.52L84,17.81l2.11,2.12a1.06,1.06,0,0,1,0,1.52,1.07,1.07,0,0,1-1.52,0l-2.11-2.11-2.11,2.11a1.07,1.07,0,0,1-1.52-1.52L81,17.81,78.85,15.7A1.06,1.06,0,0,1,78.85,14.18Z"></path><g id="_8d8d8dff" data-name="#8d8d8dff"><path class="cls-3" d="M28.59,23.66c11.23,0,22.47,0,33.71,0,0,3.87,0,7.75,0,11.62H74.56a.73.73,0,0,1,.71.74V49.71a.73.73,0,0,1-.72.75H62.3V64a3.4,3.4,0,0,1,3.16,2.77A3.33,3.33,0,0,1,64,70.11a3.52,3.52,0,0,1-1.94.57H28.76a3.45,3.45,0,0,1-2.58-1.1A3.35,3.35,0,0,1,28.53,64q0-17.94,0-35.89c0-1.48,0-2.95.05-4.43m1.35,1.22q0,19.56,0,39.14h31V50.46h-4V60a.77.77,0,0,1-.71.87H34.6a.76.76,0,0,1-.69-.87V39.29a.66.66,0,0,1,.59-.73c.78,0,1.56,0,2.34,0a.74.74,0,0,1,.77.43.7.7,0,0,1-.6,1c-.57,0-1.13,0-1.7,0V59.46H55.52v-9h-4a.73.73,0,0,1-.72-.75V40H40.35a.72.72,0,0,1-.72-.64.71.71,0,0,1,.72-.76h10.5c0-.88,0-1.76,0-2.64a.75.75,0,0,1,.8-.64H60.9c0-3.46,0-6.93,0-10.39H29.94m22.31,11.8v1.21l10.81,5.57L73.87,37.9V36.68H52.25m0,2.77v9.49q.45,0,.9,0c1.75-2.12,3.54-4.2,5.29-6.31-2.07-1.05-4.12-2.12-6.19-3.18m15.39,3.18c1.67,2.06,3.39,4.07,5.08,6.12.25.37.77.13,1.15.19V39.45c-2.08,1.06-4.15,2.14-6.23,3.18m-8,.66c-1.55,1.9-3.14,3.77-4.72,5.65H71.08c-1.56-1.89-3.15-3.76-4.71-5.65-1,.5-2,1.06-3.06,1.56-.41.2-.78-.11-1.13-.28-.84-.43-1.67-.89-2.52-1.29M27.88,65.55a1.94,1.94,0,0,0,.65,3.72H62.3a2,2,0,0,0,1.83-2,1.92,1.92,0,0,0-1.83-1.8H28.54A1.69,1.69,0,0,0,27.88,65.55Z"></path><path class="cls-3" d="M36.18,28.63c6.1,0,12.2,0,18.3,0a2.5,2.5,0,0,1,2,.95,2.58,2.58,0,0,1,0,3.14,2.52,2.52,0,0,1-2,.94h-18a2.55,2.55,0,0,1-2-.87,2.61,2.61,0,0,1-.14-3.09,2.45,2.45,0,0,1,1.83-1.05m-.26,1.47a1.13,1.13,0,0,0,.33,2.13H54.59a1,1,0,0,0,1-1A1.06,1.06,0,0,0,54.7,30H36.48A1.2,1.2,0,0,0,35.92,30.1Z"></path><path class="cls-3" d="M36.59,45.73a1.9,1.9,0,1,1,2.58,2.11c0,1,0,2.11,0,3.16a.73.73,0,0,1-.46.74.69.69,0,0,1-.94-.62c0-1.09,0-2.19,0-3.28a1.94,1.94,0,0,1-1.17-2.11m1.63.83c.2,0,.45,0,.59-.14a.51.51,0,0,0-.46-.86A.54.54,0,0,0,38.22,46.56Z"></path></g></g></g></svg>