<svg xmlns="http://www.w3.org/2000/svg" viewBox="0 0 94 94"><defs><style>.cls-1{fill:#fff;}.cls-2{fill:#1bda5f;}.cls-3{fill:#f26622;}</style></defs><g id="Layer_2" data-name="Layer 2"><g id="Layer_1-2" data-name="Layer 1"><circle class="cls-1" cx="47" cy="47" r="47"></circle><circle class="cls-1" cx="82.96" cy="17.57" r="7.11"></circle><path class="cls-2" d="M82.49,29.32A11.5,11.5,0,1,0,71,17.82,11.5,11.5,0,0,0,82.49,29.32Zm5.07-13.61-5.75,5.75a1.07,1.07,0,0,1-1.52,0l-2.88-2.88a1.07,1.07,0,0,1,0-1.52,1.09,1.09,0,0,1,1.53,0l2.11,2.11,5-5a1.09,1.09,0,0,1,1.53,0,1.07,1.07,0,0,1,0,1.52Z"></path><g id="_f78802ff" data-name="#f78802ff"><path class="cls-3" d="M44.58,24.36a4.73,4.73,0,0,1,3.6,0,4.67,4.67,0,0,1,2.56,2.74h2.62V28.7H51a4.68,4.68,0,1,1-6.44-4.34m-.93,2.77c1.79,0,3.59,0,5.39,0a3.12,3.12,0,0,0-5.39,0m-.43,1.57a3.13,3.13,0,0,0,6.25,0Z"></path><path class="cls-3" d="M43.88,34.47a8.63,8.63,0,0,1,3.24-.32,1.59,1.59,0,0,1,1.56,1.51c0,1.21,0,2.42,0,3.63L51.34,42q1.78,0,3.57,0a2.37,2.37,0,0,1,1.9,1,2.32,2.32,0,0,1,.24,2.3,2.36,2.36,0,0,1-2.14,1.4H49.46a1.1,1.1,0,0,1-.78-.46c0,.43,0,.86,0,1.29a.77.77,0,0,0,.68.72c1.17,0,2.33,0,3.5,0a3.13,3.13,0,0,1,2.83,2.95c0,2.73,0,5.46,0,8.19a3.71,3.71,0,0,1-.11,1.24,2.34,2.34,0,0,1-3.9.91A2.37,2.37,0,0,1,51,59.83v-7h-.83a5,5,0,0,1-2.51,3.53,3.9,3.9,0,0,0,1.69,7.38h6.36a9.42,9.42,0,0,1,3.1-6.19c0-2.83,0-5.65,0-8.48a4,4,0,0,1,.89-2.59A2.33,2.33,0,0,1,60.38,42c.77,0,1.55,0,2.33,0a.79.79,0,0,1,.78.81v2.93a.86.86,0,0,1-.31.77c-.31.23-.71.13-1.06.23Q63.05,51,64,55.26a26,26,0,0,1,2.65-.07v1.56a18,18,0,0,0-2.94.12,7.79,7.79,0,0,0-6.41,7.33,2,2,0,0,1-.07.65.77.77,0,0,1-.7.47c-4.7,0-9.41,0-14.11,0A6.15,6.15,0,0,1,40.59,69,6.22,6.22,0,0,1,30,65.33h-2.4a.8.8,0,0,1-.77-.7,13.19,13.19,0,0,1,2-7.09c-.45,0-.9,0-1.35,0a.79.79,0,0,1-.68-.81V52.86H25.3a.78.78,0,0,1-.76-.61,4.1,4.1,0,0,1,0-.7V39.65a.8.8,0,0,1,.78-.82H37.77a.8.8,0,0,1,.78.82V51.4a35.38,35.38,0,0,1,4-.1,5.49,5.49,0,0,1-1.65-3.85c0-2.92,0-5.85,0-8.77a4.7,4.7,0,0,1,3-4.21m-1.43,4.2c0,2.65,0,5.3,0,7.95h4.67v-2c-.95-1-1.91-1.91-2.86-2.86a.85.85,0,0,1-.26-.62V38.83h1.56v2l4.22,4.21h5.13a.79.79,0,0,0,.79-.72.8.8,0,0,0-.78-.84h-3.8a.87.87,0,0,1-.68-.25l-3.06-3.07a.83.83,0,0,1-.26-.61V35.71c-.61,0-1.23,0-1.84,0a3.12,3.12,0,0,0-2.83,3M26.08,40.39V51.3H37V40.39H34.65V45a.8.8,0,0,1-.37.7.76.76,0,0,1-.93-.09c-.61-.6-1.21-1.23-1.82-1.84-.59.6-1.17,1.2-1.76,1.79A.78.78,0,0,1,28.42,45c0-1.55,0-3.1,0-4.64H26.08m3.89,0v2.77c.35-.34.68-.7,1-1a.79.79,0,0,1,1.07,0c.35.34.68.69,1,1V40.39H30m29.62,3.84a.78.78,0,0,0,.77.83h1.57V43.5H60.38a.77.77,0,0,0-.79.73m.78,4.67v7.56a9.76,9.76,0,0,1,2.07-.9q-.84-3.93-1.69-7.88a2.34,2.34,0,0,0-.38,1.22m-17.85-.72a3.93,3.93,0,0,0,3.62,3.12h5.67a.79.79,0,0,1,.77.82v7.71a.77.77,0,0,0,.77.82.78.78,0,0,0,.79-.82c0-2.87,0-5.73,0-8.59a1.56,1.56,0,0,0-1.47-1.5c-1.1,0-2.2,0-3.3,0a2.36,2.36,0,0,1-2.1-1.55H42.52M31.88,52.85a3.57,3.57,0,0,1,.38,1,17.39,17.39,0,0,1,1.63-1h-2m-3.46,0V56a2.52,2.52,0,0,0,1.75-.33,1.58,1.58,0,0,0,0-2.45,2.53,2.53,0,0,0-1.75-.33m2.93,4a11.66,11.66,0,0,0-2.91,7c5.73,0,11.47,0,17.21,0A5.5,5.5,0,0,1,44,60.42c-.08-.47,0-1-.07-1.43a4,4,0,0,0-.64-1.33A3.72,3.72,0,0,0,40.21,56a7.83,7.83,0,0,0-7.74,6.22L31,61.88a9.36,9.36,0,0,1,9.54-7.45,5.29,5.29,0,0,1,4.29,2.64,5.47,5.47,0,0,1,2.14-2,3.47,3.47,0,0,0,1.7-2.19H40.79a14.72,14.72,0,0,0-1.76,0,11.65,11.65,0,0,0-7.68,3.9m.25,8.52a4.68,4.68,0,0,0,9.22,0H39.21a3.21,3.21,0,0,1-.78,1.39,3.11,3.11,0,0,1-5.23-1.39H31.6m3.26,0a1.61,1.61,0,0,0,.74.65,1.57,1.57,0,0,0,2-.65Q36.21,65.32,34.86,65.33Z"></path><path class="cls-3" d="M32.31,48.18h3.12v1.56H32.31Z"></path><path class="cls-3" d="M63.92,58.42A6.23,6.23,0,0,1,67.45,70.3a6.23,6.23,0,0,1-7.84-2.71,6.23,6.23,0,0,1,4.31-9.17m.27,1.52a4.69,4.69,0,1,0,3.68.87A4.7,4.7,0,0,0,64.19,59.94Z"></path><path class="cls-3" d="M64.22,61.55a3.11,3.11,0,0,1,2,5.89,3.11,3.11,0,0,1-3.48-5,3,3,0,0,1,1.49-.92m.27,1.54a1.56,1.56,0,1,0,2.06,1A1.57,1.57,0,0,0,64.49,63.09Z"></path></g></g></g></svg>