<svg xmlns="http://www.w3.org/2000/svg" viewBox="0 0 94 94"><defs><style>.cls-1{fill:#fff;}.cls-2{fill:#1bda5f;}.cls-3{fill:#f26622;}</style></defs><g id="Layer_2" data-name="Layer 2"><g id="Layer_1-2" data-name="Layer 1"><circle class="cls-1" cx="47" cy="47" r="47"></circle><circle class="cls-1" cx="82.96" cy="17.57" r="7.11"></circle><path class="cls-2" d="M82.49,29.32A11.5,11.5,0,1,0,71,17.82,11.5,11.5,0,0,0,82.49,29.32Zm5.07-13.61-5.75,5.75a1.07,1.07,0,0,1-1.52,0l-2.88-2.88a1.07,1.07,0,0,1,0-1.52,1.09,1.09,0,0,1,1.53,0l2.11,2.11,5-5a1.09,1.09,0,0,1,1.53,0,1.07,1.07,0,0,1,0,1.52Z"></path><g id="_f78802ff" data-name="#f78802ff"><path class="cls-3" d="M44.33,21.7a5.26,5.26,0,0,1,6.91,3.11h2.93v1.75H51.55a5.36,5.36,0,0,1-1.68,3.84,5.25,5.25,0,1,1-5.54-8.7m-1,3.11h6a3.48,3.48,0,0,0-6,0m-.48,1.75a3.5,3.5,0,1,0,7,0Z"></path><path class="cls-3" d="M43.54,33a9.65,9.65,0,0,1,3.63-.36,1.78,1.78,0,0,1,1.75,1.69c0,1.36,0,2.72,0,4.08l3,3h4a2.62,2.62,0,0,1,0,5.24H49.8a1.24,1.24,0,0,1-.88-.51c0,.48,0,1,0,1.45a.86.86,0,0,0,.75.81c1.31,0,2.63,0,3.94,0a3.53,3.53,0,0,1,3.17,3.31c0,3.06,0,6.13,0,9.19a4.12,4.12,0,0,1-.13,1.4,2.61,2.61,0,0,1-4.37,1,2.65,2.65,0,0,1-.74-1.87V53.67h-.93a5.6,5.6,0,0,1-2.82,4,4.39,4.39,0,0,0-1.58,6.43,4.34,4.34,0,0,0,3.48,1.84h7.13A10.52,10.52,0,0,1,60.32,59c-.06-3.17,0-6.34,0-9.51a4.51,4.51,0,0,1,1-2.91,2.61,2.61,0,0,1-1.73-1.69,2.58,2.58,0,0,1,.61-2.64,2.64,2.64,0,0,1,1.88-.79h2.62a.89.89,0,0,1,.87.91v3.29a1,1,0,0,1-.35.86c-.34.26-.8.15-1.18.26.69,3.21,1.37,6.41,2.06,9.62a29.37,29.37,0,0,1,3-.08V58a20.21,20.21,0,0,0-3.3.14,8.76,8.76,0,0,0-7.19,8.22,2,2,0,0,1-.08.73.89.89,0,0,1-.79.53c-5.27,0-10.55,0-15.82,0a7,7,0,0,1-13.86,0c-.9,0-1.79,0-2.69,0a.88.88,0,0,1-.86-.8,14.69,14.69,0,0,1,2.27-7.94c-.51,0-1,0-1.51,0a.9.9,0,0,1-.77-.91V53.67H22.69a.88.88,0,0,1-.85-.7,4.92,4.92,0,0,1,0-.77c0-4.45,0-8.9,0-13.35a.89.89,0,0,1,.87-.92h14a.89.89,0,0,1,.87.92c0,4.39,0,8.79,0,13.19A41.63,41.63,0,0,1,42,51.92a6.21,6.21,0,0,1-1.85-4.32c0-3.28,0-6.56,0-9.84A5.29,5.29,0,0,1,43.54,33m-1.61,4.71c0,3,0,6,0,8.92h5.24c0-.75,0-1.51,0-2.26L44,41.19a.88.88,0,0,1-.28-.69c0-.86,0-1.71,0-2.57h1.74c0,.75,0,1.51,0,2.27l4.73,4.73h5.76a.89.89,0,0,0,.89-.82.87.87,0,0,0-.88-.93H51.66a1,1,0,0,1-.76-.29l-3.44-3.45a.86.86,0,0,1-.28-.68c0-1.44,0-2.89,0-4.33-.68,0-1.37,0-2.06,0a3.51,3.51,0,0,0-3.18,3.31M23.56,39.68V51.92H35.81V39.68H33.18c0,1.73,0,3.47,0,5.2a.9.9,0,0,1-.41.78.84.84,0,0,1-1-.1c-.69-.67-1.36-1.38-2-2.06l-2,2a.88.88,0,0,1-.85.26.89.89,0,0,1-.66-.89v-5.2H23.56m4.38,0V42.8c.38-.39.75-.79,1.15-1.17a.9.9,0,0,1,1.2,0c.39.38.76.78,1.14,1.17V39.68H27.94M61.16,44a.87.87,0,0,0,.87.93h1.76V43.18H62.05a.87.87,0,0,0-.89.81M62,49.23v8.49a10.87,10.87,0,0,1,2.32-1c-.63-3-1.25-5.9-1.9-8.85A2.69,2.69,0,0,0,62,49.23m-20-.81a4.42,4.42,0,0,0,4.07,3.5c2.12,0,4.23,0,6.35,0a.89.89,0,0,1,.86.92q0,4.33,0,8.65a.88.88,0,1,0,1.76,0c0-3.21,0-6.42,0-9.63a1.75,1.75,0,0,0-1.64-1.69c-1.23,0-2.47,0-3.7,0a2.66,2.66,0,0,1-2.36-1.74H42M30.07,53.67a4,4,0,0,1,.43,1.17,16.69,16.69,0,0,1,1.83-1.17H30.07m-3.88,0v3.5a2.86,2.86,0,0,0,2-.38,1.76,1.76,0,0,0,0-2.74,2.78,2.78,0,0,0-2-.38m3.29,4.43a13.1,13.1,0,0,0-3.27,7.81H45.52a6.22,6.22,0,0,1-1.81-3.76c-.08-.53.06-1.08-.07-1.6a4.62,4.62,0,0,0-.72-1.5,4.14,4.14,0,0,0-3.5-1.89,8.71,8.71,0,0,0-5.81,2.11,8.82,8.82,0,0,0-2.88,4.86L29,63.79a10.52,10.52,0,0,1,10.7-8.36,6,6,0,0,1,4.82,3A6.16,6.16,0,0,1,47,56.13a3.81,3.81,0,0,0,1.9-2.46H40.07a18.7,18.7,0,0,0-2,0,13.11,13.11,0,0,0-8.61,4.38m.28,9.56a5.25,5.25,0,0,0,10.35,0H38.3a3.52,3.52,0,0,1-.88,1.56,3.48,3.48,0,0,1-3.71.84,3.52,3.52,0,0,1-2.15-2.4h-1.8m3.65,0a1.92,1.92,0,0,0,.84.73,1.78,1.78,0,0,0,2.2-.73C35.44,67.66,34.43,67.66,33.41,67.67Z"></path><path class="cls-3" d="M30.56,48.42h3.5v1.75h-3.5Z"></path><path class="cls-3" d="M66,59.91a7,7,0,0,1,7.92,4.75,6.92,6.92,0,0,1,0,4.36A7,7,0,1,1,66,59.91m.31,1.71a5.25,5.25,0,1,0,4.12,1A5.28,5.28,0,0,0,66.33,61.62Z"></path><path class="cls-3" d="M66.36,63.42a3.49,3.49,0,1,1-1.68,1,3.51,3.51,0,0,1,1.68-1m.31,1.73A1.75,1.75,0,1,0,69,66.3,1.77,1.77,0,0,0,66.67,65.15Z"></path></g></g></g></svg>