<svg xmlns="http://www.w3.org/2000/svg" width="225pt" height="225pt" viewBox="0 0 225 225"><g id="#000000ff"><path fill="#000000" opacity="1.00" d=" M 87.15 74.17 C 97.19 58.19 122.88 56.90 135.23 70.78 C 137.66 73.59 139.63 76.84 140.84 80.37 C 142.67 87.16 142.01 94.27 141.48 101.19 C 144.75 100.29 148.35 98.39 151.62 100.38 C 155.00 101.67 155.72 106.70 152.87 108.89 C 149.78 111.97 144.69 111.57 141.83 114.92 C 145.01 122.69 150.87 129.98 159.12 132.55 C 161.04 133.31 163.80 133.13 164.78 135.33 C 166.09 137.57 164.38 140.14 162.45 141.36 C 159.04 143.45 154.97 143.96 151.15 144.90 C 150.49 147.33 150.34 151.37 146.96 151.44 C 143.32 151.40 139.74 150.13 136.08 150.71 C 131.35 151.19 128.04 154.98 124.04 157.12 C 117.34 161.24 108.43 161.28 101.64 157.33 C 97.41 155.13 93.94 151.08 88.93 150.70 C 85.24 150.09 81.64 151.64 77.96 151.42 C 74.86 150.93 74.72 147.28 74.15 144.84 C 69.86 143.80 65.09 143.33 61.62 140.34 C 59.79 138.73 59.22 135.95 61.09 134.12 C 63.16 132.92 65.66 132.80 67.83 131.80 C 74.69 128.85 79.87 122.73 82.66 115.90 C 83.48 114.52 82.07 113.51 80.96 113.02 C 77.60 111.44 73.48 110.85 71.11 107.69 C 69.51 105.18 70.49 101.51 73.31 100.36 C 76.60 98.28 80.18 100.59 83.53 101.18 C 82.86 92.15 81.69 82.06 87.15 74.17 M 86.56 81.13 C 84.63 88.29 85.86 95.74 86.12 103.02 C 83.28 103.92 80.45 103.15 77.76 102.19 C 75.49 101.30 72.11 103.24 73.02 105.93 C 75.82 110.03 82.11 108.99 84.90 113.09 C 85.75 114.60 85.20 116.48 84.54 117.97 C 81.27 125.13 75.61 131.48 68.17 134.39 C 66.10 135.20 63.71 135.31 61.96 136.81 C 65.08 141.31 71.08 141.46 75.94 142.54 C 76.59 144.74 77.26 146.92 77.86 149.13 C 83.49 148.45 89.70 146.86 94.90 149.99 C 100.22 153.22 105.33 157.89 111.98 157.67 C 119.00 158.36 124.66 153.71 130.14 150.11 C 135.43 146.73 141.77 148.65 147.56 148.92 C 148.09 146.84 148.63 144.77 149.17 142.70 C 153.97 141.47 159.68 141.36 163.13 137.28 C 161.85 135.20 159.15 135.43 157.13 134.56 C 150.64 132.10 145.45 126.99 142.02 121.03 C 140.74 118.67 138.92 115.93 140.06 113.15 C 142.90 109.10 149.17 110.09 151.98 106.02 C 152.33 104.63 151.92 103.24 150.54 102.65 C 146.70 100.63 142.86 104.92 138.87 103.09 C 139.17 95.87 140.27 88.52 138.51 81.41 C 136.35 74.71 131.21 69.02 124.74 66.22 C 118.64 63.49 111.66 63.26 105.18 64.54 C 96.67 66.40 89.26 72.81 86.56 81.13 Z"></path></g><g id="#fffc00ff"><path fill="#fffc00" opacity="1.00" d=" M 108.46 0.00 L 116.39 0.00 C 141.30 0.74 165.79 10.18 184.81 26.27 C 209.01 46.38 224.08 77.00 225.00 108.49 L 225.00 116.50 C 224.20 141.35 214.81 165.80 198.74 184.77 C 178.65 209.00 148.00 224.10 116.51 225.00 L 108.58 225.00 C 83.45 224.21 58.73 214.63 39.65 198.25 C 15.75 178.17 0.92 147.77 0.00 116.54 L 0.00 108.55 C 0.89 77.04 15.96 46.34 40.23 26.25 C 59.18 10.18 83.63 0.82 108.46 0.00 M 87.15 74.17 C 81.69 82.06 82.86 92.15 83.53 101.18 C 80.18 100.59 76.60 98.28 73.31 100.36 C 70.49 101.51 69.51 105.18 71.11 107.69 C 73.48 110.85 77.60 111.44 80.96 113.02 C 82.07 113.51 83.48 114.52 82.66 115.90 C 79.87 122.73 74.69 128.85 67.83 131.80 C 65.66 132.80 63.16 132.92 61.09 134.12 C 59.22 135.95 59.79 138.73 61.62 140.34 C 65.09 143.33 69.86 143.80 74.15 144.84 C 74.72 147.28 74.86 150.93 77.96 151.42 C 81.64 151.64 85.24 150.09 88.93 150.70 C 93.94 151.08 97.41 155.13 101.64 157.33 C 108.43 161.28 117.34 161.24 124.04 157.12 C 128.04 154.98 131.35 151.19 136.08 150.71 C 139.74 150.13 143.32 151.40 146.96 151.44 C 150.34 151.37 150.49 147.33 151.15 144.90 C 154.97 143.96 159.04 143.45 162.45 141.36 C 164.38 140.14 166.09 137.57 164.78 135.33 C 163.80 133.13 161.04 133.31 159.12 132.55 C 150.87 129.98 145.01 122.69 141.83 114.92 C 144.69 111.57 149.78 111.97 152.87 108.89 C 155.72 106.70 155.00 101.67 151.62 100.38 C 148.35 98.39 144.75 100.29 141.48 101.19 C 142.01 94.27 142.67 87.16 140.84 80.37 C 139.63 76.84 137.66 73.59 135.23 70.78 C 122.88 56.90 97.19 58.19 87.15 74.17 Z"></path></g><g id="#ffffffff"><path fill="#ffffff" opacity="1.00" d=" M 86.56 81.13 C 89.26 72.81 96.67 66.40 105.18 64.54 C 111.66 63.26 118.64 63.49 124.74 66.22 C 131.21 69.02 136.35 74.71 138.51 81.41 C 140.27 88.52 139.17 95.87 138.87 103.09 C 142.86 104.92 146.70 100.63 150.54 102.65 C 151.92 103.24 152.33 104.63 151.98 106.02 C 149.17 110.09 142.90 109.10 140.06 113.15 C 138.92 115.93 140.74 118.67 142.02 121.03 C 145.45 126.99 150.64 132.10 157.13 134.56 C 159.15 135.43 161.85 135.20 163.13 137.28 C 159.68 141.36 153.97 141.47 149.17 142.70 C 148.63 144.77 148.09 146.84 147.56 148.92 C 141.77 148.65 135.43 146.73 130.14 150.11 C 124.66 153.71 119.00 158.36 111.98 157.67 C 105.33 157.89 100.22 153.22 94.90 149.99 C 89.70 146.86 83.49 148.45 77.86 149.13 C 77.26 146.92 76.59 144.74 75.94 142.54 C 71.08 141.46 65.08 141.31 61.96 136.81 C 63.71 135.31 66.10 135.20 68.17 134.39 C 75.61 131.48 81.27 125.13 84.54 117.97 C 85.20 116.48 85.75 114.60 84.90 113.09 C 82.11 108.99 75.82 110.03 73.02 105.93 C 72.11 103.24 75.49 101.30 77.76 102.19 C 80.45 103.15 83.28 103.92 86.12 103.02 C 85.86 95.74 84.63 88.29 86.56 81.13 Z"></path></g></svg>