<svg xmlns="http://www.w3.org/2000/svg" id="Layer_1" data-name="Layer 1" viewBox="0 0 96 96"><circle cx="45.28" cy="47.08" r="44.06" style="fill:#f26622"></circle><path d="M43.48,8.44a44.72,44.72,0,0,1,28.66,4.22A44.07,44.07,0,1,1,43.48,8.44m-.11,2.61A41.73,41.73,0,0,0,12.24,65c5.6,17.76,24.26,30.36,42.87,28.39,14.64-.93,28.19-10.46,34.35-23.72,8.48-17.12,3-39.52-12.39-50.84a41.46,41.46,0,0,0-33.69-7.74Z"></path><path d="M52.85,79a10.35,10.35,0,0,1-7.72-3.25,16.61,16.61,0,0,1-4.25-8.15L43,66.68a14.63,14.63,0,0,0,3.48,6.95,8.33,8.33,0,0,0,6.37,2.79q5.22,0,8-3.21C62.68,71.07,63.6,68,63.6,64a14,14,0,0,0-1.51-6.68A11,11,0,0,0,58,53a11.18,11.18,0,0,0-5.86-1.55H50.86V48.87h1.28a9.56,9.56,0,0,0,7.53-3.1,11.84,11.84,0,0,0,2.77-8.22,11.74,11.74,0,0,0-1.35-6,8.73,8.73,0,0,0-3.54-3.44A10.12,10.12,0,0,0,52.85,27a7.49,7.49,0,0,0-6,2.75,17.17,17.17,0,0,0-3.44,6.68l-2.13-1a17,17,0,0,1,4.8-8.3,10.07,10.07,0,0,1,6.72-2.79,11.22,11.22,0,0,1,8.47,3.47q3.32,3.47,3.31,9.74a15.41,15.41,0,0,1-1.9,7.73,11.09,11.09,0,0,1-5.31,4.87,12.4,12.4,0,0,1,6.08,5.13A16,16,0,0,1,65.85,64a20.42,20.42,0,0,1-1.32,7.47A11.7,11.7,0,0,1,60.35,77,12.65,12.65,0,0,1,52.85,79Z"></path></svg>