<svg xmlns="http://www.w3.org/2000/svg" viewBox="0 0 95.62 95.62"><defs><style>.cls-1{fill:#93b74c;stroke:#fff;stroke-miterlimit:10;stroke-width:2px;}.cls-2{fill:#fff;}</style></defs><g id="Layer_2" data-name="Layer 2"><g id="Layer_1-2" data-name="Layer 1"><circle class="cls-1" cx="47.81" cy="47.81" r="46.81"></circle><path class="cls-2" d="M33.77,19.49q5.63-4.57,14.6-4.58a23,23,0,0,1,10.34,2.16,15.63,15.63,0,0,1,6.6,5.85,15.82,15.82,0,0,1,2.24,8.35,14.76,14.76,0,0,1-3.12,9.42,14.05,14.05,0,0,1-8.14,5.1v.44a16.25,16.25,0,0,1,9.06,5.54q3.34,4.14,3.34,10.82a17.82,17.82,0,0,1-2.29,9,15.72,15.72,0,0,1-6.86,6.28,24.27,24.27,0,0,1-11,2.29q-9.33,0-15.31-4.88T26.56,61.45H34.3a13.25,13.25,0,0,0,4.31,8.62q3.69,3.34,9.85,3.34t9.37-3.21A11.24,11.24,0,0,0,61,61.89q0-6.6-4.4-9.5T43.36,49.48h-2V42.8h2.11q8.09-.09,12.22-2.69c2.76-1.72,4.14-4.41,4.14-8a9.7,9.7,0,0,0-3-7.48q-3-2.82-8.66-2.82a13.19,13.19,0,0,0-8.8,2.82,11.41,11.41,0,0,0-4,7.56H27.52Q28.14,24.07,33.77,19.49Z"></path></g></g></svg>