<svg xmlns="http://www.w3.org/2000/svg" id="Layer_1" data-name="Layer 1" viewBox="0 0 96 96"><path d="M39,1a48.47,48.47,0,0,1,31.1,4.58A47.82,47.82,0,1,1,39,1m-.12,2.84A44.65,44.65,0,0,0,12.5,20.24a45.11,45.11,0,0,0-7.37,42.1c6.08,19.27,26.33,32.94,46.52,30.8,15.88-1,30.58-11.35,37.27-25.73,9.2-18.58,3.23-42.88-13.44-55.17A45,45,0,0,0,38.92,3.85Z"></path><path d="M36.84,76.57V75.18A19,19,0,0,1,38.62,67a39.69,39.69,0,0,1,4.54-7.41q2.76-3.6,5.69-7c1.77-2.13,3.44-4.21,5-6.23a37.56,37.56,0,0,0,3.91-6.06,14.26,14.26,0,0,0,1.6-6.22q.15-6.22-2.62-9.34a9.69,9.69,0,0,0-7.64-3.11,8.67,8.67,0,0,0-6.78,3.19q-2.79,3.2-2.79,9.42H37.12a19.89,19.89,0,0,1,1.53-8.07,13.08,13.08,0,0,1,4.26-5.44,10.38,10.38,0,0,1,6.22-2,11.67,11.67,0,0,1,9.42,4.05Q62,26.87,61.77,34.15A16.83,16.83,0,0,1,60,41.27,37.91,37.91,0,0,1,55.8,48c-1.7,2.18-3.46,4.37-5.28,6.55s-3.4,4.15-5,6.23a39.81,39.81,0,0,0-4.12,6.34,18.37,18.37,0,0,0-2,6.68H61.49v2.78Z"></path></svg>