<svg xmlns="http://www.w3.org/2000/svg" xmlns:xlink="http://www.w3.org/1999/xlink" id="Layer_1" x="0px" y="0px" viewBox="0 0 95.6 95.6" style="enable-background:new 0 0 95.6 95.6;" xml:space="preserve"><style type="text/css">	.st0{fill:#FFFFFF;stroke:#000000;stroke-width:2;stroke-miterlimit:10;}</style><circle class="st0" cx="47.8" cy="47.8" r="46.8"></circle><path d="M33.8,19.5c3.8-3,8.6-4.6,14.6-4.6c3.6-0.1,7.1,0.6,10.3,2.2c2.7,1.3,5,3.3,6.6,5.9c1.5,2.5,2.3,5.4,2.2,8.4 c0.1,3.4-1,6.7-3.1,9.4c-2,2.6-4.9,4.4-8.1,5.1v0.4c3.6,0.8,6.7,2.7,9.1,5.5c2.2,2.8,3.3,6.4,3.3,10.8c0,3.1-0.7,6.3-2.3,9 c-1.6,2.7-4,4.9-6.9,6.3c-3.4,1.6-7.2,2.4-11,2.3c-6.2,0-11.3-1.6-15.3-4.9s-6.2-7.9-6.7-13.8h7.7c0.3,3.3,1.8,6.4,4.3,8.6 c2.5,2.2,5.7,3.3,9.8,3.3s7.2-1.1,9.4-3.2C60,68,61.1,65,61,61.9c0-4.4-1.5-7.6-4.4-9.5c-2.9-1.9-7.3-2.9-13.2-2.9h-2v-6.7h2.1 c5.4-0.1,9.5-1,12.2-2.7c2.8-1.7,4.1-4.4,4.1-8c0.1-2.8-1-5.5-3-7.5c-2-1.9-4.9-2.8-8.7-2.8c-3.2-0.2-6.3,0.8-8.8,2.8 c-2.3,1.9-3.7,4.6-4,7.6h-7.9C27.9,26.8,30,22.5,33.8,19.5z"></path></svg>