<svg xmlns="http://www.w3.org/2000/svg" id="Layer_1" data-name="Layer 1" viewBox="0 0 96 96"><circle cx="45.28" cy="47.08" r="44.06" style="fill:#f26622"></circle><path d="M43.48,8.44a44.72,44.72,0,0,1,28.66,4.22A44.07,44.07,0,1,1,43.48,8.44m-.11,2.61A41.73,41.73,0,0,0,12.24,65c5.6,17.76,24.26,30.36,42.87,28.39,14.64-.93,28.19-10.46,34.35-23.72,8.48-17.12,3-39.52-12.39-50.84a41.46,41.46,0,0,0-33.69-7.74Z"></path><path d="M41.46,78.08V76.8a17.56,17.56,0,0,1,1.64-7.51,37,37,0,0,1,4.19-6.83c1.69-2.22,3.44-4.38,5.24-6.5,1.63-2,3.18-3.87,4.63-5.73a34.5,34.5,0,0,0,3.61-5.59,13.19,13.19,0,0,0,1.48-5.73q.12-5.74-2.41-8.61a9,9,0,0,0-7.05-2.87,8,8,0,0,0-6.25,2.95Q44,33.32,44,39.06H41.72a18.36,18.36,0,0,1,1.41-7.44,12.08,12.08,0,0,1,3.93-5,9.51,9.51,0,0,1,5.73-1.81,10.78,10.78,0,0,1,8.69,3.74q3.15,3.73,3,10.45a15.63,15.63,0,0,1-1.61,6.57,35.42,35.42,0,0,1-3.9,6.19q-2.34,3-4.85,6-2.38,2.86-4.64,5.73a37.59,37.59,0,0,0-3.8,5.85,16.94,16.94,0,0,0-1.86,6.15h20.4v2.57Z"></path></svg>