<svg xmlns="http://www.w3.org/2000/svg" id="Layer_1" data-name="Layer 1" viewBox="0 0 96 96"><path d="M39,1a48.47,48.47,0,0,1,31.1,4.58A47.82,47.82,0,1,1,39,1m-.12,2.84A44.65,44.65,0,0,0,12.5,20.24a45.11,45.11,0,0,0-7.37,42.1c6.08,19.27,26.33,32.94,46.52,30.8,15.88-1,30.58-11.35,37.27-25.73,9.2-18.58,3.23-42.88-13.44-55.17A45,45,0,0,0,38.92,3.85Z"></path><path d="M49.2,77.55A11.21,11.21,0,0,1,40.82,74a18,18,0,0,1-4.61-8.84l2.3-1a15.82,15.82,0,0,0,3.77,7.53,9,9,0,0,0,6.92,3q5.65,0,8.66-3.48t3-10a15.21,15.21,0,0,0-1.64-7.25,11.81,11.81,0,0,0-10.79-6.43H47V44.88h1.4a10.41,10.41,0,0,0,8.17-3.36,12.9,12.9,0,0,0,3-8.93,12.86,12.86,0,0,0-1.46-6.51,9.51,9.51,0,0,0-3.85-3.73,11,11,0,0,0-5.09-1.22,8.1,8.1,0,0,0-6.46,3A18.67,18.67,0,0,0,39,31.36L36.7,30.3q1.74-6,5.2-9a10.94,10.94,0,0,1,7.3-3A12.15,12.15,0,0,1,58.38,22Q62,25.8,62,32.59A16.81,16.81,0,0,1,59.92,41a12.17,12.17,0,0,1-5.76,5.28,13.49,13.49,0,0,1,6.6,5.57,17.4,17.4,0,0,1,2.54,9.5,22.11,22.11,0,0,1-1.43,8.11,12.69,12.69,0,0,1-4.54,5.89A13.67,13.67,0,0,1,49.2,77.55Z"></path></svg>