<svg xmlns="http://www.w3.org/2000/svg" width="620pt" height="300pt" viewBox="0 0 620 300"><g id="#000000ff"><path fill="#000000" opacity="1.00" d=" M 295.56 22.82 C 314.85 20.71 334.64 22.82 352.93 29.36 C 390.79 42.55 421.46 74.57 432.69 113.09 C 434.33 116.87 433.69 120.99 434.61 124.91 C 437.62 140.22 437.68 156.06 435.14 171.45 C 434.42 174.61 433.83 177.82 433.95 181.08 C 423.49 224.05 388.60 259.78 346.11 271.83 C 306.52 283.66 261.42 274.87 229.46 248.58 C 208.71 231.94 193.38 208.62 186.45 182.93 C 181.84 166.05 180.88 148.22 183.36 130.91 C 187.16 104.49 199.69 79.42 218.44 60.44 C 238.79 39.51 266.54 25.95 295.56 22.82 M 307.95 66.83 C 308.16 103.90 307.78 140.92 307.89 178.01 C 308.18 185.04 304.88 192.01 299.49 196.47 C 292.47 202.54 281.85 203.56 273.59 199.50 C 273.47 199.40 273.21 199.18 273.09 199.08 C 266.82 190.20 267.55 177.07 275.34 169.34 C 281.32 162.73 291.10 160.36 299.57 162.87 C 299.55 153.38 299.55 143.89 299.57 134.40 C 296.83 134.02 294.08 133.71 291.32 133.80 C 291.31 131.63 291.41 129.46 291.31 127.30 C 274.66 124.67 257.01 131.32 245.85 143.87 C 236.95 153.56 232.05 166.80 232.52 179.94 C 232.83 193.82 239.24 207.29 249.48 216.62 L 250.87 217.09 C 250.71 217.25 250.39 217.55 250.23 217.70 C 252.51 217.64 253.89 220.77 256.04 221.75 C 256.40 222.98 257.67 223.53 258.47 224.43 C 267.91 232.71 280.44 237.30 292.98 237.19 C 306.84 237.06 320.58 231.16 330.07 221.02 C 339.26 211.48 344.51 198.27 344.34 185.02 C 344.32 166.25 344.37 147.48 344.31 128.71 C 346.35 129.61 348.03 131.13 350.03 132.12 C 360.12 138.07 371.80 140.83 383.44 141.17 C 383.54 131.75 383.56 122.32 383.43 112.91 C 380.72 112.87 378.03 112.65 375.38 112.15 C 375.38 110.04 375.44 107.93 375.35 105.83 C 368.02 106.01 360.94 103.58 354.62 100.06 C 354.33 99.82 353.77 99.36 353.48 99.13 C 347.78 91.97 344.35 83.05 344.27 73.86 C 341.76 73.84 339.25 73.86 336.74 73.85 L 336.71 73.85 C 336.43 71.52 336.21 69.18 336.16 66.83 C 326.76 66.79 317.35 66.78 307.95 66.83 Z"></path></g><g id="#25f4eeff"><path fill="#25f4ee" opacity="1.00" d=" M 307.95 66.83 C 317.35 66.78 326.76 66.79 336.16 66.83 C 336.21 69.18 336.43 71.52 336.71 73.85 C 329.90 73.90 323.09 73.76 316.29 73.92 C 316.11 111.59 316.34 149.28 316.16 186.95 C 315.60 196.41 308.82 205.14 299.75 207.93 C 290.42 211.15 279.32 207.54 273.59 199.50 C 281.85 203.56 292.47 202.54 299.49 196.47 C 304.88 192.01 308.18 185.04 307.89 178.01 C 307.78 140.92 308.16 103.90 307.95 66.83 Z"></path><path fill="#25f4ee" opacity="1.00" d=" M 354.62 100.06 C 360.94 103.58 368.02 106.01 375.35 105.83 C 375.44 107.93 375.38 110.04 375.38 112.15 C 367.46 110.39 359.90 106.27 354.62 100.06 Z"></path><path fill="#25f4ee" opacity="1.00" d=" M 245.85 143.87 C 257.01 131.32 274.66 124.67 291.31 127.30 C 291.41 129.46 291.31 131.63 291.32 133.80 C 283.71 134.10 276.12 135.84 269.32 139.32 C 254.78 146.48 243.97 160.84 241.41 176.88 C 238.99 190.32 242.41 204.70 250.54 215.67 L 250.87 217.09 L 249.48 216.62 C 239.24 207.29 232.83 193.82 232.52 179.94 C 232.05 166.80 236.95 153.56 245.85 143.87 Z"></path></g><g id="#ffffffff"><path fill="#ffffff" opacity="1.00" d=" M 316.29 73.92 C 323.09 73.76 329.90 73.90 336.71 73.85 L 336.74 73.85 C 338.74 84.03 344.74 93.46 353.48 99.13 C 353.77 99.36 354.33 99.82 354.62 100.06 C 359.90 106.27 367.46 110.39 375.38 112.15 C 375.38 119.39 375.43 126.63 375.36 133.87 C 361.40 134.08 347.64 129.37 336.21 121.48 C 336.25 140.32 336.21 159.17 336.23 178.02 C 336.27 191.47 330.91 204.87 321.42 214.43 C 311.72 224.35 297.92 230.32 283.99 229.90 C 274.09 230.16 264.44 226.83 256.04 221.75 C 253.89 220.77 252.51 217.64 250.23 217.70 C 250.39 217.55 250.71 217.25 250.87 217.09 L 250.54 215.67 C 242.41 204.70 238.99 190.32 241.41 176.88 C 243.97 160.84 254.78 146.48 269.32 139.32 C 276.12 135.84 283.71 134.10 291.32 133.80 C 291.36 141.11 291.31 148.43 291.35 155.75 C 284.53 153.77 276.86 154.78 271.01 158.89 C 264.42 163.23 260.39 171.12 260.62 178.99 C 260.78 187.29 265.76 195.21 273.09 199.08 C 273.21 199.18 273.47 199.40 273.59 199.50 C 279.32 207.54 290.42 211.15 299.75 207.93 C 308.82 205.14 315.60 196.41 316.16 186.95 C 316.34 149.28 316.11 111.59 316.29 73.92 Z"></path></g><g id="#fe2c55ff"><path fill="#fe2c55" opacity="1.00" d=" M 336.74 73.85 C 339.25 73.86 341.76 73.84 344.27 73.86 C 344.35 83.05 347.78 91.97 353.48 99.13 C 344.74 93.46 338.74 84.03 336.74 73.85 Z"></path><path fill="#fe2c55" opacity="1.00" d=" M 375.38 112.15 C 378.03 112.65 380.72 112.87 383.43 112.91 C 383.56 122.32 383.54 131.75 383.44 141.17 C 371.80 140.83 360.12 138.07 350.03 132.12 C 348.03 131.13 346.35 129.61 344.31 128.71 C 344.37 147.48 344.32 166.25 344.34 185.02 C 344.51 198.27 339.26 211.48 330.07 221.02 C 320.58 231.16 306.84 237.06 292.98 237.19 C 280.44 237.30 267.91 232.71 258.47 224.43 C 257.67 223.53 256.40 222.98 256.04 221.75 C 264.44 226.83 274.09 230.16 283.99 229.90 C 297.92 230.32 311.72 224.35 321.42 214.43 C 330.91 204.87 336.27 191.47 336.23 178.02 C 336.21 159.17 336.25 140.32 336.21 121.48 C 347.64 129.37 361.40 134.08 375.36 133.87 C 375.43 126.63 375.38 119.39 375.38 112.15 Z"></path><path fill="#fe2c55" opacity="1.00" d=" M 291.32 133.80 C 294.08 133.71 296.83 134.02 299.57 134.40 C 299.55 143.89 299.55 153.38 299.57 162.87 C 291.10 160.36 281.32 162.73 275.34 169.34 C 267.55 177.07 266.82 190.20 273.09 199.08 C 265.76 195.21 260.78 187.29 260.62 178.99 C 260.39 171.12 264.42 163.23 271.01 158.89 C 276.86 154.78 284.53 153.77 291.35 155.75 C 291.31 148.43 291.36 141.11 291.32 133.80 Z"></path></g></svg>