<svg xmlns="http://www.w3.org/2000/svg" id="Layer_1" data-name="Layer 1" viewBox="0 0 288 300"><defs><style>.cls-1{fill:#e30016;}.cls-2{fill:#1b1918;}</style></defs><path class="cls-1" d="M97.79,126.63h.26c.11.06.25.11.28.26.18.55.31,1.12.47,1.67a1.87,1.87,0,0,0,.35.8,2.44,2.44,0,0,0,1.09.51q.36,1.33.69,2.67a2.62,2.62,0,0,0,1.76,1.93c.24.12.55.18.69.45.55.87,1.12,1.73,1.67,2.6.2.36.6.53.88.81a1.68,1.68,0,0,1,.6,1.44c-.15,1.5.09,3.11-.61,4.5-.14.42-.62.49-.87.81-.4.5-.58,1.13-.94,1.66a10.08,10.08,0,0,0-.8,1.57l-2.92,1.34c-.18-.19-.35-.4-.55-.58a7.53,7.53,0,0,0-1.09.57l-2.47-1c-.08-.43,0-.93-.31-1.28l-1-1.42.14-.49c-.11-.1-.21-.21-.31-.32a2.23,2.23,0,0,0-1,.93c-.14.26-.47.19-.72.23-.48-.52-1-1-1.47-1.53a1.17,1.17,0,0,0-.72-.28,5,5,0,0,0-3.31.39c-.37.24-.83.19-1.23.36A3.1,3.1,0,0,0,85,146.63a9.49,9.49,0,0,0-3.06,1.27c-.28.21-.48.51-.76.7a2.85,2.85,0,0,1-2-.07c0-.05-.11-.16-.14-.22.14-.4.42-.81.25-1.25-.4-1.52-1.89-2.41-2.39-3.87-.14-.36-.12-.75-.26-1.1s-.65-.51-.78-.91a1.61,1.61,0,0,1,0-1.29,3.32,3.32,0,0,1,2-2.07c.67-.27,1.29-.65,1.94-1a3.5,3.5,0,0,0,1.92-3.05,10.29,10.29,0,0,0,2.27-2.43,2,2,0,0,1,1.34-.73,11.59,11.59,0,0,1,1.21.63l.66-.3a17.47,17.47,0,0,0,1-2.28,5.24,5.24,0,0,0,1.74-.73c1,0,1.9,0,2.85,0,.2,0,.5.22.34.44-.29.53-.61,1-.92,1.56a2,2,0,0,0,.62.9c.81.67,1.92.79,2.78,1.38.28.2.51.53.89.53a.85.85,0,0,0,.92-.76C97.48,130.22,97.59,128.42,97.79,126.63Z"></path><path class="cls-1" d="M100.05,151.2c.32.12.57.39.93.38.53,0,1.06-.09,1.6-.11a1.22,1.22,0,0,1-.5,1.34,4.19,4.19,0,0,1-.76.57,3.8,3.8,0,0,1-.89-.11C100.3,152.58,100.16,151.89,100.05,151.2Z"></path><path class="cls-2" d="M117.41,133.24a1.15,1.15,0,0,1,.55-.1c2.66.08,5.33.15,8,.1,2.83,0,5.66-.08,8.5-.1,0,1.44-.23,2.86-.26,4.3h-1a7.08,7.08,0,0,0-.29-2.2c-.17-.4-.67-.41-1-.46-1.33,0-2.65,0-4,0,0,4.64,0,9.27,0,13.9.05.42,0,1,.47,1.19a16.14,16.14,0,0,0,1.85.25v1c-2.09,0-4.18-.23-6.27-.08-.74,0-1.48.08-2.22.08v-1a5.71,5.71,0,0,0,1.93-.27c.26-.08.3-.39.35-.62a23.54,23.54,0,0,0,.1-3.14V134.77h-3.88a1.67,1.67,0,0,0-1.09.32,12.28,12.28,0,0,0-.29,2.35H117.7A34.59,34.59,0,0,0,117.41,133.24Z"></path><path class="cls-2" d="M135.91,133.14c1.63,0,3.26.1,4.89.12,1.2,0,2.4-.1,3.61-.12v1.09a4.44,4.44,0,0,0-2,.21c-.36.28-.24.8-.3,1.19-.06,1.78,0,3.56,0,5.34,2.77.07,5.54.11,8.31,0,0-1.78,0-3.56,0-5.34-.05-.43,0-1-.48-1.25s-1.25-.1-1.87-.16q0-.54,0-1.08c1.23,0,2.45.1,3.68.12,1.61,0,3.21-.1,4.81-.12v1.08c-.52,0-1,.09-1.54.14a.66.66,0,0,0-.65.49,8.6,8.6,0,0,0-.12,1.9v11a4.78,4.78,0,0,0,.2,1.92c.59.46,1.42.23,2.11.42v1a47.21,47.21,0,0,0-8.49,0c0-.34,0-.67,0-1a14.39,14.39,0,0,0,1.61-.16.81.81,0,0,0,.69-.7c.11-1,.07-2,.08-3.05v-3.64c-2.77-.1-5.54-.08-8.31,0,0,2,0,3.91,0,5.87a2.5,2.5,0,0,0,.29,1.35,4.73,4.73,0,0,0,2,.33c0,.34,0,.67,0,1-2,0-4.06-.22-6.09-.08-.8,0-1.6.07-2.41.08v-1a12.92,12.92,0,0,0,2.05-.35,3.25,3.25,0,0,0,.36-1.88V136.29a3.56,3.56,0,0,0-.33-1.68,5.6,5.6,0,0,0-2.08-.38Z"></path><path class="cls-2" d="M158.44,133.14c1.47.05,2.93.12,4.4.12q3.25-.1,6.51-.12a31.59,31.59,0,0,1,3.23.09.34.34,0,0,1,.12.36l-.36,3.63h-1c-.09-.67-.13-1.35-.23-2-.17-.23-.5-.21-.75-.28a52.69,52.69,0,0,0-5.76-.15c0,2.09,0,4.19,0,6.28.94,0,1.88.13,2.82,0a8,8,0,0,0,1.83-.15c.66-.38.48-1.23.56-1.86H171c0,1.14-.11,2.28-.07,3.42,0,.74,0,1.49.07,2.24h-1.11a4.75,4.75,0,0,0-.31-1.75,1.15,1.15,0,0,0-1-.55,27.31,27.31,0,0,0-3.94.13q0,3.47,0,6.93c.88,0,1.77.1,2.65.06a32.64,32.64,0,0,0,4.08-.28,17,17,0,0,1,.58-2.54H173a22.23,22.23,0,0,1-.17,2.59,14.18,14.18,0,0,0-.12,1.6l-.22.05a93.45,93.45,0,0,1-9.76,0c-1.13,0-2.25.12-3.37.13,0-.2,0-.39,0-.59.55-.33,1.35-.64,1.38-1.4.14-2.1.05-4.2.08-6.31v-5.4a16.64,16.64,0,0,0-.09-2.23,1.25,1.25,0,0,0-.37-.81,18.1,18.1,0,0,0-1.93-.22Z"></path><path class="cls-2" d="M98.34,158a14.09,14.09,0,0,1,7.19.65c.06.11.13.21.2.32a12.85,12.85,0,0,0-.39,3.55h-1.11l-.15-2.07a5,5,0,0,0-4.8-1.23,3.26,3.26,0,0,0-1.8,1.05,3,3,0,0,0-.55,2.15,1.6,1.6,0,0,0,.86,1.4c2,.93,4.32,1,6.33,2a4.36,4.36,0,0,1,2.26,1.9,5.19,5.19,0,0,1,.18,3.64,5.86,5.86,0,0,1-3.63,3.67,14.6,14.6,0,0,1-3.47.67h-1a15.3,15.3,0,0,1-5-1.11,26.28,26.28,0,0,0,.35-4.34h1c.11.72.13,1.45.28,2.16a3.9,3.9,0,0,0,1.44,1.2,5.64,5.64,0,0,0,4.89.3,3.13,3.13,0,0,0,1.84-1.74,2.33,2.33,0,0,0-.69-2.81c-2-1.11-4.32-1.21-6.33-2.22a5.09,5.09,0,0,1-1.81-1.34,4.25,4.25,0,0,1-.85-3A4.7,4.7,0,0,1,95,159.47,7.25,7.25,0,0,1,98.34,158Z"></path><path class="cls-2" d="M58.84,158h1.93q2.92,6.48,5.83,12.95c.39.85.73,1.72,1.17,2.54a1.45,1.45,0,0,0,.56.66,4.84,4.84,0,0,0,1.4.33v.89a45.8,45.8,0,0,0-8.28,0v-.9c.52-.05,1,0,1.55-.11.47-.25.44-.89.27-1.32-.39-1-.8-2-1.2-3H55.43c-.39.88-.71,1.79-1,2.7a3.89,3.89,0,0,0-.21.83.74.74,0,0,0,.59.76,10.49,10.49,0,0,0,1.48.08v1c-1.06,0-2.12-.1-3.18-.12s-1.87.07-2.81.12v-.88a2.58,2.58,0,0,0,1.45-.49,3.58,3.58,0,0,0,.94-1.53L57,162.51C57.72,161,58.24,159.48,58.84,158Zm-.16,4.28L56,168.63h5.44C60.53,166.5,59.65,164.35,58.68,162.24Z"></path><path class="cls-2" d="M155.85,158h1.91l6.58,14.61a5.81,5.81,0,0,0,.83,1.43,3.56,3.56,0,0,0,1.58.44v.89a45.8,45.8,0,0,0-8.28,0v-.9c.5,0,1,0,1.5-.09.5-.22.5-.89.32-1.33-.4-1-.81-2-1.21-3h-6.63c-.4.88-.72,1.79-1,2.7a4.16,4.16,0,0,0-.22.84.74.74,0,0,0,.6.75,12.12,12.12,0,0,0,1.48.08v1c-1.09,0-2.17-.11-3.26-.12-.92,0-1.84.07-2.76.12v-.89a2.22,2.22,0,0,0,2-1.19l4.77-10.75C154.74,161,155.25,159.48,155.85,158Zm-.14,4.25q-1.35,3.21-2.69,6.42h5.45Z"></path><path class="cls-2" d="M204.59,158h1.91l5.87,13a27.77,27.77,0,0,0,1.32,2.75c.37.61,1.18.59,1.8.71v.89a45.8,45.8,0,0,0-8.28,0v-.9l1.39-.07c.25,0,.42-.24.5-.46a1.65,1.65,0,0,0-.13-1.07c-.39-.94-.77-1.89-1.15-2.84h-6.63a31.5,31.5,0,0,0-1.2,3.24.79.79,0,0,0,.44,1,8.45,8.45,0,0,0,1.59.11v1c-1.4,0-2.81-.17-4.21-.09-.61,0-1.21.06-1.81.09v-.89a2.24,2.24,0,0,0,2-1.17q2.59-5.88,5.21-11.75C203.69,160.34,204.13,159.15,204.59,158Zm-2.83,10.67h5.45c-.92-2.13-1.83-4.27-2.75-6.39C203.53,164.35,202.66,166.5,201.76,168.63Z"></path><path class="cls-2" d="M71.41,158.1c1.16,0,2.32.1,3.48.12,1.62,0,3.25-.11,4.87-.12v1c-.58.06-1.17.06-1.74.17a.46.46,0,0,0-.37.35A4.71,4.71,0,0,0,77.5,161v7.53a10.11,10.11,0,0,0,.29,2.63,2.62,2.62,0,0,0,1,1.6,6.42,6.42,0,0,0,3.89.84,4.54,4.54,0,0,0,3.51-1.45,7.09,7.09,0,0,0,.93-4.29v-7a3.07,3.07,0,0,0-.29-1.47.6.6,0,0,0-.46-.25c-.51-.08-1-.1-1.54-.14v-1a28.31,28.31,0,0,0,2.91.11c1.07,0,2.15-.09,3.23-.11,0,.33,0,.65,0,1a5.51,5.51,0,0,0-1.81.26.44.44,0,0,0-.27.37,8.3,8.3,0,0,0-.12,1.79v7.2a6.7,6.7,0,0,1-1.67,5.1,5.82,5.82,0,0,1-2.28,1.32,13.33,13.33,0,0,1-3.2.55h-.87a12,12,0,0,1-5.12-1.38,3.69,3.69,0,0,1-1.86-3.13c0-3.3,0-6.6,0-9.89a6,6,0,0,0-.18-1.58.65.65,0,0,0-.49-.4,5.82,5.82,0,0,0-1.66-.21Z"></path><path class="cls-2" d="M109.08,158.2a.78.78,0,0,1,.45-.09c2.59.07,5.18.14,7.77.09,2.85,0,5.71-.09,8.56-.1,0,1.38-.23,2.74-.26,4.11h-1a6.93,6.93,0,0,0-.24-2c-.14-.44-.69-.48-1.08-.51-1.29,0-2.58,0-3.88,0,0,4.36,0,8.71,0,13.07a2.49,2.49,0,0,0,.24,1.27c.61.36,1.37.19,2,.37v1c-1.57,0-3.14-.11-4.71-.12-1.21,0-2.42.09-3.64.12v-1a4,4,0,0,0,2.09-.39,5.3,5.3,0,0,0,.27-1.9V159.66h-3.88a1.48,1.48,0,0,0-1,.33,11,11,0,0,0-.27,2.22h-1.11A35.87,35.87,0,0,0,109.08,158.2Z"></path><path class="cls-2" d="M127.89,158.1c3.36.23,6.73,0,10.09,0a6.47,6.47,0,0,1,3.56.83,2.82,2.82,0,0,1,1.39,2.32,4.12,4.12,0,0,1-.6,2.78,5.34,5.34,0,0,1-1.55,1.48,11.28,11.28,0,0,1-2.5,1.32l4.63,5.13c.52.57.92,1.24,1.48,1.78a2.76,2.76,0,0,0,1.34.62v1a33.28,33.28,0,0,0-3.6-.08l-1.45.08q-3.36-3.69-6.73-7.39c0,1.72,0,3.43,0,5.14,0,.38,0,.92.46,1.06a11.17,11.17,0,0,0,1.75.23v1c-1.28,0-2.56-.11-3.84-.12-1.49,0-3,.09-4.47.12v-1c.53,0,1-.08,1.58-.15a.61.61,0,0,0,.53-.47,11.09,11.09,0,0,0,.18-2.7v-9.34a8.27,8.27,0,0,0-.17-1.92c0-.15-.06-.38-.25-.42a13,13,0,0,0-1.87-.3Zm6.09,1.54q0,3.26,0,6.51a8.82,8.82,0,0,0,2.81-.23,3.61,3.61,0,0,0,1.94-1.37,3.93,3.93,0,0,0,.51-2.51,2.63,2.63,0,0,0-1.2-1.92A4.73,4.73,0,0,0,134,159.64Z"></path><path class="cls-2" d="M168.75,158.1c1.89,0,3.78.18,5.66.08.89,0,1.77-.07,2.65-.08v1c-.67.21-1.44,0-2.06.42a4.19,4.19,0,0,0-.16,1.32v13c1.36,0,2.72.08,4.08.06a8.08,8.08,0,0,0,2.54-.35c.19-.88.37-1.76.55-2.63h1.06c-.09,1.38-.18,2.76-.28,4.13a.23.23,0,0,1-.27.24q-4.34.19-8.66,0c-1.4,0-2.81-.06-4.21,0v-.49a3.85,3.85,0,0,0,1.18-.8,2.3,2.3,0,0,0,.21-1.13V162.27a10.86,10.86,0,0,0-.18-2.61c0-.27-.33-.3-.54-.35-.52-.1-1-.17-1.57-.24Z"></path><path class="cls-2" d="M185.5,158.1c1.37.06,2.74.11,4.11.12s2.78-.07,4.17-.12v1c-.59.08-1.19.07-1.78.15-.32.05-.3.43-.35.68-.11,1.17,0,2.36-.06,3.53,0,3.23,0,6.46,0,9.68.06.31,0,.79.34.92.59.21,1.24.1,1.85.26,0,.32,0,.64,0,1-1.39,0-2.78-.1-4.18-.12s-2.73.09-4.1.12v-1c.6-.14,1.23-.08,1.82-.23.34-.07.37-.46.41-.74.11-1.08.05-2.17.06-3.26V163.4a23.68,23.68,0,0,0-.11-3.37c-.05-.24-.09-.56-.36-.64a5.6,5.6,0,0,0-1.82-.25Z"></path><path class="cls-2" d="M217.35,158.1c1.08,0,2.15.08,3.23.11.75,0,1.5-.09,2.26-.1q1.53,1.92,3.14,3.78c1.16,1.31,2.28,2.66,3.5,3.91,1.52,1.55,2.9,3.23,4.41,4.78,0-3.28,0-6.56,0-9.85-.07-.51,0-1.29-.66-1.47a5.89,5.89,0,0,0-1.62-.19c0-.33,0-.65,0-1a43.11,43.11,0,0,0,6.12,0v1a11.68,11.68,0,0,0-1.78.19c-.32.1-.4.48-.47.77a17.89,17.89,0,0,0,0,2.93c.06,4.2,0,8.41.09,12.62-.81,0-1.62-.16-2.42-.24-1.25-1.38-2.55-2.71-3.75-4.13-2.68-3.07-5.34-6.15-8.07-9.18,0,3.46,0,6.92,0,10.38a3.82,3.82,0,0,0,.24,1.68c.56.43,1.33.23,2,.35v.9a25.91,25.91,0,0,0-6.16,0v-.89a5.61,5.61,0,0,0,1.82-.26c.19-.06.26-.27.31-.45a11,11,0,0,0,.16-2.57V161a3.59,3.59,0,0,0-.26-1.56,5.19,5.19,0,0,0-2-.41Z"></path></svg>