<svg xmlns="http://www.w3.org/2000/svg" viewBox="0 0 105.31 94"><defs><style>.cls-1{fill:#fff;}.cls-2{fill:#d80909;}.cls-3{fill:#8e8d8d;}</style></defs><g id="Layer_2" data-name="Layer 2"><g id="Layer_1-2" data-name="Layer 1"><circle class="cls-1" cx="47" cy="47" r="47"></circle><circle class="cls-1" cx="86.24" cy="18.69" r="16.53"></circle><path class="cls-2" d="M86.42,37.78A18.89,18.89,0,1,0,67.53,18.89,18.89,18.89,0,0,0,86.42,37.78Zm-6-24.87a1.77,1.77,0,0,1,2.5,0l3.47,3.47,3.47-3.47a1.77,1.77,0,0,1,2.5,2.5l-3.47,3.47,3.47,3.47a1.77,1.77,0,0,1-2.5,2.5l-3.47-3.47-3.47,3.47a1.77,1.77,0,0,1-2.5-2.5l3.47-3.47-3.47-3.47A1.77,1.77,0,0,1,80.44,12.91Z"></path><g id="_f78802ff" data-name="#f78802ff"><path class="cls-3" d="M30.23,25.54A4.71,4.71,0,0,1,33.7,24h28a4.17,4.17,0,0,1,2.78,1,4,4,0,0,1,1.2,2.36,12.2,12.2,0,0,1,0,1.48V65.27a10.32,10.32,0,0,1-.09,1.84,4.48,4.48,0,0,1-2,3,3.84,3.84,0,0,1-2,.54c-2.8,0-5.59,0-8.38,0V69H61.7a2.31,2.31,0,0,0,2.11-1.6A5.36,5.36,0,0,0,64,65.27V28.05a2.2,2.2,0,0,0-2.32-2.33H33.58a2.59,2.59,0,0,0-2.64,2.22q0,19.09,0,38.18a2.94,2.94,0,0,0,1.95,2.71,4.25,4.25,0,0,0,1.55.15H42.3v1.69q-4.3,0-8.61,0a4.66,4.66,0,0,1-4.39-3.83,7.74,7.74,0,0,1-.05-1.36q0-18.72,0-37.43A3.76,3.76,0,0,1,30.23,25.54Z"></path><path class="cls-3" d="M37.24,32.13a1.29,1.29,0,0,1,.48-.05c6.58,0,13.15,0,19.73,0a.4.4,0,0,1,.34.64.58.58,0,0,1-.54.2H37.61a.75.75,0,0,1-.44-.09A.43.43,0,0,1,37.24,32.13Z"></path><path class="cls-3" d="M37.24,35.52a1.54,1.54,0,0,1,.48-.05H57.45a.41.41,0,0,1,.34.65c-.14.21-.43.19-.65.19-6.58,0-13.15,0-19.73,0A.42.42,0,0,1,37.24,35.52Z"></path><path class="cls-3" d="M37.24,38.91a3.13,3.13,0,0,1,.81,0h19.3a.45.45,0,0,1,.49.26.42.42,0,0,1-.3.56,2.91,2.91,0,0,1-.51,0c-6.54,0-13.08,0-19.62,0A.43.43,0,0,1,37.24,38.91Z"></path><path class="cls-3" d="M37.24,42.31a3.13,3.13,0,0,1,.81-.05h19.3a.44.44,0,0,1,.51.51.54.54,0,0,1-.61.34c-6.61,0-13.23,0-19.84,0A.42.42,0,0,1,37.24,42.31Z"></path><path class="cls-3" d="M37.24,45.7a3.13,3.13,0,0,1,.81-.05h19.3c.19,0,.43.05.49.26s-.18.63-.49.59H37.72a1.54,1.54,0,0,1-.48,0A.43.43,0,0,1,37.24,45.7Z"></path><path class="cls-3" d="M37.24,49.09a3.13,3.13,0,0,1,.81-.05H56.6c.31,0,.63,0,.94,0a.4.4,0,0,1,.25.64c-.14.22-.43.19-.65.2-6.58,0-13.15,0-19.73,0A.43.43,0,0,1,37.24,49.09Z"></path><path class="cls-3" d="M45.2,53.35c.53-.21,1,.22,1.44.47a1.93,1.93,0,0,0,2.11.1c.31-.18.6-.4.93-.55a.77.77,0,0,1,1,.3c.22.43.37.89.59,1.32a1.94,1.94,0,0,0,1.65.92c.5.06,1.14,0,1.45.43s0,1-.08,1.56a1.94,1.94,0,0,0,.32,1.71c.31.39.77.64,1.1,1a.86.86,0,0,1,0,1.12c-.32.35-.74.59-1.06,1a1.91,1.91,0,0,0-.34,1.77c.09.5.4,1.07.06,1.55s-1,.36-1.49.43a1.91,1.91,0,0,0-1.56.87c-.28.45-.38,1-.7,1.42a.85.85,0,0,1-1.09.19,3.37,3.37,0,0,0-1.85-.76c-.68-.06-1.18.46-1.74.76a.88.88,0,0,1-1.16-.23c-.25-.44-.38-.94-.63-1.38a2,2,0,0,0-1.65-.88c-.48-.06-1.09,0-1.42-.4s0-1.08.07-1.59a1.93,1.93,0,0,0-.66-2.06c-.37-.34-.93-.61-1-1.17s.53-.87.9-1.2a2,2,0,0,0,.8-1.74c-.06-.47-.24-.92-.29-1.39a.87.87,0,0,1,.82-.92c.72-.07,1.55,0,2.09-.59s.56-1.64,1.35-2m-2.36,4.22a3.62,3.62,0,0,1-1.16,3.56,3.65,3.65,0,0,1,1.16,3.56,3.6,3.6,0,0,1,3,2.17,3.77,3.77,0,0,1,3.72,0,3.67,3.67,0,0,1,3-2.21A3.57,3.57,0,0,1,53.8,61.1a3.64,3.64,0,0,1-1.17-3.56,3.65,3.65,0,0,1-3-2.17,3.77,3.77,0,0,1-3.71,0A3.65,3.65,0,0,1,42.84,57.57Z"></path><path class="cls-3" d="M46.78,57.18a4.17,4.17,0,0,1,5.06,4.92,4.19,4.19,0,1,1-7.08-3.79,4.33,4.33,0,0,1,2-1.13m.11.83a3.4,3.4,0,0,0-2.49,2.91,3.36,3.36,0,0,0,5.36,3A3.36,3.36,0,0,0,46.89,58Z"></path><path class="cls-3" d="M51.49,69a6.57,6.57,0,0,1,.81-1.61c0,2.08,0,4.16,0,6.25-1.5-.78-3-1.59-4.5-2.36l-4.68,2.36c0-2.06,0-4.12,0-6.18a2.5,2.5,0,0,1,.61,1,1.81,1.81,0,0,1,.24.71c0,1,0,2,0,3,1.3-.63,2.59-1.28,3.88-1.94,1.19.66,2.38,1.31,3.59,1.94C51.49,71.13,51.45,70.05,51.49,69Z"></path></g></g></g></svg>