<svg xmlns="http://www.w3.org/2000/svg" viewBox="0 0 105.31 94"><defs><style>.cls-1{fill:#fff;}.cls-2{fill:#1bda5f;}.cls-3{fill:#f26622;}</style></defs><g id="Layer_2" data-name="Layer 2"><g id="Layer_1-2" data-name="Layer 1"><circle class="cls-1" cx="47" cy="47" r="47"></circle><circle class="cls-1" cx="86.24" cy="18.69" r="16.53"></circle><path class="cls-2" d="M86.42,37.78A18.89,18.89,0,1,0,67.53,18.89,18.89,18.89,0,0,0,86.42,37.78Zm8.33-22.36-9.44,9.45a1.77,1.77,0,0,1-2.5,0l-4.72-4.73a1.75,1.75,0,0,1,0-2.5,1.78,1.78,0,0,1,2.5,0l3.47,3.47,8.19-8.2a1.77,1.77,0,0,1,2.5,2.5Z"></path><path class="cls-3" d="M41.6,19.09a8,8,0,0,1,6.27-2.19,12.63,12.63,0,0,1,8.77,4.23,9.52,9.52,0,0,1,2,6.37,17.55,17.55,0,0,1-1.37,6.26,5.66,5.66,0,0,1,1.67,2.41,4.29,4.29,0,0,1-1.18,4.37c-.46.4-1.3.45-1.4,1.17A12.34,12.34,0,0,1,53.72,47a14.53,14.53,0,0,0-1.2,1.28,20.83,20.83,0,0,0,.7,3.13,1,1,0,0,0,.74.76c1.66.58,3.37,1,5,1.56.44.1.58.57.85.88,1.06.27,2.18.3,3.24.61a11.14,11.14,0,0,1,7.76,7.6,19.31,19.31,0,0,1,.47,5.68c0,2.27,0,4.55,0,6.82,0,.41-.11.94-.59,1a18.18,18.18,0,0,1-2.09,0H23a.81.81,0,0,1-1-.78c-.08-3.24,0-6.49,0-9.73a11.29,11.29,0,0,1,4.36-8.72,11.47,11.47,0,0,1,7.07-2.39c.16-.4.29-.89.78-1,1.66-.57,3.38-1,5-1.57a.92.92,0,0,0,.69-.57c.35-1.1.56-2.23.83-3.34a12.19,12.19,0,0,1-3.86-6.47c-.11-.75-1-.84-1.46-1.23-1.11-.79-1.28-2.31-1.29-3.57a3.73,3.73,0,0,1,1.44-2.8,12.81,12.81,0,0,1-1.8-8.51,7.31,7.31,0,0,1,6-5.93C40.37,19.57,41.13,19.63,41.6,19.09Zm2.1.51c-.89.54-1.44,1.75-2.63,1.65a5.6,5.6,0,0,0-5,3.05c-1.25,2.34-.69,5.12.19,7.48a10.25,10.25,0,0,1,4.46-7.51c.57-.38,1.11.2,1.54.51a11,11,0,0,0,7,2.53,6.86,6.86,0,0,1,3.83.53c1.57.79,2.39,2.4,3.23,3.85.52-2.45,1.08-5.07.16-7.5-1-2.65-3.51-4.32-6.09-5.13C48.18,18.42,45.64,18.28,43.7,19.6ZM37.94,33a14.7,14.7,0,0,1,0,2.1c-.41.64-1.46.33-1.83,1a2.38,2.38,0,0,0,.66,3.07c.55.37,1.49.36,1.6,1.17.46,2,1,4,2.5,5.48A8,8,0,0,0,51.1,47c2.27-1.42,3.37-4,3.78-6.58.17-1.15,1.77-.67,2.19-1.62a4.58,4.58,0,0,0,.07-2.67c-.36-.82-1.53-.25-2-.91-.29-.89-.24-1.86-.57-2.74-.54-1.78-2-3.61-4.06-3.47a13.22,13.22,0,0,1-9.45-2.89A8.75,8.75,0,0,0,37.94,33Zm4.54,16.17c-.4,1.27-.9,2.51-1.26,3.8.19,1.87.53,3.72.81,5.58,3,0,6,.11,9,0a7.49,7.49,0,0,0,.45-2.11A25.48,25.48,0,0,0,51.92,53a23.81,23.81,0,0,1-1.1-3.79A10.47,10.47,0,0,1,42.48,49.19Zm-6.91,5.86c.74,1.58,1.65,3.09,2.26,4.72-.19.81-1,1.25-1.4,2-.12.3.17.56.28.82,1.85,2.92,3.62,5.9,5.5,8.81q-1.3-8.76-2.64-17.52ZM51,71.23c1.77-2.61,3.33-5.37,5-8a5.88,5.88,0,0,0,.71-1.33c-.21-.91-1.52-1.33-1.33-2.36.68-1.51,1.47-3,2.18-4.47l-4-1.21C52.76,59.63,51.82,65.42,51,71.23ZM31.36,57.14a7.27,7.27,0,0,0-1.57,5.36,5.3,5.3,0,0,1,5.33,6.56c-.54.82-2.09.48-2.47-.38,0-.57.54-.89.91-1.22-.23-1.81-1.86-3.52-3.79-3.18a3.41,3.41,0,0,0-2.3,4.93c.48,0,1.18-.18,1.45.36a.84.84,0,0,1-.43,1.22c-.59.24-1.42.78-2,.17a5.32,5.32,0,0,1-.64-5.62,9.35,9.35,0,0,1,2-2.39,15.12,15.12,0,0,1,1-5.49,11.56,11.56,0,0,0-3.51,3,9.42,9.42,0,0,0-1.79,5.64c0,2.83,0,5.67,0,8.51H42.11c-2.45-4-5-8-7.44-12.07a2.24,2.24,0,0,1-.34-.85c.24-.86,1.23-1.3,1.5-2.13-.28-.74-.71-1.41-1-2.14-.19-.46-.5-1-1.07-1C32.92,56.45,31.91,56.4,31.36,57.14Zm27.08,0a11.57,11.57,0,0,0-1,2.34c.2.84,1.09,1.3,1.37,2.11a2.5,2.5,0,0,1-.43,1c-2.45,4-4.92,7.91-7.34,11.89H69.62c0-2.74,0-5.48,0-8.22a10,10,0,0,0-.92-4.53,10.55,10.55,0,0,0-5.48-4.9,17.54,17.54,0,0,1,1.14,3.87,10.18,10.18,0,0,0,.33,1.91c.47.41,1.08.63,1.53,1.07A3.37,3.37,0,0,1,62.06,69a3.36,3.36,0,0,1-1.44-4.11,4.61,4.61,0,0,1,2.21-2.19,12,12,0,0,0-1.56-5.53A1.65,1.65,0,0,0,58.44,57.18ZM42.3,60.41q1.06,7.09,2.14,14.2c1.29,0,2.59,0,3.88,0,.47.06.48-.45.55-.78.67-4.47,1.35-8.94,2-13.41ZM63,64.64a1.64,1.64,0,1,0,2.42,1.65A1.65,1.65,0,0,0,63,64.64Z"></path></g></g></svg>