<svg xmlns="http://www.w3.org/2000/svg" id="Layer_1" data-name="Layer 1" viewBox="0 0 288 300"><defs><style>.cls-1{fill:#111;}</style></defs><path class="cls-1" d="M103.6,116h1.49a15,15,0,0,1,7.17,2.26c.07,1.61,0,3.22,0,4.83-.8-.51-1.55-1.08-2.38-1.52a11.38,11.38,0,0,0-6.64-1.34,5,5,0,0,0-2.68,1,3.16,3.16,0,0,0,.21,4.78,17.34,17.34,0,0,0,3.91,1.74c2.37.93,5,1.6,6.83,3.43a7.48,7.48,0,0,1,2.18,5.45,7.27,7.27,0,0,1-2.18,5.64,10.88,10.88,0,0,1-7.33,2.57,15.4,15.4,0,0,1-8.84-2.45c0-1.64,0-3.28,0-4.92a18.6,18.6,0,0,0,3.27,2,12.71,12.71,0,0,0,6.77,1.09,4.87,4.87,0,0,0,3.14-1.46,3.55,3.55,0,0,0,.47-3.5,4.64,4.64,0,0,0-2.6-2.2c-1.94-.84-4-1.45-5.92-2.28a9.38,9.38,0,0,1-4.11-3.08,7.78,7.78,0,0,1-1.24-4.75,6.93,6.93,0,0,1,1.71-4.44A9.87,9.87,0,0,1,103.6,116Z"></path><path class="cls-1" d="M213.91,116h2a14.63,14.63,0,0,1,6.94,2.26c0,1.61,0,3.21,0,4.82a17.12,17.12,0,0,0-3.85-2.2,11,11,0,0,0-5.7-.59,3.74,3.74,0,0,0-2.92,2,3.27,3.27,0,0,0,.58,3.35,6.11,6.11,0,0,0,2.25,1.33c1.69.65,3.41,1.27,5.1,1.92a9.83,9.83,0,0,1,4.69,3.34,8.54,8.54,0,0,1,1.24,5.63,7,7,0,0,1-2.58,4.78,11.12,11.12,0,0,1-6.83,2.19,15.62,15.62,0,0,1-8.88-2.42c-.06-1.65,0-3.29,0-4.94.55.37,1.08.77,1.64,1.13a12.85,12.85,0,0,0,8.73,1.9,4.16,4.16,0,0,0,3.23-2.06,3.51,3.51,0,0,0-.89-4.07,16.12,16.12,0,0,0-4.31-2c-2.38-.89-5-1.65-6.74-3.54a7.65,7.65,0,0,1-1.86-6,6.81,6.81,0,0,1,1.86-4.14A9.91,9.91,0,0,1,213.91,116Z"></path><path class="cls-1" d="M241.78,116h2a14.68,14.68,0,0,1,6.9,2.27c0,1.62,0,3.24,0,4.86a19,19,0,0,0-2.76-1.76,11.29,11.29,0,0,0-6.36-1.15,4.8,4.8,0,0,0-2.73,1.16,3.22,3.22,0,0,0-.54,3.64,4.49,4.49,0,0,0,2.52,1.91c1.77.69,3.57,1.33,5.35,2a10.5,10.5,0,0,1,4.15,2.69,7.77,7.77,0,0,1,1.78,4.47v1.5a7.25,7.25,0,0,1-2.49,5,10.5,10.5,0,0,1-6.08,2.25,16.24,16.24,0,0,1-9-1.87c-.36-.23-.89-.44-.83-.95,0-1.5,0-3,0-4.48A15.31,15.31,0,0,0,239,140.2a11.84,11.84,0,0,0,5.58.21,3.77,3.77,0,0,0,2.88-2.23,3.6,3.6,0,0,0-.54-3.34,6.11,6.11,0,0,0-2.38-1.55c-1.84-.76-3.74-1.36-5.57-2.12a9.5,9.5,0,0,1-4.22-3.14,8.16,8.16,0,0,1-1.19-5.35,6.81,6.81,0,0,1,2.14-4.31A10.11,10.11,0,0,1,241.78,116Z"></path><path class="cls-1" d="M143.33,116.05c2.19,2,4.24,4.15,6.39,6.2l12.25,12c0-5.95,0-11.9,0-17.84,1.48,0,2.95,0,4.42,0q0,14.16,0,28.34c-4.93-4.83-9.78-9.75-14.68-14.61-1.33-1.29-2.59-2.64-4-3.89-.07,6,0,12.06,0,18.08-1.48,0-3,0-4.43,0,0-8.95,0-17.89,0-26.84C143.3,117,143.3,116.54,143.33,116.05Z"></path><path class="cls-1" d="M33.21,116.44h9.57a11.21,11.21,0,0,1,6.28,1.63,6.46,6.46,0,0,1,2.68,4,8.05,8.05,0,0,1-.64,5.44A6,6,0,0,1,48.56,130a10.72,10.72,0,0,1,1.83,1.13,6.92,6.92,0,0,1,2.43,5.39,7.63,7.63,0,0,1-2.2,5.62A9.83,9.83,0,0,1,44,144.4H33.21Zm4.48,4.12c0,2.54,0,5.07,0,7.61,1.59.05,3.18,0,4.76,0a6.38,6.38,0,0,0,3.69-.84,3.31,3.31,0,0,0,1.36-2.49,3.78,3.78,0,0,0-1.07-3.3,5.93,5.93,0,0,0-3.81-1C41,120.55,39.33,120.52,37.69,120.56Zm0,11.55c0,2.72,0,5.45,0,8.18,1.87,0,3.74,0,5.61,0a5.79,5.79,0,0,0,3.56-.94,4.27,4.27,0,0,0,.86-5.42,4.55,4.55,0,0,0-3.9-1.83C41.78,132.09,39.74,132.11,37.69,132.11Z"></path><path class="cls-1" d="M62.7,116.49c1.53-.1,3.07,0,4.59,0,0,5.55,0,11.09,0,16.63a9.32,9.32,0,0,0,1.47,5.45,5.37,5.37,0,0,0,3.76,2,7.08,7.08,0,0,0,4.68-.92,5.87,5.87,0,0,0,2.28-3.55,23.2,23.2,0,0,0,.38-5.77c0-4.62,0-9.25,0-13.88,1.53,0,3.06,0,4.58,0,0,5.65,0,11.31,0,17a12.28,12.28,0,0,1-2.71,8.21,10.33,10.33,0,0,1-7.17,3.2,11.31,11.31,0,0,1-8.8-2.81,11.87,11.87,0,0,1-3.1-8.43C62.7,127.89,62.71,122.19,62.7,116.49Z"></path><path class="cls-1" d="M125.57,116.45q2.3,0,4.59,0,0,14,0,27.94-2.3,0-4.59,0Q125.54,130.43,125.57,116.45Z"></path><path class="cls-1" d="M178.74,116.46q8.22,0,16.44,0c0,1.39,0,2.78,0,4.16-4,0-8,0-11.94,0q0,3.36,0,6.72c3.56,0,7.13,0,10.7,0,0,1.37,0,2.75,0,4.13-3.57,0-7.14,0-10.71,0,0,2.88,0,5.76,0,8.64,4,0,7.95,0,11.93,0,0,1.4,0,2.8,0,4.2-5.48,0-11,0-16.44,0Q178.71,130.42,178.74,116.46Z"></path><path class="cls-1" d="M133.33,156.76c1.68,0,3.36,0,5,0,.06.88,0,1.76,0,2.65V184h-5.09C133.33,174.94,133.31,165.85,133.33,156.76Z"></path><path class="cls-1" d="M184.24,156.76h16.92c.07,1.35.05,2.7,0,4.05-4.1.05-8.2,0-12.29,0,0,2.17,0,4.35,0,6.52,3.68,0,7.36,0,11,0,0,1.33,0,2.65,0,4-3.68,0-7.36,0-11,0q0,4.2,0,8.4c4.09.07,8.19,0,12.28,0,.08,1.4,0,2.8,0,4.2h-17C184.23,174.94,184.19,165.85,184.24,156.76Z"></path><path class="cls-1" d="M50.18,156.78c1.69-.05,3.39,0,5.08,0,0,9.09,0,18.18,0,27.26H50.18Q50.18,170.41,50.18,156.78Z"></path><path class="cls-1" d="M68.85,156.8C75.29,162.48,81.6,168.3,88,174c0-5.6,0-11.2,0-16.79,1.51,0,3,0,4.52,0,0,8.9,0,17.8,0,26.71-6.43-5.8-12.76-11.69-19.17-17.5,0,5.71,0,11.41,0,17.12-1.52,0-3,0-4.55,0C68.85,174.6,68.82,165.7,68.85,156.8Z"></path><path class="cls-1" d="M104.71,159.26a10.43,10.43,0,0,1,7.16-2.5,14.87,14.87,0,0,1,8.16,2.16v4.55a21.07,21.07,0,0,0-2.61-1.58,12,12,0,0,0-6.64-1.15A4.83,4.83,0,0,0,108,161.9a2.92,2.92,0,0,0-.33,3.55,4.9,4.9,0,0,0,2.35,1.58c1.72.63,3.46,1.21,5.19,1.83a11.3,11.3,0,0,1,4.23,2.44,6.42,6.42,0,0,1,1.78,3.33,7.55,7.55,0,0,1-.63,5.16,7.68,7.68,0,0,1-4.41,3.45,34.6,34.6,0,0,1-3.46.79H111c-2.75-.33-5.62-.79-7.95-2.41q0-2.31,0-4.62a16.66,16.66,0,0,0,4.35,2.3,13.09,13.09,0,0,0,6.3.53,4.1,4.1,0,0,0,3-1.83,3.14,3.14,0,0,0-.64-3.72,13.21,13.21,0,0,0-4.22-1.95c-2.37-.86-4.93-1.5-6.85-3.23A6.94,6.94,0,0,1,104.71,159.26Z"></path><path class="cls-1" d="M152,156.78c2.53-.06,5.06,0,7.58,0a31.35,31.35,0,0,1,6.13.32,12.2,12.2,0,0,1,6.63,3.6,13.51,13.51,0,0,1,3.34,8.14,15.72,15.72,0,0,1-1.88,9.25,11.61,11.61,0,0,1-6.36,5.1,23.53,23.53,0,0,1-4.23.87H152C152,175,152,165.86,152,156.78Zm4.65,4.05c-.07,1.23,0,2.47,0,3.71,0,5.09,0,10.18,0,15.27,1.89,0,3.79,0,5.69,0a8.16,8.16,0,0,0,8.73-8.28,11.42,11.42,0,0,0-1.78-7.63,7.52,7.52,0,0,0-4.49-2.83,17.84,17.84,0,0,0-4-.27Z"></path><path class="cls-1" d="M214.79,156.78c3.2-.05,6.4,0,9.61,0a9.76,9.76,0,0,1,6.84,2.32,7.81,7.81,0,0,1-3.93,13.7c3.17,3.77,6.4,7.49,9.58,11.26H231.8q-4.52-5.34-9-10.71c-.16-.14-.27-.37-.5-.38-1-.08-2,0-3,0,0,3.7,0,7.4,0,11.1h-4.5C214.78,175,214.75,165.86,214.79,156.78Zm4.49,4q0,4.16,0,8.3c1.54,0,3.08,0,4.61,0a6.23,6.23,0,0,0,3.21-.65c2.37-1.28,2.55-5.07.48-6.71a5.36,5.36,0,0,0-3.35-1C222.57,160.74,220.92,160.73,219.28,160.75Z"></path></svg>