<svg xmlns="http://www.w3.org/2000/svg" viewBox="0 0 105.31 94"><defs><style>.cls-1{fill:#fff;}.cls-2{fill:#f26622;}.cls-3{fill:#1bda5f;}</style></defs><g id="Layer_2" data-name="Layer 2"><g id="Layer_1-2" data-name="Layer 1"><circle class="cls-1" cx="47" cy="47" r="47"></circle><g id="_f78802ff" data-name="#f78802ff"><path class="cls-2" d="M52.67,21.24a1.26,1.26,0,0,1,1-.48,1.13,1.13,0,0,1,.93,1.43,1.54,1.54,0,0,1-.5.71,3.28,3.28,0,0,0-.84,1.86h4.83a.94.94,0,0,1,.63.26l5.87,5.87a1.15,1.15,0,0,1,.49.87v11a1.17,1.17,0,0,1-.52.94L45,63.26c-1,1.05-2.1,2.08-3.12,3.15a1,1,0,0,1-1.7-.1Q32.57,58.65,24.9,51c-.54-.53-1.06-1.08-1.62-1.58a1,1,0,0,1,0-1.29c.5-.43.95-.93,1.42-1.39Q35.61,35.87,46.48,25a1,1,0,0,1,.66-.24h4a5.91,5.91,0,0,1,1.51-3.52M25.44,48.79,41.1,64.44l22-22c0-3.42,0-6.84,0-10.25l-5.39-5.4c-1.41,0-2.83,0-4.24,0a2.74,2.74,0,0,0,1,1.25,5.84,5.84,0,0,1,1.66,4.31,4.17,4.17,0,0,1,1.64,1.79,4,4,0,1,1-7.62,2A3.94,3.94,0,0,1,51,33.33a4,4,0,0,1,3-1.54,3.12,3.12,0,0,0-1.17-2.28,5.5,5.5,0,0,1-1.49-2.76H47.49l-22,22M52.11,35.61a2,2,0,0,0,3,1.9,2,2,0,0,0,1-1.61,2,2,0,0,0-.44-1.38,4.45,4.45,0,0,1-1.42,2,1,1,0,0,1-1.33,0,1.16,1.16,0,0,1-.06-1.64,3.22,3.22,0,0,0,.75-1A2,2,0,0,0,52.11,35.61Z"></path><path class="cls-2" d="M67.14,37.77a1,1,0,1,1,2,0c0,2.34,0,4.69,0,7a1.22,1.22,0,0,1-.53.9L49.76,64.53a1,1,0,1,1-1.37-1.37L67.14,44.41C67.14,42.2,67.13,40,67.14,37.77Z"></path><path class="cls-2" d="M38.63,42.89a1,1,0,0,1,1.13.2q3.52,3.51,7,7a1,1,0,1,1-1.38,1.36l-7-7A1,1,0,0,1,38.63,42.89Z"></path><path class="cls-2" d="M34.78,46.84a1,1,0,0,1,1,.29l6.72,6.72a1.63,1.63,0,0,1,.54.73,1,1,0,0,1-1.68.89l-7.05-7.06A1,1,0,0,1,34.78,46.84Z"></path></g><circle class="cls-1" cx="86.24" cy="18.69" r="16.53"></circle><path class="cls-3" d="M86.42,37.78A18.89,18.89,0,1,0,67.53,18.89,18.89,18.89,0,0,0,86.42,37.78Zm8.33-22.36-9.44,9.45a1.77,1.77,0,0,1-2.5,0l-4.72-4.73a1.75,1.75,0,0,1,0-2.5,1.78,1.78,0,0,1,2.5,0l3.47,3.47,8.19-8.2a1.77,1.77,0,0,1,2.5,2.5Z"></path></g></g></svg>