<svg xmlns="http://www.w3.org/2000/svg" id="Layer_1" data-name="Layer 1" viewBox="0 0 288 300"><defs><style>.cls-1{fill:#dc2b2e;}.cls-2{fill:#a1a6a9;}.cls-3{fill:#6b3292;}.cls-4{fill:#699455;}.cls-5{fill:#0c8ab4;}</style></defs><path class="cls-1" d="M37,124.91c.37-.27.7-.7,1.2-.68q3.24,0,6.5,0a1.34,1.34,0,0,1,1.33,1.52c0,2,0,4,0,5.93a2,2,0,0,1-.76,1.51c-2.53.05-5.06.09-7.58,0l-.66-.74C37,129.92,37.06,127.41,37,124.91Z"></path><path class="cls-1" d="M24.24,130.71c.67-.63,1.26-1.48,2.2-1.71a3.77,3.77,0,0,1,1.67,1.23c1.17,1.21,2.39,2.37,3.57,3.57.35.39.86,1,.5,1.54A12.94,12.94,0,0,1,30,137.7c-.9.87-1.74,1.81-2.66,2.65a1.27,1.27,0,0,1-1.89-.11l-4.77-4.77-.12-.87A37.16,37.16,0,0,1,24.24,130.71Z"></path><path class="cls-1" d="M55.44,129.65a1.58,1.58,0,0,1,2.27,0c1.2,1.16,2.35,2.38,3.56,3.54a2.28,2.28,0,0,1,1,2.47c-1.53,1.41-2.93,3-4.43,4.38-.43.34-1,.81-1.55.62a7.48,7.48,0,0,1-2-1.65c-1.12-1.12-2.22-2.27-3.38-3.34-.07-.65-.18-1.43.4-1.89Q53.36,131.71,55.44,129.65Z"></path><path d="M85.06,139.72a7.9,7.9,0,0,1,10.5.35,12.17,12.17,0,0,1,1.65,2.6,23.39,23.39,0,0,1,.54,6.47c0,3.9,0,7.81,0,11.71H91.19v-12.6a6.28,6.28,0,0,0-.87-3.85,3.68,3.68,0,0,0-4.37-.66,4.07,4.07,0,0,0-1.59,2.36A30.63,30.63,0,0,0,84,153c0,2.63,0,5.25,0,7.88q-3.16-.07-6.33,0c.06-7.49,0-15,0-22.45h6.16c0,.9,0,1.8,0,2.7C84.26,140.67,84.68,140.21,85.06,139.72Z"></path><path d="M103.4,139.67a11.85,11.85,0,0,1,9.14-1.65,9.81,9.81,0,0,1,5.71,3.62,15.34,15.34,0,0,1,2.6,9.75c-5.24,0-10.48,0-15.72,0a5.34,5.34,0,0,0,3.18,4.59c2.14.73,4.9,0,5.93-2.12,2.13.19,4.27.38,6.41.45a10.85,10.85,0,0,1-5.36,6,13.4,13.4,0,0,1-10.68,0A10.37,10.37,0,0,1,99,153.15a14.21,14.21,0,0,1,1.16-10A10.89,10.89,0,0,1,103.4,139.67Zm4.34,3.51a5.13,5.13,0,0,0-2.6,3.45c3,0,6,0,9,0a4.72,4.72,0,0,0-1.38-2.86A5,5,0,0,0,107.74,143.18Z"></path><path d="M157.38,138c3.44-.62,7.34-.29,10.16,1.95a7.61,7.61,0,0,1,2.6,5.42c-2,0-3.92.22-5.89.26a6.75,6.75,0,0,0-.81-2.12l-1.05-.7a5.75,5.75,0,0,0-4.39.07c-.66.16-.78.85-1,1.38a2.56,2.56,0,0,0,1.85,1.63c3.55,1,7.64,1.16,10.44,3.86,1.9,2.14,1.8,5.38.6,7.84-1.37,2.19-3.91,3.15-6.33,3.62a16.78,16.78,0,0,1-7.12-.36,13.66,13.66,0,0,1-4.24-2.34,8.2,8.2,0,0,1-1.93-5.35c2,0,4-.15,6-.21a3.87,3.87,0,0,0,2.4,3.44,9.31,9.31,0,0,0,4.66-.08,2.4,2.4,0,0,0,.89-2.34,4.32,4.32,0,0,0-2-1.28c-2.75-.77-5.63-1.17-8.22-2.42-3.36-1.67-3.89-6.49-1.82-9.36A8,8,0,0,1,157.38,138Z"></path><path d="M119.06,138.43h6.52c1.16,4.68,2.33,9.36,3.39,14.07,1.16-4.7,2.34-9.38,3.51-14.07h5.61c1.19,4.68,2.33,9.39,3.53,14.07,1-4.71,2.29-9.37,3.36-14.07h6.52c-2.2,7.47-4.39,14.93-6.5,22.42-2,0-4,0-6,0-1.07-4.91-2.5-9.74-3.52-14.64l-.2-.4-.22,0,0,.26c-.95,5-2.36,9.82-3.47,14.76-2-.06-4,0-6,0C123.48,153.36,121.26,145.9,119.06,138.43Z"></path><path class="cls-2" d="M177.15,149.31c1.33-4.29,6.7-6.23,10.7-4.59a6.43,6.43,0,0,1,4.32,5.56c-1.49.1-3,.23-4.48.19a4,4,0,0,0-1-1.85,3.09,3.09,0,0,0-4.33.5,5.79,5.79,0,0,0-.91,3.88,5,5,0,0,0,1.18,3.57,3,3,0,0,0,4,.17,4.13,4.13,0,0,0,1.16-2.15,39.21,39.21,0,0,0,4.47.18,9.18,9.18,0,0,1-1.79,4c-2.84,3.37-8.51,3.31-11.63.37A9.8,9.8,0,0,1,177.15,149.31Z"></path><path class="cls-2" d="M200.45,144.18a8.19,8.19,0,0,1,7.58,3.19,9.51,9.51,0,0,1-.16,10.75c-3.12,4.21-10.45,4.35-13.49,0-2.61-3.77-2-9.77,1.86-12.47A9.51,9.51,0,0,1,200.45,144.18Zm-.53,3.93c-1.6.57-2.29,2.41-2.35,4s0,3.39,1.25,4.54a3.41,3.41,0,0,0,4.68.06,6.63,6.63,0,0,0,1.32-4.62,4.67,4.67,0,0,0-1.31-3.4A3.72,3.72,0,0,0,199.92,148.11Z"></path><path class="cls-2" d="M243.21,146.13c1.48-1.69,3.89-2,6-2s4.41.5,5.74,2.24c1.45,2,1,4.6,1.06,6.93.06,2.57-.24,5.22.57,7.71-1.57,0-3.14,0-4.7,0-.12-.51-.22-1-.32-1.53a8.52,8.52,0,0,1-3.84,1.84,6,6,0,0,1-6.27-2.69,5.14,5.14,0,0,1,1.23-6.29c2.16-1.46,4.9-1.4,7.38-1.83.67-.06,1.06-.65,1.47-1.1-.57-1.89-3-1.87-4.52-1.17-.7.25-.83,1.06-1.11,1.66-1.39,0-2.77,0-4.16,0A6.35,6.35,0,0,1,243.21,146.13Zm3.66,8.13c-.78.22-1.08,1.05-1.5,1.65.33.68.68,1.53,1.52,1.7a4.29,4.29,0,0,0,4.35-1.7,9.87,9.87,0,0,0,.24-2.77C250,153.67,248.37,153.76,246.87,154.26Z"></path><path class="cls-2" d="M214.69,146.84a4.43,4.43,0,0,1,3.14-2.4,6.49,6.49,0,0,1,4.1.6,5.53,5.53,0,0,1,1.66,2,5.72,5.72,0,0,1,3.29-2.46c2.27-.5,5.14.09,6.3,2.31.91,2.13.59,4.49.64,6.73-.07,2.44.16,4.89-.1,7.31a19.07,19.07,0,0,1-4.53,0c-.24-2.32,0-4.67-.1-7-.08-1.54.33-3.3-.65-4.63-.66-.94-2-.81-2.94-.44a3.11,3.11,0,0,0-1.15,2.71c0,2.77,0,5.54,0,8.31-.08.35.12,1-.33,1.11a22.27,22.27,0,0,1-4.32-.05c-.25-2.42,0-4.87-.1-7.3-.08-1.45.36-3.13-.66-4.34a2.44,2.44,0,0,0-2.75-.56c-1.24.64-1.45,2.14-1.47,3.39,0,3,0,5.94,0,8.91h-4.58V144.7h4.6C214.73,145.42,214.72,146.13,214.69,146.84Z"></path><path class="cls-2" d="M256.61,144.7h4.58c0,3.06,0,6.12,0,9.18a5,5,0,0,0,.62,2.83,2.81,2.81,0,0,0,2.76.65c1.36-.35,1.78-2,1.81-3.18,0-3.16,0-6.32,0-9.48h4.43V161h-4.28c0-.53,0-1.07,0-1.6a6.36,6.36,0,0,1-3.25,1.81c-1.72.27-3.77.13-5-1.21s-1.51-3.18-1.6-4.9C256.59,151.62,256.62,148.16,256.61,144.7Z"></path><path class="cls-2" d="M171.83,156.24h4.73c0,1.58.05,3.17-.09,4.74h-4.64Z"></path><path class="cls-2" d="M234.87,156.24h4.72V161H235C234.81,159.41,234.86,157.82,234.87,156.24Z"></path><path class="cls-3" d="M15.76,146.72a1.15,1.15,0,0,1,1.16-1.19c2.17,0,4.34,0,6.51,0a1.34,1.34,0,0,1,1.34,1.55c0,2.07,0,4.15,0,6.21,0,.49-.43.81-.67,1.2-2.09-.05-4.19,0-6.29,0a5.74,5.74,0,0,1-1.8-.28,11.38,11.38,0,0,1-.27-3.59C15.76,149.31,15.68,148,15.76,146.72Z"></path><path class="cls-3" d="M135.09,145.86l.22,0,.2.4-.44-.1Z"></path><path class="cls-4" d="M58.54,145.82c1.55-.54,3.21-.26,4.82-.32,1.29.05,2.69-.25,3.85.47.15,1.45.09,2.91.1,4.36a11.65,11.65,0,0,1-.32,3.95c-2.57.4-5.18.1-7.77.19q-.39-.36-.78-.69A45,45,0,0,1,58.54,145.82Z"></path><path class="cls-4" d="M56,159.2H57.1c1.81,1.92,3.86,3.63,5.49,5.72-.77,1.7-2.36,2.77-3.57,4.12-.75.68-1.37,1.68-2.45,1.82-1.08-.14-1.7-1.14-2.45-1.81-1.21-1.36-2.81-2.43-3.57-4.13C52.18,162.83,54.23,161.12,56,159.2Z"></path><path class="cls-5" d="M25.44,159.71a2.61,2.61,0,0,1,1.39-.6c1.9,1.81,3.76,3.67,5.56,5.57a2.89,2.89,0,0,1-.86,1.73c-1.35,1.33-2.67,2.68-4,4a1.34,1.34,0,0,1-2,0c-1.34-1.32-2.64-2.67-4-4-.34-.39-.85-.74-.86-1.3.07-.86.79-1.43,1.34-2C23.18,162,24.28,160.82,25.44,159.71Z"></path><path class="cls-5" d="M37,167.54a1.89,1.89,0,0,1,1.5-.78q3.12,0,6.24,0a1.47,1.47,0,0,1,1.3,1.61c0,2,.06,4.11,0,6.16a1.28,1.28,0,0,1-1.28,1.22c-1.28.07-2.57,0-3.85,0a10.81,10.81,0,0,1-3.59-.27A5.3,5.3,0,0,1,37,174C37,171.86,37.07,169.7,37,167.54Z"></path></svg>