<svg xmlns="http://www.w3.org/2000/svg" id="Layer_1" data-name="Layer 1" viewBox="0 0 288 300"><defs><style>.cls-1{fill:#5580ce;}</style></defs><path d="M44,133.63h.47a2,2,0,0,1,1.08.53,1.47,1.47,0,0,1,.11,1.6,11.26,11.26,0,0,1-1.74,2.32,21.06,21.06,0,0,0-1.69,2.2,85.46,85.46,0,0,0-5.48,9.34c-1.24,2.43-2.44,4.88-3.46,7.41a1.63,1.63,0,0,1-.88,1,2.37,2.37,0,0,1-1.51-.09,1.36,1.36,0,0,1-.89-.62,4.71,4.71,0,0,1-.16-1.59,37.09,37.09,0,0,0-1-4.42,38.94,38.94,0,0,1-.75-7.47c-1.83,3.43-3.63,6.88-5.36,10.36a8.55,8.55,0,0,0-1,2.59,1.29,1.29,0,0,0,.07.55,2,2,0,0,1-1.11,1.13,3.1,3.1,0,0,1-2.18-.11,1,1,0,0,1-.63-.72v-.47a6.76,6.76,0,0,1,.81-1.85c1-1.64,1.92-3.27,2.87-4.92.85-1.48,1.73-3,2.5-4.48s1.53-3,2.21-4.49a7.7,7.7,0,0,0,.62-2.71,4.12,4.12,0,0,1,2.48.11,1.69,1.69,0,0,1,1,1.53c.15,1.76.22,3.53.33,5.29.05.77.06,1.54.17,2.3a32.78,32.78,0,0,0,1.23,5.36,136.14,136.14,0,0,1,8-15.2,30,30,0,0,1,2.14-3.34A2.85,2.85,0,0,1,44,133.63Z"></path><path d="M111.07,137.41a3.39,3.39,0,0,1,2.8.25,3.49,3.49,0,0,1,1.61,2.31,7.37,7.37,0,0,1-.26,3.58,12.19,12.19,0,0,1-1.84,3.74,2,2,0,0,1-1.58.93,1.54,1.54,0,0,1-1.24-.83,2.27,2.27,0,0,1-.08-1.84,2.54,2.54,0,0,0,1.08-1,6.82,6.82,0,0,0,1.34-2.52,1.75,1.75,0,0,0-.44-1.69,1.21,1.21,0,0,0-1.27,0,6.22,6.22,0,0,0-1.87,1.48A25.56,25.56,0,0,0,106.9,145a23.06,23.06,0,0,0-3.31,6.73,4.21,4.21,0,0,0,0,2.65,1.5,1.5,0,0,0,1.25.82,8.69,8.69,0,0,0,3-.31,25.26,25.26,0,0,0,4-1.42,14.46,14.46,0,0,0,2.48-1.34c.6-.4.91-1.08,1.46-1.53a4.71,4.71,0,0,1,4.23-.94,2.69,2.69,0,0,1,1.55,1.81,4.34,4.34,0,0,0,2.87.54,4.27,4.27,0,0,0,3.13-1.81,3,3,0,0,0,.39-2.54,2.61,2.61,0,0,1,2-.31,1.42,1.42,0,0,1,.84.66,5,5,0,0,0,2.55,2.12,4.3,4.3,0,0,0,2.28.05,3.62,3.62,0,0,1,1.73,0,1.41,1.41,0,0,1,.86,1.43c0,.62-.48,1.06-.79,1.55a6.47,6.47,0,0,0-1,1.89.29.29,0,0,0,.34.38,10.19,10.19,0,0,0,2.63-.83,33.34,33.34,0,0,0,8.16-5.09A1.14,1.14,0,0,0,148,149a4.89,4.89,0,0,0,.26-1.61,3.68,3.68,0,0,1,2.43.11,1.24,1.24,0,0,1,.82.87,2.89,2.89,0,0,1-.56,2.14,9.15,9.15,0,0,1,3.64-1,2.85,2.85,0,0,1,2.25.86,1.79,1.79,0,0,1,.28,1.63,4.78,4.78,0,0,1-.86,1.6,8.74,8.74,0,0,1-2,1.9,25.59,25.59,0,0,0,10.66-4.93c.38-.34.89-.67,1-1.22a2.37,2.37,0,0,1,2.1.66,1.43,1.43,0,0,1,.45,1.21,1.83,1.83,0,0,1-.9,1.17,44.93,44.93,0,0,1-5.35,2.85,33.42,33.42,0,0,1-4.44,1.67,29.48,29.48,0,0,1-5.25,1.16,3.68,3.68,0,0,1-2.36-.34,1.21,1.21,0,0,1-.25-1.65,2.92,2.92,0,0,1,1-.72,6.61,6.61,0,0,0,2.95-3.14,5.52,5.52,0,0,0-2.27.46,7.11,7.11,0,0,0-2.65,2.15,22.13,22.13,0,0,0-2.54,4.33A56.93,56.93,0,0,0,144,165a36.06,36.06,0,0,0-1.32,4.53A1.92,1.92,0,0,1,141,171h-.55a1.32,1.32,0,0,1-1.06-.67,2.88,2.88,0,0,1,.1-1.81,25.69,25.69,0,0,1,1.31-3c1.58-3.27,3-6.61,4.57-9.89a18.22,18.22,0,0,1,1-1.86,44.13,44.13,0,0,1-8.06,3.92,7.16,7.16,0,0,1-3.07.43,1.94,1.94,0,0,1-1.45-1.06,2.5,2.5,0,0,1-.14-1.64,9.48,9.48,0,0,1,1.08-2.54,7.85,7.85,0,0,1-4.5-1.65,8.72,8.72,0,0,1-1.21,1.44,7.28,7.28,0,0,1-4.55,2,6.18,6.18,0,0,1-3-.45,10.4,10.4,0,0,1-2.2,2.65,5.37,5.37,0,0,1-3,1.29,2,2,0,0,1-1.79-.61,3,3,0,0,1-.66-2,36.87,36.87,0,0,1-5,2,13,13,0,0,1-4.15.66,4.7,4.7,0,0,1-3-1.1,4.2,4.2,0,0,1-1.35-3,11.34,11.34,0,0,1,.93-4.48,32.48,32.48,0,0,1,2.43-4.73,26.28,26.28,0,0,1,3.94-5.14A9,9,0,0,1,111.07,137.41Zm7.64,15.3a24.13,24.13,0,0,0-2.12,1.39.87.87,0,0,0-.33,1.11c.16.22.47.15.7.06a3.9,3.9,0,0,0,1.53-1.29,2.2,2.2,0,0,0,.49-1A.23.23,0,0,0,118.71,152.71Z"></path><path d="M45.83,145.49A8.49,8.49,0,0,1,50,144.43a2.81,2.81,0,0,1,1.92.7,2.13,2.13,0,0,1,.52,2.26,5.32,5.32,0,0,1-1.73,2.23,22.62,22.62,0,0,1-6.48,3.55,2.94,2.94,0,0,0,1.13,1.88,4.92,4.92,0,0,0,3.32.65,13.73,13.73,0,0,0,5.51-2.19,15.42,15.42,0,0,0,3-2.23,3.3,3.3,0,0,0,.69-1,.88.88,0,0,0-.06-.53,2.38,2.38,0,0,1,2.16-.05,1.93,1.93,0,0,1,.92,1.73A7,7,0,0,0,61.2,154c.12.29.31.63.65.66a1.62,1.62,0,0,0,.79-.5c.67-.69,1.25-1.46,1.87-2.19a5.53,5.53,0,0,0,.87-1.18c.22-.46.45-1,1-1.21a1.51,1.51,0,0,1,1.24.21,1.63,1.63,0,0,1,.54,1.2,17.09,17.09,0,0,0,.21,3,1.57,1.57,0,0,0,.42.9c.18.12.39,0,.55-.11a7.55,7.55,0,0,0,1.33-1.32c.75-.89,1.45-1.84,2.2-2.73a2.2,2.2,0,0,1,1.35-.9c.91-.11,1.69.48,2.58.53a6.92,6.92,0,0,0,2.48-.28c.43-.12.76-.45,1.2-.52a2.2,2.2,0,0,1,1.43.16,1.37,1.37,0,0,1,.77,1.32,1.57,1.57,0,0,1-1.12,1.28,8.51,8.51,0,0,1-5.73.37c-.62-.25-1.13.31-1.54.7a31.15,31.15,0,0,1-3.53,3.73,3.73,3.73,0,0,1-2.35,1A2.4,2.4,0,0,1,66.61,157a6.55,6.55,0,0,1-1-2.37,11.31,11.31,0,0,1-2.83,2.86,3.06,3.06,0,0,1-2,.57A2.16,2.16,0,0,1,59.4,157a9.66,9.66,0,0,1-1-3.06,39,39,0,0,1-4.05,2.38,14.83,14.83,0,0,1-6.75,1.81,7.13,7.13,0,0,1-4.46-1.32,4.58,4.58,0,0,1-1.64-3.12,4.65,4.65,0,0,1-2.45-.28,1.8,1.8,0,0,1-1.09-1.49,1.72,1.72,0,0,1,1.27-1.71c.13.32.5.43.82.51a4.81,4.81,0,0,0,1.65,0c.14,0,.14-.18.19-.28A9.35,9.35,0,0,1,45.83,145.49Zm2,1.78A6.56,6.56,0,0,0,44.73,150a17.56,17.56,0,0,0,3.77-1.78,2.58,2.58,0,0,0,.87-.9.3.3,0,0,0-.24-.42A2.85,2.85,0,0,0,47.8,147.27Z"></path><path d="M87.78,144.6a7.68,7.68,0,0,1,3,0,1.89,1.89,0,0,1,1.37,1,1.63,1.63,0,0,1-.52,1.64,2,2,0,0,1-1.81.31,5.25,5.25,0,0,0-2.75-.13,1.2,1.2,0,0,0-.89.71,2.66,2.66,0,0,0,.25,2.2,18.67,18.67,0,0,0,2.8,3.58,5.15,5.15,0,0,1,1,1.3,1.82,1.82,0,0,1-.07,1.64A2.37,2.37,0,0,1,88.76,158a4.17,4.17,0,0,1-1.41-.06c-2-.26-4.11-.55-6.17-.67a2.79,2.79,0,0,1-1.68-.43,1,1,0,0,1-.14-1.18A2.48,2.48,0,0,1,81.17,154a3.46,3.46,0,0,0,1.85.79,12.83,12.83,0,0,0,4,.25c-.66-.77-1.28-1.57-1.93-2.36a8,8,0,0,1-1.77-3.25,3.59,3.59,0,0,1,.93-3.26A6.1,6.1,0,0,1,87.78,144.6Z"></path><path class="cls-1" d="M184.79,138.55c.62,0,1.24,0,1.86,0q4.09,9.62,8.17,19.23c-.68,0-1.37,0-2,0-.73-1.79-1.46-3.57-2.17-5.36-3.25,0-6.49,0-9.73,0-.68,1.78-1.36,3.55-2.06,5.32-.6.08-1.25,0-1.87,0Q180.87,148.16,184.79,138.55Zm0,3.73c-1.12,2.9-2.26,5.79-3.37,8.69H190l-4.35-10.65C185.3,141,185.09,141.63,184.82,142.28Z"></path><path class="cls-1" d="M255.89,157.79c0-6.42,0-12.83,0-19.24.55,0,1.1,0,1.65,0V154c0,1.26,0,2.51,0,3.77Z"></path><path class="cls-1" d="M261.83,138.55h2v2h-2Z"></path><path class="cls-1" d="M225.52,141.59c.55-.26,1.11-.49,1.66-.74,0,1.17,0,2.34,0,3.51,1,0,2,0,3,0,0,.4,0,.8,0,1.2h-3v8.27a4.79,4.79,0,0,0,.24,2,1.45,1.45,0,0,0,1.25.64,7.39,7.39,0,0,0,1.62-.14c0,.46,0,.93,0,1.4a13.23,13.23,0,0,1-2.35.12,2.58,2.58,0,0,1-1.82-.8,3.15,3.15,0,0,1-.6-2v-9.5h-2.64c0-.41,0-.81,0-1.22h2.65C225.53,143.43,225.53,142.51,225.52,141.59Z"></path><path class="cls-1" d="M215.25,144.11a7.1,7.1,0,0,1,2.83.13,3.75,3.75,0,0,1,2.22,1.46A4.3,4.3,0,0,1,221,148h-1.64a2.94,2.94,0,0,0-.73-1.9,3.12,3.12,0,0,0-2.28-.74,3.74,3.74,0,0,0-2.48.89,1.92,1.92,0,0,0-.41,2.11,2.58,2.58,0,0,0,1.44,1.21c1.44.59,3,.77,4.44,1.46a3.6,3.6,0,0,1,1.49,1.24,3.49,3.49,0,0,1,.4,2.45,3.57,3.57,0,0,1-1.29,2.2,5.9,5.9,0,0,1-3.77,1.15,6.06,6.06,0,0,1-2.82-.59,3.57,3.57,0,0,1-1.77-2,5.74,5.74,0,0,1-.25-1.59c.54,0,1.09,0,1.63,0a2.91,2.91,0,0,0,.71,2,3.08,3.08,0,0,0,1.8.88,4.57,4.57,0,0,0,2.95-.49,2.4,2.4,0,0,0,1.23-1.63,1.9,1.9,0,0,0-.4-1.67,3.46,3.46,0,0,0-1.4-.89,37.78,37.78,0,0,1-4.43-1.49,3,3,0,0,1-1.61-1.82,3.54,3.54,0,0,1,.45-3A4.43,4.43,0,0,1,215.25,144.11Z"></path><path class="cls-1" d="M243,145.47a5.15,5.15,0,0,1,3.77-1.36,5.41,5.41,0,0,1,3.73,1.06,4.39,4.39,0,0,1,1.23,3.2c0,2.59-.07,5.19.13,7.77,0,.55.1,1.1.14,1.65h-1.5c-.06-.63-.13-1.26-.21-1.88a4.6,4.6,0,0,1-2.72,2,6.93,6.93,0,0,1-4.27-.31,3.59,3.59,0,0,1-2-2.23,4.37,4.37,0,0,1,.27-3.14,4.26,4.26,0,0,1,2.57-1.93,20.85,20.85,0,0,1,6-.59,5.47,5.47,0,0,0-.55-3.24,2.88,2.88,0,0,0-2.34-1.1,3.92,3.92,0,0,0-2.53.56,2.68,2.68,0,0,0-.93,1.92h-1.62A3.47,3.47,0,0,1,243,145.47Zm3.18,5.58a5,5,0,0,0-2.51,1,2.72,2.72,0,0,0-.14,3.89,3.59,3.59,0,0,0,2.53,1,4.19,4.19,0,0,0,2.6-.74,3.76,3.76,0,0,0,1.23-2.13,13.39,13.39,0,0,0,.26-3.1A18.82,18.82,0,0,0,246.16,151.05Z"></path><path class="cls-1" d="M269.67,145a6.7,6.7,0,0,1,4.46-.81,4.29,4.29,0,0,1,2.61,1.14,4.36,4.36,0,0,1,1.06,2.7,93.21,93.21,0,0,0,.29,9.45v.33h-1.5q-.09-.94-.21-1.89a4.86,4.86,0,0,1-1.8,1.66,6.37,6.37,0,0,1-3.2.51,4.68,4.68,0,0,1-3.47-1.63,4.09,4.09,0,0,1-.64-3.14,3.49,3.49,0,0,1,1.07-2,5.47,5.47,0,0,1,2.36-1.17,21.9,21.9,0,0,1,5.48-.43,5.23,5.23,0,0,0-.52-3.26,2.91,2.91,0,0,0-2.34-1.1,3.87,3.87,0,0,0-2.59.6,2.76,2.76,0,0,0-.88,1.88h-1.61A3.3,3.3,0,0,1,269.67,145Zm2.67,6.06a5,5,0,0,0-2.63,1.05,2.72,2.72,0,0,0-.08,3.86,3.77,3.77,0,0,0,2.81,1,4,4,0,0,0,2.26-.71,3.59,3.59,0,0,0,1.25-2,13.12,13.12,0,0,0,.29-3.25A18.83,18.83,0,0,0,272.34,151Z"></path><path class="cls-1" d="M233.67,144.36c.53,0,1.07,0,1.6,0,.07.68.07,1.36.12,2a5.7,5.7,0,0,1,1.16-1.24,5.19,5.19,0,0,1,3.72-.83c0,.56,0,1.11,0,1.66a5.29,5.29,0,0,0-2.95.21,2.81,2.81,0,0,0-1.43,1.37,7,7,0,0,0-.49,3.11c0,2.38,0,4.76,0,7.13h-1.61c0-3,0-5.93,0-8.9C233.77,147.38,233.61,145.87,233.67,144.36Z"></path><path class="cls-1" d="M262,144.35c.55,0,1.11,0,1.66,0,0,4.48,0,9,0,13.43H262Z"></path><path class="cls-1" d="M197.15,144.35c.55,0,1.11,0,1.66,0,0,2.66,0,5.32,0,8a5.83,5.83,0,0,0,.66,2.87,2.65,2.65,0,0,0,1.74,1.23,3.94,3.94,0,0,0,3.79-1,5.11,5.11,0,0,0,1.16-2.74,14.67,14.67,0,0,0,.08-2.2v-6.14c.56,0,1.11,0,1.66,0,0,2.6,0,5.2,0,7.8,0,1.88,0,3.76.07,5.64-.54,0-1.08,0-1.61,0,0-.7,0-1.39-.05-2.09a7.3,7.3,0,0,1-1.34,1.38,4.85,4.85,0,0,1-3,.84,5.77,5.77,0,0,1-2.69-.51,3.35,3.35,0,0,1-1.54-1.55,7.41,7.41,0,0,1-.63-3.26Z"></path></svg>