<svg xmlns="http://www.w3.org/2000/svg" id="Layer_1" data-name="Layer 1" viewBox="0 0 288 300"><path d="M80.14,125.26a10.21,10.21,0,0,1,7.55-4.47,9,9,0,0,1-1.5,5.86,10.9,10.9,0,0,1-4.32,3.9,6.84,6.84,0,0,1-3.36.63A8.9,8.9,0,0,1,80.14,125.26Z"></path><path d="M102.88,123.66h5.69l20.83,29.61a.41.41,0,0,0,.35.21q0-14.91,0-29.82c2,0,4.08,0,6.12,0q0,20.19,0,40.4h-5.65q-10.28-14.61-20.55-29.2c-.2-.23-.31-.62-.67-.6q0,14.9,0,29.79h-6.11Z"></path><path d="M79.5,133.13c2.34-.67,4.59-1.83,7.08-1.91a13,13,0,0,1,4.5.77,10.2,10.2,0,0,1,4.74,3.61c-.51.36-1,.69-1.52,1.1a8.9,8.9,0,0,0-3.16,5,10,10,0,0,0,1.22,7.46A10.59,10.59,0,0,0,97,153a26.35,26.35,0,0,1-5.43,9.21,9.31,9.31,0,0,1-1.67,1.47,5.41,5.41,0,0,1-4,.92c-1.61-.23-3-1.1-4.64-1.43a9.29,9.29,0,0,0-5.24.41,14.32,14.32,0,0,1-4,1.15,5.08,5.08,0,0,1-3.31-1.17A18.93,18.93,0,0,1,65,159.5a26.69,26.69,0,0,1-3.93-8,25.54,25.54,0,0,1-1.1-6.32v-1a15,15,0,0,1,1.53-6.59,11.48,11.48,0,0,1,3.8-4.38,10.65,10.65,0,0,1,6.42-1.88c2.31.17,4.36,1.33,6.58,1.86A2.19,2.19,0,0,0,79.5,133.13Z"></path><path d="M146.4,136.05a13.74,13.74,0,0,1,7.58-2,13.17,13.17,0,0,1,7.66,2.39,12.85,12.85,0,0,1,4.66,7,25,25,0,0,1,.69,7.36H146.17a9.57,9.57,0,0,0,1.74,6.05,7.24,7.24,0,0,0,5,2.74,8.17,8.17,0,0,0,6.17-1.52,5.69,5.69,0,0,0,1.85-2.7c1.92,0,3.84,0,5.76,0a10.07,10.07,0,0,1-3.14,5.81,13.55,13.55,0,0,1-8.2,3.35,15.63,15.63,0,0,1-8-1.35,11.91,11.91,0,0,1-5-4.58,16.82,16.82,0,0,1-2.25-7.8,19.66,19.66,0,0,1,1.52-9.19A12.77,12.77,0,0,1,146.4,136.05Zm2.36,4.79a8.65,8.65,0,0,0-2.55,5.78h14.73a8.3,8.3,0,0,0-2.39-5.84A7.35,7.35,0,0,0,148.76,140.84Z"></path><path d="M220,134.29a17.28,17.28,0,0,1,6.21.14A10.77,10.77,0,0,1,232,137.7a8.91,8.91,0,0,1,2.18,5.62h-5.68a5.17,5.17,0,0,0-1.61-3.25,6.43,6.43,0,0,0-4.62-1.39,6.05,6.05,0,0,0-4.08,1.52,3.43,3.43,0,0,0-.84,3.41,3.4,3.4,0,0,0,1.58,1.82,15.49,15.49,0,0,0,4.42,1.39c1.6.38,3.22.7,4.8,1.15a10.67,10.67,0,0,1,5.23,3,6.86,6.86,0,0,1,1.46,4.3v.84a8.58,8.58,0,0,1-.67,2.68,9,9,0,0,1-4.29,4.31,16.19,16.19,0,0,1-8.29,1.5,13.09,13.09,0,0,1-8-3,9.44,9.44,0,0,1-3-6.2c2,0,4,0,6,0a5.25,5.25,0,0,0,5.21,4.54,9.89,9.89,0,0,0,4.61-.54,3.83,3.83,0,0,0,2.28-2.26,3.26,3.26,0,0,0-.65-3.24,6.43,6.43,0,0,0-2.94-1.43c-1.73-.42-3.47-.82-5.2-1.22a18.65,18.65,0,0,1-3.7-1.22A8.55,8.55,0,0,1,212.4,147a7.74,7.74,0,0,1-1-5.15,7.9,7.9,0,0,1,2.46-4.75A11.51,11.51,0,0,1,220,134.29Z"></path><path d="M168.17,134.6h6c1.81,7.74,3.59,15.49,5.41,23.23a.46.46,0,0,0,.15-.27q3-11.48,6.08-23h5.83q3,11.47,6.09,22.94a.46.46,0,0,0,.19.3q2.72-11.61,5.4-23.24h6l-8.07,29.47H195c-1.93-6.82-3.83-13.64-5.75-20.46a8.82,8.82,0,0,0-.56-1.69c-2.09,7.37-4.11,14.77-6.18,22.15h-6.24Q172.21,149.34,168.17,134.6Z"></path></svg>