<svg xmlns="http://www.w3.org/2000/svg" viewBox="0 0 1356.33 68.06"><defs><style>.cls-1{fill:#e30016;}.cls-2{fill:#1b1918;}.cls-3{fill:#5580ce;}.cls-4{fill:#dc2b2e;}.cls-5{fill:#a1a6a9;}.cls-6{fill:#6b3292;}.cls-7{fill:#699455;}.cls-8{fill:#0c8ab4;}.cls-9{fill:#111;}</style></defs><g id="Layer_2" data-name="Layer 2"><g id="Layer_1-2" data-name="Layer 1"><path class="cls-1" d="M364.16,6.5h.26c.11.07.25.12.27.27.18.55.32,1.11.48,1.67a1.8,1.8,0,0,0,.35.8,2.44,2.44,0,0,0,1.09.51c.23.89.47,1.78.69,2.66a2.62,2.62,0,0,0,1.76,1.94c.24.12.55.18.69.44.55.87,1.12,1.74,1.67,2.61.2.36.6.52.88.8a1.69,1.69,0,0,1,.6,1.45c-.15,1.5.09,3.1-.61,4.5-.14.41-.63.49-.87.81-.4.5-.58,1.13-.94,1.65a10.54,10.54,0,0,0-.8,1.57c-1,.46-1.95.9-2.92,1.35a6.06,6.06,0,0,0-.55-.58,7.48,7.48,0,0,0-1.09.56l-2.48-1c-.07-.43,0-.92-.3-1.28l-1-1.42.14-.49c-.11-.1-.21-.2-.31-.31a2.18,2.18,0,0,0-1,.93c-.15.25-.47.19-.72.22-.48-.51-1-1-1.47-1.53a1.24,1.24,0,0,0-.73-.28,4.94,4.94,0,0,0-3.3.4c-.37.23-.84.19-1.23.36a3.05,3.05,0,0,0-1.38,1.37,9.2,9.2,0,0,0-3.07,1.27c-.28.2-.47.51-.76.7a2.88,2.88,0,0,1-2-.07,1.7,1.7,0,0,0-.15-.22c.15-.4.43-.82.26-1.25-.4-1.52-1.89-2.41-2.39-3.87-.14-.36-.12-.76-.26-1.1s-.65-.51-.79-.91a1.65,1.65,0,0,1,0-1.29,3.3,3.3,0,0,1,2-2.08c.68-.27,1.3-.64,1.94-1A3.51,3.51,0,0,0,348,13.66a10.5,10.5,0,0,0,2.27-2.43,2,2,0,0,1,1.34-.73c.42.17.8.43,1.21.63l.65-.3a17,17,0,0,0,1-2.28,5.22,5.22,0,0,0,1.74-.72c.95,0,1.9,0,2.85,0,.2,0,.5.21.34.43-.29.54-.61,1.05-.92,1.57a2.15,2.15,0,0,0,.61.9c.82.66,1.92.79,2.78,1.38.29.19.52.53.9.52s.85-.33.92-.75C363.84,10.09,364,8.29,364.16,6.5Z"></path><path class="cls-1" d="M366.42,31.08c.31.12.57.39.93.38.53,0,1.06-.1,1.59-.12a1.19,1.19,0,0,1-.49,1.34,4,4,0,0,1-.77.58,3.8,3.8,0,0,1-.88-.12C366.67,32.45,366.53,31.77,366.42,31.08Z"></path><path class="cls-2" d="M383.78,13.12a1,1,0,0,1,.55-.1c2.66.08,5.33.14,8,.09,2.83,0,5.66-.08,8.49-.09,0,1.43-.22,2.86-.26,4.29h-1a6.57,6.57,0,0,0-.29-2.2c-.16-.39-.66-.41-1-.45-1.32,0-2.64,0-4,0,0,4.63,0,9.27,0,13.9,0,.42,0,1,.47,1.18s1.24.12,1.85.26v1c-2.09,0-4.18-.23-6.27-.08-.74,0-1.48.07-2.22.08V30a6,6,0,0,0,1.93-.27c.26-.09.3-.39.35-.63a23.39,23.39,0,0,0,.1-3.13V14.65h-3.88a1.57,1.57,0,0,0-1.09.32,11.52,11.52,0,0,0-.29,2.34h-1.13A34.56,34.56,0,0,0,383.78,13.12Z"></path><path class="cls-2" d="M402.28,13c1.63,0,3.26.1,4.89.11,1.2,0,2.4-.09,3.6-.11V14.1a4.26,4.26,0,0,0-2,.22c-.36.28-.24.79-.3,1.19-.06,1.78,0,3.56,0,5.34,2.77.06,5.54.11,8.31,0,0-1.78,0-3.57,0-5.35-.05-.43,0-1-.48-1.24s-1.25-.1-1.88-.16V13c1.23,0,2.46.09,3.69.11,1.6,0,3.21-.09,4.81-.11V14.1c-.52,0-1,.08-1.54.13a.66.66,0,0,0-.65.49,9.35,9.35,0,0,0-.13,1.9c0,3.68,0,7.35,0,11a5.11,5.11,0,0,0,.2,1.91c.6.46,1.43.24,2.12.43v1a46.41,46.41,0,0,0-8.5,0c0-.34,0-.68,0-1,.53,0,1.07-.08,1.61-.16a.82.82,0,0,0,.69-.7c.11-1,.07-2,.08-3.05V22.43c-2.77-.09-5.54-.07-8.31,0,0,2,0,3.92,0,5.88a2.49,2.49,0,0,0,.28,1.35,5,5,0,0,0,2,.33v1c-2,0-4-.23-6.08-.08-.81,0-1.61.07-2.41.08V30a12.9,12.9,0,0,0,2.05-.34,3.3,3.3,0,0,0,.36-1.89V16.17a3.63,3.63,0,0,0-.33-1.69,6.08,6.08,0,0,0-2.08-.38Z"></path><path class="cls-2" d="M424.81,13c1.47.05,2.93.11,4.4.11,2.17-.06,4.34-.11,6.51-.11a28.79,28.79,0,0,1,3.22.09.33.33,0,0,1,.13.36l-.36,3.63h-1c-.09-.68-.13-1.36-.23-2-.17-.23-.5-.2-.75-.27a50.42,50.42,0,0,0-5.77-.15v6.27c.95,0,1.89.13,2.83,0a8.64,8.64,0,0,0,1.83-.15c.66-.38.48-1.23.56-1.87h1.11c0,1.14-.11,2.28-.08,3.42,0,.75,0,1.5.08,2.24h-1.11a5,5,0,0,0-.31-1.75,1.16,1.16,0,0,0-1-.55,30.46,30.46,0,0,0-3.94.13v6.94c.89,0,1.78.09,2.66.06a32.65,32.65,0,0,0,4.08-.29,15.71,15.71,0,0,1,.58-2.53h1.06a22.52,22.52,0,0,1-.17,2.59,14.18,14.18,0,0,0-.12,1.59l-.22.05a93.64,93.64,0,0,1-9.77,0c-1.12,0-2.24.13-3.36.14,0-.2,0-.4,0-.59.55-.34,1.35-.65,1.38-1.4.14-2.1.05-4.21.07-6.31,0-1.8,0-3.6,0-5.4a20.68,20.68,0,0,0-.09-2.23,1.21,1.21,0,0,0-.38-.81c-.63-.13-1.28-.16-1.92-.23Z"></path><path class="cls-2" d="M364.71,37.84a14.06,14.06,0,0,1,7.18.66l.21.31a13.33,13.33,0,0,0-.4,3.56h-1.1l-.15-2.07a5,5,0,0,0-4.8-1.24,3.28,3.28,0,0,0-1.8,1,3,3,0,0,0-.55,2.16,1.6,1.6,0,0,0,.86,1.4c2,.93,4.32,1,6.33,2a4.38,4.38,0,0,1,2.26,1.91,5.24,5.24,0,0,1,.18,3.64,5.9,5.9,0,0,1-3.63,3.67,14.77,14.77,0,0,1-3.47.66h-1a15.54,15.54,0,0,1-5-1.1,26.41,26.41,0,0,0,.35-4.35h1c.11.72.13,1.46.28,2.17a4,4,0,0,0,1.43,1.2,5.67,5.67,0,0,0,4.89.3A3.18,3.18,0,0,0,369.66,52a2.35,2.35,0,0,0-.69-2.82c-2-1.1-4.32-1.21-6.33-2.22a5.07,5.07,0,0,1-1.81-1.33,4.23,4.23,0,0,1-.85-3,4.7,4.7,0,0,1,1.42-3.24A7.32,7.32,0,0,1,364.71,37.84Z"></path><path class="cls-2" d="M325.2,37.84h1.94L333,50.78c.39.85.73,1.72,1.17,2.54a1.42,1.42,0,0,0,.56.67,4.83,4.83,0,0,0,1.4.32v.89a46.73,46.73,0,0,0-8.28,0v-.89c.52-.05,1,0,1.55-.11.47-.25.44-.89.27-1.32-.39-1-.81-2-1.2-3H321.8c-.39.88-.71,1.79-1,2.7a3.37,3.37,0,0,0-.21.83.73.73,0,0,0,.59.75,12.25,12.25,0,0,0,1.48.09v1c-1.06,0-2.12-.11-3.18-.12s-1.87.06-2.81.12v-.89a2.44,2.44,0,0,0,1.45-.49A3.36,3.36,0,0,0,319,52.3l4.39-9.91C324.09,40.9,324.61,39.35,325.2,37.84Zm-.15,4.28c-.9,2.12-1.78,4.25-2.68,6.38h5.45C326.89,46.38,326,44.23,325.05,42.12Z"></path><path class="cls-2" d="M422.22,37.84h1.91q3.28,7.3,6.58,14.61a6,6,0,0,0,.83,1.43,3.42,3.42,0,0,0,1.58.43v.89a47.7,47.7,0,0,0-8.28,0c0-.3,0-.59,0-.89.5-.05,1,0,1.51-.09.5-.22.49-.9.32-1.33-.4-1-.81-2-1.21-3h-6.63c-.4.88-.72,1.79-1,2.7a3.51,3.51,0,0,0-.22.83.73.73,0,0,0,.6.75,10.36,10.36,0,0,0,1.47.09c0,.32,0,.64,0,1-1.08,0-2.16-.1-3.25-.11-.92,0-1.84.06-2.76.12v-.89a2.21,2.21,0,0,0,2-1.2l4.77-10.74C421.11,40.9,421.62,39.35,422.22,37.84Zm-.15,4.25c-.89,2.14-1.79,4.27-2.68,6.41h5.44C423.92,46.36,423,44.23,422.07,42.09Z"></path><path class="cls-2" d="M471,37.84h1.91l5.87,13a27.6,27.6,0,0,0,1.32,2.74c.36.62,1.18.6,1.8.71v.89a46.73,46.73,0,0,0-8.28,0v-.89c.46,0,.92-.05,1.39-.08.25,0,.42-.24.49-.46a1.56,1.56,0,0,0-.13-1.06l-1.14-2.84h-6.63a30.49,30.49,0,0,0-1.2,3.23.79.79,0,0,0,.44,1,9.38,9.38,0,0,0,1.59.11v1c-1.41,0-2.81-.17-4.22-.08-.6,0-1.2.06-1.8.09v-.89a2.23,2.23,0,0,0,2-1.18q2.6-5.87,5.21-11.74C470.06,40.22,470.5,39,471,37.84ZM468.13,48.5h5.45l-2.75-6.39C469.9,44.23,469,46.38,468.13,48.5Z"></path><path class="cls-2" d="M337.78,38c1.16,0,2.32.09,3.48.11,1.62,0,3.25-.1,4.87-.11v1c-.58.07-1.17.07-1.74.18a.47.47,0,0,0-.38.35,5,5,0,0,0-.14,1.44v7.54a10,10,0,0,0,.29,2.62,2.62,2.62,0,0,0,1,1.61,6.38,6.38,0,0,0,3.88.84,4.52,4.52,0,0,0,3.52-1.46,7.09,7.09,0,0,0,.93-4.29v-7a3.14,3.14,0,0,0-.29-1.48.63.63,0,0,0-.46-.25c-.51-.07-1-.1-1.54-.14V38a28.3,28.3,0,0,0,2.91.1c1.07,0,2.15-.09,3.22-.1v1a5.49,5.49,0,0,0-1.8.26.47.47,0,0,0-.28.37,8.34,8.34,0,0,0-.11,1.8v7.19a6.69,6.69,0,0,1-1.67,5.1A5.84,5.84,0,0,1,351.17,55a12.92,12.92,0,0,1-3.2.54h-.87A11.88,11.88,0,0,1,342,54.16,3.71,3.71,0,0,1,340.12,51c0-3.3,0-6.6,0-9.9a6,6,0,0,0-.19-1.58c-.05-.23-.28-.33-.48-.4a6.63,6.63,0,0,0-1.66-.21Z"></path><path class="cls-2" d="M375.45,38.07a1,1,0,0,1,.45-.09c2.59.07,5.18.15,7.77.1,2.85,0,5.71-.09,8.56-.1,0,1.37-.23,2.73-.26,4.11h-1a6.94,6.94,0,0,0-.25-2c-.13-.45-.69-.48-1.07-.51-1.29,0-2.59,0-3.88,0q0,6.52,0,13.07a2.39,2.39,0,0,0,.24,1.27c.61.36,1.37.19,2,.36v1c-1.57,0-3.14-.1-4.71-.11-1.21,0-2.43.08-3.64.11v-1a4,4,0,0,0,2.09-.39,5.33,5.33,0,0,0,.27-1.91V39.54h-3.88a1.48,1.48,0,0,0-1,.33,10.29,10.29,0,0,0-.27,2.22h-1.11A36,36,0,0,0,375.45,38.07Z"></path><path class="cls-2" d="M394.26,38c3.36.22,6.73,0,10.09,0a6.56,6.56,0,0,1,3.56.84,2.79,2.79,0,0,1,1.39,2.31,4.17,4.17,0,0,1-.6,2.78,5.46,5.46,0,0,1-1.55,1.48,10.51,10.51,0,0,1-2.5,1.32c1.54,1.72,3.09,3.42,4.63,5.13.52.57.92,1.25,1.47,1.79a2.79,2.79,0,0,0,1.34.61c0,.32,0,.64,0,1a33,33,0,0,0-3.59-.09l-1.45.09q-3.36-3.7-6.73-7.39c0,1.71,0,3.42,0,5.13,0,.39,0,.93.46,1.07a12.54,12.54,0,0,0,1.74.22v1c-1.27,0-2.55-.1-3.83-.11-1.49,0-3,.08-4.47.11v-1c.52,0,1.05-.08,1.57-.15a.61.61,0,0,0,.54-.46,11.61,11.61,0,0,0,.18-2.7V41.59a8.8,8.8,0,0,0-.17-1.92c-.05-.15-.06-.38-.25-.42a13.24,13.24,0,0,0-1.87-.3Zm6.09,1.53q0,3.26,0,6.52a8.82,8.82,0,0,0,2.81-.23,3.66,3.66,0,0,0,1.94-1.37,4.06,4.06,0,0,0,.51-2.51,2.65,2.65,0,0,0-1.2-1.93A4.77,4.77,0,0,0,400.35,39.51Z"></path><path class="cls-2" d="M435.12,38c1.89,0,3.78.17,5.66.08.88,0,1.76-.07,2.65-.08v1c-.68.21-1.45.05-2.06.43a3.92,3.92,0,0,0-.16,1.32v13c1.36,0,2.72.08,4.08.06a7.81,7.81,0,0,0,2.54-.36c.19-.87.37-1.75.55-2.63h1.06c-.09,1.38-.18,2.75-.28,4.13a.23.23,0,0,1-.28.23c-2.88.13-5.77.16-8.65.06-1.41,0-2.81-.07-4.21,0v-.49a3.76,3.76,0,0,0,1.18-.79,2.3,2.3,0,0,0,.21-1.13V42.15a10.86,10.86,0,0,0-.18-2.61c0-.28-.33-.31-.54-.36-.52-.1-1-.16-1.57-.23Z"></path><path class="cls-2" d="M451.87,38c1.37.05,2.74.11,4.1.12s2.79-.07,4.18-.12v1c-.59.09-1.19.07-1.79.15-.31.06-.29.44-.34.68-.12,1.18,0,2.36-.06,3.54,0,3.23,0,6.45,0,9.68.06.3,0,.79.33.92.6.21,1.25.1,1.85.26v1c-1.39,0-2.78-.1-4.18-.11s-2.73.08-4.1.11v-1c.6-.13,1.23-.07,1.82-.22.34-.07.37-.46.41-.74.11-1.08,0-2.17.06-3.26V43.28a23.82,23.82,0,0,0-.11-3.38c-.05-.24-.09-.55-.36-.64a5.89,5.89,0,0,0-1.82-.25Z"></path><path class="cls-2" d="M483.72,38c1.08,0,2.15.07,3.22.11.76,0,1.51-.09,2.27-.11,1,1.28,2.07,2.55,3.14,3.78s2.28,2.67,3.5,3.92c1.52,1.55,2.9,3.22,4.41,4.78,0-3.28,0-6.57,0-9.85-.07-.52-.05-1.29-.66-1.47a6.31,6.31,0,0,0-1.62-.2V38a43.25,43.25,0,0,0,6.13,0v1a10.54,10.54,0,0,0-1.78.19c-.33.09-.41.48-.47.76a17.92,17.92,0,0,0,0,2.93c.06,4.21,0,8.42.09,12.63-.82,0-1.62-.17-2.43-.25-1.24-1.37-2.54-2.71-3.74-4.12-2.68-3.07-5.34-6.16-8.08-9.18V52.28A3.82,3.82,0,0,0,487.9,54c.56.43,1.33.23,2,.35v.89a26.44,26.44,0,0,0-6.16,0v-.89a5.5,5.5,0,0,0,1.81-.25c.2-.06.27-.27.32-.45A11.7,11.7,0,0,0,486,51V40.92a3.63,3.63,0,0,0-.26-1.57,5.37,5.37,0,0,0-2-.41Z"></path><path d="M1122.2,19.36h.47a2,2,0,0,1,1.08.53,1.46,1.46,0,0,1,.11,1.6,11.55,11.55,0,0,1-1.73,2.33,20,20,0,0,0-1.7,2.19,87.39,87.39,0,0,0-5.48,9.34c-1.24,2.43-2.44,4.88-3.45,7.42a1.64,1.64,0,0,1-.89,1,2.31,2.31,0,0,1-1.51-.1,1.31,1.31,0,0,1-.88-.61,4.25,4.25,0,0,1-.16-1.59,39.86,39.86,0,0,0-1-4.43,38.92,38.92,0,0,1-.75-7.46c-1.82,3.43-3.62,6.87-5.36,10.35a8.47,8.47,0,0,0-1,2.59,1.13,1.13,0,0,0,.06.55,1.93,1.93,0,0,1-1.11,1.13,3.07,3.07,0,0,1-2.17-.11,1,1,0,0,1-.64-.71v-.47A6.53,6.53,0,0,1,1097,41c1-1.64,1.92-3.28,2.87-4.92s1.72-3,2.5-4.48,1.52-3,2.2-4.49a7.49,7.49,0,0,0,.62-2.72,4.15,4.15,0,0,1,2.49.12,1.67,1.67,0,0,1,1,1.52c.15,1.76.23,3.53.33,5.3,0,.77.07,1.53.17,2.3a33,33,0,0,0,1.23,5.36,137.81,137.81,0,0,1,8-15.2,30.56,30.56,0,0,1,2.14-3.34A2.82,2.82,0,0,1,1122.2,19.36Z"></path><path d="M1189.32,23.14a3.37,3.37,0,0,1,2.79.26,3.47,3.47,0,0,1,1.61,2.31,7.38,7.38,0,0,1-.25,3.58,12.48,12.48,0,0,1-1.84,3.73A2,2,0,0,1,1190,34a1.52,1.52,0,0,1-1.23-.83,2.27,2.27,0,0,1-.09-1.84,2.61,2.61,0,0,0,1.09-.94,7,7,0,0,0,1.33-2.52,1.7,1.7,0,0,0-.44-1.69,1.17,1.17,0,0,0-1.26-.06,6.29,6.29,0,0,0-1.88,1.48,25.26,25.26,0,0,0-2.41,3.15,22.9,22.9,0,0,0-3.32,6.74,4.21,4.21,0,0,0,0,2.65,1.49,1.49,0,0,0,1.24.81,8.43,8.43,0,0,0,3-.31,25.22,25.22,0,0,0,4.05-1.41,16,16,0,0,0,2.48-1.34c.6-.4.91-1.08,1.46-1.54a4.71,4.71,0,0,1,4.23-.94,2.69,2.69,0,0,1,1.55,1.81,4.44,4.44,0,0,0,2.88.55,4.34,4.34,0,0,0,3.13-1.81,3.07,3.07,0,0,0,.39-2.54,2.63,2.63,0,0,1,2-.32,1.42,1.42,0,0,1,.84.66,5,5,0,0,0,2.55,2.13,4.3,4.3,0,0,0,2.28,0,3.62,3.62,0,0,1,1.73,0,1.39,1.39,0,0,1,.86,1.43c0,.62-.47,1.07-.78,1.55a6.14,6.14,0,0,0-1,1.89.28.28,0,0,0,.34.38,9.82,9.82,0,0,0,2.63-.83,33.55,33.55,0,0,0,8.15-5.08,1.15,1.15,0,0,0,.38-.44,5.18,5.18,0,0,0,.26-1.62,3.75,3.75,0,0,1,2.43.11,1.25,1.25,0,0,1,.82.88,2.91,2.91,0,0,1-.57,2.14,8.84,8.84,0,0,1,3.64-1,2.79,2.79,0,0,1,2.25.85,1.8,1.8,0,0,1,.29,1.63,4.86,4.86,0,0,1-.86,1.6,8.72,8.72,0,0,1-2,1.9,25.31,25.31,0,0,0,10.65-4.93c.39-.34.89-.66,1-1.22a2.36,2.36,0,0,1,2.11.67,1.45,1.45,0,0,1,.44,1.21,1.82,1.82,0,0,1-.9,1.17,43.45,43.45,0,0,1-5.35,2.84,32.09,32.09,0,0,1-4.44,1.67,28.63,28.63,0,0,1-5.25,1.16,3.68,3.68,0,0,1-2.36-.34,1.2,1.2,0,0,1-.25-1.64,2.88,2.88,0,0,1,1-.73,6.22,6.22,0,0,0,1.61-1.19,5.89,5.89,0,0,0,1.33-1.94,5.51,5.51,0,0,0-2.27.45,7.18,7.18,0,0,0-2.65,2.15,22.72,22.72,0,0,0-2.54,4.34,56.77,56.77,0,0,0-2.34,5.86,36.21,36.21,0,0,0-1.32,4.54,2,2,0,0,1-1.67,1.42h-.55a1.33,1.33,0,0,1-1-.67,2.84,2.84,0,0,1,.1-1.82,23.21,23.21,0,0,1,1.31-3c1.57-3.28,3-6.61,4.57-9.9a19.24,19.24,0,0,1,1-1.86,44.36,44.36,0,0,1-8,3.92,7,7,0,0,1-3.07.43A1.94,1.94,0,0,1,1212,42.7a2.53,2.53,0,0,1-.14-1.63,10.24,10.24,0,0,1,1.08-2.55,7.78,7.78,0,0,1-4.5-1.65,8.74,8.74,0,0,1-1.2,1.44,7.37,7.37,0,0,1-4.56,2,6.31,6.31,0,0,1-3-.45,10.49,10.49,0,0,1-2.19,2.64,5.49,5.49,0,0,1-3,1.3,2.06,2.06,0,0,1-1.79-.62,3,3,0,0,1-.66-2,36.82,36.82,0,0,1-5,2,12.74,12.74,0,0,1-4.15.66,4.71,4.71,0,0,1-3-1.09,4.24,4.24,0,0,1-1.35-3,11.23,11.23,0,0,1,.94-4.49,30.89,30.89,0,0,1,2.42-4.72,26.34,26.34,0,0,1,3.94-5.15A9.13,9.13,0,0,1,1189.32,23.14Zm7.64,15.3a25.21,25.21,0,0,0-2.13,1.4.87.87,0,0,0-.33,1.1c.17.23.48.15.7.07a4,4,0,0,0,1.53-1.29,2.24,2.24,0,0,0,.49-1A.23.23,0,0,0,1197,38.44Z"></path><path d="M1124.08,31.23a8.33,8.33,0,0,1,4.17-1.07,2.9,2.9,0,0,1,1.93.7,2.15,2.15,0,0,1,.51,2.26,5.3,5.3,0,0,1-1.72,2.23,22.94,22.94,0,0,1-6.49,3.56,2.89,2.89,0,0,0,1.14,1.87,4.9,4.9,0,0,0,3.31.66,13.92,13.92,0,0,0,5.52-2.19,15.72,15.72,0,0,0,3-2.24,3,3,0,0,0,.69-1c.07-.17,0-.35-.06-.52a2.36,2.36,0,0,1,2.16-.06,1.94,1.94,0,0,1,.93,1.73,6.76,6.76,0,0,0,.33,2.49c.11.29.3.63.65.67a1.61,1.61,0,0,0,.78-.51c.68-.69,1.26-1.45,1.88-2.18a5.31,5.31,0,0,0,.86-1.19c.23-.46.45-1,1-1.21a1.54,1.54,0,0,1,1.24.21,1.66,1.66,0,0,1,.54,1.2,17.1,17.1,0,0,0,.22,3,1.5,1.5,0,0,0,.41.9c.19.13.39,0,.55-.11a6.93,6.93,0,0,0,1.33-1.32c.76-.89,1.45-1.83,2.2-2.73a2.24,2.24,0,0,1,1.36-.89c.9-.12,1.69.48,2.57.52a6.76,6.76,0,0,0,2.49-.28c.42-.12.76-.45,1.2-.52a2.24,2.24,0,0,1,1.42.16,1.38,1.38,0,0,1,.78,1.32,1.58,1.58,0,0,1-1.13,1.29,8.53,8.53,0,0,1-5.72.36c-.63-.25-1.14.31-1.55.7a31.88,31.88,0,0,1-3.52,3.73,3.76,3.76,0,0,1-2.36,1,2.38,2.38,0,0,1-1.77-1.09,6.55,6.55,0,0,1-1-2.37,11.35,11.35,0,0,1-2.83,2.87,3,3,0,0,1-2,.57,2.19,2.19,0,0,1-1.38-1.09,9.56,9.56,0,0,1-1-3.06,42,42,0,0,1-4,2.37,14.87,14.87,0,0,1-6.76,1.81,7.2,7.2,0,0,1-4.46-1.31,4.59,4.59,0,0,1-1.64-3.13,4.42,4.42,0,0,1-2.44-.28,1.81,1.81,0,0,1-1.1-1.48,1.72,1.72,0,0,1,1.27-1.72,1.06,1.06,0,0,0,.82.51,4.57,4.57,0,0,0,1.65,0c.14,0,.15-.17.2-.27A9.22,9.22,0,0,1,1124.08,31.23Zm2,1.78a6.46,6.46,0,0,0-3.07,2.77,18.09,18.09,0,0,0,3.77-1.79,2.47,2.47,0,0,0,.87-.89.29.29,0,0,0-.23-.42A2.86,2.86,0,0,0,1126,33Z"></path><path d="M1166,30.33a8.07,8.07,0,0,1,3,0,1.89,1.89,0,0,1,1.37,1.06,1.64,1.64,0,0,1-.52,1.64,2,2,0,0,1-1.81.3,5.24,5.24,0,0,0-2.75-.12,1.14,1.14,0,0,0-.88.7,2.68,2.68,0,0,0,.24,2.21,19.31,19.31,0,0,0,2.8,3.58,4.86,4.86,0,0,1,1,1.3,1.85,1.85,0,0,1-.08,1.64,2.26,2.26,0,0,1-1.41,1.12,4.18,4.18,0,0,1-1.41-.06c-2-.26-4.1-.54-6.17-.67a2.74,2.74,0,0,1-1.68-.43c-.36-.28-.28-.8-.14-1.18a2.5,2.5,0,0,1,1.81-1.67,3.46,3.46,0,0,0,1.85.79,12.84,12.84,0,0,0,4,.26c-.66-.78-1.28-1.58-1.92-2.36a8,8,0,0,1-1.78-3.25,3.6,3.6,0,0,1,.93-3.27A6.19,6.19,0,0,1,1166,30.33Z"></path><path class="cls-3" d="M1263,24.28h1.85q4.09,9.62,8.17,19.23c-.68,0-1.37,0-2,0-.72-1.78-1.45-3.56-2.17-5.35-3.24,0-6.49,0-9.73,0q-1,2.67-2,5.32c-.61.08-1.25,0-1.87,0Q1259.11,33.91,1263,24.28Zm0,3.74q-1.68,4.34-3.37,8.69h8.52c-1.44-3.55-2.9-7.1-4.35-10.65C1263.54,26.68,1263.34,27.37,1263.06,28Z"></path><path class="cls-3" d="M1334.13,43.52c0-6.41,0-12.83,0-19.24h1.65V39.75c0,1.26,0,2.52,0,3.78Z"></path><path class="cls-3" d="M1340.07,24.28h2v2h-2Z"></path><path class="cls-3" d="M1303.77,27.32l1.66-.74c0,1.17,0,2.34,0,3.51,1,0,2,0,3,0,0,.4,0,.8,0,1.2h-3v8.27a4.48,4.48,0,0,0,.24,2,1.45,1.45,0,0,0,1.24.64,6.78,6.78,0,0,0,1.62-.14c0,.47,0,.93,0,1.4a11.58,11.58,0,0,1-2.35.12,2.54,2.54,0,0,1-1.82-.8,3.12,3.12,0,0,1-.6-2V31.3h-2.63c0-.4,0-.81,0-1.21h2.64C1303.77,29.16,1303.78,28.24,1303.77,27.32Z"></path><path class="cls-3" d="M1293.5,29.84a7.31,7.31,0,0,1,2.83.13,3.75,3.75,0,0,1,2.21,1.46,4.4,4.4,0,0,1,.67,2.29h-1.65a2.87,2.87,0,0,0-.73-1.9,3.12,3.12,0,0,0-2.27-.75,3.77,3.77,0,0,0-2.48.89,1.92,1.92,0,0,0-.42,2.11,2.61,2.61,0,0,0,1.44,1.21c1.45.6,3,.78,4.44,1.47A3.67,3.67,0,0,1,1299,38a3.51,3.51,0,0,1,.39,2.46,3.56,3.56,0,0,1-1.28,2.2,5.93,5.93,0,0,1-3.78,1.14,6.09,6.09,0,0,1-2.82-.59,3.5,3.5,0,0,1-1.76-2,5.75,5.75,0,0,1-.26-1.59h1.64a2.88,2.88,0,0,0,.71,2,3,3,0,0,0,1.79.87,4.55,4.55,0,0,0,3-.49,2.41,2.41,0,0,0,1.23-1.62,2,2,0,0,0-.4-1.68,3.53,3.53,0,0,0-1.41-.89,38.41,38.41,0,0,1-4.43-1.49,3.09,3.09,0,0,1-1.61-1.81,3.53,3.53,0,0,1,.45-3A4.46,4.46,0,0,1,1293.5,29.84Z"></path><path class="cls-3" d="M1321.23,31.21a5.18,5.18,0,0,1,3.77-1.37,5.5,5.5,0,0,1,3.73,1.06,4.5,4.5,0,0,1,1.23,3.21c0,2.59-.07,5.18.12,7.77,0,.55.1,1.1.14,1.65h-1.5q-.09-.95-.21-1.89a4.56,4.56,0,0,1-2.72,2,6.93,6.93,0,0,1-4.27-.3,3.59,3.59,0,0,1-2-2.24,3.88,3.88,0,0,1,2.83-5.07,20.85,20.85,0,0,1,6-.58,5.42,5.42,0,0,0-.55-3.25,2.83,2.83,0,0,0-2.34-1.09,3.86,3.86,0,0,0-2.53.55,2.7,2.7,0,0,0-.93,1.92h-1.62A3.42,3.42,0,0,1,1321.23,31.21Zm3.17,5.57a5.07,5.07,0,0,0-2.51,1,2.73,2.73,0,0,0-.14,3.9,3.63,3.63,0,0,0,2.54,1,4.12,4.12,0,0,0,2.59-.74,3.65,3.65,0,0,0,1.23-2.12,13.49,13.49,0,0,0,.26-3.1A18.84,18.84,0,0,0,1324.4,36.78Z"></path><path class="cls-3" d="M1347.91,30.71a6.65,6.65,0,0,1,4.46-.8A4.25,4.25,0,0,1,1355,31a4.44,4.44,0,0,1,1.06,2.7c.09,3.15-.12,6.32.28,9.45v.34h-1.49l-.21-1.89a5,5,0,0,1-1.81,1.66,6.27,6.27,0,0,1-3.2.52,4.65,4.65,0,0,1-3.46-1.64,4,4,0,0,1-.65-3.13,3.49,3.49,0,0,1,1.07-2,5.64,5.64,0,0,1,2.36-1.17,22.38,22.38,0,0,1,5.48-.43,5.2,5.2,0,0,0-.52-3.25,2.87,2.87,0,0,0-2.33-1.1,3.88,3.88,0,0,0-2.6.59,2.78,2.78,0,0,0-.88,1.88h-1.6A3.3,3.3,0,0,1,1347.91,30.71Zm2.67,6.06a5.08,5.08,0,0,0-2.62,1,2.74,2.74,0,0,0-.09,3.87,3.79,3.79,0,0,0,2.81.94,4.06,4.06,0,0,0,2.27-.7,3.63,3.63,0,0,0,1.24-2,12.66,12.66,0,0,0,.29-3.25A20.33,20.33,0,0,0,1350.58,36.77Z"></path><path class="cls-3" d="M1311.91,30.1c.54,0,1.07,0,1.6,0,.08.67.07,1.35.13,2a5.89,5.89,0,0,1,1.15-1.24,5.13,5.13,0,0,1,3.72-.82c0,.55,0,1.1,0,1.66a5.2,5.2,0,0,0-3,.21,2.73,2.73,0,0,0-1.44,1.36,6.87,6.87,0,0,0-.48,3.11c0,2.38,0,4.76,0,7.14H1312c0-3,0-5.94,0-8.9C1312,33.12,1311.85,31.61,1311.91,30.1Z"></path><path class="cls-3" d="M1340.23,30.08c.55,0,1.1,0,1.65,0,0,4.47,0,8.95,0,13.43h-1.65C1340.23,39,1340.22,34.56,1340.23,30.08Z"></path><path class="cls-3" d="M1275.4,30.08h1.65c0,2.66,0,5.32,0,8a6,6,0,0,0,.66,2.88,2.74,2.74,0,0,0,1.74,1.23,4,4,0,0,0,3.8-1,5.09,5.09,0,0,0,1.15-2.73,14.8,14.8,0,0,0,.09-2.21V30.09c.55,0,1.1,0,1.66,0,0,2.59,0,5.2,0,7.8,0,1.87,0,3.75.07,5.63-.54,0-1.07,0-1.61,0,0-.69,0-1.39,0-2.09a6.5,6.5,0,0,1-1.34,1.38,4.86,4.86,0,0,1-3,.85,5.8,5.8,0,0,1-2.69-.51A3.45,3.45,0,0,1,1276,41.6a7.29,7.29,0,0,1-.62-3.26C1275.4,35.59,1275.39,32.84,1275.4,30.08Z"></path><path class="cls-4" d="M21.31,11c.37-.27.69-.7,1.19-.68q3.26,0,6.51,0a1.34,1.34,0,0,1,1.32,1.52c0,2,0,4,0,5.93a1.93,1.93,0,0,1-.76,1.51c-2.52.05-5,.09-7.58,0l-.66-.74C21.31,16,21.34,13.51,21.31,11Z"></path><path class="cls-4" d="M8.52,16.82c.68-.63,1.26-1.49,2.2-1.71a3.75,3.75,0,0,1,1.68,1.22c1.16,1.21,2.38,2.37,3.56,3.57.35.4.86,1,.5,1.54a13.34,13.34,0,0,1-2.14,2.37c-.9.86-1.74,1.8-2.66,2.64a1.26,1.26,0,0,1-1.88-.11C8.18,24.76,6.6,23.16,5,21.57l-.12-.87A37.13,37.13,0,0,1,8.52,16.82Z"></path><path class="cls-4" d="M39.72,15.75a1.58,1.58,0,0,1,2.27,0c1.2,1.16,2.36,2.38,3.57,3.54a2.3,2.3,0,0,1,1,2.48c-1.53,1.4-2.93,2.94-4.43,4.37-.43.35-.94.81-1.55.62a7.64,7.64,0,0,1-2-1.65c-1.12-1.12-2.22-2.27-3.38-3.34-.07-.65-.18-1.43.4-1.89Z"></path><path d="M69.34,25.82a7.9,7.9,0,0,1,10.5.35,12.62,12.62,0,0,1,1.66,2.6A24.18,24.18,0,0,1,82,35.24c0,3.9,0,7.81,0,11.71-2.19,0-4.39,0-6.58,0q0-6.3,0-12.6a6.35,6.35,0,0,0-.87-3.85,3.69,3.69,0,0,0-4.37-.66,4.08,4.08,0,0,0-1.6,2.36,31.22,31.22,0,0,0-.39,6.9c0,2.63,0,5.25,0,7.88q-3.16-.07-6.33,0c.06-7.49,0-15,0-22.45h6.15c0,.9,0,1.8,0,2.7C68.54,26.77,69,26.31,69.34,25.82Z"></path><path d="M87.69,25.77a11.83,11.83,0,0,1,9.13-1.65,9.91,9.91,0,0,1,5.72,3.62,15.33,15.33,0,0,1,2.59,9.75c-5.24,0-10.48,0-15.72,0a5.35,5.35,0,0,0,3.18,4.59c2.14.73,4.91,0,5.93-2.12,2.13.19,4.27.38,6.41.45a10.86,10.86,0,0,1-5.35,6,13.4,13.4,0,0,1-10.68,0,10.32,10.32,0,0,1-5.63-7.17,14.15,14.15,0,0,1,1.16-10A10.78,10.78,0,0,1,87.69,25.77ZM92,29.29a5.11,5.11,0,0,0-2.6,3.44c3,0,6,0,9,0a4.79,4.79,0,0,0-1.37-2.86A5,5,0,0,0,92,29.29Z"></path><path d="M141.66,24.13c3.44-.61,7.34-.29,10.16,1.95a7.63,7.63,0,0,1,2.6,5.42c-2,0-3.92.22-5.89.26a6.75,6.75,0,0,0-.81-2.12l-1.05-.7a5.75,5.75,0,0,0-4.39.07c-.65.16-.77.85-1,1.39A2.58,2.58,0,0,0,143.15,32c3.54,1,7.64,1.16,10.43,3.86,1.9,2.14,1.8,5.38.6,7.84-1.36,2.19-3.91,3.15-6.33,3.62a16.73,16.73,0,0,1-7.11-.36,13.5,13.5,0,0,1-4.25-2.34,8.19,8.19,0,0,1-1.92-5.35c2,0,4-.15,6-.21a3.88,3.88,0,0,0,2.4,3.44,9.35,9.35,0,0,0,4.67-.08,2.41,2.41,0,0,0,.88-2.34,4.37,4.37,0,0,0-2-1.28c-2.75-.77-5.64-1.17-8.23-2.41-3.36-1.68-3.89-6.5-1.82-9.37A8,8,0,0,1,141.66,24.13Z"></path><path d="M103.35,24.53h6.52c1.15,4.68,2.32,9.36,3.38,14.07,1.16-4.7,2.35-9.38,3.51-14.07h5.61c1.2,4.68,2.33,9.39,3.53,14.07,1-4.71,2.29-9.37,3.36-14.07h6.52c-2.2,7.47-4.39,14.93-6.49,22.42-2,0-4,0-6,0-1.07-4.91-2.49-9.73-3.51-14.64l-.21-.39-.21,0,0,.26c-.95,5-2.36,9.83-3.47,14.76-2-.06-4,0-6,0C107.76,39.46,105.54,32,103.35,24.53Z"></path><path class="cls-5" d="M161.44,35.41c1.33-4.29,6.69-6.23,10.69-4.59a6.45,6.45,0,0,1,4.33,5.56c-1.5.1-3,.23-4.48.19a4.21,4.21,0,0,0-1-1.85,3.09,3.09,0,0,0-4.33.5,5.75,5.75,0,0,0-.92,3.88,5,5,0,0,0,1.19,3.57,3,3,0,0,0,4,.17,4.13,4.13,0,0,0,1.16-2.15,39.31,39.31,0,0,0,4.47.18,9,9,0,0,1-1.78,4c-2.85,3.37-8.52,3.31-11.64.37A9.8,9.8,0,0,1,161.44,35.41Z"></path><path class="cls-5" d="M184.73,30.28a8.2,8.2,0,0,1,7.59,3.19,9.53,9.53,0,0,1-.17,10.75c-3.11,4.21-10.44,4.35-13.49,0-2.61-3.77-2-9.77,1.86-12.47A9.51,9.51,0,0,1,184.73,30.28Zm-.52,3.93c-1.6.57-2.3,2.41-2.35,4s0,3.39,1.24,4.54a3.42,3.42,0,0,0,4.69.06,6.61,6.61,0,0,0,1.31-4.62,4.63,4.63,0,0,0-1.31-3.4A3.7,3.7,0,0,0,184.21,34.21Z"></path><path class="cls-5" d="M227.49,32.23c1.48-1.69,3.89-2,6-2s4.4.5,5.73,2.24c1.46,2,1,4.6,1.06,6.93.06,2.57-.23,5.22.57,7.71-1.56,0-3.13,0-4.7,0-.11-.51-.22-1-.32-1.53A8.52,8.52,0,0,1,232,47.39a6,6,0,0,1-6.27-2.69A5.17,5.17,0,0,1,227,38.41c2.16-1.46,4.9-1.4,7.38-1.83.67-.06,1.06-.65,1.47-1.1-.56-1.89-3-1.87-4.52-1.17-.7.25-.83,1.06-1.1,1.66q-2.08,0-4.17,0A6.35,6.35,0,0,1,227.49,32.23Zm3.67,8.13c-.78.22-1.09,1-1.51,1.65.34.68.68,1.53,1.52,1.7a4.28,4.28,0,0,0,4.35-1.7,9.87,9.87,0,0,0,.24-2.77C234.26,39.77,232.66,39.86,231.16,40.36Z"></path><path class="cls-5" d="M199,32.94a4.43,4.43,0,0,1,3.14-2.4,6.52,6.52,0,0,1,4.11.6,5.6,5.6,0,0,1,1.65,2,5.75,5.75,0,0,1,3.29-2.46c2.27-.5,5.14.1,6.3,2.31.91,2.13.6,4.49.65,6.73-.08,2.44.15,4.89-.11,7.31a19.07,19.07,0,0,1-4.53,0c-.24-2.32,0-4.67-.1-7-.07-1.54.33-3.3-.65-4.63-.66-.94-2-.81-2.93-.44a3.12,3.12,0,0,0-1.16,2.71q0,4.16,0,8.31c-.08.35.13.95-.33,1.11A22.16,22.16,0,0,1,204,47c-.26-2.42,0-4.87-.11-7.3-.08-1.45.36-3.13-.66-4.34a2.42,2.42,0,0,0-2.74-.56c-1.24.64-1.46,2.14-1.48,3.39,0,3,0,5.94,0,8.91h-4.59V30.8H199Q199,31.88,199,32.94Z"></path><path class="cls-5" d="M240.89,30.8h4.59q0,4.59,0,9.18a5,5,0,0,0,.62,2.83,2.82,2.82,0,0,0,2.77.65c1.35-.35,1.78-2,1.8-3.18,0-3.16,0-6.32,0-9.48h4.44V47.08h-4.29c0-.53,0-1.07,0-1.6a6.32,6.32,0,0,1-3.25,1.81c-1.72.27-3.77.13-5-1.21s-1.52-3.18-1.61-4.89C240.87,37.72,240.9,34.26,240.89,30.8Z"></path><path class="cls-5" d="M156.11,42.34h4.73a47.06,47.06,0,0,1-.09,4.75h-4.64Z"></path><path class="cls-5" d="M219.15,42.34h4.72c0,1.57,0,3.15,0,4.73h-4.64C219.09,45.51,219.14,43.92,219.15,42.34Z"></path><path class="cls-6" d="M0,32.82A1.15,1.15,0,0,1,1.2,31.63c2.17,0,4.34,0,6.51,0a1.34,1.34,0,0,1,1.35,1.55c0,2.07,0,4.15,0,6.21,0,.49-.43.81-.66,1.2-2.1,0-4.2,0-6.3,0a5.55,5.55,0,0,1-1.8-.28A11.36,11.36,0,0,1,0,36.71C0,35.41,0,34.11,0,32.82Z"></path><path class="cls-6" d="M119.38,32l.21,0,.21.39-.45-.1Z"></path><path class="cls-7" d="M42.82,31.93c1.55-.55,3.21-.27,4.82-.33,1.29,0,2.69-.25,3.85.47a39.66,39.66,0,0,1,.1,4.36,11.65,11.65,0,0,1-.32,4c-2.57.4-5.18.1-7.77.19l-.77-.69A44,44,0,0,1,42.82,31.93Z"></path><path class="cls-7" d="M40.32,45.3h1.06c1.81,1.92,3.87,3.63,5.49,5.72-.77,1.7-2.36,2.77-3.57,4.12-.75.68-1.37,1.68-2.45,1.82-1.08-.14-1.7-1.14-2.44-1.81-1.22-1.36-2.81-2.43-3.58-4.13C36.46,48.93,38.51,47.22,40.32,45.3Z"></path><path class="cls-8" d="M9.73,45.81a2.61,2.61,0,0,1,1.38-.6q2.85,2.72,5.57,5.57a3,3,0,0,1-.87,1.74c-1.34,1.32-2.66,2.67-4,4a1.34,1.34,0,0,1-2,0c-1.34-1.32-2.64-2.67-4-4-.34-.39-.86-.74-.87-1.3.07-.86.79-1.43,1.35-2C7.46,48.1,8.56,46.92,9.73,45.81Z"></path><path class="cls-8" d="M21.3,53.64a1.89,1.89,0,0,1,1.5-.78q3.11,0,6.23,0a1.47,1.47,0,0,1,1.3,1.61c0,2.05.06,4.11,0,6.17A1.27,1.27,0,0,1,29,61.85c-1.28.08-2.57,0-3.85,0a11.1,11.1,0,0,1-3.59-.28,5.3,5.3,0,0,1-.27-1.47C21.3,58,21.36,55.8,21.3,53.64Z"></path><path d="M884.08,12.21a10.23,10.23,0,0,1,7.56-4.48,9,9,0,0,1-1.5,5.86,10.92,10.92,0,0,1-4.32,3.91,6.86,6.86,0,0,1-3.37.63A9,9,0,0,1,884.08,12.21Z"></path><path d="M906.83,10.6h5.69l20.83,29.61a.4.4,0,0,0,.35.21q0-14.91,0-29.82c2,0,4.08,0,6.12,0q0,20.2,0,40.41h-5.65q-10.27-14.6-20.56-29.2c-.19-.22-.3-.61-.66-.6,0,9.93,0,19.86,0,29.79h-6.11Z"></path><path d="M883.45,20.07c2.34-.67,4.59-1.82,7.08-1.91a12.8,12.8,0,0,1,4.5.78,10.11,10.11,0,0,1,4.74,3.6c-.51.37-1,.7-1.52,1.1a9,9,0,0,0-3.16,5,10,10,0,0,0,1.22,7.47A10.53,10.53,0,0,0,900.94,40a26.48,26.48,0,0,1-5.43,9.22,9.72,9.72,0,0,1-1.67,1.47,5.36,5.36,0,0,1-4,.91c-1.62-.23-3.05-1.1-4.64-1.42a9.29,9.29,0,0,0-5.24.41,14.39,14.39,0,0,1-4.05,1.14,5.12,5.12,0,0,1-3.31-1.16,19.41,19.41,0,0,1-3.68-4.1,26.81,26.81,0,0,1-3.93-8,25.62,25.62,0,0,1-1.1-6.32v-1a15,15,0,0,1,1.53-6.59,11.45,11.45,0,0,1,3.8-4.37,10.66,10.66,0,0,1,6.42-1.89c2.3.17,4.36,1.34,6.57,1.86A2.14,2.14,0,0,0,883.45,20.07Z"></path><path d="M950.35,23a13.65,13.65,0,0,1,7.58-2,13.1,13.1,0,0,1,7.66,2.39,12.82,12.82,0,0,1,4.66,7,25,25,0,0,1,.69,7.37H950.12a9.6,9.6,0,0,0,1.74,6.06,7.23,7.23,0,0,0,5,2.73A8.21,8.21,0,0,0,963,45.07a5.79,5.79,0,0,0,1.85-2.71c1.92,0,3.84,0,5.75,0a9.94,9.94,0,0,1-3.13,5.8,13.58,13.58,0,0,1-8.2,3.36,15.53,15.53,0,0,1-8-1.36,11.89,11.89,0,0,1-5-4.57,16.86,16.86,0,0,1-2.25-7.81,19.55,19.55,0,0,1,1.52-9.19A12.81,12.81,0,0,1,950.35,23Zm2.36,4.8a8.68,8.68,0,0,0-2.56,5.77h14.74a8.27,8.27,0,0,0-2.39-5.83A7.34,7.34,0,0,0,952.71,27.79Z"></path><path d="M1023.91,21.23a17,17,0,0,1,6.2.15,10.81,10.81,0,0,1,5.88,3.26,9,9,0,0,1,2.18,5.62h-5.68a5.22,5.22,0,0,0-1.61-3.24,6.44,6.44,0,0,0-4.62-1.4,6,6,0,0,0-4.08,1.53,3.22,3.22,0,0,0,.74,5.22,15.18,15.18,0,0,0,4.42,1.39c1.6.38,3.22.7,4.8,1.16a10.7,10.7,0,0,1,5.23,3,6.89,6.89,0,0,1,1.46,4.31v.84a8.52,8.52,0,0,1-.67,2.67,9,9,0,0,1-4.29,4.32,16.21,16.21,0,0,1-8.29,1.49,13.09,13.09,0,0,1-8-3,9.44,9.44,0,0,1-3-6.2h6a6,6,0,0,0,1.28,2.79,5.9,5.9,0,0,0,3.93,1.75,9.89,9.89,0,0,0,4.61-.55,3.8,3.8,0,0,0,2.28-2.26,3.26,3.26,0,0,0-.65-3.24,6.53,6.53,0,0,0-2.94-1.43c-1.73-.42-3.47-.81-5.2-1.22a19.29,19.29,0,0,1-3.7-1.21,8.64,8.64,0,0,1-3.75-3.09,7.71,7.71,0,0,1-1-5.15,7.88,7.88,0,0,1,2.46-4.75A11.58,11.58,0,0,1,1023.91,21.23Z"></path><path d="M972.12,21.54h6c1.81,7.75,3.59,15.49,5.41,23.24a.52.52,0,0,0,.15-.27q3-11.49,6.08-23h5.83l6.09,23a.44.44,0,0,0,.19.29q2.72-11.61,5.4-23.23h6L1005.24,51H999q-2.9-10.21-5.75-20.46a9,9,0,0,0-.56-1.68c-2.1,7.37-4.11,14.76-6.18,22.14h-6.24Q976.16,36.28,972.12,21.54Z"></path><path class="cls-9" d="M643.61,0h1.49a15.06,15.06,0,0,1,7.17,2.26c.07,1.61.05,3.22,0,4.83-.8-.51-1.55-1.08-2.38-1.52a11.38,11.38,0,0,0-6.64-1.34,4.93,4.93,0,0,0-2.68,1.06,3.16,3.16,0,0,0,.21,4.78,17.77,17.77,0,0,0,3.91,1.73c2.37.93,5,1.61,6.83,3.43a7.48,7.48,0,0,1,2.18,5.46,7.27,7.27,0,0,1-2.18,5.63,10.83,10.83,0,0,1-7.33,2.57,15.4,15.4,0,0,1-8.84-2.45c0-1.64,0-3.28,0-4.92a19.27,19.27,0,0,0,3.27,2,12.71,12.71,0,0,0,6.77,1.08,4.87,4.87,0,0,0,3.14-1.46,3.55,3.55,0,0,0,.47-3.5,4.64,4.64,0,0,0-2.6-2.2c-1.94-.83-4-1.45-5.93-2.27a9.56,9.56,0,0,1-4.1-3.08,7.82,7.82,0,0,1-1.24-4.76,6.88,6.88,0,0,1,1.71-4.43A9.83,9.83,0,0,1,643.61,0Z"></path><path class="cls-9" d="M753.92,0h2a14.63,14.63,0,0,1,6.94,2.26c0,1.61,0,3.21,0,4.82A17.35,17.35,0,0,0,759,4.88a10.86,10.86,0,0,0-5.7-.58,3.69,3.69,0,0,0-2.91,2A3.25,3.25,0,0,0,751,9.68,6.11,6.11,0,0,0,753.22,11c1.69.65,3.41,1.27,5.1,1.92A9.78,9.78,0,0,1,763,16.28a8.45,8.45,0,0,1,1.23,5.62,7,7,0,0,1-2.57,4.78,11.12,11.12,0,0,1-6.83,2.19A15.62,15.62,0,0,1,746,26.45c-.06-1.65,0-3.29,0-4.94.55.38,1.08.77,1.64,1.13a12.83,12.83,0,0,0,8.72,1.9,4.13,4.13,0,0,0,3.23-2.06,3.49,3.49,0,0,0-.88-4.07,16,16,0,0,0-4.32-2c-2.37-.89-4.94-1.65-6.73-3.54a7.62,7.62,0,0,1-1.86-6,6.81,6.81,0,0,1,1.86-4.14A9.91,9.91,0,0,1,753.92,0Z"></path><path class="cls-9" d="M781.79,0h2a14.68,14.68,0,0,1,6.9,2.27c0,1.62,0,3.24,0,4.86a19.52,19.52,0,0,0-2.76-1.76,11.29,11.29,0,0,0-6.36-1.15,4.8,4.8,0,0,0-2.73,1.16A3.22,3.22,0,0,0,778.31,9a4.49,4.49,0,0,0,2.52,1.91c1.77.7,3.57,1.33,5.35,2a10.61,10.61,0,0,1,4.15,2.69,7.77,7.77,0,0,1,1.78,4.47v1.5a7.25,7.25,0,0,1-2.49,5,10.58,10.58,0,0,1-6.08,2.26,16.33,16.33,0,0,1-9-1.88c-.36-.22-.89-.43-.83-.95,0-1.49,0-3,0-4.48A15.31,15.31,0,0,0,779,24.23a11.84,11.84,0,0,0,5.58.21,3.77,3.77,0,0,0,2.88-2.23,3.6,3.6,0,0,0-.54-3.34,6.07,6.07,0,0,0-2.39-1.55C782.7,16.56,780.8,16,779,15.2a9.5,9.5,0,0,1-4.22-3.14,8.1,8.1,0,0,1-1.19-5.35A6.81,6.81,0,0,1,775.7,2.4,10.11,10.11,0,0,1,781.79,0Z"></path><path class="cls-9" d="M683.33.08c2.2,2,4.25,4.15,6.4,6.2l12.25,12c0-5.95,0-11.89,0-17.84,1.47,0,3,0,4.42,0q0,14.16,0,28.34c-4.93-4.83-9.78-9.74-14.68-14.6-1.33-1.3-2.59-2.65-4-3.9-.07,6,0,12.06,0,18.09-1.48,0-3,0-4.43,0,0-8.95,0-17.89,0-26.84C683.31,1.05,683.31.57,683.33.08Z"></path><path class="cls-9" d="M573.22.48q4.78,0,9.57,0a11.23,11.23,0,0,1,6.28,1.62,6.46,6.46,0,0,1,2.68,4,8.05,8.05,0,0,1-.64,5.44A6,6,0,0,1,588.56,14a10.43,10.43,0,0,1,1.84,1.13,6.92,6.92,0,0,1,2.43,5.39,7.63,7.63,0,0,1-2.2,5.62A9.8,9.8,0,0,1,584,28.43c-3.59,0-7.18,0-10.77,0Zm4.48,4.11c0,2.54,0,5.07,0,7.61,1.59.05,3.18,0,4.76,0a6.38,6.38,0,0,0,3.69-.84,3.31,3.31,0,0,0,1.36-2.49,3.78,3.78,0,0,0-1.07-3.3,5.93,5.93,0,0,0-3.81-1C581,4.58,579.34,4.55,577.7,4.59Zm0,11.55c0,2.73,0,5.46,0,8.18,1.87,0,3.74,0,5.61,0a5.73,5.73,0,0,0,3.56-.94,4.26,4.26,0,0,0,.85-5.42,4.52,4.52,0,0,0-3.89-1.83C581.79,16.12,579.75,16.14,577.7,16.14Z"></path><path class="cls-9" d="M602.71.52c1.53-.09,3.06,0,4.59,0,.05,5.54,0,11.08,0,16.62a9.32,9.32,0,0,0,1.47,5.45,5.37,5.37,0,0,0,3.76,2,7.08,7.08,0,0,0,4.68-.92,5.87,5.87,0,0,0,2.28-3.55,23.69,23.69,0,0,0,.38-5.77c0-4.62,0-9.25,0-13.87,1.53,0,3.06,0,4.58,0,0,5.65,0,11.31,0,17a12.26,12.26,0,0,1-2.71,8.21,10.33,10.33,0,0,1-7.17,3.2,11.31,11.31,0,0,1-8.8-2.81,11.87,11.87,0,0,1-3.1-8.43C602.71,11.92,602.72,6.22,602.71.52Z"></path><path class="cls-9" d="M665.58.49q2.29,0,4.59,0,0,14,0,27.93-2.29,0-4.59,0Q665.55,14.45,665.58.49Z"></path><path class="cls-9" d="M718.75.49q8.22,0,16.44,0c0,1.39,0,2.78,0,4.16-4,0-8,0-11.94,0q0,3.35,0,6.71c3.56,0,7.13,0,10.7,0,0,1.37,0,2.75,0,4.13-3.57,0-7.14,0-10.71,0,0,2.88,0,5.76,0,8.64,4,0,8,0,11.93,0,0,1.39,0,2.79,0,4.19q-8.22,0-16.44,0Q718.72,14.47,718.75.49Z"></path><path class="cls-9" d="M673.34,40.79h5c.06.88,0,1.76,0,2.65V68.06h-5.09C673.34,59,673.32,49.88,673.34,40.79Z"></path><path class="cls-9" d="M724.25,40.79h16.92c.07,1.35.05,2.7,0,4.05-4.1,0-8.2,0-12.29,0,0,2.17,0,4.35,0,6.52,3.68,0,7.36,0,11,0,0,1.33,0,2.65,0,4-3.68.06-7.36,0-11,0q0,4.2,0,8.4c4.09.07,8.19,0,12.28,0,.08,1.39,0,2.79,0,4.19h-17C724.24,59,724.2,49.88,724.25,40.79Z"></path><path class="cls-9" d="M590.19,40.81c1.69-.05,3.39,0,5.08,0,0,9.09,0,18.18,0,27.26h-5.09Q590.19,54.44,590.19,40.81Z"></path><path class="cls-9" d="M608.86,40.83c6.44,5.68,12.75,11.5,19.19,17.18,0-5.6,0-11.19,0-16.79,1.51,0,3,0,4.52,0,0,8.9,0,17.8,0,26.71-6.43-5.8-12.76-11.69-19.17-17.5,0,5.71,0,11.41,0,17.12-1.52,0-3,0-4.55,0C608.86,58.63,608.83,49.73,608.86,40.83Z"></path><path class="cls-9" d="M644.72,43.29a10.43,10.43,0,0,1,7.16-2.5A14.9,14.9,0,0,1,660,43V47.5a20.47,20.47,0,0,0-2.62-1.58,12,12,0,0,0-6.63-1.15,4.83,4.83,0,0,0-2.74,1.16,2.92,2.92,0,0,0-.33,3.55,4.9,4.9,0,0,0,2.35,1.58c1.72.63,3.46,1.21,5.19,1.83a11.3,11.3,0,0,1,4.23,2.44,6.42,6.42,0,0,1,1.78,3.33,7.05,7.05,0,0,1-5,8.61,31.67,31.67,0,0,1-3.47.79H651c-2.75-.33-5.63-.79-8-2.41q0-2.31,0-4.62a16.66,16.66,0,0,0,4.35,2.3,13.09,13.09,0,0,0,6.3.53,4.06,4.06,0,0,0,3-1.83,3.14,3.14,0,0,0-.63-3.72,13.31,13.31,0,0,0-4.22-2c-2.37-.86-4.93-1.5-6.85-3.23A6.94,6.94,0,0,1,644.72,43.29Z"></path><path class="cls-9" d="M692,40.81c2.53-.05,5.06,0,7.58,0a30.59,30.59,0,0,1,6.13.31,12.19,12.19,0,0,1,6.63,3.61,13.46,13.46,0,0,1,3.34,8.13,15.72,15.72,0,0,1-1.88,9.25,11.64,11.64,0,0,1-6.36,5.1,23.53,23.53,0,0,1-4.23.87H692C692,59,692,49.89,692,40.81Zm4.65,4c-.07,1.23,0,2.47,0,3.71,0,5.09,0,10.18,0,15.27,1.89,0,3.79,0,5.69,0a8.16,8.16,0,0,0,8.73-8.27A11.43,11.43,0,0,0,709.28,48a7.52,7.52,0,0,0-4.49-2.83,17.26,17.26,0,0,0-4-.26Z"></path><path class="cls-9" d="M754.8,40.81c3.2-.05,6.4,0,9.61,0a9.71,9.71,0,0,1,6.84,2.31,7.94,7.94,0,0,1,2.2,6,8,8,0,0,1-2,5.81,7.94,7.94,0,0,1-4.1,1.91c3.17,3.77,6.4,7.49,9.58,11.26h-5.09q-4.51-5.34-9-10.71c-.16-.14-.28-.37-.5-.37-1-.09-2,0-3,0,0,3.7,0,7.4,0,11.1h-4.49C754.79,59,754.76,49.89,754.8,40.81Zm4.49,4c0,2.77,0,5.54,0,8.3,1.54,0,3.08,0,4.61,0a6.32,6.32,0,0,0,3.21-.64c2.37-1.29,2.55-5.08.48-6.72a5.36,5.36,0,0,0-3.35-1C762.58,44.77,760.93,44.76,759.29,44.78Z"></path></g></g></svg>