<svg xmlns="http://www.w3.org/2000/svg" viewBox="0 0 96 96"><defs><style>.cls-1{fill:#25f4ee;}.cls-2{fill:#fff;}.cls-3{fill:#fe2c55;}.cls-4{fill:#fffc00;}</style></defs><g id="Layer_2" data-name="Layer 2"><g id="Layer_1-2" data-name="Layer 1"><g id="_25f4eeff" data-name="#25f4eeff"><path class="cls-1" d="M47.42,16.86c3.54,0,7.09,0,10.63,0,0,.89.1,1.77.2,2.65-2.56,0-5.12,0-7.69,0-.06,14.19,0,28.38,0,42.57A9,9,0,0,1,44.34,70a8.87,8.87,0,0,1-9.86-3.18,9.08,9.08,0,0,0,9.76-1.14,8.71,8.71,0,0,0,3.16-7C47.36,44.76,47.5,30.82,47.42,16.86Z"></path><path class="cls-1" d="M65,29.38a15.43,15.43,0,0,0,7.8,2.17c0,.79,0,1.59,0,2.38A14.32,14.32,0,0,1,65,29.38Z"></path><path class="cls-1" d="M24,45.87a19.36,19.36,0,0,1,17.12-6.24c0,.82,0,1.64,0,2.45a20,20,0,0,0-8.28,2.08A19.46,19.46,0,0,0,22.37,58.31a19.12,19.12,0,0,0,3.44,14.6l.12.54-.52-.18A19.54,19.54,0,0,1,19,59.46,19.3,19.3,0,0,1,24,45.87Z"></path></g><g id="_ffffffff" data-name="#ffffffff"><path class="cls-2" d="M50.56,19.53c2.57-.06,5.13,0,7.69,0h0A14.81,14.81,0,0,0,64.57,29l.43.35a14.32,14.32,0,0,0,7.82,4.55c0,2.73,0,5.45,0,8.18a25.52,25.52,0,0,1-14.74-4.67q0,10.65,0,21.29A19.57,19.57,0,0,1,52.5,72.45a19.24,19.24,0,0,1-14.1,5.82A19.55,19.55,0,0,1,27.88,75.2c-.81-.37-1.33-1.55-2.19-1.52l.24-.23-.12-.54a19.12,19.12,0,0,1-3.44-14.6A19.46,19.46,0,0,1,32.88,44.16a20,20,0,0,1,8.28-2.08c0,2.76,0,5.51,0,8.27a9,9,0,0,0-7.66,1.18,8.82,8.82,0,0,0,.79,15.13l.18.16A8.87,8.87,0,0,0,44.34,70a9,9,0,0,0,6.18-7.9C50.58,47.91,50.5,33.72,50.56,19.53Z"></path></g><g id="_fe2c55ff" data-name="#fe2c55ff"><path class="cls-3" d="M58.27,19.51c.94,0,1.89,0,2.83,0A15.62,15.62,0,0,0,64.57,29,14.81,14.81,0,0,1,58.27,19.51Z"></path><path class="cls-3" d="M72.82,33.93a18,18,0,0,0,3,.29c.05,3.54,0,7.09,0,10.64a26.29,26.29,0,0,1-12.58-3.41c-.75-.37-1.39-1-2.15-1.28,0,7.06,0,14.13,0,21.2A19.51,19.51,0,0,1,28.79,76.21c-.3-.34-.78-.55-.91-1A19.55,19.55,0,0,0,38.4,78.27a19.24,19.24,0,0,0,14.1-5.82,19.57,19.57,0,0,0,5.57-13.72q0-10.63,0-21.29a25.52,25.52,0,0,0,14.74,4.67C72.83,39.38,72.82,36.66,72.82,33.93Z"></path><path class="cls-3" d="M41.16,42.08a19.07,19.07,0,0,1,3.11.23c0,3.57,0,7.15,0,10.72a9,9,0,0,0-9.13,2.44,8.9,8.9,0,0,0-.84,11.19,8.82,8.82,0,0,1-.79-15.13,9,9,0,0,1,7.66-1.18C41.16,47.59,41.18,44.84,41.16,42.08Z"></path></g><g id="_000000ff" data-name="#000000ff"><path d="M37.19,31.65c4.28-6.82,15.24-7.37,20.51-1.45a12.6,12.6,0,0,1,2.4,4.09c.78,2.9.49,5.93.27,8.89,1.39-.39,2.93-1.2,4.33-.35a2.18,2.18,0,0,1,.53,3.63c-1.32,1.32-3.49,1.15-4.71,2.58,1.35,3.31,3.86,6.42,7.38,7.52.81.32,2,.25,2.41,1.18s-.17,2.06-1,2.58a16.56,16.56,0,0,1-4.83,1.51c-.28,1-.34,2.76-1.78,2.79s-3.08-.56-4.65-.31c-2,.2-3.43,1.82-5.13,2.73a9.48,9.48,0,0,1-9.56.09c-1.81-.94-3.29-2.67-5.42-2.83-1.58-.26-3.11.4-4.69.31-1.32-.21-1.38-1.77-1.62-2.81-1.83-.44-3.87-.64-5.35-1.92a1.79,1.79,0,0,1-.22-2.65c.88-.51,1.95-.57,2.87-1a12.4,12.4,0,0,0,6.33-6.79c.35-.59-.25-1-.72-1.23-1.44-.67-3.2-.92-4.21-2.27a2.18,2.18,0,0,1,.94-3.13c1.4-.88,2.93.1,4.36.35-.28-3.85-.78-8.16,1.55-11.52m-.26,3c-.82,3.05-.29,6.23-.18,9.34a5.56,5.56,0,0,1-3.57-.36c-1-.38-2.41.45-2,1.6,1.19,1.75,3.88,1.31,5.07,3a2.41,2.41,0,0,1-.16,2.09,13.31,13.31,0,0,1-7,7,8.38,8.38,0,0,0-2.65,1c1.33,1.92,3.89,2,6,2.44.28.94.57,1.87.82,2.81,2.4-.29,5.05-1,7.27.37s4.45,3.37,7.29,3.28c3,.29,5.41-1.69,7.75-3.23s5-.62,7.43-.51l.69-2.65c2.05-.53,4.48-.57,6-2.31-.55-.89-1.7-.79-2.56-1.16a12.93,12.93,0,0,1-6.45-5.78c-.55-1-1.32-2.17-.84-3.36,1.21-1.73,3.89-1.31,5.09-3a1.15,1.15,0,0,0-.62-1.44c-1.63-.86-3.27,1-5,.19.13-3.08.6-6.22-.15-9.25a10.72,10.72,0,0,0-5.87-6.48,13.88,13.88,0,0,0-8.35-.72A10.89,10.89,0,0,0,36.93,34.62Z"></path></g><g id="_fffc00ff" data-name="#fffc00ff"><path class="cls-4" d="M46.28,0h3.38A48.08,48.08,0,0,1,96,46.29v3.42A48.08,48.08,0,0,1,49.71,96H46.33A48.09,48.09,0,0,1,0,49.72V46.31A48.08,48.08,0,0,1,46.28,0m-9.1,31.65c-2.33,3.36-1.83,7.67-1.54,11.52-1.43-.25-3-1.24-4.36-.35A2.18,2.18,0,0,0,30.34,46c1,1.35,2.77,1.6,4.2,2.27.48.21,1.08.64.73,1.23a12.38,12.38,0,0,1-6.33,6.78c-.93.43-2,.48-2.87,1a1.8,1.8,0,0,0,.22,2.66c1.48,1.27,3.52,1.47,5.35,1.92.24,1,.3,2.6,1.62,2.81,1.57.09,3.11-.57,4.68-.31,2.14.16,3.62,1.89,5.43,2.83A9.48,9.48,0,0,0,52.92,67c1.71-.92,3.12-2.53,5.14-2.74,1.56-.24,3.09.3,4.64.31s1.51-1.75,1.79-2.79a16.12,16.12,0,0,0,4.82-1.51c.83-.52,1.56-1.61,1-2.57s-1.6-.86-2.42-1.19c-3.52-1.09-6-4.2-7.38-7.52,1.22-1.43,3.4-1.26,4.71-2.57a2.17,2.17,0,0,0-.53-3.63c-1.39-.85-2.93,0-4.33.34.23-3,.51-6-.27-8.88A12.57,12.57,0,0,0,57.7,30.2C52.43,24.28,41.47,24.83,37.18,31.65Z"></path></g><g id="_ffffffff-2" data-name="#ffffffff"><path class="cls-2" d="M36.93,34.62a10.89,10.89,0,0,1,8-7.08,13.88,13.88,0,0,1,8.35.72,10.72,10.72,0,0,1,5.87,6.48c.75,3,.28,6.17.15,9.25,1.71.78,3.35-1.05,5-.19a1.15,1.15,0,0,1,.62,1.44c-1.2,1.73-3.88,1.31-5.09,3-.48,1.19.29,2.36.84,3.36a12.93,12.93,0,0,0,6.45,5.78c.86.37,2,.27,2.56,1.16-1.48,1.74-3.91,1.78-6,2.31L63,63.54c-2.47-.11-5.17-.93-7.43.51s-4.75,3.52-7.75,3.23c-2.84.09-5-1.9-7.29-3.28s-4.87-.66-7.27-.37c-.25-.94-.54-1.87-.82-2.81-2.07-.46-4.63-.52-6-2.44a8.38,8.38,0,0,1,2.65-1,13.31,13.31,0,0,0,7-7,2.41,2.41,0,0,0,.16-2.09c-1.19-1.74-3.88-1.3-5.07-3-.39-1.15,1.05-2,2-1.6a5.56,5.56,0,0,0,3.57.36C36.64,40.85,36.11,37.67,36.93,34.62Z"></path></g></g></g></svg>