<svg xmlns="http://www.w3.org/2000/svg" viewBox="0 0 96 96.01"><defs><style>.cls-1{fill:#25f4ee;}.cls-2{fill:#fff;}.cls-3{fill:#fe2c55;}</style></defs><g id="Layer_2" data-name="Layer 2"><g id="Layer_1-2" data-name="Layer 1"><g id="_000000ff" data-name="#000000ff"><path d="M42.75.3a48.19,48.19,0,0,1,51.64,34c.62,1.42.38,3,.72,4.45a49.17,49.17,0,0,1,.2,17.53,13.81,13.81,0,0,0-.44,3.62,48.24,48.24,0,0,1-93.21.7A48.67,48.67,0,0,1,.5,41,48.13,48.13,0,0,1,42.75.3m4.67,16.57c.08,14-.07,27.9,0,41.87a8.76,8.76,0,0,1-3.17,6.95,9.09,9.09,0,0,1-9.75,1.14l-.19-.16A8.94,8.94,0,0,1,44.26,53c0-3.58,0-7.15,0-10.73a17.89,17.89,0,0,0-3.1-.22c0-.82,0-1.64,0-2.45A19.49,19.49,0,0,0,19,59.46,19.56,19.56,0,0,0,25.4,73.28l.52.17-.24.23c.86,0,1.38,1.16,2.19,1.53.14.46.61.67.92,1a19.49,19.49,0,0,0,27-1.29,19.36,19.36,0,0,0,5.37-13.55c0-7.07,0-14.14,0-21.21.77.34,1.4.91,2.15,1.29a26.17,26.17,0,0,0,12.59,3.4c0-3.54,0-7.09,0-10.64a18.07,18.07,0,0,1-3-.28c0-.8,0-1.59,0-2.38A15.48,15.48,0,0,1,65,29.38L64.56,29a15.62,15.62,0,0,1-3.46-9.51H58.25A25.85,25.85,0,0,1,58,16.87Q52.73,16.84,47.42,16.87Z"></path></g><g id="_25f4eeff" data-name="#25f4eeff"><path class="cls-1" d="M47.42,16.87q5.31,0,10.62,0a25.85,25.85,0,0,0,.21,2.64c-2.57,0-5.13,0-7.69,0-.07,14.18,0,28.38-.05,42.56A9,9,0,0,1,44.33,70a8.84,8.84,0,0,1-9.85-3.17,9.09,9.09,0,0,0,9.75-1.14,8.76,8.76,0,0,0,3.17-6.95C47.35,44.77,47.5,30.83,47.42,16.87Z"></path><path class="cls-1" d="M65,29.38a15.48,15.48,0,0,0,7.81,2.18c0,.79,0,1.58,0,2.38A14.43,14.43,0,0,1,65,29.38Z"></path><path class="cls-1" d="M24,45.88a19.34,19.34,0,0,1,17.12-6.24c0,.81,0,1.63,0,2.45a19.88,19.88,0,0,0-8.29,2.08A19.5,19.5,0,0,0,22.36,58.31,19.18,19.18,0,0,0,25.8,72.92l.12.53-.52-.17A19.56,19.56,0,0,1,19,59.46,19.34,19.34,0,0,1,24,45.88Z"></path></g><g id="_ffffffff" data-name="#ffffffff"><path class="cls-2" d="M50.56,19.54c2.56-.06,5.12,0,7.69,0h0A14.76,14.76,0,0,0,64.56,29l.43.35a14.43,14.43,0,0,0,7.82,4.56c0,2.72,0,5.45,0,8.17a25.54,25.54,0,0,1-14.74-4.66c0,7.09,0,14.19,0,21.29a19.6,19.6,0,0,1-5.58,13.71A19.23,19.23,0,0,1,38.4,78.28a19.67,19.67,0,0,1-10.53-3.07c-.81-.37-1.33-1.55-2.19-1.53l.24-.23-.12-.53a19.18,19.18,0,0,1-3.44-14.61A19.5,19.5,0,0,1,32.87,44.17a19.88,19.88,0,0,1,8.29-2.08c0,2.75,0,5.51,0,8.26a9.07,9.07,0,0,0-7.66,1.19,8.83,8.83,0,0,0,.78,15.13l.19.16A8.84,8.84,0,0,0,44.33,70a9,9,0,0,0,6.18-7.9C50.58,47.92,50.49,33.72,50.56,19.54Z"></path></g><g id="_fe2c55ff" data-name="#fe2c55ff"><path class="cls-3" d="M58.26,19.51H61.1A15.62,15.62,0,0,0,64.56,29,14.76,14.76,0,0,1,58.26,19.51Z"></path><path class="cls-3" d="M72.81,33.94a18.07,18.07,0,0,0,3,.28c0,3.55,0,7.1,0,10.64a26.17,26.17,0,0,1-12.59-3.4c-.75-.38-1.38-1-2.15-1.29,0,7.07,0,14.14,0,21.21a19.36,19.36,0,0,1-5.37,13.55,19.49,19.49,0,0,1-27,1.29c-.31-.34-.78-.55-.92-1A19.67,19.67,0,0,0,38.4,78.28a19.23,19.23,0,0,0,14.09-5.83,19.6,19.6,0,0,0,5.58-13.71c0-7.1,0-14.2,0-21.29A25.54,25.54,0,0,0,72.8,42.11C72.83,39.39,72.81,36.66,72.81,33.94Z"></path><path class="cls-3" d="M41.16,42.09a17.89,17.89,0,0,1,3.1.22c0,3.58,0,7.15,0,10.73a8.94,8.94,0,0,0-10,13.63,8.83,8.83,0,0,1-.78-15.13,9.07,9.07,0,0,1,7.66-1.19C41.15,47.6,41.17,44.84,41.16,42.09Z"></path></g></g></g></svg>